  0
SECTION
  2
HEADER
  9
$ACADVER
  1
AC1009
  9
$DWGCODEPAGE
  3
ansi_1252
  9
$INSBASE
 10
0.0
 20
0.0
 30
0.0
  9
$EXTMIN
 10
-304.8000000000001
 20
-150.8125
 30
0.0
  9
$EXTMAX
 10
304.8
 20
153.9875
 30
0.0
  9
$LIMMIN
 10
0.0
 20
0.0
  9
$LIMMAX
 10
12.0
 20
9.0
  9
$ORTHOMODE
 70
     0
  9
$REGENMODE
 70
     1
  9
$FILLMODE
 70
     1
  9
$QTEXTMODE
 70
     0
  9
$MIRRTEXT
 70
     1
  9
$DRAGMODE
 70
     2
  9
$LTSCALE
 40
1.0
  9
$OSMODE
 70
    37
  9
$ATTMODE
 70
     1
  9
$TEXTSIZE
 40
0.2
  9
$TRACEWID
 40
0.05
  9
$TEXTSTYLE
  7
STANDARD
  9
$CLAYER
  8
BLACK
  9
$CELTYPE
  6
BYLAYER
  9
$CECOLOR
 62
   256
  9
$DIMSCALE
 40
1.0
  9
$DIMASZ
 40
0.18
  9
$DIMEXO
 40
0.0625
  9
$DIMDLI
 40
0.38
  9
$DIMRND
 40
0.0
  9
$DIMDLE
 40
0.0
  9
$DIMEXE
 40
0.18
  9
$DIMTP
 40
0.0
  9
$DIMTM
 40
0.0
  9
$DIMTXT
 40
0.18
  9
$DIMCEN
 40
0.09
  9
$DIMTSZ
 40
0.0
  9
$DIMTOL
 70
     0
  9
$DIMLIM
 70
     0
  9
$DIMTIH
 70
     1
  9
$DIMTOH
 70
     1
  9
$DIMSE1
 70
     0
  9
$DIMSE2
 70
     0
  9
$DIMTAD
 70
     0
  9
$DIMZIN
 70
     0
  9
$DIMBLK
  1

  9
$DIMASO
 70
     1
  9
$DIMSHO
 70
     1
  9
$DIMPOST
  1

  9
$DIMAPOST
  1

  9
$DIMALT
 70
     0
  9
$DIMALTD
 70
     2
  9
$DIMALTF
 40
25.4
  9
$DIMLFAC
 40
1.0
  9
$DIMTOFL
 70
     0
  9
$DIMTVP
 40
0.0
  9
$DIMTIX
 70
     0
  9
$DIMSOXD
 70
     0
  9
$DIMSAH
 70
     0
  9
$DIMBLK1
  1

  9
$DIMBLK2
  1

  9
$DIMSTYLE
  2
STANDARD
  9
$DIMCLRD
 70
     0
  9
$DIMCLRE
 70
     0
  9
$DIMCLRT
 70
     0
  9
$DIMTFAC
 40
1.0
  9
$DIMGAP
 40
0.09
  9
$LUNITS
 70
     2
  9
$LUPREC
 70
     3
  9
$SKETCHINC
 40
0.1
  9
$FILLETRAD
 40
0.5
  9
$AUNITS
 70
     0
  9
$AUPREC
 70
     0
  9
$MENU
  1
.
  9
$ELEVATION
 40
0.0
  9
$PELEVATION
 40
0.0
  9
$THICKNESS
 40
0.0
  9
$LIMCHECK
 70
     0
  9
$CHAMFERA
 40
0.0
  9
$CHAMFERB
 40
0.0
  9
$SKPOLY
 70
     0
  9
$TDCREATE
 40
2457092.581247951
  9
$TDUPDATE
 40
2457092.581267268
  9
$TDINDWG
 40
0.0000000116
  9
$TDUSRTIMER
 40
0.0000000116
  9
$USRTIMER
 70
     1
  9
$ANGBASE
 50
0.0
  9
$ANGDIR
 70
     0
  9
$PDMODE
 70
     0
  9
$PDSIZE
 40
0.0
  9
$PLINEWID
 40
0.0
  9
$COORDS
 70
     1
  9
$SPLFRAME
 70
     0
  9
$SPLINETYPE
 70
     6
  9
$SPLINESEGS
 70
     8
  9
$ATTDIA
 70
     0
  9
$ATTREQ
 70
     1
  9
$HANDLING
 70
     1
  9
$HANDSEED
  5
70E
  9
$SURFTAB1
 70
     6
  9
$SURFTAB2
 70
     6
  9
$SURFTYPE
 70
     6
  9
$SURFU
 70
     6
  9
$SURFV
 70
     6
  9
$UCSNAME
  2

  9
$UCSORG
 10
0.0
 20
0.0
 30
0.0
  9
$UCSXDIR
 10
1.0
 20
0.0
 30
0.0
  9
$UCSYDIR
 10
0.0
 20
1.0
 30
0.0
  9
$PUCSNAME
  2

  9
$PUCSORG
 10
0.0
 20
0.0
 30
0.0
  9
$PUCSXDIR
 10
1.0
 20
0.0
 30
0.0
  9
$PUCSYDIR
 10
0.0
 20
1.0
 30
0.0
  9
$USERI1
 70
     0
  9
$USERI2
 70
     0
  9
$USERI3
 70
     0
  9
$USERI4
 70
     0
  9
$USERI5
 70
     0
  9
$USERR1
 40
0.0
  9
$USERR2
 40
0.0
  9
$USERR3
 40
0.0
  9
$USERR4
 40
0.0
  9
$USERR5
 40
0.0
  9
$WORLDVIEW
 70
     1
  9
$SHADEDGE
 70
     3
  9
$SHADEDIF
 70
    70
  9
$TILEMODE
 70
     1
  9
$MAXACTVP
 70
    64
  9
$PLIMCHECK
 70
     0
  9
$PEXTMIN
 10
1.000000000000000E+20
 20
1.000000000000000E+20
 30
1.000000000000000E+20
  9
$PEXTMAX
 10
-1.000000000000000E+20
 20
-1.000000000000000E+20
 30
-1.000000000000000E+20
  9
$PLIMMIN
 10
0.0
 20
0.0
  9
$PLIMMAX
 10
12.0
 20
9.0
  9
$UNITMODE
 70
     0
  9
$VISRETAIN
 70
     1
  9
$PLINEGEN
 70
     0
  9
$PSLTSCALE
 70
     1
  0
ENDSEC
  0
SECTION
  2
TABLES
  0
TABLE
  2
VPORT
 70
     1
  0
VPORT
  2
*ACTIVE
 70
     0
 10
0.0
 20
0.0
 11
1.0
 21
1.0
 12
-0.0000000000000568
 22
1.587500000000006
 13
0.0
 23
0.0
 14
0.5
 24
0.5
 15
0.5
 25
0.5
 16
0.0
 26
0.0
 36
1.0
 17
0.0
 27
0.0
 37
0.0
 40
310.896
 41
2.0
 42
50.0
 43
0.0
 44
0.0
 50
0.0
 51
0.0
 71
     0
 72
   100
 73
     1
 74
     3
 75
     0
 76
     0
 77
     0
 78
     0
  0
ENDTAB
  0
TABLE
  2
LTYPE
 70
     1
  0
LTYPE
  2
CONTINUOUS
 70
     0
  3
Solid line
 72
    65
 73
     0
 40
0.0
  0
ENDTAB
  0
TABLE
  2
LAYER
 70
     2
  0
LAYER
  2
0
 70
     0
 62
     7
  6
CONTINUOUS
  0
LAYER
  2
BLACK
 70
     0
 62
   192
  6
CONTINUOUS
  0
ENDTAB
  0
TABLE
  2
STYLE
 70
     1
  0
STYLE
  2
STANDARD
 70
     0
 40
0.0
 41
1.0
 50
0.0
 71
     0
 42
0.2
  3
txt
  4

  0
ENDTAB
  0
TABLE
  2
VIEW
 70
     0
  0
ENDTAB
  0
TABLE
  2
UCS
 70
     0
  0
ENDTAB
  0
TABLE
  2
APPID
 70
     1
  0
APPID
  2
ACAD
 70
     0
  0
ENDTAB
  0
TABLE
  2
DIMSTYLE
 70
     1
  0
DIMSTYLE
  2
STANDARD
 70
     0
  3

  4

  5

  6

  7

 40
1.0
 41
0.18
 42
0.0625
 43
0.38
 44
0.18
 45
0.0
 46
0.0
 47
0.0
 48
0.0
140
0.18
141
0.09
142
0.0
143
25.4
144
1.0
145
0.0
146
1.0
147
0.09
 71
     0
 72
     0
 73
     1
 74
     1
 75
     0
 76
     0
 77
     0
 78
     0
170
     0
171
     2
172
     0
173
     0
174
     0
175
     0
176
     0
177
     0
178
     0
  0
ENDTAB
  0
ENDSEC
  0
SECTION
  2
BLOCKS
  0
BLOCK
  8
0
  2
$MODEL_SPACE
 70
     0
 10
0.0
 20
0.0
 30
0.0
  3
$MODEL_SPACE
  1

  0
ENDBLK
  5
21
  8
0
  0
BLOCK
 67
     1
  8
0
  2
$PAPER_SPACE
 70
     0
 10
0.0
 20
0.0
 30
0.0
  3
$PAPER_SPACE
  1

  0
ENDBLK
  5
1D
 67
     1
  8
0
  0
ENDSEC
  0
SECTION
  2
ENTITIES
  0
POLYLINE
  5
6F
  8
BLACK
 66
     1
 10
0.0
 20
0.0
 30
0.0
 70
     1
  0
VERTEX
  5
70
  8
BLACK
 10
183.9087375462838
 20
86.58541271660363
 30
0.0
  0
VERTEX
  5
71
  8
BLACK
 10
191.4337375462838
 20
86.58541271660363
 30
0.0
  0
VERTEX
  5
72
  8
BLACK
 10
191.5228980345811
 20
86.58408712554454
 30
0.0
  0
VERTEX
  5
73
  8
BLACK
 10
191.6134464220792
 20
86.58001926142082
 30
0.0
  0
VERTEX
  5
74
  8
BLACK
 10
191.7051283298377
 20
86.57308018949462
 30
0.0
  0
VERTEX
  5
75
  8
BLACK
 10
191.7976636511081
 20
86.56315320782575
 30
0.0
  0
VERTEX
  5
76
  8
BLACK
 10
191.8907478710967
 20
86.55013631799397
 30
0.0
  0
VERTEX
  5
77
  8
BLACK
 10
191.9840539759746
 20
86.53394466085301
 30
0.0
  0
VERTEX
  5
78
  8
BLACK
 10
192.0772349657144
 20
86.51451284839256
 30
0.0
  0
VERTEX
  5
79
  8
BLACK
 10
192.1236653937002
 20
86.5035673093202
 30
0.0
  0
VERTEX
  5
7A
  8
BLACK
 10
192.1699269654076
 20
86.49179711802022
 30
0.0
  0
VERTEX
  5
7B
  8
BLACK
 10
192.2159721640433
 20
86.47920049524632
 30
0.0
  0
VERTEX
  5
7C
  8
BLACK
 10
192.2617529073535
 20
86.46577723361266
 30
0.0
  0
VERTEX
  5
7D
  8
BLACK
 10
192.3072206900317
 20
86.45152873796759
 30
0.0
  0
VERTEX
  5
7E
  8
BLACK
 10
192.3523267323958
 20
86.4364580590433
 30
0.0
  0
VERTEX
  5
7F
  8
BLACK
 10
192.39702213452
 20
86.42056991992511
 30
0.0
  0
VERTEX
  5
80
  8
BLACK
 10
192.4412580349221
 20
86.40387073493355
 30
0.0
  0
VERTEX
  5
81
  8
BLACK
 10
192.4849857728391
 20
86.38636862056863
 30
0.0
  0
VERTEX
  5
82
  8
BLACK
 10
192.5281570530541
 20
86.3680733982285
 30
0.0
  0
VERTEX
  5
83
  8
BLACK
 10
192.5707241121889
 20
86.34899658848205
 30
0.0
  0
VERTEX
  5
84
  8
BLACK
 10
192.6126398853295
 20
86.32915139674898
 30
0.0
  0
VERTEX
  5
85
  8
BLACK
 10
192.6538581718253
 20
86.30855269031669
 30
0.0
  0
VERTEX
  5
86
  8
BLACK
 10
192.6943337990823
 20
86.28721696670344
 30
0.0
  0
VERTEX
  5
87
  8
BLACK
 10
192.7340227831695
 20
86.26516231345853
 30
0.0
  0
VERTEX
  5
88
  8
BLACK
 10
192.7728824850682
 20
86.24240835957131
 30
0.0
  0
VERTEX
  5
89
  8
BLACK
 10
192.8108717614185
 20
86.21897621874285
 30
0.0
  0
VERTEX
  5
8A
  8
BLACK
 10
192.8479511086569
 20
86.19488842485235
 30
0.0
  0
VERTEX
  5
8B
  8
BLACK
 10
192.8840827994927
 20
86.17016886002673
 30
0.0
  0
VERTEX
  5
8C
  8
BLACK
 10
192.9192310107354
 20
86.14484267579323
 30
0.0
  0
VERTEX
  5
8D
  8
BLACK
 10
192.9533619415662
 20
86.11893620786074
 30
0.0
  0
VERTEX
  5
8E
  8
BLACK
 10
192.9864439214335
 20
86.09247688513594
 30
0.0
  0
VERTEX
  5
8F
  8
BLACK
 10
193.0184475068534
 20
86.06549313363125
 30
0.0
  0
VERTEX
  5
90
  8
BLACK
 10
193.0493455665019
 20
86.03801427596734
 30
0.0
  0
VERTEX
  5
91
  8
BLACK
 10
193.0791133541015
 20
86.01007042720694
 30
0.0
  0
VERTEX
  5
92
  8
BLACK
 10
193.1077285687211
 20
85.98169238778378
 30
0.0
  0
VERTEX
  5
93
  8
BLACK
 10
193.1351714022314
 20
85.9529115343071
 30
0.0
  0
VERTEX
  5
94
  8
BLACK
 10
193.1614245737787
 20
85.92375970902911
 30
0.0
  0
VERTEX
  5
95
  8
BLACK
 10
193.186473351266
 20
85.89426910876101
 30
0.0
  0
VERTEX
  5
96
  8
BLACK
 10
193.2103055599433
 20
85.86447217401158
 30
0.0
  0
VERTEX
  5
97
  8
BLACK
 10
193.2329115783297
 20
85.83440147910214
 30
0.0
  0
VERTEX
  5
98
  8
BLACK
 10
193.2542843217973
 20
85.80408962398337
 30
0.0
  0
VERTEX
  5
99
  8
BLACK
 10
193.2744192142478
 20
85.77356912844319
 30
0.0
  0
VERTEX
  5
9A
  8
BLACK
 10
193.2933141484087
 20
85.7428723293527
 30
0.0
  0
VERTEX
  5
9B
  8
BLACK
 10
193.3109694353587
 20
85.71203128154778
 30
0.0
  0
VERTEX
  5
9C
  8
BLACK
 10
193.3273877439672
 20
85.68107766289059
 30
0.0
  0
VERTEX
  5
9D
  8
BLACK
 10
193.3425740309953
 20
85.65004268399824
 30
0.0
  0
VERTEX
  5
9E
  8
BLACK
 10
193.3565354626579
 20
85.61895700306403
 30
0.0
  0
VERTEX
  5
9F
  8
BLACK
 10
193.3692813284874
 20
85.5878506461349
 30
0.0
  0
VERTEX
  5
A0
  8
BLACK
 10
193.3808229483693
 20
85.55675293314546
 30
0.0
  0
VERTEX
  5
A1
  8
BLACK
 10
193.3911735736363
 20
85.52569240994434
 30
0.0
  0
VERTEX
  5
A2
  8
BLACK
 10
193.400348283117
 20
85.49469678648639
 30
0.0
  0
VERTEX
  5
A3
  8
BLACK
 10
193.4083638750328
 20
85.46379288130343
 30
0.0
  0
VERTEX
  5
A4
  8
BLACK
 10
193.4152387556203
 20
85.43300657230617
 30
0.0
  0
VERTEX
  5
A5
  8
BLACK
 10
193.4209928253413
 20
85.40236275391536
 30
0.0
  0
VERTEX
  5
A6
  8
BLACK
 10
193.4256473635096
 20
85.37188530046711
 30
0.0
  0
VERTEX
  5
A7
  8
BLACK
 10
193.4292249121287
 20
85.34159703578936
 30
0.0
  0
VERTEX
  5
A8
  8
BLACK
 10
193.4317491596951
 20
85.3115197088017
 30
0.0
  0
VERTEX
  5
A9
  8
BLACK
 10
193.4332448256709
 20
85.28167397495227
 30
0.0
  0
VERTEX
  5
AA
  8
BLACK
 10
193.4337375462838
 20
85.25207938327014
 30
0.0
  0
VERTEX
  5
AB
  8
BLACK
 10
193.4337375462838
 20
83.91874604993666
 30
0.0
  0
VERTEX
  5
AC
  8
BLACK
 10
193.4332448256709
 20
83.88915145825452
 30
0.0
  0
VERTEX
  5
AD
  8
BLACK
 10
193.4317491596951
 20
83.85930572440512
 30
0.0
  0
VERTEX
  5
AE
  8
BLACK
 10
193.4292249121287
 20
83.82922839741747
 30
0.0
  0
VERTEX
  5
AF
  8
BLACK
 10
193.4256473635096
 20
83.79894013273974
 30
0.0
  0
VERTEX
  5
B0
  8
BLACK
 10
193.4209928253413
 20
83.76846267929153
 30
0.0
  0
VERTEX
  5
B1
  8
BLACK
 10
193.4152387556203
 20
83.73781886090067
 30
0.0
  0
VERTEX
  5
B2
  8
BLACK
 10
193.4083638750328
 20
83.7070325519034
 30
0.0
  0
VERTEX
  5
B3
  8
BLACK
 10
193.400348283117
 20
83.67612864672047
 30
0.0
  0
VERTEX
  5
B4
  8
BLACK
 10
193.3911735736363
 20
83.64513302326256
 30
0.0
  0
VERTEX
  5
B5
  8
BLACK
 10
193.3808229483693
 20
83.6140725000614
 30
0.0
  0
VERTEX
  5
B6
  8
BLACK
 10
193.3692813284874
 20
83.58297478707195
 30
0.0
  0
VERTEX
  5
B7
  8
BLACK
 10
193.3565354626579
 20
83.55186843014282
 30
0.0
  0
VERTEX
  5
B8
  8
BLACK
 10
193.3425740309953
 20
83.52078274920859
 30
0.0
  0
VERTEX
  5
B9
  8
BLACK
 10
193.3273877439672
 20
83.48974777031628
 30
0.0
  0
VERTEX
  5
BA
  8
BLACK
 10
193.3109694353587
 20
83.4587941516591
 30
0.0
  0
VERTEX
  5
BB
  8
BLACK
 10
193.2933141484087
 20
83.42795310385416
 30
0.0
  0
VERTEX
  5
BC
  8
BLACK
 10
193.2744192142478
 20
83.39725630476373
 30
0.0
  0
VERTEX
  5
BD
  8
BLACK
 10
193.2542843217973
 20
83.36673580922356
 30
0.0
  0
VERTEX
  5
BE
  8
BLACK
 10
193.2329115783297
 20
83.33642395410477
 30
0.0
  0
VERTEX
  5
BF
  8
BLACK
 10
193.2103055599433
 20
83.30635325919533
 30
0.0
  0
VERTEX
  5
C0
  8
BLACK
 10
193.186473351266
 20
83.27655632444589
 30
0.0
  0
VERTEX
  5
C1
  8
BLACK
 10
193.1614245737787
 20
83.2470657241778
 30
0.0
  0
VERTEX
  5
C2
  8
BLACK
 10
193.1351714022314
 20
83.21791389889982
 30
0.0
  0
VERTEX
  5
C3
  8
BLACK
 10
193.1077285687211
 20
83.18913304542313
 30
0.0
  0
VERTEX
  5
C4
  8
BLACK
 10
193.0791133541015
 20
83.16075500599999
 30
0.0
  0
VERTEX
  5
C5
  8
BLACK
 10
193.0493455665019
 20
83.13281115723959
 30
0.0
  0
VERTEX
  5
C6
  8
BLACK
 10
193.0184475068534
 20
83.10533229957572
 30
0.0
  0
VERTEX
  5
C7
  8
BLACK
 10
192.9864439214335
 20
83.07834854807105
 30
0.0
  0
VERTEX
  5
C8
  8
BLACK
 10
192.9533619415662
 20
83.05188922534623
 30
0.0
  0
VERTEX
  5
C9
  8
BLACK
 10
192.9192310107354
 20
83.02598275741374
 30
0.0
  0
VERTEX
  5
CA
  8
BLACK
 10
192.8840827994927
 20
83.00065657318022
 30
0.0
  0
VERTEX
  5
CB
  8
BLACK
 10
192.8479511086569
 20
82.9759370083546
 30
0.0
  0
VERTEX
  5
CC
  8
BLACK
 10
192.8108717614185
 20
82.9518492144641
 30
0.0
  0
VERTEX
  5
CD
  8
BLACK
 10
192.7728824850682
 20
82.92841707363566
 30
0.0
  0
VERTEX
  5
CE
  8
BLACK
 10
192.7340227831695
 20
82.90566311974845
 30
0.0
  0
VERTEX
  5
CF
  8
BLACK
 10
192.6943337990823
 20
82.88360846650355
 30
0.0
  0
VERTEX
  5
D0
  8
BLACK
 10
192.6538581718253
 20
82.86227274289033
 30
0.0
  0
VERTEX
  5
D1
  8
BLACK
 10
192.6126398853295
 20
82.84167403645799
 30
0.0
  0
VERTEX
  5
D2
  8
BLACK
 10
192.5707241121889
 20
82.8218288447249
 30
0.0
  0
VERTEX
  5
D3
  8
BLACK
 10
192.5281570530541
 20
82.80275203497845
 30
0.0
  0
VERTEX
  5
D4
  8
BLACK
 10
192.4849857728391
 20
82.78445681263833
 30
0.0
  0
VERTEX
  5
D5
  8
BLACK
 10
192.4412580349221
 20
82.7669546982734
 30
0.0
  0
VERTEX
  5
D6
  8
BLACK
 10
192.39702213452
 20
82.75025551328183
 30
0.0
  0
VERTEX
  5
D7
  8
BLACK
 10
192.3523267323958
 20
82.73436737416364
 30
0.0
  0
VERTEX
  5
D8
  8
BLACK
 10
192.3072206900317
 20
82.71929669523936
 30
0.0
  0
VERTEX
  5
D9
  8
BLACK
 10
192.2617529073535
 20
82.7050481995943
 30
0.0
  0
VERTEX
  5
DA
  8
BLACK
 10
192.2159721640433
 20
82.69162493796064
 30
0.0
  0
VERTEX
  5
DB
  8
BLACK
 10
192.1699269654076
 20
82.67902831518674
 30
0.0
  0
VERTEX
  5
DC
  8
BLACK
 10
192.1236653937002
 20
82.66725812388677
 30
0.0
  0
VERTEX
  5
DD
  8
BLACK
 10
192.0772349657144
 20
82.6563125848144
 30
0.0
  0
VERTEX
  5
DE
  8
BLACK
 10
191.9840539759746
 20
82.63688077235395
 30
0.0
  0
VERTEX
  5
DF
  8
BLACK
 10
191.8907478710967
 20
82.620689115213
 30
0.0
  0
VERTEX
  5
E0
  8
BLACK
 10
191.7976636511081
 20
82.60767222538122
 30
0.0
  0
VERTEX
  5
E1
  8
BLACK
 10
191.7051283298377
 20
82.5977452437123
 30
0.0
  0
VERTEX
  5
E2
  8
BLACK
 10
191.6134464220792
 20
82.59080617178613
 30
0.0
  0
VERTEX
  5
E3
  8
BLACK
 10
191.5228980345811
 20
82.58673830766239
 30
0.0
  0
VERTEX
  5
E4
  8
BLACK
 10
191.4337375462838
 20
82.58541271660329
 30
0.0
  0
VERTEX
  5
E5
  8
BLACK
 10
183.9087375462838
 20
82.58541271660329
 30
0.0
  0
VERTEX
  5
E6
  8
BLACK
 10
183.8195770579865
 20
82.58673830766239
 30
0.0
  0
VERTEX
  5
E7
  8
BLACK
 10
183.7290286704884
 20
82.59080617178613
 30
0.0
  0
VERTEX
  5
E8
  8
BLACK
 10
183.6373467627298
 20
82.5977452437123
 30
0.0
  0
VERTEX
  5
E9
  8
BLACK
 10
183.5448114414595
 20
82.60767222538122
 30
0.0
  0
VERTEX
  5
EA
  8
BLACK
 10
183.4517272214709
 20
82.620689115213
 30
0.0
  0
VERTEX
  5
EB
  8
BLACK
 10
183.3584211165931
 20
82.63688077235395
 30
0.0
  0
VERTEX
  5
EC
  8
BLACK
 10
183.2652401268533
 20
82.6563125848144
 30
0.0
  0
VERTEX
  5
ED
  8
BLACK
 10
183.2188096988675
 20
82.66725812388677
 30
0.0
  0
VERTEX
  5
EE
  8
BLACK
 10
183.1725481271601
 20
82.67902831518674
 30
0.0
  0
VERTEX
  5
EF
  8
BLACK
 10
183.1265029285244
 20
82.69162493796064
 30
0.0
  0
VERTEX
  5
F0
  8
BLACK
 10
183.0807221852142
 20
82.7050481995943
 30
0.0
  0
VERTEX
  5
F1
  8
BLACK
 10
183.035254402536
 20
82.71929669523936
 30
0.0
  0
VERTEX
  5
F2
  8
BLACK
 10
182.9901483601718
 20
82.73436737416364
 30
0.0
  0
VERTEX
  5
F3
  8
BLACK
 10
182.9454529580476
 20
82.75025551328183
 30
0.0
  0
VERTEX
  5
F4
  8
BLACK
 10
182.9012170576455
 20
82.7669546982734
 30
0.0
  0
VERTEX
  5
F5
  8
BLACK
 10
182.8574893197286
 20
82.78445681263833
 30
0.0
  0
VERTEX
  5
F6
  8
BLACK
 10
182.8143180395135
 20
82.80275203497845
 30
0.0
  0
VERTEX
  5
F7
  8
BLACK
 10
182.7717509803788
 20
82.8218288447249
 30
0.0
  0
VERTEX
  5
F8
  8
BLACK
 10
182.7298352072382
 20
82.84167403645799
 30
0.0
  0
VERTEX
  5
F9
  8
BLACK
 10
182.6886169207424
 20
82.86227274289033
 30
0.0
  0
VERTEX
  5
FA
  8
BLACK
 10
182.6481412934854
 20
82.88360846650355
 30
0.0
  0
VERTEX
  5
FB
  8
BLACK
 10
182.6084523093982
 20
82.90566311974845
 30
0.0
  0
VERTEX
  5
FC
  8
BLACK
 10
182.5695926074995
 20
82.92841707363566
 30
0.0
  0
VERTEX
  5
FD
  8
BLACK
 10
182.5316033311492
 20
82.9518492144641
 30
0.0
  0
VERTEX
  5
FE
  8
BLACK
 10
182.4945239839107
 20
82.9759370083546
 30
0.0
  0
VERTEX
  5
FF
  8
BLACK
 10
182.458392293075
 20
83.00065657318022
 30
0.0
  0
VERTEX
  5
100
  8
BLACK
 10
182.4232440818323
 20
83.02598275741374
 30
0.0
  0
VERTEX
  5
101
  8
BLACK
 10
182.3891131510016
 20
83.05188922534623
 30
0.0
  0
VERTEX
  5
102
  8
BLACK
 10
182.3560311711342
 20
83.07834854807105
 30
0.0
  0
VERTEX
  5
103
  8
BLACK
 10
182.3240275857143
 20
83.10533229957572
 30
0.0
  0
VERTEX
  5
104
  8
BLACK
 10
182.2931295260658
 20
83.13281115723959
 30
0.0
  0
VERTEX
  5
105
  8
BLACK
 10
182.2633617384662
 20
83.16075500599999
 30
0.0
  0
VERTEX
  5
106
  8
BLACK
 10
182.2347465238465
 20
83.18913304542313
 30
0.0
  0
VERTEX
  5
107
  8
BLACK
 10
182.2073036903363
 20
83.21791389889982
 30
0.0
  0
VERTEX
  5
108
  8
BLACK
 10
182.1810505187889
 20
83.2470657241778
 30
0.0
  0
VERTEX
  5
109
  8
BLACK
 10
182.1560017413016
 20
83.27655632444589
 30
0.0
  0
VERTEX
  5
10A
  8
BLACK
 10
182.1321695326243
 20
83.30635325919533
 30
0.0
  0
VERTEX
  5
10B
  8
BLACK
 10
182.1095635142379
 20
83.33642395410477
 30
0.0
  0
VERTEX
  5
10C
  8
BLACK
 10
182.0881907707704
 20
83.36673580922356
 30
0.0
  0
VERTEX
  5
10D
  8
BLACK
 10
182.0680558783199
 20
83.39725630476373
 30
0.0
  0
VERTEX
  5
10E
  8
BLACK
 10
182.049160944159
 20
83.42795310385416
 30
0.0
  0
VERTEX
  5
10F
  8
BLACK
 10
182.031505657209
 20
83.4587941516591
 30
0.0
  0
VERTEX
  5
110
  8
BLACK
 10
182.0150873486005
 20
83.48974777031628
 30
0.0
  0
VERTEX
  5
111
  8
BLACK
 10
181.9999010615723
 20
83.52078274920859
 30
0.0
  0
VERTEX
  5
112
  8
BLACK
 10
181.9859396299098
 20
83.55186843014282
 30
0.0
  0
VERTEX
  5
113
  8
BLACK
 10
181.9731937640802
 20
83.58297478707195
 30
0.0
  0
VERTEX
  5
114
  8
BLACK
 10
181.9616521441984
 20
83.6140725000614
 30
0.0
  0
VERTEX
  5
115
  8
BLACK
 10
181.9513015189315
 20
83.64513302326256
 30
0.0
  0
VERTEX
  5
116
  8
BLACK
 10
181.9421268094507
 20
83.67612864672047
 30
0.0
  0
VERTEX
  5
117
  8
BLACK
 10
181.9341112175348
 20
83.7070325519034
 30
0.0
  0
VERTEX
  5
118
  8
BLACK
 10
181.9272363369473
 20
83.73781886090067
 30
0.0
  0
VERTEX
  5
119
  8
BLACK
 10
181.9214822672263
 20
83.76846267929153
 30
0.0
  0
VERTEX
  5
11A
  8
BLACK
 10
181.9168277290581
 20
83.79894013273974
 30
0.0
  0
VERTEX
  5
11B
  8
BLACK
 10
181.9132501804389
 20
83.82922839741747
 30
0.0
  0
VERTEX
  5
11C
  8
BLACK
 10
181.9107259328725
 20
83.85930572440512
 30
0.0
  0
VERTEX
  5
11D
  8
BLACK
 10
181.9092302668967
 20
83.88915145825452
 30
0.0
  0
VERTEX
  5
11E
  8
BLACK
 10
181.9087375462838
 20
83.91874604993666
 30
0.0
  0
VERTEX
  5
11F
  8
BLACK
 10
181.9087375462838
 20
85.25207938327014
 30
0.0
  0
VERTEX
  5
120
  8
BLACK
 10
181.9092302668967
 20
85.28167397495227
 30
0.0
  0
VERTEX
  5
121
  8
BLACK
 10
181.9107259328725
 20
85.3115197088017
 30
0.0
  0
VERTEX
  5
122
  8
BLACK
 10
181.9132501804389
 20
85.34159703578936
 30
0.0
  0
VERTEX
  5
123
  8
BLACK
 10
181.9168277290581
 20
85.37188530046711
 30
0.0
  0
VERTEX
  5
124
  8
BLACK
 10
181.9214822672263
 20
85.40236275391536
 30
0.0
  0
VERTEX
  5
125
  8
BLACK
 10
181.9272363369473
 20
85.43300657230617
 30
0.0
  0
VERTEX
  5
126
  8
BLACK
 10
181.9341112175348
 20
85.46379288130343
 30
0.0
  0
VERTEX
  5
127
  8
BLACK
 10
181.9421268094507
 20
85.49469678648639
 30
0.0
  0
VERTEX
  5
128
  8
BLACK
 10
181.9513015189315
 20
85.52569240994434
 30
0.0
  0
VERTEX
  5
129
  8
BLACK
 10
181.9616521441984
 20
85.55675293314546
 30
0.0
  0
VERTEX
  5
12A
  8
BLACK
 10
181.9731937640802
 20
85.5878506461349
 30
0.0
  0
VERTEX
  5
12B
  8
BLACK
 10
181.9859396299098
 20
85.61895700306403
 30
0.0
  0
VERTEX
  5
12C
  8
BLACK
 10
181.9999010615723
 20
85.65004268399824
 30
0.0
  0
VERTEX
  5
12D
  8
BLACK
 10
182.0150873486005
 20
85.68107766289059
 30
0.0
  0
VERTEX
  5
12E
  8
BLACK
 10
182.031505657209
 20
85.71203128154778
 30
0.0
  0
VERTEX
  5
12F
  8
BLACK
 10
182.049160944159
 20
85.7428723293527
 30
0.0
  0
VERTEX
  5
130
  8
BLACK
 10
182.0680558783199
 20
85.77356912844319
 30
0.0
  0
VERTEX
  5
131
  8
BLACK
 10
182.0881907707704
 20
85.80408962398337
 30
0.0
  0
VERTEX
  5
132
  8
BLACK
 10
182.1095635142379
 20
85.83440147910214
 30
0.0
  0
VERTEX
  5
133
  8
BLACK
 10
182.1321695326243
 20
85.86447217401158
 30
0.0
  0
VERTEX
  5
134
  8
BLACK
 10
182.1560017413016
 20
85.89426910876101
 30
0.0
  0
VERTEX
  5
135
  8
BLACK
 10
182.1810505187889
 20
85.92375970902911
 30
0.0
  0
VERTEX
  5
136
  8
BLACK
 10
182.2073036903363
 20
85.9529115343071
 30
0.0
  0
VERTEX
  5
137
  8
BLACK
 10
182.2347465238465
 20
85.98169238778378
 30
0.0
  0
VERTEX
  5
138
  8
BLACK
 10
182.2633617384662
 20
86.01007042720694
 30
0.0
  0
VERTEX
  5
139
  8
BLACK
 10
182.2931295260658
 20
86.03801427596734
 30
0.0
  0
VERTEX
  5
13A
  8
BLACK
 10
182.3240275857143
 20
86.06549313363125
 30
0.0
  0
VERTEX
  5
13B
  8
BLACK
 10
182.3560311711342
 20
86.09247688513594
 30
0.0
  0
VERTEX
  5
13C
  8
BLACK
 10
182.3891131510016
 20
86.11893620786074
 30
0.0
  0
VERTEX
  5
13D
  8
BLACK
 10
182.4232440818323
 20
86.14484267579323
 30
0.0
  0
VERTEX
  5
13E
  8
BLACK
 10
182.458392293075
 20
86.17016886002673
 30
0.0
  0
VERTEX
  5
13F
  8
BLACK
 10
182.4945239839107
 20
86.19488842485235
 30
0.0
  0
VERTEX
  5
140
  8
BLACK
 10
182.5316033311492
 20
86.21897621874285
 30
0.0
  0
VERTEX
  5
141
  8
BLACK
 10
182.5695926074995
 20
86.24240835957131
 30
0.0
  0
VERTEX
  5
142
  8
BLACK
 10
182.6084523093982
 20
86.26516231345853
 30
0.0
  0
VERTEX
  5
143
  8
BLACK
 10
182.6481412934854
 20
86.28721696670344
 30
0.0
  0
VERTEX
  5
144
  8
BLACK
 10
182.6886169207424
 20
86.30855269031669
 30
0.0
  0
VERTEX
  5
145
  8
BLACK
 10
182.7298352072382
 20
86.32915139674898
 30
0.0
  0
VERTEX
  5
146
  8
BLACK
 10
182.7717509803788
 20
86.34899658848205
 30
0.0
  0
VERTEX
  5
147
  8
BLACK
 10
182.8143180395135
 20
86.3680733982285
 30
0.0
  0
VERTEX
  5
148
  8
BLACK
 10
182.8574893197286
 20
86.38636862056863
 30
0.0
  0
VERTEX
  5
149
  8
BLACK
 10
182.9012170576455
 20
86.40387073493355
 30
0.0
  0
VERTEX
  5
14A
  8
BLACK
 10
182.9454529580476
 20
86.42056991992511
 30
0.0
  0
VERTEX
  5
14B
  8
BLACK
 10
182.9901483601718
 20
86.4364580590433
 30
0.0
  0
VERTEX
  5
14C
  8
BLACK
 10
183.035254402536
 20
86.45152873796759
 30
0.0
  0
VERTEX
  5
14D
  8
BLACK
 10
183.0807221852142
 20
86.46577723361266
 30
0.0
  0
VERTEX
  5
14E
  8
BLACK
 10
183.1265029285244
 20
86.47920049524632
 30
0.0
  0
VERTEX
  5
14F
  8
BLACK
 10
183.1725481271601
 20
86.49179711802022
 30
0.0
  0
VERTEX
  5
150
  8
BLACK
 10
183.2188096988675
 20
86.5035673093202
 30
0.0
  0
VERTEX
  5
151
  8
BLACK
 10
183.2652401268533
 20
86.51451284839256
 30
0.0
  0
VERTEX
  5
152
  8
BLACK
 10
183.3584211165931
 20
86.53394466085301
 30
0.0
  0
VERTEX
  5
153
  8
BLACK
 10
183.4517272214709
 20
86.55013631799397
 30
0.0
  0
VERTEX
  5
154
  8
BLACK
 10
183.5448114414595
 20
86.56315320782575
 30
0.0
  0
VERTEX
  5
155
  8
BLACK
 10
183.6373467627298
 20
86.57308018949462
 30
0.0
  0
VERTEX
  5
156
  8
BLACK
 10
183.7290286704884
 20
86.58001926142082
 30
0.0
  0
VERTEX
  5
157
  8
BLACK
 10
183.8195770579865
 20
86.58408712554454
 30
0.0
  0
SEQEND
  5
158
  8
BLACK
  0
POLYLINE
  5
159
  8
BLACK
 66
     1
 10
0.0
 20
0.0
 30
0.0
 70
     1
  0
VERTEX
  5
15A
  8
BLACK
 10
200.1417720079522
 20
81.49697121460702
 30
0.0
  0
VERTEX
  5
15B
  8
BLACK
 10
195.1417720079522
 20
81.49697121455802
 30
0.0
  0
VERTEX
  5
15C
  8
BLACK
 10
195.1417720079522
 20
78.32197121455795
 30
0.0
  0
VERTEX
  5
15D
  8
BLACK
 10
180.9587361607948
 20
78.32197121460706
 30
0.0
  0
VERTEX
  5
15E
  8
BLACK
 10
180.9587361607948
 20
88.62666063626273
 30
0.0
  0
VERTEX
  5
15F
  8
BLACK
 10
183.4587361607948
 20
88.62666063626273
 30
0.0
  0
VERTEX
  5
160
  8
BLACK
 10
183.4587361607948
 20
91.87666063626273
 30
0.0
  0
VERTEX
  5
161
  8
BLACK
 10
180.9587361607948
 20
91.87666063626273
 30
0.0
  0
VERTEX
  5
162
  8
BLACK
 10
180.9587361607948
 20
93.87666063626295
 30
0.0
  0
VERTEX
  5
163
  8
BLACK
 10
177.7837361607949
 20
93.87666063626295
 30
0.0
  0
VERTEX
  5
164
  8
BLACK
 10
177.783736160795
 20
91.87666063626273
 30
0.0
  0
VERTEX
  5
165
  8
BLACK
 10
175.2837361607949
 20
91.87666063626273
 30
0.0
  0
VERTEX
  5
166
  8
BLACK
 10
175.2837361607949
 20
88.62666063626273
 30
0.0
  0
VERTEX
  5
167
  8
BLACK
 10
177.783736160795
 20
88.62666063626273
 30
0.0
  0
VERTEX
  5
168
  8
BLACK
 10
177.7837361607949
 20
78.32197121460706
 30
0.0
  0
VERTEX
  5
169
  8
BLACK
 10
175.2007030846154
 20
78.32197121455795
 30
0.0
  0
VERTEX
  5
16A
  8
BLACK
 10
175.2007030846154
 20
81.49697121455802
 30
0.0
  0
VERTEX
  5
16B
  8
BLACK
 10
170.2007030846154
 20
81.49697121455802
 30
0.0
  0
VERTEX
  5
16C
  8
BLACK
 10
170.2007030846154
 20
101.9104127166032
 30
0.0
  0
VERTEX
  5
16D
  8
BLACK
 10
175.2007030846154
 20
101.9104127166032
 30
0.0
  0
VERTEX
  5
16E
  8
BLACK
 10
175.2007030846154
 20
105.0854127166033
 30
0.0
  0
VERTEX
  5
16F
  8
BLACK
 10
188.3837543490579
 20
105.0854128324704
 30
0.0
  0
VERTEX
  5
170
  8
BLACK
 10
188.3837543490579
 20
99.43872352673066
 30
0.0
  0
VERTEX
  5
171
  8
BLACK
 10
185.8837543490579
 20
99.43872352673066
 30
0.0
  0
VERTEX
  5
172
  8
BLACK
 10
185.8837543490579
 20
96.18872352673066
 30
0.0
  0
VERTEX
  5
173
  8
BLACK
 10
188.3837543490579
 20
96.18872352673066
 30
0.0
  0
VERTEX
  5
174
  8
BLACK
 10
188.3837543490577
 20
95.18872352673066
 30
0.0
  0
VERTEX
  5
175
  8
BLACK
 10
191.5587543490577
 20
95.18872352673066
 30
0.0
  0
VERTEX
  5
176
  8
BLACK
 10
191.5587543490578
 20
96.18872352673066
 30
0.0
  0
VERTEX
  5
177
  8
BLACK
 10
194.0587543490578
 20
96.18872352673066
 30
0.0
  0
VERTEX
  5
178
  8
BLACK
 10
194.0587543490578
 20
99.43872352673066
 30
0.0
  0
VERTEX
  5
179
  8
BLACK
 10
191.5587543490578
 20
99.43872352673066
 30
0.0
  0
VERTEX
  5
17A
  8
BLACK
 10
191.5587543490578
 20
105.0854128324704
 30
0.0
  0
VERTEX
  5
17B
  8
BLACK
 10
195.1417720079522
 20
105.0854127166033
 30
0.0
  0
VERTEX
  5
17C
  8
BLACK
 10
195.1417720079522
 20
101.9104127166032
 30
0.0
  0
VERTEX
  5
17D
  8
BLACK
 10
200.1417720079522
 20
101.9104127166522
 30
0.0
  0
VERTEX
  5
17E
  8
BLACK
 10
200.1417720079522
 20
105.0854127167013
 30
0.0
  0
VERTEX
  5
17F
  8
BLACK
 10
233.1802639443435
 20
109.3719653077728
 30
0.0
 42
-1.129793935099671
  0
VERTEX
  5
180
  8
BLACK
 10
233.1802639408777
 20
74.03541862400854
 30
0.0
  0
VERTEX
  5
181
  8
BLACK
 10
200.1417720079522
 20
78.32197121465606
 30
0.0
  0
SEQEND
  5
182
  8
BLACK
  0
CIRCLE
  5
183
  8
BLACK
 10
235.3417720079522
 20
102.2336919660371
 30
0.0
 40
0.6200000000000045
  0
CIRCLE
  5
184
  8
BLACK
 10
244.4610195098023
 20
96.96869196603713
 30
0.0
 40
0.6200000000000409
  0
CIRCLE
  5
185
  8
BLACK
 10
235.3417720079522
 20
81.17369196603715
 30
0.0
 40
0.6200000000000045
  0
CIRCLE
  5
186
  8
BLACK
 10
226.222524506102
 20
96.96869196603717
 30
0.0
 40
0.6200000000000196
  0
CIRCLE
  5
187
  8
BLACK
 10
244.4610195098023
 20
86.4386919660372
 30
0.0
 40
0.6200000000000196
  0
CIRCLE
  5
188
  8
BLACK
 10
226.2225245061021
 20
86.43869196603714
 30
0.0
 40
0.6200000000000156
  0
CIRCLE
  5
189
  8
BLACK
 10
235.3417720079521
 20
91.7036919660986
 30
0.0
 40
4.657543966865862
  0
CIRCLE
  5
18A
  8
BLACK
 10
-235.3417720079521
 20
91.7036919660986
 30
0.0
 40
4.657543966865862
  0
CIRCLE
  5
18B
  8
BLACK
 10
-226.2225245061021
 20
86.43869196603714
 30
0.0
 40
0.6200000000000156
  0
CIRCLE
  5
18C
  8
BLACK
 10
-244.4610195098023
 20
86.4386919660372
 30
0.0
 40
0.6200000000000196
  0
CIRCLE
  5
18D
  8
BLACK
 10
-226.222524506102
 20
96.96869196603717
 30
0.0
 40
0.6200000000000196
  0
CIRCLE
  5
18E
  8
BLACK
 10
-235.3417720079522
 20
81.17369196603715
 30
0.0
 40
0.6200000000000045
  0
CIRCLE
  5
18F
  8
BLACK
 10
-244.4610195098023
 20
96.96869196603713
 30
0.0
 40
0.6200000000000409
  0
CIRCLE
  5
190
  8
BLACK
 10
-235.3417720079522
 20
102.2336919660371
 30
0.0
 40
0.6200000000000045
  0
POLYLINE
  5
191
  8
BLACK
 66
     1
 10
0.0
 20
0.0
 30
0.0
 70
     1
  0
VERTEX
  5
192
  8
BLACK
 10
-200.1417720079522
 20
81.49697121460702
 30
0.0
  0
VERTEX
  5
193
  8
BLACK
 10
-195.1417720079522
 20
81.49697121455802
 30
0.0
  0
VERTEX
  5
194
  8
BLACK
 10
-195.1417720079522
 20
78.32197121455795
 30
0.0
  0
VERTEX
  5
195
  8
BLACK
 10
-180.9587361607948
 20
78.32197121460706
 30
0.0
  0
VERTEX
  5
196
  8
BLACK
 10
-180.9587361607948
 20
88.62666063626273
 30
0.0
  0
VERTEX
  5
197
  8
BLACK
 10
-183.4587361607948
 20
88.62666063626273
 30
0.0
  0
VERTEX
  5
198
  8
BLACK
 10
-183.4587361607948
 20
91.87666063626273
 30
0.0
  0
VERTEX
  5
199
  8
BLACK
 10
-180.9587361607948
 20
91.87666063626273
 30
0.0
  0
VERTEX
  5
19A
  8
BLACK
 10
-180.9587361607948
 20
93.87666063626295
 30
0.0
  0
VERTEX
  5
19B
  8
BLACK
 10
-177.7837361607949
 20
93.87666063626295
 30
0.0
  0
VERTEX
  5
19C
  8
BLACK
 10
-177.783736160795
 20
91.87666063626273
 30
0.0
  0
VERTEX
  5
19D
  8
BLACK
 10
-175.2837361607949
 20
91.87666063626273
 30
0.0
  0
VERTEX
  5
19E
  8
BLACK
 10
-175.2837361607949
 20
88.62666063626273
 30
0.0
  0
VERTEX
  5
19F
  8
BLACK
 10
-177.783736160795
 20
88.62666063626273
 30
0.0
  0
VERTEX
  5
1A0
  8
BLACK
 10
-177.7837361607949
 20
78.32197121460706
 30
0.0
  0
VERTEX
  5
1A1
  8
BLACK
 10
-175.2007030846154
 20
78.32197121455795
 30
0.0
  0
VERTEX
  5
1A2
  8
BLACK
 10
-175.2007030846154
 20
81.49697121455802
 30
0.0
  0
VERTEX
  5
1A3
  8
BLACK
 10
-170.2007030846154
 20
81.49697121455802
 30
0.0
  0
VERTEX
  5
1A4
  8
BLACK
 10
-170.2007030846154
 20
101.9104127166032
 30
0.0
  0
VERTEX
  5
1A5
  8
BLACK
 10
-175.2007030846154
 20
101.9104127166032
 30
0.0
  0
VERTEX
  5
1A6
  8
BLACK
 10
-175.2007030846154
 20
105.0854127166033
 30
0.0
  0
VERTEX
  5
1A7
  8
BLACK
 10
-188.3837543490579
 20
105.0854128324704
 30
0.0
  0
VERTEX
  5
1A8
  8
BLACK
 10
-188.3837543490579
 20
99.43872352673066
 30
0.0
  0
VERTEX
  5
1A9
  8
BLACK
 10
-185.8837543490579
 20
99.43872352673066
 30
0.0
  0
VERTEX
  5
1AA
  8
BLACK
 10
-185.8837543490579
 20
96.18872352673066
 30
0.0
  0
VERTEX
  5
1AB
  8
BLACK
 10
-188.3837543490579
 20
96.18872352673066
 30
0.0
  0
VERTEX
  5
1AC
  8
BLACK
 10
-188.3837543490577
 20
95.18872352673066
 30
0.0
  0
VERTEX
  5
1AD
  8
BLACK
 10
-191.5587543490577
 20
95.18872352673066
 30
0.0
  0
VERTEX
  5
1AE
  8
BLACK
 10
-191.5587543490578
 20
96.18872352673066
 30
0.0
  0
VERTEX
  5
1AF
  8
BLACK
 10
-194.0587543490578
 20
96.18872352673066
 30
0.0
  0
VERTEX
  5
1B0
  8
BLACK
 10
-194.0587543490578
 20
99.43872352673066
 30
0.0
  0
VERTEX
  5
1B1
  8
BLACK
 10
-191.5587543490578
 20
99.43872352673066
 30
0.0
  0
VERTEX
  5
1B2
  8
BLACK
 10
-191.5587543490578
 20
105.0854128324704
 30
0.0
  0
VERTEX
  5
1B3
  8
BLACK
 10
-195.1417720079522
 20
105.0854127166033
 30
0.0
  0
VERTEX
  5
1B4
  8
BLACK
 10
-195.1417720079522
 20
101.9104127166032
 30
0.0
  0
VERTEX
  5
1B5
  8
BLACK
 10
-200.1417720079522
 20
101.9104127166522
 30
0.0
  0
VERTEX
  5
1B6
  8
BLACK
 10
-200.1417720079522
 20
105.0854127167013
 30
0.0
  0
VERTEX
  5
1B7
  8
BLACK
 10
-233.1802639443435
 20
109.3719653077728
 30
0.0
 42
1.129793935099671
  0
VERTEX
  5
1B8
  8
BLACK
 10
-233.1802639408777
 20
74.03541862400854
 30
0.0
  0
VERTEX
  5
1B9
  8
BLACK
 10
-200.1417720079522
 20
78.32197121465606
 30
0.0
  0
SEQEND
  5
1BA
  8
BLACK
  0
POLYLINE
  5
1BB
  8
BLACK
 66
     1
 10
0.0
 20
0.0
 30
0.0
 70
     1
  0
VERTEX
  5
1BC
  8
BLACK
 10
-183.9087375462838
 20
86.58541271660363
 30
0.0
  0
VERTEX
  5
1BD
  8
BLACK
 10
-191.4337375462838
 20
86.58541271660363
 30
0.0
  0
VERTEX
  5
1BE
  8
BLACK
 10
-191.5228980345811
 20
86.58408712554454
 30
0.0
  0
VERTEX
  5
1BF
  8
BLACK
 10
-191.6134464220792
 20
86.58001926142082
 30
0.0
  0
VERTEX
  5
1C0
  8
BLACK
 10
-191.7051283298377
 20
86.57308018949462
 30
0.0
  0
VERTEX
  5
1C1
  8
BLACK
 10
-191.7976636511081
 20
86.56315320782575
 30
0.0
  0
VERTEX
  5
1C2
  8
BLACK
 10
-191.8907478710967
 20
86.55013631799397
 30
0.0
  0
VERTEX
  5
1C3
  8
BLACK
 10
-191.9840539759746
 20
86.53394466085301
 30
0.0
  0
VERTEX
  5
1C4
  8
BLACK
 10
-192.0772349657144
 20
86.51451284839256
 30
0.0
  0
VERTEX
  5
1C5
  8
BLACK
 10
-192.1236653937002
 20
86.5035673093202
 30
0.0
  0
VERTEX
  5
1C6
  8
BLACK
 10
-192.1699269654076
 20
86.49179711802022
 30
0.0
  0
VERTEX
  5
1C7
  8
BLACK
 10
-192.2159721640433
 20
86.47920049524632
 30
0.0
  0
VERTEX
  5
1C8
  8
BLACK
 10
-192.2617529073535
 20
86.46577723361266
 30
0.0
  0
VERTEX
  5
1C9
  8
BLACK
 10
-192.3072206900317
 20
86.45152873796759
 30
0.0
  0
VERTEX
  5
1CA
  8
BLACK
 10
-192.3523267323958
 20
86.4364580590433
 30
0.0
  0
VERTEX
  5
1CB
  8
BLACK
 10
-192.39702213452
 20
86.42056991992511
 30
0.0
  0
VERTEX
  5
1CC
  8
BLACK
 10
-192.4412580349221
 20
86.40387073493355
 30
0.0
  0
VERTEX
  5
1CD
  8
BLACK
 10
-192.4849857728391
 20
86.38636862056863
 30
0.0
  0
VERTEX
  5
1CE
  8
BLACK
 10
-192.5281570530541
 20
86.3680733982285
 30
0.0
  0
VERTEX
  5
1CF
  8
BLACK
 10
-192.5707241121889
 20
86.34899658848205
 30
0.0
  0
VERTEX
  5
1D0
  8
BLACK
 10
-192.6126398853295
 20
86.32915139674898
 30
0.0
  0
VERTEX
  5
1D1
  8
BLACK
 10
-192.6538581718253
 20
86.30855269031669
 30
0.0
  0
VERTEX
  5
1D2
  8
BLACK
 10
-192.6943337990823
 20
86.28721696670344
 30
0.0
  0
VERTEX
  5
1D3
  8
BLACK
 10
-192.7340227831695
 20
86.26516231345853
 30
0.0
  0
VERTEX
  5
1D4
  8
BLACK
 10
-192.7728824850682
 20
86.24240835957131
 30
0.0
  0
VERTEX
  5
1D5
  8
BLACK
 10
-192.8108717614185
 20
86.21897621874285
 30
0.0
  0
VERTEX
  5
1D6
  8
BLACK
 10
-192.8479511086569
 20
86.19488842485235
 30
0.0
  0
VERTEX
  5
1D7
  8
BLACK
 10
-192.8840827994927
 20
86.17016886002673
 30
0.0
  0
VERTEX
  5
1D8
  8
BLACK
 10
-192.9192310107354
 20
86.14484267579323
 30
0.0
  0
VERTEX
  5
1D9
  8
BLACK
 10
-192.9533619415662
 20
86.11893620786074
 30
0.0
  0
VERTEX
  5
1DA
  8
BLACK
 10
-192.9864439214335
 20
86.09247688513594
 30
0.0
  0
VERTEX
  5
1DB
  8
BLACK
 10
-193.0184475068534
 20
86.06549313363125
 30
0.0
  0
VERTEX
  5
1DC
  8
BLACK
 10
-193.0493455665019
 20
86.03801427596734
 30
0.0
  0
VERTEX
  5
1DD
  8
BLACK
 10
-193.0791133541015
 20
86.01007042720694
 30
0.0
  0
VERTEX
  5
1DE
  8
BLACK
 10
-193.1077285687211
 20
85.98169238778378
 30
0.0
  0
VERTEX
  5
1DF
  8
BLACK
 10
-193.1351714022314
 20
85.9529115343071
 30
0.0
  0
VERTEX
  5
1E0
  8
BLACK
 10
-193.1614245737787
 20
85.92375970902911
 30
0.0
  0
VERTEX
  5
1E1
  8
BLACK
 10
-193.186473351266
 20
85.89426910876101
 30
0.0
  0
VERTEX
  5
1E2
  8
BLACK
 10
-193.2103055599433
 20
85.86447217401158
 30
0.0
  0
VERTEX
  5
1E3
  8
BLACK
 10
-193.2329115783297
 20
85.83440147910214
 30
0.0
  0
VERTEX
  5
1E4
  8
BLACK
 10
-193.2542843217973
 20
85.80408962398337
 30
0.0
  0
VERTEX
  5
1E5
  8
BLACK
 10
-193.2744192142478
 20
85.77356912844319
 30
0.0
  0
VERTEX
  5
1E6
  8
BLACK
 10
-193.2933141484087
 20
85.7428723293527
 30
0.0
  0
VERTEX
  5
1E7
  8
BLACK
 10
-193.3109694353587
 20
85.71203128154778
 30
0.0
  0
VERTEX
  5
1E8
  8
BLACK
 10
-193.3273877439672
 20
85.68107766289059
 30
0.0
  0
VERTEX
  5
1E9
  8
BLACK
 10
-193.3425740309953
 20
85.65004268399824
 30
0.0
  0
VERTEX
  5
1EA
  8
BLACK
 10
-193.3565354626579
 20
85.61895700306403
 30
0.0
  0
VERTEX
  5
1EB
  8
BLACK
 10
-193.3692813284874
 20
85.5878506461349
 30
0.0
  0
VERTEX
  5
1EC
  8
BLACK
 10
-193.3808229483693
 20
85.55675293314546
 30
0.0
  0
VERTEX
  5
1ED
  8
BLACK
 10
-193.3911735736363
 20
85.52569240994434
 30
0.0
  0
VERTEX
  5
1EE
  8
BLACK
 10
-193.400348283117
 20
85.49469678648639
 30
0.0
  0
VERTEX
  5
1EF
  8
BLACK
 10
-193.4083638750328
 20
85.46379288130343
 30
0.0
  0
VERTEX
  5
1F0
  8
BLACK
 10
-193.4152387556203
 20
85.43300657230617
 30
0.0
  0
VERTEX
  5
1F1
  8
BLACK
 10
-193.4209928253413
 20
85.40236275391536
 30
0.0
  0
VERTEX
  5
1F2
  8
BLACK
 10
-193.4256473635096
 20
85.37188530046711
 30
0.0
  0
VERTEX
  5
1F3
  8
BLACK
 10
-193.4292249121287
 20
85.34159703578936
 30
0.0
  0
VERTEX
  5
1F4
  8
BLACK
 10
-193.4317491596951
 20
85.3115197088017
 30
0.0
  0
VERTEX
  5
1F5
  8
BLACK
 10
-193.4332448256709
 20
85.28167397495227
 30
0.0
  0
VERTEX
  5
1F6
  8
BLACK
 10
-193.4337375462838
 20
85.25207938327014
 30
0.0
  0
VERTEX
  5
1F7
  8
BLACK
 10
-193.4337375462838
 20
83.91874604993666
 30
0.0
  0
VERTEX
  5
1F8
  8
BLACK
 10
-193.4332448256709
 20
83.88915145825452
 30
0.0
  0
VERTEX
  5
1F9
  8
BLACK
 10
-193.4317491596951
 20
83.85930572440512
 30
0.0
  0
VERTEX
  5
1FA
  8
BLACK
 10
-193.4292249121287
 20
83.82922839741747
 30
0.0
  0
VERTEX
  5
1FB
  8
BLACK
 10
-193.4256473635096
 20
83.79894013273974
 30
0.0
  0
VERTEX
  5
1FC
  8
BLACK
 10
-193.4209928253413
 20
83.76846267929153
 30
0.0
  0
VERTEX
  5
1FD
  8
BLACK
 10
-193.4152387556203
 20
83.73781886090067
 30
0.0
  0
VERTEX
  5
1FE
  8
BLACK
 10
-193.4083638750328
 20
83.7070325519034
 30
0.0
  0
VERTEX
  5
1FF
  8
BLACK
 10
-193.400348283117
 20
83.67612864672047
 30
0.0
  0
VERTEX
  5
200
  8
BLACK
 10
-193.3911735736363
 20
83.64513302326256
 30
0.0
  0
VERTEX
  5
201
  8
BLACK
 10
-193.3808229483693
 20
83.6140725000614
 30
0.0
  0
VERTEX
  5
202
  8
BLACK
 10
-193.3692813284874
 20
83.58297478707195
 30
0.0
  0
VERTEX
  5
203
  8
BLACK
 10
-193.3565354626579
 20
83.55186843014282
 30
0.0
  0
VERTEX
  5
204
  8
BLACK
 10
-193.3425740309953
 20
83.52078274920859
 30
0.0
  0
VERTEX
  5
205
  8
BLACK
 10
-193.3273877439672
 20
83.48974777031628
 30
0.0
  0
VERTEX
  5
206
  8
BLACK
 10
-193.3109694353587
 20
83.4587941516591
 30
0.0
  0
VERTEX
  5
207
  8
BLACK
 10
-193.2933141484087
 20
83.42795310385416
 30
0.0
  0
VERTEX
  5
208
  8
BLACK
 10
-193.2744192142478
 20
83.39725630476373
 30
0.0
  0
VERTEX
  5
209
  8
BLACK
 10
-193.2542843217973
 20
83.36673580922356
 30
0.0
  0
VERTEX
  5
20A
  8
BLACK
 10
-193.2329115783297
 20
83.33642395410477
 30
0.0
  0
VERTEX
  5
20B
  8
BLACK
 10
-193.2103055599433
 20
83.30635325919533
 30
0.0
  0
VERTEX
  5
20C
  8
BLACK
 10
-193.186473351266
 20
83.27655632444589
 30
0.0
  0
VERTEX
  5
20D
  8
BLACK
 10
-193.1614245737787
 20
83.2470657241778
 30
0.0
  0
VERTEX
  5
20E
  8
BLACK
 10
-193.1351714022314
 20
83.21791389889982
 30
0.0
  0
VERTEX
  5
20F
  8
BLACK
 10
-193.1077285687211
 20
83.18913304542313
 30
0.0
  0
VERTEX
  5
210
  8
BLACK
 10
-193.0791133541015
 20
83.16075500599999
 30
0.0
  0
VERTEX
  5
211
  8
BLACK
 10
-193.0493455665019
 20
83.13281115723959
 30
0.0
  0
VERTEX
  5
212
  8
BLACK
 10
-193.0184475068534
 20
83.10533229957572
 30
0.0
  0
VERTEX
  5
213
  8
BLACK
 10
-192.9864439214335
 20
83.07834854807105
 30
0.0
  0
VERTEX
  5
214
  8
BLACK
 10
-192.9533619415662
 20
83.05188922534623
 30
0.0
  0
VERTEX
  5
215
  8
BLACK
 10
-192.9192310107354
 20
83.02598275741374
 30
0.0
  0
VERTEX
  5
216
  8
BLACK
 10
-192.8840827994927
 20
83.00065657318022
 30
0.0
  0
VERTEX
  5
217
  8
BLACK
 10
-192.8479511086569
 20
82.9759370083546
 30
0.0
  0
VERTEX
  5
218
  8
BLACK
 10
-192.8108717614185
 20
82.9518492144641
 30
0.0
  0
VERTEX
  5
219
  8
BLACK
 10
-192.7728824850682
 20
82.92841707363566
 30
0.0
  0
VERTEX
  5
21A
  8
BLACK
 10
-192.7340227831695
 20
82.90566311974845
 30
0.0
  0
VERTEX
  5
21B
  8
BLACK
 10
-192.6943337990823
 20
82.88360846650355
 30
0.0
  0
VERTEX
  5
21C
  8
BLACK
 10
-192.6538581718253
 20
82.86227274289033
 30
0.0
  0
VERTEX
  5
21D
  8
BLACK
 10
-192.6126398853295
 20
82.84167403645799
 30
0.0
  0
VERTEX
  5
21E
  8
BLACK
 10
-192.5707241121889
 20
82.8218288447249
 30
0.0
  0
VERTEX
  5
21F
  8
BLACK
 10
-192.5281570530541
 20
82.80275203497845
 30
0.0
  0
VERTEX
  5
220
  8
BLACK
 10
-192.4849857728391
 20
82.78445681263833
 30
0.0
  0
VERTEX
  5
221
  8
BLACK
 10
-192.4412580349221
 20
82.7669546982734
 30
0.0
  0
VERTEX
  5
222
  8
BLACK
 10
-192.39702213452
 20
82.75025551328183
 30
0.0
  0
VERTEX
  5
223
  8
BLACK
 10
-192.3523267323958
 20
82.73436737416364
 30
0.0
  0
VERTEX
  5
224
  8
BLACK
 10
-192.3072206900317
 20
82.71929669523936
 30
0.0
  0
VERTEX
  5
225
  8
BLACK
 10
-192.2617529073535
 20
82.7050481995943
 30
0.0
  0
VERTEX
  5
226
  8
BLACK
 10
-192.2159721640433
 20
82.69162493796064
 30
0.0
  0
VERTEX
  5
227
  8
BLACK
 10
-192.1699269654076
 20
82.67902831518674
 30
0.0
  0
VERTEX
  5
228
  8
BLACK
 10
-192.1236653937002
 20
82.66725812388677
 30
0.0
  0
VERTEX
  5
229
  8
BLACK
 10
-192.0772349657144
 20
82.6563125848144
 30
0.0
  0
VERTEX
  5
22A
  8
BLACK
 10
-191.9840539759746
 20
82.63688077235395
 30
0.0
  0
VERTEX
  5
22B
  8
BLACK
 10
-191.8907478710967
 20
82.620689115213
 30
0.0
  0
VERTEX
  5
22C
  8
BLACK
 10
-191.7976636511081
 20
82.60767222538122
 30
0.0
  0
VERTEX
  5
22D
  8
BLACK
 10
-191.7051283298377
 20
82.5977452437123
 30
0.0
  0
VERTEX
  5
22E
  8
BLACK
 10
-191.6134464220792
 20
82.59080617178613
 30
0.0
  0
VERTEX
  5
22F
  8
BLACK
 10
-191.5228980345811
 20
82.58673830766239
 30
0.0
  0
VERTEX
  5
230
  8
BLACK
 10
-191.4337375462838
 20
82.58541271660329
 30
0.0
  0
VERTEX
  5
231
  8
BLACK
 10
-183.9087375462838
 20
82.58541271660329
 30
0.0
  0
VERTEX
  5
232
  8
BLACK
 10
-183.8195770579865
 20
82.58673830766239
 30
0.0
  0
VERTEX
  5
233
  8
BLACK
 10
-183.7290286704884
 20
82.59080617178613
 30
0.0
  0
VERTEX
  5
234
  8
BLACK
 10
-183.6373467627298
 20
82.5977452437123
 30
0.0
  0
VERTEX
  5
235
  8
BLACK
 10
-183.5448114414595
 20
82.60767222538122
 30
0.0
  0
VERTEX
  5
236
  8
BLACK
 10
-183.4517272214709
 20
82.620689115213
 30
0.0
  0
VERTEX
  5
237
  8
BLACK
 10
-183.3584211165931
 20
82.63688077235395
 30
0.0
  0
VERTEX
  5
238
  8
BLACK
 10
-183.2652401268533
 20
82.6563125848144
 30
0.0
  0
VERTEX
  5
239
  8
BLACK
 10
-183.2188096988675
 20
82.66725812388677
 30
0.0
  0
VERTEX
  5
23A
  8
BLACK
 10
-183.1725481271601
 20
82.67902831518674
 30
0.0
  0
VERTEX
  5
23B
  8
BLACK
 10
-183.1265029285244
 20
82.69162493796064
 30
0.0
  0
VERTEX
  5
23C
  8
BLACK
 10
-183.0807221852142
 20
82.7050481995943
 30
0.0
  0
VERTEX
  5
23D
  8
BLACK
 10
-183.035254402536
 20
82.71929669523936
 30
0.0
  0
VERTEX
  5
23E
  8
BLACK
 10
-182.9901483601718
 20
82.73436737416364
 30
0.0
  0
VERTEX
  5
23F
  8
BLACK
 10
-182.9454529580476
 20
82.75025551328183
 30
0.0
  0
VERTEX
  5
240
  8
BLACK
 10
-182.9012170576455
 20
82.7669546982734
 30
0.0
  0
VERTEX
  5
241
  8
BLACK
 10
-182.8574893197286
 20
82.78445681263833
 30
0.0
  0
VERTEX
  5
242
  8
BLACK
 10
-182.8143180395135
 20
82.80275203497845
 30
0.0
  0
VERTEX
  5
243
  8
BLACK
 10
-182.7717509803788
 20
82.8218288447249
 30
0.0
  0
VERTEX
  5
244
  8
BLACK
 10
-182.7298352072382
 20
82.84167403645799
 30
0.0
  0
VERTEX
  5
245
  8
BLACK
 10
-182.6886169207424
 20
82.86227274289033
 30
0.0
  0
VERTEX
  5
246
  8
BLACK
 10
-182.6481412934854
 20
82.88360846650355
 30
0.0
  0
VERTEX
  5
247
  8
BLACK
 10
-182.6084523093982
 20
82.90566311974845
 30
0.0
  0
VERTEX
  5
248
  8
BLACK
 10
-182.5695926074995
 20
82.92841707363566
 30
0.0
  0
VERTEX
  5
249
  8
BLACK
 10
-182.5316033311492
 20
82.9518492144641
 30
0.0
  0
VERTEX
  5
24A
  8
BLACK
 10
-182.4945239839107
 20
82.9759370083546
 30
0.0
  0
VERTEX
  5
24B
  8
BLACK
 10
-182.458392293075
 20
83.00065657318022
 30
0.0
  0
VERTEX
  5
24C
  8
BLACK
 10
-182.4232440818323
 20
83.02598275741374
 30
0.0
  0
VERTEX
  5
24D
  8
BLACK
 10
-182.3891131510016
 20
83.05188922534623
 30
0.0
  0
VERTEX
  5
24E
  8
BLACK
 10
-182.3560311711342
 20
83.07834854807105
 30
0.0
  0
VERTEX
  5
24F
  8
BLACK
 10
-182.3240275857143
 20
83.10533229957572
 30
0.0
  0
VERTEX
  5
250
  8
BLACK
 10
-182.2931295260658
 20
83.13281115723959
 30
0.0
  0
VERTEX
  5
251
  8
BLACK
 10
-182.2633617384662
 20
83.16075500599999
 30
0.0
  0
VERTEX
  5
252
  8
BLACK
 10
-182.2347465238465
 20
83.18913304542313
 30
0.0
  0
VERTEX
  5
253
  8
BLACK
 10
-182.2073036903363
 20
83.21791389889982
 30
0.0
  0
VERTEX
  5
254
  8
BLACK
 10
-182.1810505187889
 20
83.2470657241778
 30
0.0
  0
VERTEX
  5
255
  8
BLACK
 10
-182.1560017413016
 20
83.27655632444589
 30
0.0
  0
VERTEX
  5
256
  8
BLACK
 10
-182.1321695326243
 20
83.30635325919533
 30
0.0
  0
VERTEX
  5
257
  8
BLACK
 10
-182.1095635142379
 20
83.33642395410477
 30
0.0
  0
VERTEX
  5
258
  8
BLACK
 10
-182.0881907707704
 20
83.36673580922356
 30
0.0
  0
VERTEX
  5
259
  8
BLACK
 10
-182.0680558783199
 20
83.39725630476373
 30
0.0
  0
VERTEX
  5
25A
  8
BLACK
 10
-182.049160944159
 20
83.42795310385416
 30
0.0
  0
VERTEX
  5
25B
  8
BLACK
 10
-182.031505657209
 20
83.4587941516591
 30
0.0
  0
VERTEX
  5
25C
  8
BLACK
 10
-182.0150873486005
 20
83.48974777031628
 30
0.0
  0
VERTEX
  5
25D
  8
BLACK
 10
-181.9999010615723
 20
83.52078274920859
 30
0.0
  0
VERTEX
  5
25E
  8
BLACK
 10
-181.9859396299098
 20
83.55186843014282
 30
0.0
  0
VERTEX
  5
25F
  8
BLACK
 10
-181.9731937640802
 20
83.58297478707195
 30
0.0
  0
VERTEX
  5
260
  8
BLACK
 10
-181.9616521441984
 20
83.6140725000614
 30
0.0
  0
VERTEX
  5
261
  8
BLACK
 10
-181.9513015189315
 20
83.64513302326256
 30
0.0
  0
VERTEX
  5
262
  8
BLACK
 10
-181.9421268094507
 20
83.67612864672047
 30
0.0
  0
VERTEX
  5
263
  8
BLACK
 10
-181.9341112175348
 20
83.7070325519034
 30
0.0
  0
VERTEX
  5
264
  8
BLACK
 10
-181.9272363369473
 20
83.73781886090067
 30
0.0
  0
VERTEX
  5
265
  8
BLACK
 10
-181.9214822672263
 20
83.76846267929153
 30
0.0
  0
VERTEX
  5
266
  8
BLACK
 10
-181.9168277290581
 20
83.79894013273974
 30
0.0
  0
VERTEX
  5
267
  8
BLACK
 10
-181.9132501804389
 20
83.82922839741747
 30
0.0
  0
VERTEX
  5
268
  8
BLACK
 10
-181.9107259328725
 20
83.85930572440512
 30
0.0
  0
VERTEX
  5
269
  8
BLACK
 10
-181.9092302668967
 20
83.88915145825452
 30
0.0
  0
VERTEX
  5
26A
  8
BLACK
 10
-181.9087375462838
 20
83.91874604993666
 30
0.0
  0
VERTEX
  5
26B
  8
BLACK
 10
-181.9087375462838
 20
85.25207938327014
 30
0.0
  0
VERTEX
  5
26C
  8
BLACK
 10
-181.9092302668967
 20
85.28167397495227
 30
0.0
  0
VERTEX
  5
26D
  8
BLACK
 10
-181.9107259328725
 20
85.3115197088017
 30
0.0
  0
VERTEX
  5
26E
  8
BLACK
 10
-181.9132501804389
 20
85.34159703578936
 30
0.0
  0
VERTEX
  5
26F
  8
BLACK
 10
-181.9168277290581
 20
85.37188530046711
 30
0.0
  0
VERTEX
  5
270
  8
BLACK
 10
-181.9214822672263
 20
85.40236275391536
 30
0.0
  0
VERTEX
  5
271
  8
BLACK
 10
-181.9272363369473
 20
85.43300657230617
 30
0.0
  0
VERTEX
  5
272
  8
BLACK
 10
-181.9341112175348
 20
85.46379288130343
 30
0.0
  0
VERTEX
  5
273
  8
BLACK
 10
-181.9421268094507
 20
85.49469678648639
 30
0.0
  0
VERTEX
  5
274
  8
BLACK
 10
-181.9513015189315
 20
85.52569240994434
 30
0.0
  0
VERTEX
  5
275
  8
BLACK
 10
-181.9616521441984
 20
85.55675293314546
 30
0.0
  0
VERTEX
  5
276
  8
BLACK
 10
-181.9731937640802
 20
85.5878506461349
 30
0.0
  0
VERTEX
  5
277
  8
BLACK
 10
-181.9859396299098
 20
85.61895700306403
 30
0.0
  0
VERTEX
  5
278
  8
BLACK
 10
-181.9999010615723
 20
85.65004268399824
 30
0.0
  0
VERTEX
  5
279
  8
BLACK
 10
-182.0150873486005
 20
85.68107766289059
 30
0.0
  0
VERTEX
  5
27A
  8
BLACK
 10
-182.031505657209
 20
85.71203128154778
 30
0.0
  0
VERTEX
  5
27B
  8
BLACK
 10
-182.049160944159
 20
85.7428723293527
 30
0.0
  0
VERTEX
  5
27C
  8
BLACK
 10
-182.0680558783199
 20
85.77356912844319
 30
0.0
  0
VERTEX
  5
27D
  8
BLACK
 10
-182.0881907707704
 20
85.80408962398337
 30
0.0
  0
VERTEX
  5
27E
  8
BLACK
 10
-182.1095635142379
 20
85.83440147910214
 30
0.0
  0
VERTEX
  5
27F
  8
BLACK
 10
-182.1321695326243
 20
85.86447217401158
 30
0.0
  0
VERTEX
  5
280
  8
BLACK
 10
-182.1560017413016
 20
85.89426910876101
 30
0.0
  0
VERTEX
  5
281
  8
BLACK
 10
-182.1810505187889
 20
85.92375970902911
 30
0.0
  0
VERTEX
  5
282
  8
BLACK
 10
-182.2073036903363
 20
85.9529115343071
 30
0.0
  0
VERTEX
  5
283
  8
BLACK
 10
-182.2347465238465
 20
85.98169238778378
 30
0.0
  0
VERTEX
  5
284
  8
BLACK
 10
-182.2633617384662
 20
86.01007042720694
 30
0.0
  0
VERTEX
  5
285
  8
BLACK
 10
-182.2931295260658
 20
86.03801427596734
 30
0.0
  0
VERTEX
  5
286
  8
BLACK
 10
-182.3240275857143
 20
86.06549313363125
 30
0.0
  0
VERTEX
  5
287
  8
BLACK
 10
-182.3560311711342
 20
86.09247688513594
 30
0.0
  0
VERTEX
  5
288
  8
BLACK
 10
-182.3891131510016
 20
86.11893620786074
 30
0.0
  0
VERTEX
  5
289
  8
BLACK
 10
-182.4232440818323
 20
86.14484267579323
 30
0.0
  0
VERTEX
  5
28A
  8
BLACK
 10
-182.458392293075
 20
86.17016886002673
 30
0.0
  0
VERTEX
  5
28B
  8
BLACK
 10
-182.4945239839107
 20
86.19488842485235
 30
0.0
  0
VERTEX
  5
28C
  8
BLACK
 10
-182.5316033311492
 20
86.21897621874285
 30
0.0
  0
VERTEX
  5
28D
  8
BLACK
 10
-182.5695926074995
 20
86.24240835957131
 30
0.0
  0
VERTEX
  5
28E
  8
BLACK
 10
-182.6084523093982
 20
86.26516231345853
 30
0.0
  0
VERTEX
  5
28F
  8
BLACK
 10
-182.6481412934854
 20
86.28721696670344
 30
0.0
  0
VERTEX
  5
290
  8
BLACK
 10
-182.6886169207424
 20
86.30855269031669
 30
0.0
  0
VERTEX
  5
291
  8
BLACK
 10
-182.7298352072382
 20
86.32915139674898
 30
0.0
  0
VERTEX
  5
292
  8
BLACK
 10
-182.7717509803788
 20
86.34899658848205
 30
0.0
  0
VERTEX
  5
293
  8
BLACK
 10
-182.8143180395135
 20
86.3680733982285
 30
0.0
  0
VERTEX
  5
294
  8
BLACK
 10
-182.8574893197286
 20
86.38636862056863
 30
0.0
  0
VERTEX
  5
295
  8
BLACK
 10
-182.9012170576455
 20
86.40387073493355
 30
0.0
  0
VERTEX
  5
296
  8
BLACK
 10
-182.9454529580476
 20
86.42056991992511
 30
0.0
  0
VERTEX
  5
297
  8
BLACK
 10
-182.9901483601718
 20
86.4364580590433
 30
0.0
  0
VERTEX
  5
298
  8
BLACK
 10
-183.035254402536
 20
86.45152873796759
 30
0.0
  0
VERTEX
  5
299
  8
BLACK
 10
-183.0807221852142
 20
86.46577723361266
 30
0.0
  0
VERTEX
  5
29A
  8
BLACK
 10
-183.1265029285244
 20
86.47920049524632
 30
0.0
  0
VERTEX
  5
29B
  8
BLACK
 10
-183.1725481271601
 20
86.49179711802022
 30
0.0
  0
VERTEX
  5
29C
  8
BLACK
 10
-183.2188096988675
 20
86.5035673093202
 30
0.0
  0
VERTEX
  5
29D
  8
BLACK
 10
-183.2652401268533
 20
86.51451284839256
 30
0.0
  0
VERTEX
  5
29E
  8
BLACK
 10
-183.3584211165931
 20
86.53394466085301
 30
0.0
  0
VERTEX
  5
29F
  8
BLACK
 10
-183.4517272214709
 20
86.55013631799397
 30
0.0
  0
VERTEX
  5
2A0
  8
BLACK
 10
-183.5448114414595
 20
86.56315320782575
 30
0.0
  0
VERTEX
  5
2A1
  8
BLACK
 10
-183.6373467627298
 20
86.57308018949462
 30
0.0
  0
VERTEX
  5
2A2
  8
BLACK
 10
-183.7290286704884
 20
86.58001926142082
 30
0.0
  0
VERTEX
  5
2A3
  8
BLACK
 10
-183.8195770579865
 20
86.58408712554454
 30
0.0
  0
SEQEND
  5
2A4
  8
BLACK
  0
POLYLINE
  5
2A5
  8
BLACK
 66
     1
 10
0.0
 20
0.0
 30
0.0
 70
     1
  0
VERTEX
  5
2A6
  8
BLACK
 10
-45.64713506828551
 20
57.93691639428315
 30
0.0
 42
0.8950013178432656
  0
VERTEX
  5
2A7
  8
BLACK
 10
-63.33913879386698
 20
88.57813966644855
 30
0.0
  0
VERTEX
  5
2A8
  8
BLACK
 10
-96.1537412480654
 20
74.20155314272009
 30
0.0
  0
VERTEX
  5
2A9
  8
BLACK
 10
-93.6537412480654
 20
69.87142612379787
 30
0.0
  0
VERTEX
  5
2AA
  8
BLACK
 10
-96.40337190508096
 20
68.2839261237979
 30
0.0
  0
VERTEX
  5
2AB
  8
BLACK
 10
-88.87636724001179
 20
55.24677161639848
 30
0.0
  0
VERTEX
  5
2AC
  8
BLACK
 10
-83.98619075305287
 20
58.07011632752899
 30
0.0
  0
VERTEX
  5
2AD
  8
BLACK
 10
-85.23619075305287
 20
60.23517983699009
 30
0.0
  0
VERTEX
  5
2AE
  8
BLACK
 10
-82.42160819075345
 20
61.86017983699008
 30
0.0
  0
VERTEX
  5
2AF
  8
BLACK
 10
-81.17160819075345
 20
59.69511632752899
 30
0.0
  0
VERTEX
  5
2B0
  8
BLACK
 10
-80.30558278696908
 20
60.19511632752894
 30
0.0
  0
VERTEX
  5
2B1
  8
BLACK
 10
-78.7180827869691
 20
57.44548567051338
 30
0.0
  0
VERTEX
  5
2B2
  8
BLACK
 10
-79.58410819075353
 20
56.94548567051354
 30
0.0
  0
VERTEX
  5
2B3
  8
BLACK
 10
-78.33410819075347
 20
54.78042216105234
 30
0.0
  0
VERTEX
  5
2B4
  8
BLACK
 10
-81.14869075305289
 20
53.15542216105234
 30
0.0
  0
VERTEX
  5
2B5
  8
BLACK
 10
-82.39869075305295
 20
55.32048567051354
 30
0.0
  0
VERTEX
  5
2B6
  8
BLACK
 10
-87.28886724001181
 20
52.49714095938293
 30
0.0
  0
VERTEX
  5
2B7
  8
BLACK
 10
-79.75432419940647
 20
39.44692959993164
 30
0.0
  0
VERTEX
  5
2B8
  8
BLACK
 10
-77.00469354239094
 20
41.03442959993167
 30
0.0
  0
VERTEX
  5
2B9
  8
BLACK
 10
-74.50469354239091
 20
36.70430258100942
 30
0.0
  0
SEQEND
  5
2BA
  8
BLACK
  0
CIRCLE
  5
2BB
  8
BLACK
 10
-61.46114143953185
 20
63.15497898714216
 30
0.0
 40
0.6199999999999649
  0
CIRCLE
  5
2BC
  8
BLACK
 10
-45.66614143953189
 20
72.27422648899218
 30
0.0
 40
0.6200000000000117
  0
CIRCLE
  5
2BD
  8
BLACK
 10
-66.72614143953183
 20
72.27422648899226
 30
0.0
 40
0.6199999999999761
  0
CIRCLE
  5
2BE
  8
BLACK
 10
-50.93114143953193
 20
63.15497898714214
 30
0.0
 40
0.620000000000002
  0
CIRCLE
  5
2BF
  8
BLACK
 10
-50.93114143953191
 20
81.3934739908424
 30
0.0
 40
0.6200000000000285
  0
CIRCLE
  5
2C0
  8
BLACK
 10
-61.4611414395319
 20
81.39347399084238
 30
0.0
 40
0.6200000000000001
  0
CIRCLE
  5
2C1
  8
BLACK
 10
-56.1961414395319
 20
72.27422648899223
 30
0.0
 40
4.479999999999984
  0
POLYLINE
  5
2C2
  8
BLACK
 66
     1
 10
0.0
 20
0.0
 30
0.0
 70
     1
  0
VERTEX
  5
2C3
  8
BLACK
 10
63.33698544810405
 20
88.5766254842858
 30
0.0
 42
0.8950013178432669
  0
VERTEX
  5
2C4
  8
BLACK
 10
45.64690955416862
 20
57.93428917800063
 30
0.0
  0
VERTEX
  5
2C5
  8
BLACK
 10
74.50469993052172
 20
36.70430309944185
 30
0.0
  0
VERTEX
  5
2C6
  8
BLACK
 10
77.00469993052172
 20
41.03443011836404
 30
0.0
  0
VERTEX
  5
2C7
  8
BLACK
 10
79.75433058753728
 20
39.44693011836407
 30
0.0
  0
VERTEX
  5
2C8
  8
BLACK
 10
87.2813352514734
 20
52.48408462641765
 30
0.0
  0
VERTEX
  5
2C9
  8
BLACK
 10
82.39115876451442
 20
55.30742933754819
 30
0.0
  0
VERTEX
  5
2CA
  8
BLACK
 10
81.14115876451442
 20
53.14236582808709
 30
0.0
  0
VERTEX
  5
2CB
  8
BLACK
 10
78.326576202215
 20
54.76736582808709
 30
0.0
  0
VERTEX
  5
2CC
  8
BLACK
 10
79.576576202215
 20
56.93242933754819
 30
0.0
  0
VERTEX
  5
2CD
  8
BLACK
 10
78.71055079843066
 20
57.43242933754814
 30
0.0
  0
VERTEX
  5
2CE
  8
BLACK
 10
80.29805079843064
 20
60.18205999456369
 30
0.0
  0
VERTEX
  5
2CF
  8
BLACK
 10
81.16407620221491
 20
59.68205999456365
 30
0.0
  0
VERTEX
  5
2D0
  8
BLACK
 10
82.41407620221497
 20
61.84712350402484
 30
0.0
  0
VERTEX
  5
2D1
  8
BLACK
 10
85.22865876451439
 20
60.22212350402484
 30
0.0
  0
VERTEX
  5
2D2
  8
BLACK
 10
83.97865876451434
 20
58.05705999456365
 30
0.0
  0
VERTEX
  5
2D3
  8
BLACK
 10
86.1192045950244
 20
56.8212152831062
 30
0.0
  0
VERTEX
  5
2D4
  8
BLACK
 10
88.86883525147337
 20
55.2337152834332
 30
0.0
  0
VERTEX
  5
2D5
  8
BLACK
 10
96.40337829321177
 20
68.28392664223034
 30
0.0
  0
VERTEX
  5
2D6
  8
BLACK
 10
93.65374763619619
 20
69.87142664223026
 30
0.0
  0
VERTEX
  5
2D7
  8
BLACK
 10
96.15374763619621
 20
74.2015536611525
 30
0.0
  0
SEQEND
  5
2D8
  8
BLACK
  0
CIRCLE
  5
2D9
  8
BLACK
 10
56.19501386977409
 20
72.272262934748
 30
0.0
 40
1.749999999999992
  0
POLYLINE
  5
2DA
  8
BLACK
 66
     1
 10
0.0
 20
0.0
 30
0.0
 70
     1
  0
VERTEX
  5
2DB
  8
BLACK
 10
-100.5094310738347
 20
91.7185294880795
 30
0.0
  0
VERTEX
  5
2DC
  8
BLACK
 10
-107.3085412596319
 20
91.7185294880795
 30
0.0
  0
VERTEX
  5
2DD
  8
BLACK
 10
-107.3085412596319
 20
94.89352948807945
 30
0.0
  0
VERTEX
  5
2DE
  8
BLACK
 10
-87.36747233629512
 20
94.89352948807945
 30
0.0
  0
VERTEX
  5
2DF
  8
BLACK
 10
-87.36747233629512
 20
91.7185294880795
 30
0.0
  0
SEQEND
  5
2E0
  8
BLACK
  0
POLYLINE
  5
2E1
  8
BLACK
 66
     1
 10
0.0
 20
0.0
 30
0.0
 70
     1
  0
VERTEX
  5
2E2
  8
BLACK
 10
-144.1665739120266
 20
140.2246033069284
 30
0.0
  0
VERTEX
  5
2E3
  8
BLACK
 10
-157.3085326495661
 20
140.2246033069284
 30
0.0
  0
VERTEX
  5
2E4
  8
BLACK
 10
-157.3085326495661
 20
143.3996033069284
 30
0.0
  0
VERTEX
  5
2E5
  8
BLACK
 10
-137.3674637262294
 20
143.3996033069284
 30
0.0
  0
VERTEX
  5
2E6
  8
BLACK
 10
-137.3674637262294
 20
140.2246033069284
 30
0.0
  0
SEQEND
  5
2E7
  8
BLACK
  0
POLYLINE
  5
2E8
  8
BLACK
 66
     1
 10
0.0
 20
0.0
 30
0.0
 70
     1
  0
VERTEX
  5
2E9
  8
BLACK
 10
-144.1665739120266
 20
91.7185294880795
 30
0.0
  0
VERTEX
  5
2EA
  8
BLACK
 10
-157.3085326495661
 20
91.7185294880795
 30
0.0
  0
VERTEX
  5
2EB
  8
BLACK
 10
-157.3085326495661
 20
94.89352948807945
 30
0.0
  0
VERTEX
  5
2EC
  8
BLACK
 10
-137.3674637262294
 20
94.89352948807945
 30
0.0
  0
VERTEX
  5
2ED
  8
BLACK
 10
-137.3674637262294
 20
91.7185294880795
 30
0.0
  0
SEQEND
  5
2EE
  8
BLACK
  0
POLYLINE
  5
2EF
  8
BLACK
 66
     1
 10
0.0
 20
0.0
 30
0.0
 70
     1
  0
VERTEX
  5
2F0
  8
BLACK
 10
-88.3631050107133
 20
-30.50608082886301
 30
0.0
  0
VERTEX
  5
2F1
  8
BLACK
 10
-88.3631050107133
 20
-21.10895068487919
 30
0.0
  0
VERTEX
  5
2F2
  8
BLACK
 10
-100.5094310738347
 20
61.23407651868135
 30
0.0
  0
VERTEX
  5
2F3
  8
BLACK
 10
-100.5094310738347
 20
86.71852948807937
 30
0.0
  0
VERTEX
  5
2F4
  8
BLACK
 10
-87.36747233629512
 20
86.7185294880794
 30
0.0
 42
0.4142135623731035
  0
VERTEX
  5
2F5
  8
BLACK
 10
-77.36747233629514
 20
96.71852948807938
 30
0.0
  0
VERTEX
  5
2F6
  8
BLACK
 10
-77.36747233629512
 20
138.9335675725997
 30
0.0
 42
0.4142135623731026
  0
VERTEX
  5
2F7
  8
BLACK
 10
-87.36747233629512
 20
148.9335675725997
 30
0.0
  0
VERTEX
  5
2F8
  8
BLACK
 10
-157.3085326495661
 20
148.9335675725997
 30
0.0
 42
0.4142135623731107
  0
VERTEX
  5
2F9
  8
BLACK
 10
-167.3085326495661
 20
138.9335675725997
 30
0.0
  0
VERTEX
  5
2FA
  8
BLACK
 10
-167.3085326495661
 20
96.71852948807938
 30
0.0
 42
0.4142135623731263
  0
VERTEX
  5
2FB
  8
BLACK
 10
-157.3085326495661
 20
86.71852948807943
 30
0.0
  0
VERTEX
  5
2FC
  8
BLACK
 10
-144.1665739120266
 20
86.71852948807937
 30
0.0
  0
VERTEX
  5
2FD
  8
BLACK
 10
-144.1665739120266
 20
61.23407651868135
 30
0.0
  0
VERTEX
  5
2FE
  8
BLACK
 10
-156.3128999751478
 20
-21.10895068487919
 30
0.0
  0
VERTEX
  5
2FF
  8
BLACK
 10
-156.3128999751478
 20
-30.50608082886301
 30
0.0
 42
0.4142135623730997
  0
VERTEX
  5
300
  8
BLACK
 10
-146.3128999751477
 20
-40.50608082886269
 30
0.0
  0
VERTEX
  5
301
  8
BLACK
 10
-98.3631050107133
 20
-40.50608082886272
 30
0.0
 42
0.4142135623730952
  0
SEQEND
  5
302
  8
BLACK
  0
POLYLINE
  5
303
  8
BLACK
 66
     1
 10
0.0
 20
0.0
 30
0.0
 70
     1
  0
VERTEX
  5
304
  8
BLACK
 10
-125.7780024929306
 20
29.50483314370169
 30
0.0
  0
VERTEX
  5
305
  8
BLACK
 10
-125.7780024929306
 20
75.39137972370551
 30
0.0
 42
-0.4142135623730535
  0
VERTEX
  5
306
  8
BLACK
 10
-123.7780024929306
 20
77.39137972370551
 30
0.0
  0
VERTEX
  5
307
  8
BLACK
 10
-120.8980024929307
 20
77.3913797237055
 30
0.0
 42
-0.4142132661045561
  0
VERTEX
  5
308
  8
BLACK
 10
-118.8980024929307
 20
75.39137972370563
 30
0.0
  0
VERTEX
  5
309
  8
BLACK
 10
-118.8980024929307
 20
29.50483314370169
 30
0.0
 42
-0.4142134636169377
  0
VERTEX
  5
30A
  8
BLACK
 10
-120.8980024929307
 20
27.50483314370173
 30
0.0
  0
VERTEX
  5
30B
  8
BLACK
 10
-123.7780024929306
 20
27.50483314370175
 30
0.0
 42
-0.4142133648607306
  0
SEQEND
  5
30C
  8
BLACK
  0
POLYLINE
  5
30D
  8
BLACK
 66
     1
 10
0.0
 20
0.0
 30
0.0
 70
     1
  0
VERTEX
  5
30E
  8
BLACK
 10
-100.5094310738347
 20
140.2246033069284
 30
0.0
  0
VERTEX
  5
30F
  8
BLACK
 10
-107.3085412596319
 20
140.2246033069284
 30
0.0
  0
VERTEX
  5
310
  8
BLACK
 10
-107.3085412596319
 20
143.3996033069284
 30
0.0
  0
VERTEX
  5
311
  8
BLACK
 10
-87.36747233629512
 20
143.3996033069284
 30
0.0
  0
VERTEX
  5
312
  8
BLACK
 10
-87.36747233629512
 20
140.2246033069284
 30
0.0
  0
SEQEND
  5
313
  8
BLACK
  0
POLYLINE
  5
314
  8
BLACK
 66
     1
 10
0.0
 20
0.0
 30
0.0
 70
     1
  0
VERTEX
  5
315
  8
BLACK
 10
-132.3085420187566
 20
19.20853605722615
 30
0.0
  0
VERTEX
  5
316
  8
BLACK
 10
-112.3674730954199
 20
19.20853605722615
 30
0.0
  0
VERTEX
  5
317
  8
BLACK
 10
-112.3674730954199
 20
16.0335360572262
 30
0.0
  0
VERTEX
  5
318
  8
BLACK
 10
-132.3085420187566
 20
16.0335360572262
 30
0.0
  0
SEQEND
  5
319
  8
BLACK
  0
POLYLINE
  5
31A
  8
BLACK
 66
     1
 10
0.0
 20
0.0
 30
0.0
 70
     1
  0
VERTEX
  5
31B
  8
BLACK
 10
-132.5316724551296
 20
-27.54259908704161
 30
0.0
  0
VERTEX
  5
31C
  8
BLACK
 10
-132.5316724551296
 20
14.27859738264473
 30
0.0
  0
VERTEX
  5
31D
  8
BLACK
 10
-112.1443325307316
 20
14.27859738264473
 30
0.0
  0
VERTEX
  5
31E
  8
BLACK
 10
-112.1443325307316
 20
-27.54259908704161
 30
0.0
  0
SEQEND
  5
31F
  8
BLACK
  0
POLYLINE
  5
320
  8
BLACK
 66
     1
 10
0.0
 20
0.0
 30
0.0
 70
     1
  0
VERTEX
  5
321
  8
BLACK
 10
-132.3085420187566
 20
-29.29753776162273
 30
0.0
  0
VERTEX
  5
322
  8
BLACK
 10
-112.3674730954199
 20
-29.29753776162273
 30
0.0
  0
VERTEX
  5
323
  8
BLACK
 10
-112.3674730954199
 20
-32.4725377616228
 30
0.0
  0
VERTEX
  5
324
  8
BLACK
 10
-132.3085420187566
 20
-32.4725377616228
 30
0.0
  0
SEQEND
  5
325
  8
BLACK
  0
CIRCLE
  5
326
  8
BLACK
 10
-97.33799944117276
 20
127.8590663974252
 30
0.0
 40
1.75
  0
CIRCLE
  5
327
  8
BLACK
 10
-147.3380055446885
 20
127.8590663974252
 30
0.0
 40
1.75
  0
POLYLINE
  5
328
  8
BLACK
 66
     1
 10
0.0
 20
0.0
 30
0.0
 70
     1
  0
VERTEX
  5
329
  8
BLACK
 10
137.1443475424433
 20
96.64846816266103
 30
0.0
  0
VERTEX
  5
32A
  8
BLACK
 10
137.1443475424433
 20
138.4696646323474
 30
0.0
  0
VERTEX
  5
32B
  8
BLACK
 10
157.5316874668414
 20
138.4696646323474
 30
0.0
  0
VERTEX
  5
32C
  8
BLACK
 10
157.5316874668414
 20
96.64846816266103
 30
0.0
  0
SEQEND
  5
32D
  8
BLACK
  0
POLYLINE
  5
32E
  8
BLACK
 66
     1
 10
0.0
 20
0.0
 30
0.0
 70
     1
  0
VERTEX
  5
32F
  8
BLACK
 10
144.1665932287711
 20
140.2246033069284
 30
0.0
  0
VERTEX
  5
330
  8
BLACK
 10
137.367483042974
 20
140.2246033069284
 30
0.0
  0
VERTEX
  5
331
  8
BLACK
 10
137.367483042974
 20
143.3996033069285
 30
0.0
  0
VERTEX
  5
332
  8
BLACK
 10
157.3085519663107
 20
143.3996033069285
 30
0.0
  0
VERTEX
  5
333
  8
BLACK
 10
157.3085519663107
 20
140.2246033069284
 30
0.0
  0
SEQEND
  5
334
  8
BLACK
  0
POLYLINE
  5
335
  8
BLACK
 66
     1
 10
0.0
 20
0.0
 30
0.0
 70
     1
  0
VERTEX
  5
336
  8
BLACK
 10
144.1665932287711
 20
91.7185294880795
 30
0.0
  0
VERTEX
  5
337
  8
BLACK
 10
137.367483042974
 20
91.7185294880795
 30
0.0
  0
VERTEX
  5
338
  8
BLACK
 10
137.367483042974
 20
94.89352948807945
 30
0.0
  0
VERTEX
  5
339
  8
BLACK
 10
157.3085519663107
 20
94.89352948807945
 30
0.0
  0
VERTEX
  5
33A
  8
BLACK
 10
157.3085519663107
 20
91.7185294880795
 30
0.0
  0
SEQEND
  5
33B
  8
BLACK
  0
POLYLINE
  5
33C
  8
BLACK
 66
     1
 10
0.0
 20
0.0
 30
0.0
 70
     1
  0
VERTEX
  5
33D
  8
BLACK
 10
100.5094503905792
 20
96.64846816266103
 30
0.0
  0
VERTEX
  5
33E
  8
BLACK
 10
87.14435615250898
 20
96.64846816266103
 30
0.0
  0
VERTEX
  5
33F
  8
BLACK
 10
87.14435615250898
 20
138.4696646323474
 30
0.0
  0
VERTEX
  5
340
  8
BLACK
 10
107.5316960769071
 20
138.4696646323474
 30
0.0
  0
VERTEX
  5
341
  8
BLACK
 10
107.5316960769071
 20
96.64846816266103
 30
0.0
  0
SEQEND
  5
342
  8
BLACK
  0
POLYLINE
  5
343
  8
BLACK
 66
     1
 10
0.0
 20
0.0
 30
0.0
 70
     1
  0
VERTEX
  5
344
  8
BLACK
 10
100.5094503905792
 20
140.2246033069284
 30
0.0
  0
VERTEX
  5
345
  8
BLACK
 10
87.36749165303968
 20
140.2246033069284
 30
0.0
  0
VERTEX
  5
346
  8
BLACK
 10
87.36749165303968
 20
143.3996033069285
 30
0.0
  0
VERTEX
  5
347
  8
BLACK
 10
107.3085605763764
 20
143.3996033069285
 30
0.0
  0
VERTEX
  5
348
  8
BLACK
 10
107.3085605763764
 20
140.2246033069284
 30
0.0
  0
SEQEND
  5
349
  8
BLACK
  0
POLYLINE
  5
34A
  8
BLACK
 66
     1
 10
0.0
 20
0.0
 30
0.0
 70
     1
  0
VERTEX
  5
34B
  8
BLACK
 10
100.5094503905792
 20
91.7185294880795
 30
0.0
  0
VERTEX
  5
34C
  8
BLACK
 10
87.36749165303968
 20
91.7185294880795
 30
0.0
  0
VERTEX
  5
34D
  8
BLACK
 10
87.36749165303968
 20
94.89352948807945
 30
0.0
  0
VERTEX
  5
34E
  8
BLACK
 10
107.3085605763764
 20
94.89352948807945
 30
0.0
  0
VERTEX
  5
34F
  8
BLACK
 10
107.3085605763764
 20
91.7185294880795
 30
0.0
  0
SEQEND
  5
350
  8
BLACK
  0
POLYLINE
  5
351
  8
BLACK
 66
     1
 10
0.0
 20
0.0
 30
0.0
 70
     1
  0
VERTEX
  5
352
  8
BLACK
 10
156.3129192918925
 20
-30.50608082886301
 30
0.0
  0
VERTEX
  5
353
  8
BLACK
 10
156.3129192918925
 20
-21.10895068487913
 30
0.0
  0
VERTEX
  5
354
  8
BLACK
 10
144.1665932287711
 20
61.23407651868135
 30
0.0
  0
VERTEX
  5
355
  8
BLACK
 10
144.1665932287711
 20
86.71852948807937
 30
0.0
  0
VERTEX
  5
356
  8
BLACK
 10
157.3085519663107
 20
86.71852948807938
 30
0.0
 42
0.414213562373095
  0
VERTEX
  5
357
  8
BLACK
 10
167.3085519663107
 20
96.71852948807938
 30
0.0
  0
VERTEX
  5
358
  8
BLACK
 10
167.3085519663107
 20
138.3996033069285
 30
0.0
 42
0.414213562373095
  0
VERTEX
  5
359
  8
BLACK
 10
157.3085519663107
 20
148.3996033069285
 30
0.0
  0
VERTEX
  5
35A
  8
BLACK
 10
87.36749165303968
 20
148.3996033069285
 30
0.0
 42
0.4142135623731122
  0
VERTEX
  5
35B
  8
BLACK
 10
77.36749165303968
 20
138.3996033069285
 30
0.0
  0
VERTEX
  5
35C
  8
BLACK
 10
77.36749165303969
 20
96.71852948807938
 30
0.0
 42
0.4142135623731119
  0
VERTEX
  5
35D
  8
BLACK
 10
87.36749165303968
 20
86.7185294880794
 30
0.0
  0
VERTEX
  5
35E
  8
BLACK
 10
100.5094503905792
 20
86.71852948807937
 30
0.0
  0
VERTEX
  5
35F
  8
BLACK
 10
100.5094503905792
 20
61.23407651868135
 30
0.0
  0
VERTEX
  5
360
  8
BLACK
 10
88.36312432745797
 20
-21.10895068487913
 30
0.0
  0
VERTEX
  5
361
  8
BLACK
 10
88.36312432745797
 20
-30.50608082886301
 30
0.0
 42
0.4142135623730965
  0
VERTEX
  5
362
  8
BLACK
 10
98.36312432745785
 20
-40.50608082886266
 30
0.0
  0
VERTEX
  5
363
  8
BLACK
 10
146.3129192918925
 20
-40.50608082886267
 30
0.0
 42
0.4142135623730904
  0
SEQEND
  5
364
  8
BLACK
  0
POLYLINE
  5
365
  8
BLACK
 66
     1
 10
0.0
 20
0.0
 30
0.0
 70
     1
  0
VERTEX
  5
366
  8
BLACK
 10
118.8980218096752
 20
29.5048331437018
 30
0.0
  0
VERTEX
  5
367
  8
BLACK
 10
118.8980218096752
 20
75.39137972370557
 30
0.0
 42
-0.4142135623731124
  0
VERTEX
  5
368
  8
BLACK
 10
120.8980218096752
 20
77.39137972370558
 30
0.0
  0
VERTEX
  5
369
  8
BLACK
 10
123.7780218096751
 20
77.39137972370557
 30
0.0
 42
-0.414213463616948
  0
VERTEX
  5
36A
  8
BLACK
 10
125.7780218096751
 20
75.39137972370563
 30
0.0
  0
VERTEX
  5
36B
  8
BLACK
 10
125.7780218096751
 20
29.50483314370175
 30
0.0
 42
-0.4142134636168638
  0
VERTEX
  5
36C
  8
BLACK
 10
123.7780218096751
 20
27.50483314370179
 30
0.0
  0
VERTEX
  5
36D
  8
BLACK
 10
120.8980218096752
 20
27.5048331437018
 30
0.0
 42
-0.4142135623731329
  0
SEQEND
  5
36E
  8
BLACK
  0
POLYLINE
  5
36F
  8
BLACK
 66
     1
 10
0.0
 20
0.0
 30
0.0
 70
     1
  0
VERTEX
  5
370
  8
BLACK
 10
112.3674822838492
 20
19.20853605722621
 30
0.0
  0
VERTEX
  5
371
  8
BLACK
 10
132.3085512071859
 20
19.20853605722621
 30
0.0
  0
VERTEX
  5
372
  8
BLACK
 10
132.3085512071859
 20
16.03353605722626
 30
0.0
  0
VERTEX
  5
373
  8
BLACK
 10
112.3674822838492
 20
16.03353605722626
 30
0.0
  0
SEQEND
  5
374
  8
BLACK
  0
POLYLINE
  5
375
  8
BLACK
 66
     1
 10
0.0
 20
0.0
 30
0.0
 70
     1
  0
VERTEX
  5
376
  8
BLACK
 10
112.3674822838492
 20
-29.29753776162268
 30
0.0
  0
VERTEX
  5
377
  8
BLACK
 10
132.3085512071859
 20
-29.29753776162268
 30
0.0
  0
VERTEX
  5
378
  8
BLACK
 10
132.3085512071859
 20
-32.47253776162275
 30
0.0
  0
VERTEX
  5
379
  8
BLACK
 10
112.3674822838492
 20
-32.47253776162275
 30
0.0
  0
SEQEND
  5
37A
  8
BLACK
  0
POLYLINE
  5
37B
  8
BLACK
 66
     1
 10
0.0
 20
0.0
 30
0.0
 70
     1
  0
VERTEX
  5
37C
  8
BLACK
 10
-25.12473475696487
 20
-144.9358022304608
 30
0.0
  0
VERTEX
  5
37D
  8
BLACK
 10
-25.12473475696487
 20
-148.1108022304609
 30
0.0
  0
VERTEX
  5
37E
  8
BLACK
 10
-1.58749865983793
 20
-148.1108022304609
 30
0.0
  0
VERTEX
  5
37F
  8
BLACK
 10
-1.587498659837816
 20
-142.3708022304608
 30
0.0
  0
VERTEX
  5
380
  8
BLACK
 10
-4.08749865983793
 20
-142.3708022304608
 30
0.0
  0
VERTEX
  5
381
  8
BLACK
 10
-4.08749865983793
 20
-139.1208022304608
 30
0.0
  0
VERTEX
  5
382
  8
BLACK
 10
-1.587498659837816
 20
-139.1208022304608
 30
0.0
  0
VERTEX
  5
383
  8
BLACK
 10
-1.58749865983793
 20
-138.1208022304608
 30
0.0
  0
VERTEX
  5
384
  8
BLACK
 10
1.587501340162024
 20
-138.1208022304608
 30
0.0
  0
VERTEX
  5
385
  8
BLACK
 10
1.587501340162024
 20
-139.1208022304608
 30
0.0
  0
VERTEX
  5
386
  8
BLACK
 10
4.087501340162081
 20
-139.1208022304608
 30
0.0
  0
VERTEX
  5
387
  8
BLACK
 10
4.087501340162081
 20
-142.3708022304608
 30
0.0
  0
VERTEX
  5
388
  8
BLACK
 10
1.587501340162024
 20
-142.3708022304608
 30
0.0
  0
VERTEX
  5
389
  8
BLACK
 10
1.587501340162024
 20
-148.1108022304609
 30
0.0
  0
VERTEX
  5
38A
  8
BLACK
 10
25.12473608629046
 20
-148.1108022304609
 30
0.0
  0
VERTEX
  5
38B
  8
BLACK
 10
25.12473608629046
 20
-144.9358022304608
 30
0.0
  0
VERTEX
  5
38C
  8
BLACK
 10
30.12473608629046
 20
-144.9358022304609
 30
0.0
  0
VERTEX
  5
38D
  8
BLACK
 10
30.12473608629043
 20
-134.9003135358091
 30
0.0
 42
0.4142135623730495
  0
VERTEX
  5
38E
  8
BLACK
 10
20.12473608629051
 20
-124.9003135358116
 30
0.0
  0
VERTEX
  5
38F
  8
BLACK
 10
-20.12473475696498
 20
-124.9003135358096
 30
0.0
 42
0.4142135623730915
  0
VERTEX
  5
390
  8
BLACK
 10
-30.12473475696491
 20
-134.9003135358091
 30
0.0
  0
VERTEX
  5
391
  8
BLACK
 10
-30.12473475696492
 20
-144.9358022304609
 30
0.0
  0
SEQEND
  5
392
  8
BLACK
  0
CIRCLE
  5
393
  8
BLACK
 10
-14.99999930770721
 20
-134.9180060926942
 30
0.0
 40
5.014999999999983
  0
CIRCLE
  5
394
  8
BLACK
 10
15.00000069229277
 20
-134.9180060926942
 30
0.0
 40
5.015000000000024
  0
POLYLINE
  5
395
  8
BLACK
 66
     1
 10
0.0
 20
0.0
 30
0.0
 70
     1
  0
VERTEX
  5
396
  8
BLACK
 10
77.7575204668824
 20
-17.94094263390838
 30
0.0
  0
VERTEX
  5
397
  8
BLACK
 10
74.58252046688244
 20
-17.94094263390838
 30
0.0
  0
VERTEX
  5
398
  8
BLACK
 10
74.58252046688244
 20
-12.94094263390838
 30
0.0
  0
VERTEX
  5
399
  8
BLACK
 10
-72.75752495412422
 20
-12.94094263390831
 30
0.0
 42
0.4142135623730957
  0
VERTEX
  5
39A
  8
BLACK
 10
-77.75752495412428
 20
-17.94094263390849
 30
0.0
  0
VERTEX
  5
39B
  8
BLACK
 10
-77.75752495412429
 20
-117.039695729714
 30
0.0
 42
0.4142135623730892
  0
VERTEX
  5
39C
  8
BLACK
 10
-72.75752495412434
 20
-122.0396957297141
 30
0.0
  0
VERTEX
  5
39D
  8
BLACK
 10
74.58252046688244
 20
-122.0396957297141
 30
0.0
  0
VERTEX
  5
39E
  8
BLACK
 10
74.58252046688244
 20
-117.0396957297141
 30
0.0
  0
VERTEX
  5
39F
  8
BLACK
 10
77.7575204668824
 20
-117.0396957297141
 30
0.0
  0
VERTEX
  5
3A0
  8
BLACK
 10
77.7575204668824
 20
-69.0778191818116
 30
0.0
  0
VERTEX
  5
3A1
  8
BLACK
 10
74.01752046688219
 20
-69.07781918181166
 30
0.0
  0
VERTEX
  5
3A2
  8
BLACK
 10
74.01752046688219
 20
-71.57781918181166
 30
0.0
  0
VERTEX
  5
3A3
  8
BLACK
 10
70.76752046688219
 20
-71.57781918181166
 30
0.0
  0
VERTEX
  5
3A4
  8
BLACK
 10
70.76752046688219
 20
-69.07781918181166
 30
0.0
  0
VERTEX
  5
3A5
  8
BLACK
 10
67.76752046688219
 20
-69.0778191818116
 30
0.0
  0
VERTEX
  5
3A6
  8
BLACK
 10
67.76752046688219
 20
-65.90281918181165
 30
0.0
  0
VERTEX
  5
3A7
  8
BLACK
 10
70.76752046688219
 20
-65.90281918181176
 30
0.0
  0
VERTEX
  5
3A8
  8
BLACK
 10
70.76752046688219
 20
-63.40281918181171
 30
0.0
  0
VERTEX
  5
3A9
  8
BLACK
 10
74.01752046688219
 20
-63.40281918181171
 30
0.0
  0
VERTEX
  5
3AA
  8
BLACK
 10
74.01752046688219
 20
-65.90281918181176
 30
0.0
  0
VERTEX
  5
3AB
  8
BLACK
 10
77.7575204668824
 20
-65.90281918181165
 30
0.0
  0
SEQEND
  5
3AC
  8
BLACK
  0
POLYLINE
  5
3AD
  8
BLACK
 66
     1
 10
0.0
 20
0.0
 30
0.0
 70
     1
  0
VERTEX
  5
3AE
  8
BLACK
 10
-8.39209165466741
 20
-94.71056841458778
 30
0.0
  0
VERTEX
  5
3AF
  8
BLACK
 10
-8.392091654667396
 20
-100.9700651839809
 30
0.0
 42
-0.4142135623731213
  0
VERTEX
  5
3B0
  8
BLACK
 10
-10.39209165466741
 20
-102.9700651839809
 30
0.0
  0
VERTEX
  5
3B1
  8
BLACK
 10
-51.21297500782089
 20
-102.9700651839809
 30
0.0
 42
-0.4142135623731213
  0
VERTEX
  5
3B2
  8
BLACK
 10
-53.21297500782088
 20
-100.9700651839809
 30
0.0
  0
VERTEX
  5
3B3
  8
BLACK
 10
-53.21297500782089
 20
-94.71056841458773
 30
0.0
 42
-0.4142135623730789
  0
VERTEX
  5
3B4
  8
BLACK
 10
-51.21297500782089
 20
-92.71056841458778
 30
0.0
  0
VERTEX
  5
3B5
  8
BLACK
 10
-10.3920916546673
 20
-92.71056841458778
 30
0.0
 42
-0.4142135623731136
  0
SEQEND
  5
3B6
  8
BLACK
  0
POLYLINE
  5
3B7
  8
BLACK
 66
     1
 10
0.0
 20
0.0
 30
0.0
 70
     1
  0
VERTEX
  5
3B8
  8
BLACK
 10
-72.75752679651953
 20
-117.0396957297141
 30
0.0
  0
VERTEX
  5
3B9
  8
BLACK
 10
-72.75752679651953
 20
-17.94094263390838
 30
0.0
  0
VERTEX
  5
3BA
  8
BLACK
 10
-69.58252679651952
 20
-17.94094263390838
 30
0.0
  0
VERTEX
  5
3BB
  8
BLACK
 10
-69.58252679651952
 20
-117.0396957297141
 30
0.0
  0
SEQEND
  5
3BC
  8
BLACK
  0
POLYLINE
  5
3BD
  8
BLACK
 66
     1
 10
0.0
 20
0.0
 30
0.0
 70
     1
  0
VERTEX
  5
3BE
  8
BLACK
 10
7.977475045875735
 20
-117.0396957297141
 30
0.0
  0
VERTEX
  5
3BF
  8
BLACK
 10
7.977475045875735
 20
-17.94094263390838
 30
0.0
  0
VERTEX
  5
3C0
  8
BLACK
 10
11.15247504587569
 20
-17.94094263390838
 30
0.0
  0
VERTEX
  5
3C1
  8
BLACK
 10
11.15247504587569
 20
-117.0396957297141
 30
0.0
  0
SEQEND
  5
3C2
  8
BLACK
  0
CIRCLE
  5
3C3
  8
BLACK
 10
-57.12252548818154
 20
-15.50504860854565
 30
0.0
 40
0.6200100000000077
  0
CIRCLE
  5
3C4
  8
BLACK
 10
-4.482525488181549
 20
-15.50504860854565
 30
0.0
 40
0.620010000000006
  0
CIRCLE
  5
3C5
  8
BLACK
 10
-57.12252548818154
 20
-87.83504860854568
 30
0.0
 40
0.6200100000000077
  0
CIRCLE
  5
3C6
  8
BLACK
 10
-4.482525488181551
 20
-87.83504860854569
 30
0.0
 40
0.6200100000000077
  0
CIRCLE
  5
3C7
  8
BLACK
 10
17.65138384016072
 20
-21.97617771947401
 30
0.0
 40
0.6200100000000042
  0
CIRCLE
  5
3C8
  8
BLACK
 10
65.97050750517016
 20
-28.35617771947435
 30
0.0
 40
0.6200100000000077
  0
CIRCLE
  5
3C9
  8
BLACK
 10
65.97050750517016
 20
-103.7961777194742
 30
0.0
 40
0.6200100000000077
  0
CIRCLE
  5
3CA
  8
BLACK
 10
17.65138384016073
 20
-104.4961777194742
 30
0.0
 40
0.6200099999999935
  0
CIRCLE
  5
3CB
  8
BLACK
 10
24.60050750517024
 20
-55.52617771947421
 30
0.0
 40
0.62000999999999
  0
CIRCLE
  5
3CC
  8
BLACK
 10
50.32050750517109
 20
-55.52617771947419
 30
0.0
 40
0.6200100000000148
  0
POLYLINE
  5
3CD
  8
BLACK
 66
     1
 10
0.0
 20
0.0
 30
0.0
 70
     1
  0
VERTEX
  5
3CE
  8
BLACK
 10
-245.3278759192136
 20
7.850077471220125
 30
0.0
  0
VERTEX
  5
3CF
  8
BLACK
 10
-245.3278759192136
 20
23.84990324755012
 30
0.0
  0
VERTEX
  5
3D0
  8
BLACK
 10
-242.1528759192137
 20
23.84990324755012
 30
0.0
  0
VERTEX
  5
3D1
  8
BLACK
 10
-242.1528759192137
 20
7.850077471220125
 30
0.0
  0
SEQEND
  5
3D2
  8
BLACK
  0
POLYLINE
  5
3D3
  8
BLACK
 66
     1
 10
0.0
 20
0.0
 30
0.0
 70
     1
  0
VERTEX
  5
3D4
  8
BLACK
 10
-208.3911912400147
 20
7.850077471220068
 30
0.0
  0
VERTEX
  5
3D5
  8
BLACK
 10
-208.3911912400147
 20
28.84990324755012
 30
0.0
  0
VERTEX
  5
3D6
  8
BLACK
 10
-211.6415337398263
 20
54.59526612896149
 30
0.0
 42
0.9083083524997468
  0
VERTEX
  5
3D7
  8
BLACK
 10
-247.0775348322443
 20
54.59526612896151
 30
0.0
  0
VERTEX
  5
3D8
  8
BLACK
 10
-250.3278773320559
 20
28.84990324755012
 30
0.0
  0
VERTEX
  5
3D9
  8
BLACK
 10
-250.3278773320559
 20
7.850077471220125
 30
0.0
 42
0.4142134636168946
  0
VERTEX
  5
3DA
  8
BLACK
 10
-245.327877332056
 20
2.850077471219976
 30
0.0
  0
VERTEX
  5
3DB
  8
BLACK
 10
-213.3911912400148
 20
2.850077471220023
 30
0.0
 42
0.4142135623730988
  0
SEQEND
  5
3DC
  8
BLACK
  0
POLYLINE
  5
3DD
  8
BLACK
 66
     1
 10
0.0
 20
0.0
 30
0.0
 70
     1
  0
VERTEX
  5
3DE
  8
BLACK
 10
-216.5661912400147
 20
7.850077471220125
 30
0.0
  0
VERTEX
  5
3DF
  8
BLACK
 10
-216.5661912400147
 20
23.84990324755012
 30
0.0
  0
VERTEX
  5
3E0
  8
BLACK
 10
-213.3911912400147
 20
23.84990324755012
 30
0.0
  0
VERTEX
  5
3E1
  8
BLACK
 10
-213.3911912400147
 20
7.850077471220125
 30
0.0
  0
SEQEND
  5
3E2
  8
BLACK
  0
CIRCLE
  5
3E3
  8
BLACK
 10
-224.0945342860352
 20
62.00792151652833
 30
0.0
 40
0.619999999999993
  0
CIRCLE
  5
3E4
  8
BLACK
 10
-234.6245342860353
 20
62.00792151652834
 30
0.0
 40
0.620000000000038
  0
CIRCLE
  5
3E5
  8
BLACK
 10
-239.8895342860353
 20
52.8886740146782
 30
0.0
 40
0.6200000000000045
  0
CIRCLE
  5
3E6
  8
BLACK
 10
-234.6245342860354
 20
43.76942651282806
 30
0.0
 40
0.6199999999999849
  0
CIRCLE
  5
3E7
  8
BLACK
 10
-224.0945342860352
 20
43.7694265128281
 30
0.0
 40
0.6200000000000077
  0
CIRCLE
  5
3E8
  8
BLACK
 10
-218.8295342860353
 20
52.88867401467822
 30
0.0
 40
0.6200000000000045
  0
CIRCLE
  5
3E9
  8
BLACK
 10
-229.3595353343313
 20
52.88867401467817
 30
0.0
 40
4.657543966865877
  0
POLYLINE
  5
3EA
  8
BLACK
 66
     1
 10
0.0
 20
0.0
 30
0.0
 70
     1
  0
VERTEX
  5
3EB
  8
BLACK
 10
-161.9002386630549
 20
7.850077471220045
 30
0.0
  0
VERTEX
  5
3EC
  8
BLACK
 10
-161.9002386630549
 20
28.84990324755015
 30
0.0
  0
VERTEX
  5
3ED
  8
BLACK
 10
-165.1505811628664
 20
54.59526612896146
 30
0.0
 42
0.9083083524997491
  0
VERTEX
  5
3EE
  8
BLACK
 10
-200.5865822552846
 20
54.59526612896151
 30
0.0
  0
VERTEX
  5
3EF
  8
BLACK
 10
-203.8369247550961
 20
28.84990324755015
 30
0.0
  0
VERTEX
  5
3F0
  8
BLACK
 10
-203.8369247550963
 20
7.850077471219986
 30
0.0
 42
0.4142134636168891
  0
VERTEX
  5
3F1
  8
BLACK
 10
-198.8369247550964
 20
2.850077471219993
 30
0.0
  0
VERTEX
  5
3F2
  8
BLACK
 10
-166.9002386630548
 20
2.850077471219929
 30
0.0
 42
0.4142132661045493
  0
SEQEND
  5
3F3
  8
BLACK
  0
POLYLINE
  5
3F4
  8
BLACK
 66
     1
 10
0.0
 20
0.0
 30
0.0
 70
     1
  0
VERTEX
  5
3F5
  8
BLACK
 10
-195.6619233422538
 20
7.850077471220125
 30
0.0
  0
VERTEX
  5
3F6
  8
BLACK
 10
-198.8369233422538
 20
7.850077471220125
 30
0.0
  0
VERTEX
  5
3F7
  8
BLACK
 10
-198.8369233422538
 20
23.84990324755012
 30
0.0
  0
VERTEX
  5
3F8
  8
BLACK
 10
-195.6619233422538
 20
23.84990324755012
 30
0.0
  0
SEQEND
  5
3F9
  8
BLACK
  0
POLYLINE
  5
3FA
  8
BLACK
 66
     1
 10
0.0
 20
0.0
 30
0.0
 70
     1
  0
VERTEX
  5
3FB
  8
BLACK
 10
-166.9002386630549
 20
7.850077471220125
 30
0.0
  0
VERTEX
  5
3FC
  8
BLACK
 10
-170.0752386630549
 20
7.850077471220125
 30
0.0
  0
VERTEX
  5
3FD
  8
BLACK
 10
-170.0752386630549
 20
23.84990324755012
 30
0.0
  0
VERTEX
  5
3FE
  8
BLACK
 10
-166.9002386630549
 20
23.84990324755012
 30
0.0
  0
SEQEND
  5
3FF
  8
BLACK
  0
CIRCLE
  5
400
  8
BLACK
 10
-182.8685827573715
 20
52.88867352444425
 30
0.0
 40
1.749413755134669
  0
POLYLINE
  5
401
  8
BLACK
 66
     1
 10
0.0
 20
0.0
 30
0.0
 70
     1
  0
VERTEX
  5
402
  8
BLACK
 10
170.0752386630549
 20
7.850077471220125
 30
0.0
  0
VERTEX
  5
403
  8
BLACK
 10
166.9002386630549
 20
7.850077471220125
 30
0.0
  0
VERTEX
  5
404
  8
BLACK
 10
166.9002386630549
 20
23.84990324755012
 30
0.0
  0
VERTEX
  5
405
  8
BLACK
 10
170.0752386630549
 20
23.84990324755012
 30
0.0
  0
SEQEND
  5
406
  8
BLACK
  0
POLYLINE
  5
407
  8
BLACK
 66
     1
 10
0.0
 20
0.0
 30
0.0
 70
     1
  0
VERTEX
  5
408
  8
BLACK
 10
198.8369233422538
 20
7.850077471220125
 30
0.0
  0
VERTEX
  5
409
  8
BLACK
 10
195.6619233422538
 20
7.850077471220125
 30
0.0
  0
VERTEX
  5
40A
  8
BLACK
 10
195.6619233422538
 20
23.84990324755012
 30
0.0
  0
VERTEX
  5
40B
  8
BLACK
 10
198.8369233422538
 20
23.84990324755012
 30
0.0
  0
SEQEND
  5
40C
  8
BLACK
  0
POLYLINE
  5
40D
  8
BLACK
 66
     1
 10
0.0
 20
0.0
 30
0.0
 70
     1
  0
VERTEX
  5
40E
  8
BLACK
 10
161.9002386630549
 20
28.84990324755015
 30
0.0
  0
VERTEX
  5
40F
  8
BLACK
 10
161.9002386630549
 20
7.850077471220044
 30
0.0
 42
0.414213364860718
  0
VERTEX
  5
410
  8
BLACK
 10
166.9002386630549
 20
2.85007747121994
 30
0.0
  0
VERTEX
  5
411
  8
BLACK
 10
198.8369247550964
 20
2.850077471220012
 30
0.0
 42
0.4142134636168753
  0
VERTEX
  5
412
  8
BLACK
 10
203.8369247550962
 20
7.850077471219987
 30
0.0
  0
VERTEX
  5
413
  8
BLACK
 10
203.8369247550961
 20
28.84990324755015
 30
0.0
  0
VERTEX
  5
414
  8
BLACK
 10
200.5865822552845
 20
54.59526612896151
 30
0.0
 42
0.9083083524997408
  0
VERTEX
  5
415
  8
BLACK
 10
165.1505811628665
 20
54.59526612896153
 30
0.0
  0
SEQEND
  5
416
  8
BLACK
  0
CIRCLE
  5
417
  8
BLACK
 10
182.8685827573715
 20
52.88867352444421
 30
0.0
 40
1.749413755134704
  0
POLYLINE
  5
418
  8
BLACK
 66
     1
 10
0.0
 20
0.0
 30
0.0
 70
     1
  0
VERTEX
  5
419
  8
BLACK
 10
245.3278759192136
 20
23.84990324755012
 30
0.0
  0
VERTEX
  5
41A
  8
BLACK
 10
245.3278759192136
 20
7.850077471220125
 30
0.0
  0
VERTEX
  5
41B
  8
BLACK
 10
242.1528759192137
 20
7.850077471220125
 30
0.0
  0
VERTEX
  5
41C
  8
BLACK
 10
242.1528759192137
 20
23.84990324755012
 30
0.0
  0
SEQEND
  5
41D
  8
BLACK
  0
POLYLINE
  5
41E
  8
BLACK
 66
     1
 10
0.0
 20
0.0
 30
0.0
 70
     1
  0
VERTEX
  5
41F
  8
BLACK
 10
216.5661912400147
 20
23.84990324755012
 30
0.0
  0
VERTEX
  5
420
  8
BLACK
 10
216.5661912400147
 20
7.850077471220125
 30
0.0
  0
VERTEX
  5
421
  8
BLACK
 10
213.3911912400147
 20
7.850077471220125
 30
0.0
  0
VERTEX
  5
422
  8
BLACK
 10
213.3911912400147
 20
23.84990324755012
 30
0.0
  0
SEQEND
  5
423
  8
BLACK
  0
POLYLINE
  5
424
  8
BLACK
 66
     1
 10
0.0
 20
0.0
 30
0.0
 70
     1
  0
VERTEX
  5
425
  8
BLACK
 10
208.3911912400147
 20
28.84990324755012
 30
0.0
  0
VERTEX
  5
426
  8
BLACK
 10
208.3911912400147
 20
7.850077471220068
 30
0.0
 42
0.4142135623730925
  0
VERTEX
  5
427
  8
BLACK
 10
213.3911912400148
 20
2.850077471220025
 30
0.0
  0
VERTEX
  5
428
  8
BLACK
 10
245.327877332056
 20
2.850077471220004
 30
0.0
 42
0.4142134636169078
  0
VERTEX
  5
429
  8
BLACK
 10
250.3278773320559
 20
7.850077471220124
 30
0.0
  0
VERTEX
  5
42A
  8
BLACK
 10
250.3278773320559
 20
28.84990324755012
 30
0.0
  0
VERTEX
  5
42B
  8
BLACK
 10
247.0775348322443
 20
54.59526612896155
 30
0.0
 42
0.9083083524997461
  0
VERTEX
  5
42C
  8
BLACK
 10
211.6415337398263
 20
54.5952661289615
 30
0.0
  0
SEQEND
  5
42D
  8
BLACK
  0
CIRCLE
  5
42E
  8
BLACK
 10
224.0945342860354
 20
62.00792151652835
 30
0.0
 40
0.6199999999999987
  0
CIRCLE
  5
42F
  8
BLACK
 10
234.6245342860353
 20
62.00792151652829
 30
0.0
 40
0.6200000000000015
  0
CIRCLE
  5
430
  8
BLACK
 10
239.8895342860353
 20
52.8886740146782
 30
0.0
 40
0.620000000000033
  0
CIRCLE
  5
431
  8
BLACK
 10
234.6245342860353
 20
43.76942651282809
 30
0.0
 40
0.6199999999999685
  0
CIRCLE
  5
432
  8
BLACK
 10
224.0945342860352
 20
43.76942651282807
 30
0.0
 40
0.6199999999999911
  0
CIRCLE
  5
433
  8
BLACK
 10
218.8295342860353
 20
52.8886740146782
 30
0.0
 40
0.6200000000000045
  0
CIRCLE
  5
434
  8
BLACK
 10
229.3595353343312
 20
52.88867401467814
 30
0.0
 40
4.657543966865898
  0
POLYLINE
  5
435
  8
BLACK
 66
     1
 10
0.0
 20
0.0
 30
0.0
 70
     1
  0
VERTEX
  5
436
  8
BLACK
 10
-145.1920480164392
 20
-69.5910025334623
 30
0.0
  0
VERTEX
  5
437
  8
BLACK
 10
-145.1920480164392
 20
-66.71100253346242
 30
0.0
 42
-0.4142134636168989
  0
VERTEX
  5
438
  8
BLACK
 10
-143.1920480164392
 20
-64.71100253346242
 30
0.0
  0
VERTEX
  5
439
  8
BLACK
 10
-101.4839651652037
 20
-64.71100253346243
 30
0.0
 42
-0.4142135623730706
  0
VERTEX
  5
43A
  8
BLACK
 10
-99.48396516520371
 20
-66.71100253346242
 30
0.0
  0
VERTEX
  5
43B
  8
BLACK
 10
-99.48396516520368
 20
-69.5910025334623
 30
0.0
 42
-0.4142133648607627
  0
VERTEX
  5
43C
  8
BLACK
 10
-101.4839651652036
 20
-71.59100253346232
 30
0.0
  0
VERTEX
  5
43D
  8
BLACK
 10
-143.1920480164392
 20
-71.5910025334623
 30
0.0
 42
-0.4142135623731815
  0
SEQEND
  5
43E
  8
BLACK
  0
POLYLINE
  5
43F
  8
BLACK
 66
     1
 10
0.0
 20
0.0
 30
0.0
 70
     1
  0
VERTEX
  5
440
  8
BLACK
 10
-149.8380065908223
 20
-85.27545211040524
 30
0.0
  0
VERTEX
  5
441
  8
BLACK
 10
-149.8380065908223
 20
-82.10045211040517
 30
0.0
  0
VERTEX
  5
442
  8
BLACK
 10
-94.83800659082226
 20
-82.10045211040517
 30
0.0
  0
VERTEX
  5
443
  8
BLACK
 10
-94.83800659082226
 20
-85.27545211040524
 30
0.0
  0
SEQEND
  5
444
  8
BLACK
  0
POLYLINE
  5
445
  8
BLACK
 66
     1
 10
0.0
 20
0.0
 30
0.0
 70
     1
  0
VERTEX
  5
446
  8
BLACK
 10
-149.8380065908223
 20
-54.20155295651966
 30
0.0
  0
VERTEX
  5
447
  8
BLACK
 10
-149.8380065908223
 20
-51.02655295651959
 30
0.0
  0
VERTEX
  5
448
  8
BLACK
 10
-94.83800659082226
 20
-51.02655295651959
 30
0.0
  0
VERTEX
  5
449
  8
BLACK
 10
-94.83800659082226
 20
-54.20155295651966
 30
0.0
  0
SEQEND
  5
44A
  8
BLACK
  0
POLYLINE
  5
44B
  8
BLACK
 66
     1
 10
0.0
 20
0.0
 30
0.0
 70
     1
  0
VERTEX
  5
44C
  8
BLACK
 10
-89.83800659082215
 20
-85.27545211040535
 30
0.0
  0
VERTEX
  5
44D
  8
BLACK
 10
-89.83800659082215
 20
-51.02655295651959
 30
0.0
 42
0.4142135623730576
  0
VERTEX
  5
44E
  8
BLACK
 10
-94.83800659082124
 20
-46.02655295651973
 30
0.0
  0
VERTEX
  5
44F
  8
BLACK
 10
-149.8380065908217
 20
-46.02655295651959
 30
0.0
 42
0.4142135623730591
  0
VERTEX
  5
450
  8
BLACK
 10
-154.8380065908221
 20
-51.02655295651959
 30
0.0
  0
VERTEX
  5
451
  8
BLACK
 10
-154.8380065908221
 20
-85.27545211040524
 30
0.0
 42
0.4142135623730943
  0
VERTEX
  5
452
  8
BLACK
 10
-149.8380065908229
 20
-90.27545211040501
 30
0.0
  0
VERTEX
  5
453
  8
BLACK
 10
-94.83800659082237
 20
-90.27545211040524
 30
0.0
 42
0.4142135623731235
  0
SEQEND
  5
454
  8
BLACK
  0
POLYLINE
  5
455
  8
BLACK
 66
     1
 10
0.0
 20
0.0
 30
0.0
 70
     1
  0
VERTEX
  5
456
  8
BLACK
 10
145.1920480164392
 20
-66.71100253346242
 30
0.0
  0
VERTEX
  5
457
  8
BLACK
 10
145.1920480164392
 20
-69.5910025334623
 30
0.0
 42
-0.4142135623731615
  0
VERTEX
  5
458
  8
BLACK
 10
143.1920480164392
 20
-71.5910025334623
 30
0.0
  0
VERTEX
  5
459
  8
BLACK
 10
101.4839651652036
 20
-71.59100253346233
 30
0.0
 42
-0.4142133648607694
  0
VERTEX
  5
45A
  8
BLACK
 10
99.48396516520368
 20
-69.5910025334623
 30
0.0
  0
VERTEX
  5
45B
  8
BLACK
 10
99.48396516520371
 20
-66.71100253346242
 30
0.0
 42
-0.4142135623730883
  0
VERTEX
  5
45C
  8
BLACK
 10
101.4839651652037
 20
-64.71100253346243
 30
0.0
  0
VERTEX
  5
45D
  8
BLACK
 10
143.1920480164392
 20
-64.7110025334624
 30
0.0
 42
-0.414213364860755
  0
SEQEND
  5
45E
  8
BLACK
  0
POLYLINE
  5
45F
  8
BLACK
 66
     1
 10
0.0
 20
0.0
 30
0.0
 70
     1
  0
VERTEX
  5
460
  8
BLACK
 10
149.8380065908223
 20
-82.10045211040517
 30
0.0
  0
VERTEX
  5
461
  8
BLACK
 10
149.8380065908223
 20
-85.27545211040524
 30
0.0
  0
VERTEX
  5
462
  8
BLACK
 10
94.83800659082226
 20
-85.27545211040524
 30
0.0
  0
VERTEX
  5
463
  8
BLACK
 10
94.83800659082226
 20
-82.10045211040517
 30
0.0
  0
SEQEND
  5
464
  8
BLACK
  0
POLYLINE
  5
465
  8
BLACK
 66
     1
 10
0.0
 20
0.0
 30
0.0
 70
     1
  0
VERTEX
  5
466
  8
BLACK
 10
149.8380065908223
 20
-51.02655295651959
 30
0.0
  0
VERTEX
  5
467
  8
BLACK
 10
149.8380065908223
 20
-54.20155295651966
 30
0.0
  0
VERTEX
  5
468
  8
BLACK
 10
94.83800659082226
 20
-54.20155295651966
 30
0.0
  0
VERTEX
  5
469
  8
BLACK
 10
94.83800659082226
 20
-51.02655295651959
 30
0.0
  0
SEQEND
  5
46A
  8
BLACK
  0
POLYLINE
  5
46B
  8
BLACK
 66
     1
 10
0.0
 20
0.0
 30
0.0
 70
     1
  0
VERTEX
  5
46C
  8
BLACK
 10
89.83800659082215
 20
-51.02655295651959
 30
0.0
  0
VERTEX
  5
46D
  8
BLACK
 10
89.83800659082215
 20
-85.27545211040535
 30
0.0
 42
0.4142135623731238
  0
VERTEX
  5
46E
  8
BLACK
 10
94.83800659082237
 20
-90.27545211040521
 30
0.0
  0
VERTEX
  5
46F
  8
BLACK
 10
149.8380065908229
 20
-90.275452110405
 30
0.0
 42
0.4142135623730876
  0
VERTEX
  5
470
  8
BLACK
 10
154.8380065908221
 20
-85.27545211040524
 30
0.0
  0
VERTEX
  5
471
  8
BLACK
 10
154.8380065908221
 20
-51.02655295651959
 30
0.0
 42
0.4142135623730688
  0
VERTEX
  5
472
  8
BLACK
 10
149.8380065908217
 20
-46.02655295651959
 30
0.0
  0
VERTEX
  5
473
  8
BLACK
 10
94.83800659082124
 20
-46.02655295651971
 30
0.0
 42
0.4142135623730589
  0
SEQEND
  5
474
  8
BLACK
  0
POLYLINE
  5
475
  8
BLACK
 66
     1
 10
0.0
 20
0.0
 30
0.0
 70
     1
  0
VERTEX
  5
476
  8
BLACK
 10
-290.316912065121
 20
-121.0981138550462
 30
0.0
  0
VERTEX
  5
477
  8
BLACK
 10
-293.4919120651209
 20
-121.0981138550462
 30
0.0
  0
VERTEX
  5
478
  8
BLACK
 10
-293.4919120651209
 20
-105.0982880787162
 30
0.0
  0
VERTEX
  5
479
  8
BLACK
 10
-290.316912065121
 20
-105.0982880787162
 30
0.0
  0
SEQEND
  5
47A
  8
BLACK
  0
POLYLINE
  5
47B
  8
BLACK
 66
     1
 10
0.0
 20
0.0
 30
0.0
 70
     1
  0
VERTEX
  5
47C
  8
BLACK
 10
-256.5552273859222
 20
-121.0981138550462
 30
0.0
  0
VERTEX
  5
47D
  8
BLACK
 10
-256.5552273859222
 20
-100.0982880787162
 30
0.0
  0
VERTEX
  5
47E
  8
BLACK
 10
-259.8055698857338
 20
-74.35292519730478
 30
0.0
 42
0.9083083524997481
  0
VERTEX
  5
47F
  8
BLACK
 10
-295.2415709781518
 20
-74.35292519730473
 30
0.0
  0
VERTEX
  5
480
  8
BLACK
 10
-298.4919134779634
 20
-100.0982880787162
 30
0.0
  0
VERTEX
  5
481
  8
BLACK
 10
-298.4919134779636
 20
-121.0981138550463
 30
0.0
 42
0.4142134636168876
  0
VERTEX
  5
482
  8
BLACK
 10
-293.4919134779637
 20
-126.0981138550463
 30
0.0
  0
VERTEX
  5
483
  8
BLACK
 10
-261.5552273859221
 20
-126.0981138550464
 30
0.0
 42
0.414213463616888
  0
SEQEND
  5
484
  8
BLACK
  0
POLYLINE
  5
485
  8
BLACK
 66
     1
 10
0.0
 20
0.0
 30
0.0
 70
     1
  0
VERTEX
  5
486
  8
BLACK
 10
-261.5552273859223
 20
-121.0981138550462
 30
0.0
  0
VERTEX
  5
487
  8
BLACK
 10
-264.7302273859223
 20
-121.0981138550462
 30
0.0
  0
VERTEX
  5
488
  8
BLACK
 10
-264.7302273859223
 20
-105.0982880787162
 30
0.0
  0
VERTEX
  5
489
  8
BLACK
 10
-261.5552273859223
 20
-105.0982880787162
 30
0.0
  0
SEQEND
  5
48A
  8
BLACK
  0
CIRCLE
  5
48B
  8
BLACK
 10
-277.5235714802388
 20
-76.05951780182211
 30
0.0
 40
1.749413755134725
  0
POLYLINE
  5
48C
  8
BLACK
 66
     1
 10
0.0
 20
0.0
 30
0.0
 70
     1
  0
VERTEX
  5
48D
  8
BLACK
 10
-293.4919060674102
 20
-47.1064384025134
 30
0.0
  0
VERTEX
  5
48E
  8
BLACK
 10
-293.4919060674102
 20
-31.10661262618337
 30
0.0
  0
VERTEX
  5
48F
  8
BLACK
 10
-290.3169060674103
 20
-31.10661262618337
 30
0.0
  0
VERTEX
  5
490
  8
BLACK
 10
-290.3169060674103
 20
-47.1064384025134
 30
0.0
  0
SEQEND
  5
491
  8
BLACK
  0
POLYLINE
  5
492
  8
BLACK
 66
     1
 10
0.0
 20
0.0
 30
0.0
 70
     1
  0
VERTEX
  5
493
  8
BLACK
 10
-264.7302213882114
 20
-47.1064384025134
 30
0.0
  0
VERTEX
  5
494
  8
BLACK
 10
-264.7302213882114
 20
-31.10661262618337
 30
0.0
  0
VERTEX
  5
495
  8
BLACK
 10
-261.5552213882114
 20
-31.10661262618337
 30
0.0
  0
VERTEX
  5
496
  8
BLACK
 10
-261.5552213882114
 20
-47.1064384025134
 30
0.0
  0
SEQEND
  5
497
  8
BLACK
  0
POLYLINE
  5
498
  8
BLACK
 66
     1
 10
0.0
 20
0.0
 30
0.0
 70
     1
  0
VERTEX
  5
499
  8
BLACK
 10
-256.5552213882114
 20
-47.10643840251345
 30
0.0
  0
VERTEX
  5
49A
  8
BLACK
 10
-256.5552213882114
 20
-26.10661262618337
 30
0.0
  0
VERTEX
  5
49B
  8
BLACK
 10
-259.8055638880229
 20
-0.3612497447720262
 30
0.0
 42
0.9083083524997441
  0
VERTEX
  5
49C
  8
BLACK
 10
-295.2415649804409
 20
-0.3612497447719605
 30
0.0
  0
VERTEX
  5
49D
  8
BLACK
 10
-298.4919074802525
 20
-26.10661262618337
 30
0.0
  0
VERTEX
  5
49E
  8
BLACK
 10
-298.4919074802525
 20
-47.10643840251343
 30
0.0
 42
0.4142135623731026
  0
VERTEX
  5
49F
  8
BLACK
 10
-293.4919074802526
 20
-52.10643840251346
 30
0.0
  0
VERTEX
  5
4A0
  8
BLACK
 10
-261.5552213882115
 20
-52.10643840251348
 30
0.0
 42
0.4142135623730991
  0
SEQEND
  5
4A1
  8
BLACK
  0
CIRCLE
  5
4A2
  8
BLACK
 10
-272.2585644342319
 20
7.051405642794875
 30
0.0
 40
0.6200000000000232
  0
CIRCLE
  5
4A3
  8
BLACK
 10
-282.788564434232
 20
7.051405642794819
 30
0.0
 40
0.6199999999999997
  0
CIRCLE
  5
4A4
  8
BLACK
 10
-288.0535644342319
 20
-2.06784185905531
 30
0.0
 40
0.6200000000000045
  0
CIRCLE
  5
4A5
  8
BLACK
 10
-282.7885644342321
 20
-11.18708936090545
 30
0.0
 40
0.6199999999999973
  0
CIRCLE
  5
4A6
  8
BLACK
 10
-272.2585644342319
 20
-11.18708936090546
 30
0.0
 40
0.619999999999998
  0
CIRCLE
  5
4A7
  8
BLACK
 10
-266.993564434232
 20
-2.067841859055263
 30
0.0
 40
0.6200000000000614
  0
CIRCLE
  5
4A8
  8
BLACK
 10
-277.5235654825281
 20
-2.067841859055342
 30
0.0
 40
4.657543966865879
  0
POLYLINE
  5
4A9
  8
BLACK
 66
     1
 10
0.0
 20
0.0
 30
0.0
 70
     1
  0
VERTEX
  5
4AA
  8
BLACK
 10
293.4919060674102
 20
-31.10661262618337
 30
0.0
  0
VERTEX
  5
4AB
  8
BLACK
 10
293.4919060674102
 20
-47.1064384025134
 30
0.0
  0
VERTEX
  5
4AC
  8
BLACK
 10
290.3169060674103
 20
-47.1064384025134
 30
0.0
  0
VERTEX
  5
4AD
  8
BLACK
 10
290.3169060674103
 20
-31.10661262618337
 30
0.0
  0
SEQEND
  5
4AE
  8
BLACK
  0
POLYLINE
  5
4AF
  8
BLACK
 66
     1
 10
0.0
 20
0.0
 30
0.0
 70
     1
  0
VERTEX
  5
4B0
  8
BLACK
 10
256.5552213882114
 20
-26.10661262618337
 30
0.0
  0
VERTEX
  5
4B1
  8
BLACK
 10
256.5552213882113
 20
-47.10643840251345
 30
0.0
 42
0.4142135623730828
  0
VERTEX
  5
4B2
  8
BLACK
 10
261.5552213882115
 20
-52.10643840251348
 30
0.0
  0
VERTEX
  5
4B3
  8
BLACK
 10
293.4919074802526
 20
-52.1064384025135
 30
0.0
 42
0.4142135623731154
  0
VERTEX
  5
4B4
  8
BLACK
 10
298.4919074802526
 20
-47.10643840251343
 30
0.0
  0
VERTEX
  5
4B5
  8
BLACK
 10
298.4919074802525
 20
-26.10661262618337
 30
0.0
  0
VERTEX
  5
4B6
  8
BLACK
 10
295.2415649804408
 20
-0.3612497447719596
 30
0.0
 42
0.9083083524997463
  0
VERTEX
  5
4B7
  8
BLACK
 10
259.8055638880228
 20
-0.3612497447720253
 30
0.0
  0
SEQEND
  5
4B8
  8
BLACK
  0
POLYLINE
  5
4B9
  8
BLACK
 66
     1
 10
0.0
 20
0.0
 30
0.0
 70
     1
  0
VERTEX
  5
4BA
  8
BLACK
 10
264.7302213882114
 20
-31.10661262618337
 30
0.0
  0
VERTEX
  5
4BB
  8
BLACK
 10
264.7302213882114
 20
-47.1064384025134
 30
0.0
  0
VERTEX
  5
4BC
  8
BLACK
 10
261.5552213882114
 20
-47.1064384025134
 30
0.0
  0
VERTEX
  5
4BD
  8
BLACK
 10
261.5552213882114
 20
-31.10661262618337
 30
0.0
  0
SEQEND
  5
4BE
  8
BLACK
  0
CIRCLE
  5
4BF
  8
BLACK
 10
272.2585644342319
 20
7.051405642794847
 30
0.0
 40
0.6199999999999765
  0
CIRCLE
  5
4C0
  8
BLACK
 10
282.7885644342321
 20
7.051405642794728
 30
0.0
 40
0.6199999999999237
  0
CIRCLE
  5
4C1
  8
BLACK
 10
288.0535644342319
 20
-2.06784185905525
 30
0.0
 40
0.6200000000000614
  0
CIRCLE
  5
4C2
  8
BLACK
 10
282.788564434232
 20
-11.18708936090542
 30
0.0
 40
0.619999999999945
  0
CIRCLE
  5
4C3
  8
BLACK
 10
272.2585644342319
 20
-11.18708936090549
 30
0.0
 40
0.6199999999999735
  0
CIRCLE
  5
4C4
  8
BLACK
 10
266.993564434232
 20
-2.067841859055402
 30
0.0
 40
0.6200000000000614
  0
CIRCLE
  5
4C5
  8
BLACK
 10
277.5235654825279
 20
-2.067841859055363
 30
0.0
 40
4.657543966865884
  0
POLYLINE
  5
4C6
  8
BLACK
 66
     1
 10
0.0
 20
0.0
 30
0.0
 70
     1
  0
VERTEX
  5
4C7
  8
BLACK
 10
264.7302273859223
 20
-121.0981138550462
 30
0.0
  0
VERTEX
  5
4C8
  8
BLACK
 10
261.5552273859223
 20
-121.0981138550462
 30
0.0
  0
VERTEX
  5
4C9
  8
BLACK
 10
261.5552273859223
 20
-105.0982880787162
 30
0.0
  0
VERTEX
  5
4CA
  8
BLACK
 10
264.7302273859223
 20
-105.0982880787162
 30
0.0
  0
SEQEND
  5
4CB
  8
BLACK
  0
POLYLINE
  5
4CC
  8
BLACK
 66
     1
 10
0.0
 20
0.0
 30
0.0
 70
     1
  0
VERTEX
  5
4CD
  8
BLACK
 10
256.5552273859222
 20
-100.0982880787162
 30
0.0
  0
VERTEX
  5
4CE
  8
BLACK
 10
256.5552273859222
 20
-121.0981138550462
 30
0.0
 42
0.4142134636168858
  0
VERTEX
  5
4CF
  8
BLACK
 10
261.5552273859221
 20
-126.0981138550463
 30
0.0
  0
VERTEX
  5
4D0
  8
BLACK
 10
293.4919134779637
 20
-126.0981138550463
 30
0.0
 42
0.4142134636168767
  0
VERTEX
  5
4D1
  8
BLACK
 10
298.4919134779634
 20
-121.0981138550463
 30
0.0
  0
VERTEX
  5
4D2
  8
BLACK
 10
298.4919134779634
 20
-100.0982880787162
 30
0.0
  0
VERTEX
  5
4D3
  8
BLACK
 10
295.2415709781517
 20
-74.35292519730473
 30
0.0
 42
0.9083083524997466
  0
VERTEX
  5
4D4
  8
BLACK
 10
259.8055698857339
 20
-74.35292519730478
 30
0.0
  0
SEQEND
  5
4D5
  8
BLACK
  0
POLYLINE
  5
4D6
  8
BLACK
 66
     1
 10
0.0
 20
0.0
 30
0.0
 70
     1
  0
VERTEX
  5
4D7
  8
BLACK
 10
293.4919120651209
 20
-121.0981138550462
 30
0.0
  0
VERTEX
  5
4D8
  8
BLACK
 10
290.316912065121
 20
-121.0981138550462
 30
0.0
  0
VERTEX
  5
4D9
  8
BLACK
 10
290.316912065121
 20
-105.0982880787162
 30
0.0
  0
VERTEX
  5
4DA
  8
BLACK
 10
293.4919120651209
 20
-105.0982880787162
 30
0.0
  0
SEQEND
  5
4DB
  8
BLACK
  0
CIRCLE
  5
4DC
  8
BLACK
 10
277.5235714802387
 20
-76.0595178018221
 30
0.0
 40
1.749413755134699
  0
POLYLINE
  5
4DD
  8
BLACK
 66
     1
 10
0.0
 20
0.0
 30
0.0
 70
     1
  0
VERTEX
  5
4DE
  8
BLACK
 10
195.6619247550962
 20
-6.852994541103946
 30
0.0
  0
VERTEX
  5
4DF
  8
BLACK
 10
198.8369247550962
 20
-6.852994541103946
 30
0.0
  0
VERTEX
  5
4E0
  8
BLACK
 10
198.8369247550962
 20
-22.85282031743395
 30
0.0
  0
VERTEX
  5
4E1
  8
BLACK
 10
195.6619247550962
 20
-22.85282031743395
 30
0.0
  0
SEQEND
  5
4E2
  8
BLACK
  0
POLYLINE
  5
4E3
  8
BLACK
 66
     1
 10
0.0
 20
0.0
 30
0.0
 70
     1
  0
VERTEX
  5
4E4
  8
BLACK
 10
166.9002400758973
 20
-6.852994541103946
 30
0.0
  0
VERTEX
  5
4E5
  8
BLACK
 10
170.0752400758973
 20
-6.852994541103946
 30
0.0
  0
VERTEX
  5
4E6
  8
BLACK
 10
170.0752400758973
 20
-22.85282031743395
 30
0.0
  0
VERTEX
  5
4E7
  8
BLACK
 10
166.9002400758973
 20
-22.85282031743395
 30
0.0
  0
SEQEND
  5
4E8
  8
BLACK
  0
POLYLINE
  5
4E9
  8
BLACK
 66
     1
 10
0.0
 20
0.0
 30
0.0
 70
     1
  0
VERTEX
  5
4EA
  8
BLACK
 10
203.8369247550962
 20
-27.85282031743407
 30
0.0
  0
VERTEX
  5
4EB
  8
BLACK
 10
203.8369247550962
 20
-6.852994541103916
 30
0.0
 42
0.4142135623730943
  0
VERTEX
  5
4EC
  8
BLACK
 10
198.8369247550962
 20
-1.852994541103754
 30
0.0
  0
VERTEX
  5
4ED
  8
BLACK
 10
166.9002386630546
 20
-1.852994541103854
 30
0.0
 42
0.4142134636168833
  0
VERTEX
  5
4EE
  8
BLACK
 10
161.9002386630548
 20
-6.852994541103858
 30
0.0
  0
VERTEX
  5
4EF
  8
BLACK
 10
161.900238663055
 20
-27.85282031743407
 30
0.0
  0
VERTEX
  5
4F0
  8
BLACK
 10
165.1505811628666
 20
-53.59818319884543
 30
0.0
 42
0.9083083524997446
  0
VERTEX
  5
4F1
  8
BLACK
 10
200.5865822552848
 20
-53.59818319884527
 30
0.0
  0
SEQEND
  5
4F2
  8
BLACK
  0
CIRCLE
  5
4F3
  8
BLACK
 10
182.8685806607795
 20
-51.89159059432805
 30
0.0
 40
1.74941375513469
  0
POLYLINE
  5
4F4
  8
BLACK
 66
     1
 10
0.0
 20
0.0
 30
0.0
 70
     1
  0
VERTEX
  5
4F5
  8
BLACK
 10
213.3911926528568
 20
-22.85282031743395
 30
0.0
  0
VERTEX
  5
4F6
  8
BLACK
 10
213.3911926528568
 20
-6.852994541103946
 30
0.0
  0
VERTEX
  5
4F7
  8
BLACK
 10
216.5661926528568
 20
-6.852994541103946
 30
0.0
  0
VERTEX
  5
4F8
  8
BLACK
 10
216.5661926528568
 20
-22.85282031743395
 30
0.0
  0
SEQEND
  5
4F9
  8
BLACK
  0
POLYLINE
  5
4FA
  8
BLACK
 66
     1
 10
0.0
 20
0.0
 30
0.0
 70
     1
  0
VERTEX
  5
4FB
  8
BLACK
 10
250.3278773320557
 20
-27.85282031743395
 30
0.0
  0
VERTEX
  5
4FC
  8
BLACK
 10
250.3278773320557
 20
-6.852994541103889
 30
0.0
 42
0.4142135623731122
  0
VERTEX
  5
4FD
  8
BLACK
 10
245.3278773320557
 20
-1.852994541103899
 30
0.0
  0
VERTEX
  5
4FE
  8
BLACK
 10
213.3911912400144
 20
-1.852994541103895
 30
0.0
 42
0.4142135623731092
  0
VERTEX
  5
4FF
  8
BLACK
 10
208.3911912400146
 20
-6.852994541103946
 30
0.0
  0
VERTEX
  5
500
  8
BLACK
 10
208.3911912400146
 20
-27.85282031743395
 30
0.0
  0
VERTEX
  5
501
  8
BLACK
 10
211.6415337398261
 20
-53.59818319884541
 30
0.0
 42
0.9083083524997392
  0
VERTEX
  5
502
  8
BLACK
 10
247.0775348322443
 20
-53.59818319884533
 30
0.0
  0
SEQEND
  5
503
  8
BLACK
  0
POLYLINE
  5
504
  8
BLACK
 66
     1
 10
0.0
 20
0.0
 30
0.0
 70
     1
  0
VERTEX
  5
505
  8
BLACK
 10
242.1528773320557
 20
-22.85282031743395
 30
0.0
  0
VERTEX
  5
506
  8
BLACK
 10
242.1528773320557
 20
-6.852994541103946
 30
0.0
  0
VERTEX
  5
507
  8
BLACK
 10
245.3278773320557
 20
-6.852994541103946
 30
0.0
  0
VERTEX
  5
508
  8
BLACK
 10
245.3278773320557
 20
-22.85282031743395
 30
0.0
  0
SEQEND
  5
509
  8
BLACK
  0
CIRCLE
  5
50A
  8
BLACK
 10
234.6245342860352
 20
-61.01083858641213
 30
0.0
 40
0.6200000000000072
  0
CIRCLE
  5
50B
  8
BLACK
 10
224.0945342860352
 20
-61.01083858641217
 30
0.0
 40
0.6199999999999987
  0
CIRCLE
  5
50C
  8
BLACK
 10
218.8295342860352
 20
-51.89159108456207
 30
0.0
 40
0.620000000000033
  0
CIRCLE
  5
50D
  8
BLACK
 10
224.0945342860351
 20
-42.77234358271191
 30
0.0
 40
0.6200000000000564
  0
CIRCLE
  5
50E
  8
BLACK
 10
234.6245342860352
 20
-42.77234358271195
 30
0.0
 40
0.6199999999999627
  0
CIRCLE
  5
50F
  8
BLACK
 10
239.8895342860352
 20
-51.89159108456207
 30
0.0
 40
0.6200000000000045
  0
CIRCLE
  5
510
  8
BLACK
 10
229.359533237739
 20
-51.89159108456198
 30
0.0
 40
4.657543966865824
  0
POLYLINE
  5
511
  8
BLACK
 66
     1
 10
0.0
 20
0.0
 30
0.0
 70
     1
  0
VERTEX
  5
512
  8
BLACK
 10
174.2114874294003
 20
-112.016519198595
 30
0.0
  0
VERTEX
  5
513
  8
BLACK
 10
191.4809228859129
 20
-112.016519198595
 30
0.0
 42
-0.4142133648606783
  0
VERTEX
  5
514
  8
BLACK
 10
193.4809228859129
 20
-114.016519198595
 30
0.0
  0
VERTEX
  5
515
  8
BLACK
 10
193.4809228859129
 20
-115.3997930115142
 30
0.0
 42
-0.414213266104494
  0
VERTEX
  5
516
  8
BLACK
 10
191.4809228859129
 20
-117.3997930115142
 30
0.0
  0
VERTEX
  5
517
  8
BLACK
 10
174.2114874294003
 20
-117.3997930115141
 30
0.0
 42
-0.4142133648606788
  0
VERTEX
  5
518
  8
BLACK
 10
172.2114874294003
 20
-115.3997930115141
 30
0.0
  0
VERTEX
  5
519
  8
BLACK
 10
172.2114874294002
 20
-114.016519198595
 30
0.0
 42
-0.4142135623730473
  0
SEQEND
  5
51A
  8
BLACK
  0
POLYLINE
  5
51B
  8
BLACK
 66
     1
 10
0.0
 20
0.0
 30
0.0
 70
     1
  0
VERTEX
  5
51C
  8
BLACK
 10
162.8462722826565
 20
-123.3196267374638
 30
0.0
  0
VERTEX
  5
51D
  8
BLACK
 10
162.8462722826565
 20
-133.3196267374638
 30
0.0
  0
VERTEX
  5
51E
  8
BLACK
 10
202.8461380326564
 20
-133.3196267374638
 30
0.0
  0
VERTEX
  5
51F
  8
BLACK
 10
202.8461380326564
 20
-123.3196267374638
 30
0.0
  0
VERTEX
  5
520
  8
BLACK
 10
200.6068787770487
 20
-89.6888550371936
 30
0.0
 42
0.9356305974708738
  0
VERTEX
  5
521
  8
BLACK
 10
165.085531538263
 20
-89.68885503720799
 30
0.0
  0
SEQEND
  5
522
  8
BLACK
  0
CIRCLE
  5
523
  8
BLACK
 10
182.8462051576562
 20
-90.87142536720307
 30
0.0
 40
1.75
  0
CIRCLE
  5
524
  8
BLACK
 10
172.3462051576564
 20
-128.5696267374638
 30
0.0
 40
0.9999999999999716
  0
CIRCLE
  5
525
  8
BLACK
 10
193.3462051576565
 20
-128.5696267374638
 30
0.0
 40
0.9999999999999716
  0
CIRCLE
  5
526
  8
BLACK
 10
182.8462051576565
 20
-128.5696267374637
 30
0.0
 40
0.9999999999999432
  0
POLYLINE
  5
527
  8
BLACK
 66
     1
 10
0.0
 20
0.0
 30
0.0
 70
     1
  0
VERTEX
  5
528
  8
BLACK
 10
220.7844003179757
 20
-112.016519198595
 30
0.0
  0
VERTEX
  5
529
  8
BLACK
 10
238.0538357744883
 20
-112.016519198595
 30
0.0
 42
-0.4142134636168305
  0
VERTEX
  5
52A
  8
BLACK
 10
240.0538357744883
 20
-114.016519198595
 30
0.0
  0
VERTEX
  5
52B
  8
BLACK
 10
240.0538357744883
 20
-115.3997930115141
 30
0.0
 42
-0.4142133648606557
  0
VERTEX
  5
52C
  8
BLACK
 10
238.0538357744883
 20
-117.3997930115142
 30
0.0
  0
VERTEX
  5
52D
  8
BLACK
 10
220.7844003179756
 20
-117.3997930115141
 30
0.0
 42
-0.4142134636169125
  0
VERTEX
  5
52E
  8
BLACK
 10
218.7844003179756
 20
-115.3997930115141
 30
0.0
  0
VERTEX
  5
52F
  8
BLACK
 10
218.7844003179756
 20
-114.016519198595
 30
0.0
 42
-0.4142134636169154
  0
SEQEND
  5
530
  8
BLACK
  0
POLYLINE
  5
531
  8
BLACK
 66
     1
 10
0.0
 20
0.0
 30
0.0
 70
     1
  0
VERTEX
  5
532
  8
BLACK
 10
209.4191851712318
 20
-123.3196267374638
 30
0.0
  0
VERTEX
  5
533
  8
BLACK
 10
209.4191851712318
 20
-133.3196267374638
 30
0.0
  0
VERTEX
  5
534
  8
BLACK
 10
249.4190509212318
 20
-133.3196267374638
 30
0.0
  0
VERTEX
  5
535
  8
BLACK
 10
249.4190509212318
 20
-123.3196267374638
 30
0.0
  0
VERTEX
  5
536
  8
BLACK
 10
247.1797916656241
 20
-89.6888550371936
 30
0.0
 42
0.9356305974708743
  0
VERTEX
  5
537
  8
BLACK
 10
211.6584444268383
 20
-89.68885503720799
 30
0.0
  0
SEQEND
  5
538
  8
BLACK
  0
CIRCLE
  5
539
  8
BLACK
 10
229.4191180462315
 20
-90.87142536720282
 30
0.0
 40
4.480000000000047
  0
CIRCLE
  5
53A
  8
BLACK
 10
234.6841180462315
 20
-81.75217786535272
 30
0.0
 40
0.6199999999999685
  0
CIRCLE
  5
53B
  8
BLACK
 10
234.6841180462314
 20
-99.99067286905296
 30
0.0
 40
0.6200000000000092
  0
CIRCLE
  5
53C
  8
BLACK
 10
224.1541180462314
 20
-81.75217786535273
 30
0.0
 40
0.6199999999999949
  0
CIRCLE
  5
53D
  8
BLACK
 10
239.9491180462315
 20
-90.87142536720285
 30
0.0
 40
0.6200000000000045
  0
CIRCLE
  5
53E
  8
BLACK
 10
224.1541180462314
 20
-99.99067286905294
 30
0.0
 40
0.6200000000000214
  0
CIRCLE
  5
53F
  8
BLACK
 10
218.8891180462315
 20
-90.87142536720282
 30
0.0
 40
0.6200000000000045
  0
CIRCLE
  5
540
  8
BLACK
 10
218.9191180462317
 20
-128.5696267374638
 30
0.0
 40
1.000000000000028
  0
CIRCLE
  5
541
  8
BLACK
 10
239.9191180462319
 20
-128.5696267374638
 30
0.0
 40
1.0
  0
CIRCLE
  5
542
  8
BLACK
 10
229.4191180462319
 20
-128.5696267374638
 30
0.0
 40
1.0
  0
POLYLINE
  5
543
  8
BLACK
 66
     1
 10
0.0
 20
0.0
 30
0.0
 70
     1
  0
VERTEX
  5
544
  8
BLACK
 10
257.2073580305864
 20
96.0210866674957
 30
0.0
  0
VERTEX
  5
545
  8
BLACK
 10
257.2073580305864
 20
92.85608759565976
 30
0.0
 42
0.4147987410593849
  0
VERTEX
  5
546
  8
BLACK
 10
262.2173489569143
 20
87.85609757753036
 30
0.0
  0
VERTEX
  5
547
  8
BLACK
 10
293.7421415664544
 20
87.91909007937971
 30
0.0
 42
0.4136284280961459
  0
VERTEX
  5
548
  8
BLACK
 10
298.7321506401271
 20
92.91908009750782
 30
0.0
  0
VERTEX
  5
549
  8
BLACK
 10
298.732150640127
 20
96.10406106189096
 30
0.0
  0
VERTEX
  5
54A
  8
BLACK
 10
295.6993118547506
 20
130.0927961471099
 30
0.0
 42
0.9148414684500211
  0
VERTEX
  5
54B
  8
BLACK
 10
260.2398561409884
 20
130.0889735803263
 30
0.0
  0
SEQEND
  5
54C
  8
BLACK
  0
POLYLINE
  5
54D
  8
BLACK
 66
     1
 10
0.0
 20
0.0
 30
0.0
 70
     1
  0
VERTEX
  5
54E
  8
BLACK
 10
262.2072543353568
 20
96.06257386469335
 30
0.0
  0
VERTEX
  5
54F
  8
BLACK
 10
293.7322543353567
 20
96.06257386469335
 30
0.0
  0
VERTEX
  5
550
  8
BLACK
 10
293.7322543353567
 20
92.8875738646934
 30
0.0
  0
VERTEX
  5
551
  8
BLACK
 10
262.2072543353568
 20
92.8875738646934
 30
0.0
  0
SEQEND
  5
552
  8
BLACK
  0
CIRCLE
  5
553
  8
BLACK
 10
277.9697543353566
 20
128.5107752349541
 30
0.0
 40
4.657543966865862
  0
CIRCLE
  5
554
  8
BLACK
 10
283.2347543353566
 20
137.6300227368042
 30
0.0
 40
0.620000000000031
  0
CIRCLE
  5
555
  8
BLACK
 10
283.2347543353566
 20
119.391527733104
 30
0.0
 40
0.6199999999999987
  0
CIRCLE
  5
556
  8
BLACK
 10
272.7047543353567
 20
137.6300227368043
 30
0.0
 40
0.6199999999999702
  0
CIRCLE
  5
557
  8
BLACK
 10
288.4997543353566
 20
128.5107752349541
 30
0.0
 40
0.6200000000000045
  0
CIRCLE
  5
558
  8
BLACK
 10
272.7047543353567
 20
119.3915277331041
 30
0.0
 40
0.6199999999999827
  0
CIRCLE
  5
559
  8
BLACK
 10
267.4397543353567
 20
128.5107752349541
 30
0.0
 40
0.6200000000000045
  0
POLYLINE
  5
55A
  8
BLACK
 66
     1
 10
0.0
 20
0.0
 30
0.0
 70
     1
  0
VERTEX
  5
55B
  8
BLACK
 10
257.207353008285
 20
30.07461425936904
 30
0.0
  0
VERTEX
  5
55C
  8
BLACK
 10
257.2073530082852
 20
26.90961518753332
 30
0.0
 42
0.414798839955257
  0
VERTEX
  5
55D
  8
BLACK
 10
262.2173439346122
 20
21.90962516940461
 30
0.0
  0
VERTEX
  5
55E
  8
BLACK
 10
293.7421365441534
 20
21.97261767125183
 30
0.0
 42
0.4136283294794629
  0
VERTEX
  5
55F
  8
BLACK
 10
298.7321456178255
 20
26.97260768938057
 30
0.0
  0
VERTEX
  5
560
  8
BLACK
 10
298.7321456178256
 20
30.1575886537643
 30
0.0
  0
VERTEX
  5
561
  8
BLACK
 10
295.6993068324493
 20
64.14632373898323
 30
0.0
 42
0.9148414684500374
  0
VERTEX
  5
562
  8
BLACK
 10
260.2398511186869
 20
64.14250117219966
 30
0.0
  0
SEQEND
  5
563
  8
BLACK
  0
POLYLINE
  5
564
  8
BLACK
 66
     1
 10
0.0
 20
0.0
 30
0.0
 70
     1
  0
VERTEX
  5
565
  8
BLACK
 10
262.2072493130554
 20
30.11610145656669
 30
0.0
  0
VERTEX
  5
566
  8
BLACK
 10
293.7322493130554
 20
30.11610145656669
 30
0.0
  0
VERTEX
  5
567
  8
BLACK
 10
293.7322493130554
 20
26.94110145656673
 30
0.0
  0
VERTEX
  5
568
  8
BLACK
 10
262.2072493130554
 20
26.94110145656673
 30
0.0
  0
SEQEND
  5
569
  8
BLACK
  0
CIRCLE
  5
56A
  8
BLACK
 10
277.9697493130552
 20
62.5643028268274
 30
0.0
 40
1.749999999999886
  0
POLYLINE
  5
56B
  8
BLACK
 66
     1
 10
0.0
 20
0.0
 30
0.0
 70
     1
  0
VERTEX
  5
56C
  8
BLACK
 10
195.0797119140625
 20
120.188840875713
 30
0.0
  0
VERTEX
  5
56D
  8
BLACK
 10
200.0797119140625
 20
120.188840875713
 30
0.0
  0
VERTEX
  5
56E
  8
BLACK
 10
200.0797119140625
 20
117.013840875713
 30
0.0
  0
VERTEX
  5
56F
  8
BLACK
 10
233.118203846988
 20
112.7272882850655
 30
0.0
 42
1.129793935099656
  0
VERTEX
  5
570
  8
BLACK
 10
233.1182038504538
 20
148.0638349688298
 30
0.0
  0
VERTEX
  5
571
  8
BLACK
 10
200.0797119140625
 20
143.7772823777582
 30
0.0
  0
VERTEX
  5
572
  8
BLACK
 10
200.0797119140625
 20
140.6022823777583
 30
0.0
  0
VERTEX
  5
573
  8
BLACK
 10
195.0797119140625
 20
140.6022823777583
 30
0.0
  0
VERTEX
  5
574
  8
BLACK
 10
195.0797119140625
 20
143.7772823777582
 30
0.0
  0
VERTEX
  5
575
  8
BLACK
 10
191.4966659895894
 20
143.7772823777583
 30
0.0
  0
VERTEX
  5
576
  8
BLACK
 10
191.4966659895893
 20
135.3905929561513
 30
0.0
  0
VERTEX
  5
577
  8
BLACK
 10
193.9966659895893
 20
135.3905929561513
 30
0.0
  0
VERTEX
  5
578
  8
BLACK
 10
193.9966659895893
 20
132.1405929561513
 30
0.0
  0
VERTEX
  5
579
  8
BLACK
 10
191.4966659895893
 20
132.1405929561513
 30
0.0
  0
VERTEX
  5
57A
  8
BLACK
 10
191.4966659895894
 20
130.1405929561513
 30
0.0
  0
VERTEX
  5
57B
  8
BLACK
 10
188.3216659895894
 20
130.1405929561513
 30
0.0
  0
VERTEX
  5
57C
  8
BLACK
 10
188.3216659895893
 20
132.1405929561513
 30
0.0
  0
VERTEX
  5
57D
  8
BLACK
 10
185.8216659895893
 20
132.1405929561513
 30
0.0
  0
VERTEX
  5
57E
  8
BLACK
 10
185.8216659895893
 20
135.3905929561513
 30
0.0
  0
VERTEX
  5
57F
  8
BLACK
 10
188.3216659895893
 20
135.3905929561513
 30
0.0
  0
VERTEX
  5
580
  8
BLACK
 10
188.3216659895894
 20
143.7772823777582
 30
0.0
  0
VERTEX
  5
581
  8
BLACK
 10
175.1386429907257
 20
143.7772823777582
 30
0.0
  0
VERTEX
  5
582
  8
BLACK
 10
175.1386429907257
 20
140.6022823777583
 30
0.0
  0
VERTEX
  5
583
  8
BLACK
 10
170.1386429907257
 20
140.6022823777583
 30
0.0
  0
VERTEX
  5
584
  8
BLACK
 10
170.1386429907257
 20
120.188840875713
 30
0.0
  0
VERTEX
  5
585
  8
BLACK
 10
175.1386429907257
 20
120.188840875713
 30
0.0
  0
VERTEX
  5
586
  8
BLACK
 10
175.1386429907257
 20
117.013840875713
 30
0.0
  0
VERTEX
  5
587
  8
BLACK
 10
178.7216889876248
 20
117.013840875713
 30
0.0
  0
VERTEX
  5
588
  8
BLACK
 10
178.721688987625
 20
122.66053029732
 30
0.0
  0
VERTEX
  5
589
  8
BLACK
 10
176.2216889876248
 20
122.66053029732
 30
0.0
  0
VERTEX
  5
58A
  8
BLACK
 10
176.2216889876248
 20
125.91053029732
 30
0.0
  0
VERTEX
  5
58B
  8
BLACK
 10
178.721688987625
 20
125.91053029732
 30
0.0
  0
VERTEX
  5
58C
  8
BLACK
 10
178.7216889876248
 20
126.91053029732
 30
0.0
  0
VERTEX
  5
58D
  8
BLACK
 10
181.8966889876248
 20
126.91053029732
 30
0.0
  0
VERTEX
  5
58E
  8
BLACK
 10
181.8966889876248
 20
125.91053029732
 30
0.0
  0
VERTEX
  5
58F
  8
BLACK
 10
184.3966889876248
 20
125.91053029732
 30
0.0
  0
VERTEX
  5
590
  8
BLACK
 10
184.3966889876248
 20
122.66053029732
 30
0.0
  0
VERTEX
  5
591
  8
BLACK
 10
181.8966889876248
 20
122.66053029732
 30
0.0
  0
VERTEX
  5
592
  8
BLACK
 10
181.8966889876248
 20
117.013840875713
 30
0.0
  0
VERTEX
  5
593
  8
BLACK
 10
195.0797119140625
 20
117.013840875713
 30
0.0
  0
SEQEND
  5
594
  8
BLACK
  0
CIRCLE
  5
595
  8
BLACK
 10
235.2797119140625
 20
130.3955616271132
 30
0.0
 40
1.750090059180498
  0
POLYLINE
  5
596
  8
BLACK
 66
     1
 10
0.0
 20
0.0
 30
0.0
 70
     1
  0
VERTEX
  5
597
  8
BLACK
 10
-200.0797119140625
 20
120.188840875713
 30
0.0
  0
VERTEX
  5
598
  8
BLACK
 10
-195.0797119140625
 20
120.188840875713
 30
0.0
  0
VERTEX
  5
599
  8
BLACK
 10
-195.0797119140625
 20
117.013840875713
 30
0.0
  0
VERTEX
  5
59A
  8
BLACK
 10
-181.8966889876248
 20
117.013840875713
 30
0.0
  0
VERTEX
  5
59B
  8
BLACK
 10
-181.8966889876248
 20
122.66053029732
 30
0.0
  0
VERTEX
  5
59C
  8
BLACK
 10
-184.3966889876248
 20
122.66053029732
 30
0.0
  0
VERTEX
  5
59D
  8
BLACK
 10
-184.3966889876248
 20
125.91053029732
 30
0.0
  0
VERTEX
  5
59E
  8
BLACK
 10
-181.8966889876248
 20
125.91053029732
 30
0.0
  0
VERTEX
  5
59F
  8
BLACK
 10
-181.8966889876248
 20
126.91053029732
 30
0.0
  0
VERTEX
  5
5A0
  8
BLACK
 10
-178.7216889876248
 20
126.91053029732
 30
0.0
  0
VERTEX
  5
5A1
  8
BLACK
 10
-178.721688987625
 20
125.91053029732
 30
0.0
  0
VERTEX
  5
5A2
  8
BLACK
 10
-176.2216889876248
 20
125.91053029732
 30
0.0
  0
VERTEX
  5
5A3
  8
BLACK
 10
-176.2216889876248
 20
122.66053029732
 30
0.0
  0
VERTEX
  5
5A4
  8
BLACK
 10
-178.721688987625
 20
122.66053029732
 30
0.0
  0
VERTEX
  5
5A5
  8
BLACK
 10
-178.7216889876248
 20
117.013840875713
 30
0.0
  0
VERTEX
  5
5A6
  8
BLACK
 10
-175.1386429907257
 20
117.013840875713
 30
0.0
  0
VERTEX
  5
5A7
  8
BLACK
 10
-175.1386429907257
 20
120.188840875713
 30
0.0
  0
VERTEX
  5
5A8
  8
BLACK
 10
-170.1386429907257
 20
120.188840875713
 30
0.0
  0
VERTEX
  5
5A9
  8
BLACK
 10
-170.1386429907257
 20
140.6022823777583
 30
0.0
  0
VERTEX
  5
5AA
  8
BLACK
 10
-175.1386429907257
 20
140.6022823777583
 30
0.0
  0
VERTEX
  5
5AB
  8
BLACK
 10
-175.1386429907257
 20
143.7772823777582
 30
0.0
  0
VERTEX
  5
5AC
  8
BLACK
 10
-188.3216659895894
 20
143.7772823777582
 30
0.0
  0
VERTEX
  5
5AD
  8
BLACK
 10
-188.3216659895893
 20
135.3905929561513
 30
0.0
  0
VERTEX
  5
5AE
  8
BLACK
 10
-185.8216659895893
 20
135.3905929561513
 30
0.0
  0
VERTEX
  5
5AF
  8
BLACK
 10
-185.8216659895893
 20
132.1405929561513
 30
0.0
  0
VERTEX
  5
5B0
  8
BLACK
 10
-188.3216659895893
 20
132.1405929561513
 30
0.0
  0
VERTEX
  5
5B1
  8
BLACK
 10
-188.3216659895894
 20
130.1405929561513
 30
0.0
  0
VERTEX
  5
5B2
  8
BLACK
 10
-191.4966659895894
 20
130.1405929561513
 30
0.0
  0
VERTEX
  5
5B3
  8
BLACK
 10
-191.4966659895893
 20
132.1405929561513
 30
0.0
  0
VERTEX
  5
5B4
  8
BLACK
 10
-193.9966659895893
 20
132.1405929561513
 30
0.0
  0
VERTEX
  5
5B5
  8
BLACK
 10
-193.9966659895893
 20
135.3905929561513
 30
0.0
  0
VERTEX
  5
5B6
  8
BLACK
 10
-191.4966659895893
 20
135.3905929561513
 30
0.0
  0
VERTEX
  5
5B7
  8
BLACK
 10
-191.4966659895894
 20
143.7772823777583
 30
0.0
  0
VERTEX
  5
5B8
  8
BLACK
 10
-195.0797119140625
 20
143.7772823777582
 30
0.0
  0
VERTEX
  5
5B9
  8
BLACK
 10
-195.0797119140625
 20
140.6022823777583
 30
0.0
  0
VERTEX
  5
5BA
  8
BLACK
 10
-200.0797119140625
 20
140.6022823777583
 30
0.0
  0
VERTEX
  5
5BB
  8
BLACK
 10
-200.0797119140625
 20
143.7772823777582
 30
0.0
  0
VERTEX
  5
5BC
  8
BLACK
 10
-233.1182038504538
 20
148.0638349688298
 30
0.0
 42
1.129793935099666
  0
VERTEX
  5
5BD
  8
BLACK
 10
-233.118203846988
 20
112.7272882850656
 30
0.0
  0
VERTEX
  5
5BE
  8
BLACK
 10
-200.0797119140625
 20
117.013840875713
 30
0.0
  0
SEQEND
  5
5BF
  8
BLACK
  0
CIRCLE
  5
5C0
  8
BLACK
 10
-235.2797119140625
 20
130.3955616271132
 30
0.0
 40
1.750090059180499
  0
POLYLINE
  5
5C1
  8
BLACK
 66
     1
 10
0.0
 20
0.0
 30
0.0
 70
     1
  0
VERTEX
  5
5C2
  8
BLACK
 10
-293.7322493130554
 20
30.11610145656669
 30
0.0
  0
VERTEX
  5
5C3
  8
BLACK
 10
-262.2072493130554
 20
30.11610145656669
 30
0.0
  0
VERTEX
  5
5C4
  8
BLACK
 10
-262.2072493130554
 20
26.94110145656673
 30
0.0
  0
VERTEX
  5
5C5
  8
BLACK
 10
-293.7322493130554
 20
26.94110145656673
 30
0.0
  0
SEQEND
  5
5C6
  8
BLACK
  0
POLYLINE
  5
5C7
  8
BLACK
 66
     1
 10
0.0
 20
0.0
 30
0.0
 70
     1
  0
VERTEX
  5
5C8
  8
BLACK
 10
-257.2073530082852
 20
26.90961518753332
 30
0.0
  0
VERTEX
  5
5C9
  8
BLACK
 10
-257.207353008285
 20
30.07461425936904
 30
0.0
  0
VERTEX
  5
5CA
  8
BLACK
 10
-260.239851118687
 20
64.14250117219964
 30
0.0
 42
0.9148414684500302
  0
VERTEX
  5
5CB
  8
BLACK
 10
-295.6993068324493
 20
64.14632373898323
 30
0.0
  0
VERTEX
  5
5CC
  8
BLACK
 10
-298.7321456178256
 20
30.1575886537643
 30
0.0
  0
VERTEX
  5
5CD
  8
BLACK
 10
-298.7321456178255
 20
26.97260768938057
 30
0.0
 42
0.4136283294794734
  0
VERTEX
  5
5CE
  8
BLACK
 10
-293.7421365441534
 20
21.97261767125188
 30
0.0
  0
VERTEX
  5
5CF
  8
BLACK
 10
-262.2173439346122
 20
21.90962516940465
 30
0.0
 42
0.4147987410594968
  0
SEQEND
  5
5D0
  8
BLACK
  0
CIRCLE
  5
5D1
  8
BLACK
 10
-277.9697493130552
 20
62.56430282682743
 30
0.0
 40
1.749999999999943
  0
POLYLINE
  5
5D2
  8
BLACK
 66
     1
 10
0.0
 20
0.0
 30
0.0
 70
     1
  0
VERTEX
  5
5D3
  8
BLACK
 10
-257.2073580305864
 20
92.85608759565976
 30
0.0
  0
VERTEX
  5
5D4
  8
BLACK
 10
-257.2073580305864
 20
96.0210866674957
 30
0.0
  0
VERTEX
  5
5D5
  8
BLACK
 10
-260.2398561409884
 20
130.0889735803263
 30
0.0
 42
0.914841468450044
  0
VERTEX
  5
5D6
  8
BLACK
 10
-295.6993118547506
 20
130.0927961471099
 30
0.0
  0
VERTEX
  5
5D7
  8
BLACK
 10
-298.732150640127
 20
96.10406106189096
 30
0.0
  0
VERTEX
  5
5D8
  8
BLACK
 10
-298.732150640127
 20
92.91908009750769
 30
0.0
 42
0.4136284280961471
  0
VERTEX
  5
5D9
  8
BLACK
 10
-293.7421415664544
 20
87.91909007937974
 30
0.0
  0
VERTEX
  5
5DA
  8
BLACK
 10
-262.2173489569143
 20
87.85609757753039
 30
0.0
 42
0.4147987410593862
  0
SEQEND
  5
5DB
  8
BLACK
  0
POLYLINE
  5
5DC
  8
BLACK
 66
     1
 10
0.0
 20
0.0
 30
0.0
 70
     1
  0
VERTEX
  5
5DD
  8
BLACK
 10
-293.7322543353567
 20
96.06257386469335
 30
0.0
  0
VERTEX
  5
5DE
  8
BLACK
 10
-262.2072543353568
 20
96.06257386469335
 30
0.0
  0
VERTEX
  5
5DF
  8
BLACK
 10
-262.2072543353568
 20
92.8875738646934
 30
0.0
  0
VERTEX
  5
5E0
  8
BLACK
 10
-293.7322543353567
 20
92.8875738646934
 30
0.0
  0
SEQEND
  5
5E1
  8
BLACK
  0
CIRCLE
  5
5E2
  8
BLACK
 10
-277.9697543353566
 20
128.5107752349542
 30
0.0
 40
4.657543966865919
  0
CIRCLE
  5
5E3
  8
BLACK
 10
-283.2347543353567
 20
137.6300227368042
 30
0.0
 40
0.6200000000000156
  0
CIRCLE
  5
5E4
  8
BLACK
 10
-283.2347543353566
 20
119.391527733104
 30
0.0
 40
0.6200000000000234
  0
CIRCLE
  5
5E5
  8
BLACK
 10
-272.7047543353567
 20
137.6300227368043
 30
0.0
 40
0.6199999999999949
  0
CIRCLE
  5
5E6
  8
BLACK
 10
-288.4997543353566
 20
128.5107752349543
 30
0.0
 40
0.6199999999999477
  0
CIRCLE
  5
5E7
  8
BLACK
 10
-272.7047543353567
 20
119.3915277331041
 30
0.0
 40
0.6200000000000603
  0
CIRCLE
  5
5E8
  8
BLACK
 10
-267.4397543353567
 20
128.5107752349541
 30
0.0
 40
0.6199999999998909
  0
POLYLINE
  5
5E9
  8
BLACK
 66
     1
 10
0.0
 20
0.0
 30
0.0
 70
     1
  0
VERTEX
  5
5EA
  8
BLACK
 10
-238.0538357744883
 20
-112.016519198595
 30
0.0
  0
VERTEX
  5
5EB
  8
BLACK
 10
-220.7844003179757
 20
-112.016519198595
 30
0.0
 42
-0.4142134636168987
  0
VERTEX
  5
5EC
  8
BLACK
 10
-218.7844003179756
 20
-114.016519198595
 30
0.0
  0
VERTEX
  5
5ED
  8
BLACK
 10
-218.7844003179756
 20
-115.3997930115141
 30
0.0
 42
-0.4142134636168958
  0
VERTEX
  5
5EE
  8
BLACK
 10
-220.7844003179756
 20
-117.3997930115141
 30
0.0
  0
VERTEX
  5
5EF
  8
BLACK
 10
-238.0538357744883
 20
-117.3997930115141
 30
0.0
 42
-0.4142133648606622
  0
VERTEX
  5
5F0
  8
BLACK
 10
-240.0538357744882
 20
-115.3997930115141
 30
0.0
  0
VERTEX
  5
5F1
  8
BLACK
 10
-240.0538357744883
 20
-114.016519198595
 30
0.0
 42
-0.4142134636168538
  0
SEQEND
  5
5F2
  8
BLACK
  0
POLYLINE
  5
5F3
  8
BLACK
 66
     1
 10
0.0
 20
0.0
 30
0.0
 70
     1
  0
VERTEX
  5
5F4
  8
BLACK
 10
-209.4191851712318
 20
-133.3196267374638
 30
0.0
  0
VERTEX
  5
5F5
  8
BLACK
 10
-209.4191851712318
 20
-123.3196267374638
 30
0.0
  0
VERTEX
  5
5F6
  8
BLACK
 10
-211.6584444268383
 20
-89.68885503720799
 30
0.0
 42
0.9356305974708743
  0
VERTEX
  5
5F7
  8
BLACK
 10
-247.1797916656241
 20
-89.6888550371936
 30
0.0
  0
VERTEX
  5
5F8
  8
BLACK
 10
-249.4190509212318
 20
-123.3196267374638
 30
0.0
  0
VERTEX
  5
5F9
  8
BLACK
 10
-249.4190509212318
 20
-133.3196267374638
 30
0.0
  0
SEQEND
  5
5FA
  8
BLACK
  0
CIRCLE
  5
5FB
  8
BLACK
 10
-229.4191180462315
 20
-90.87142536720286
 30
0.0
 40
4.480000000000075
  0
CIRCLE
  5
5FC
  8
BLACK
 10
-234.6841180462314
 20
-81.75217786535272
 30
0.0
 40
0.6199999999999827
  0
CIRCLE
  5
5FD
  8
BLACK
 10
-234.6841180462314
 20
-99.99067286905296
 30
0.0
 40
0.6199999999999969
  0
CIRCLE
  5
5FE
  8
BLACK
 10
-224.1541180462314
 20
-81.75217786535272
 30
0.0
 40
0.6199999999999827
  0
CIRCLE
  5
5FF
  8
BLACK
 10
-239.9491180462315
 20
-90.87142536720285
 30
0.0
 40
0.6200000000000045
  0
CIRCLE
  5
600
  8
BLACK
 10
-224.1541180462314
 20
-99.99067286905294
 30
0.0
 40
0.6199999999999665
  0
CIRCLE
  5
601
  8
BLACK
 10
-218.8891180462315
 20
-90.87142536720285
 30
0.0
 40
0.6200000000000045
  0
CIRCLE
  5
602
  8
BLACK
 10
-218.9191180462318
 20
-128.5696267374637
 30
0.0
 40
0.9999999999999432
  0
CIRCLE
  5
603
  8
BLACK
 10
-239.9191180462319
 20
-128.5696267374638
 30
0.0
 40
1.0
  0
CIRCLE
  5
604
  8
BLACK
 10
-229.4191180462319
 20
-128.5696267374638
 30
0.0
 40
1.0
  0
POLYLINE
  5
605
  8
BLACK
 66
     1
 10
0.0
 20
0.0
 30
0.0
 70
     1
  0
VERTEX
  5
606
  8
BLACK
 10
-191.4809228859129
 20
-112.016519198595
 30
0.0
  0
VERTEX
  5
607
  8
BLACK
 10
-174.2114874294003
 20
-112.016519198595
 30
0.0
 42
-0.4142135623730531
  0
VERTEX
  5
608
  8
BLACK
 10
-172.2114874294003
 20
-114.016519198595
 30
0.0
  0
VERTEX
  5
609
  8
BLACK
 10
-172.2114874294002
 20
-115.3997930115141
 30
0.0
 42
-0.4142133648606924
  0
VERTEX
  5
60A
  8
BLACK
 10
-174.2114874294003
 20
-117.3997930115141
 30
0.0
  0
VERTEX
  5
60B
  8
BLACK
 10
-191.4809228859129
 20
-117.3997930115141
 30
0.0
 42
-0.414213266104559
  0
VERTEX
  5
60C
  8
BLACK
 10
-193.4809228859129
 20
-115.3997930115143
 30
0.0
  0
VERTEX
  5
60D
  8
BLACK
 10
-193.4809228859129
 20
-114.016519198595
 30
0.0
 42
-0.4142133648606884
  0
SEQEND
  5
60E
  8
BLACK
  0
POLYLINE
  5
60F
  8
BLACK
 66
     1
 10
0.0
 20
0.0
 30
0.0
 70
     1
  0
VERTEX
  5
610
  8
BLACK
 10
-162.8462722826565
 20
-133.3196267374638
 30
0.0
  0
VERTEX
  5
611
  8
BLACK
 10
-162.8462722826565
 20
-123.3196267374638
 30
0.0
  0
VERTEX
  5
612
  8
BLACK
 10
-165.0855315382629
 20
-89.68885503720799
 30
0.0
 42
0.9356305974708743
  0
VERTEX
  5
613
  8
BLACK
 10
-200.6068787770488
 20
-89.6888550371936
 30
0.0
  0
VERTEX
  5
614
  8
BLACK
 10
-202.8461380326564
 20
-123.3196267374638
 30
0.0
  0
VERTEX
  5
615
  8
BLACK
 10
-202.8461380326564
 20
-133.3196267374638
 30
0.0
  0
SEQEND
  5
616
  8
BLACK
  0
CIRCLE
  5
617
  8
BLACK
 10
-182.8462051576562
 20
-90.87142536720305
 30
0.0
 40
1.75
  0
CIRCLE
  5
618
  8
BLACK
 10
-172.3462051576565
 20
-128.5696267374637
 30
0.0
 40
0.9999999999999432
  0
CIRCLE
  5
619
  8
BLACK
 10
-193.3462051576565
 20
-128.5696267374638
 30
0.0
 40
1.0
  0
CIRCLE
  5
61A
  8
BLACK
 10
-182.8462051576564
 20
-128.5696267374637
 30
0.0
 40
1.0
  0
POLYLINE
  5
61B
  8
BLACK
 66
     1
 10
0.0
 20
0.0
 30
0.0
 70
     1
  0
VERTEX
  5
61C
  8
BLACK
 10
-213.3911926528568
 20
-6.852994541103946
 30
0.0
  0
VERTEX
  5
61D
  8
BLACK
 10
-213.3911926528568
 20
-22.85282031743395
 30
0.0
  0
VERTEX
  5
61E
  8
BLACK
 10
-216.5661926528568
 20
-22.85282031743395
 30
0.0
  0
VERTEX
  5
61F
  8
BLACK
 10
-216.5661926528568
 20
-6.852994541103946
 30
0.0
  0
SEQEND
  5
620
  8
BLACK
  0
POLYLINE
  5
621
  8
BLACK
 66
     1
 10
0.0
 20
0.0
 30
0.0
 70
     1
  0
VERTEX
  5
622
  8
BLACK
 10
-242.1528773320557
 20
-6.852994541103946
 30
0.0
  0
VERTEX
  5
623
  8
BLACK
 10
-242.1528773320557
 20
-22.85282031743395
 30
0.0
  0
VERTEX
  5
624
  8
BLACK
 10
-245.3278773320557
 20
-22.85282031743395
 30
0.0
  0
VERTEX
  5
625
  8
BLACK
 10
-245.3278773320557
 20
-6.852994541103946
 30
0.0
  0
SEQEND
  5
626
  8
BLACK
  0
POLYLINE
  5
627
  8
BLACK
 66
     1
 10
0.0
 20
0.0
 30
0.0
 70
     1
  0
VERTEX
  5
628
  8
BLACK
 10
-250.3278773320557
 20
-6.85299454110389
 30
0.0
  0
VERTEX
  5
629
  8
BLACK
 10
-250.3278773320557
 20
-27.85282031743395
 30
0.0
  0
VERTEX
  5
62A
  8
BLACK
 10
-247.0775348322442
 20
-53.59818319884532
 30
0.0
 42
0.908308352499736
  0
VERTEX
  5
62B
  8
BLACK
 10
-211.6415337398261
 20
-53.59818319884541
 30
0.0
  0
VERTEX
  5
62C
  8
BLACK
 10
-208.3911912400146
 20
-27.85282031743395
 30
0.0
  0
VERTEX
  5
62D
  8
BLACK
 10
-208.3911912400146
 20
-6.852994541103946
 30
0.0
 42
0.414213562373091
  0
VERTEX
  5
62E
  8
BLACK
 10
-213.3911912400145
 20
-1.852994541103826
 30
0.0
  0
VERTEX
  5
62F
  8
BLACK
 10
-245.3278773320557
 20
-1.852994541103929
 30
0.0
 42
0.4142135623731146
  0
SEQEND
  5
630
  8
BLACK
  0
CIRCLE
  5
631
  8
BLACK
 10
-234.6245342860352
 20
-61.01083858641213
 30
0.0
 40
0.6199999999999869
  0
CIRCLE
  5
632
  8
BLACK
 10
-224.0945342860351
 20
-61.01083858641216
 30
0.0
 40
0.6200000000000488
  0
CIRCLE
  5
633
  8
BLACK
 10
-218.8295342860352
 20
-51.89159108456201
 30
0.0
 40
0.620000000000033
  0
CIRCLE
  5
634
  8
BLACK
 10
-224.0945342860352
 20
-42.77234358271185
 30
0.0
 40
0.620000000000038
  0
CIRCLE
  5
635
  8
BLACK
 10
-234.6245342860351
 20
-42.77234358271193
 30
0.0
 40
0.6199999999999869
  0
CIRCLE
  5
636
  8
BLACK
 10
-239.8895342860352
 20
-51.89159108456204
 30
0.0
 40
0.6199999999999761
  0
CIRCLE
  5
637
  8
BLACK
 10
-229.359533237739
 20
-51.89159108456202
 30
0.0
 40
4.65754396686591
  0
POLYLINE
  5
638
  8
BLACK
 66
     1
 10
0.0
 20
0.0
 30
0.0
 70
     1
  0
VERTEX
  5
639
  8
BLACK
 10
-203.8369247550962
 20
-6.852994541103916
 30
0.0
  0
VERTEX
  5
63A
  8
BLACK
 10
-203.8369247550962
 20
-27.85282031743407
 30
0.0
  0
VERTEX
  5
63B
  8
BLACK
 10
-200.5865822552846
 20
-53.59818319884545
 30
0.0
 42
0.9083083524997337
  0
VERTEX
  5
63C
  8
BLACK
 10
-165.1505811628665
 20
-53.59818319884544
 30
0.0
  0
VERTEX
  5
63D
  8
BLACK
 10
-161.900238663055
 20
-27.85282031743407
 30
0.0
  0
VERTEX
  5
63E
  8
BLACK
 10
-161.9002386630548
 20
-6.852994541103858
 30
0.0
 42
0.4142134636168901
  0
VERTEX
  5
63F
  8
BLACK
 10
-166.9002386630546
 20
-1.852994541103882
 30
0.0
  0
VERTEX
  5
640
  8
BLACK
 10
-198.8369247550962
 20
-1.852994541103784
 30
0.0
 42
0.4142135623731016
  0
SEQEND
  5
641
  8
BLACK
  0
POLYLINE
  5
642
  8
BLACK
 66
     1
 10
0.0
 20
0.0
 30
0.0
 70
     1
  0
VERTEX
  5
643
  8
BLACK
 10
-170.0752400758973
 20
-6.852994541103946
 30
0.0
  0
VERTEX
  5
644
  8
BLACK
 10
-166.9002400758973
 20
-6.852994541103946
 30
0.0
  0
VERTEX
  5
645
  8
BLACK
 10
-166.9002400758973
 20
-22.85282031743395
 30
0.0
  0
VERTEX
  5
646
  8
BLACK
 10
-170.0752400758973
 20
-22.85282031743395
 30
0.0
  0
SEQEND
  5
647
  8
BLACK
  0
POLYLINE
  5
648
  8
BLACK
 66
     1
 10
0.0
 20
0.0
 30
0.0
 70
     1
  0
VERTEX
  5
649
  8
BLACK
 10
-198.8369247550962
 20
-6.852994541103946
 30
0.0
  0
VERTEX
  5
64A
  8
BLACK
 10
-195.6619247550962
 20
-6.852994541103946
 30
0.0
  0
VERTEX
  5
64B
  8
BLACK
 10
-195.6619247550962
 20
-22.85282031743395
 30
0.0
  0
VERTEX
  5
64C
  8
BLACK
 10
-198.8369247550962
 20
-22.85282031743395
 30
0.0
  0
SEQEND
  5
64D
  8
BLACK
  0
CIRCLE
  5
64E
  8
BLACK
 10
-182.8685806607796
 20
-51.89159059432811
 30
0.0
 40
1.749413755134698
  0
POLYLINE
  5
64F
  8
BLACK
 66
     1
 10
0.0
 20
0.0
 30
0.0
 70
     1
  0
VERTEX
  5
650
  8
BLACK
 10
-304.8000000000001
 20
-150.8125
 30
0.0
  0
VERTEX
  5
651
  8
BLACK
 10
304.8
 20
-150.8125
 30
0.0
  0
VERTEX
  5
652
  8
BLACK
 10
304.8
 20
153.9875
 30
0.0
  0
VERTEX
  5
653
  8
BLACK
 10
-304.8000000000001
 20
153.9875
 30
0.0
  0
SEQEND
  5
654
  8
BLACK
  0
CIRCLE
  5
655
  8
BLACK
 10
-0.0000029401694524
 20
49.10694709313705
 30
0.0
 40
1.75
  0
POLYLINE
  5
656
  8
BLACK
 66
     1
 10
0.0
 20
0.0
 30
0.0
 70
     1
  0
VERTEX
  5
657
  8
BLACK
 10
3.262502693460192
 20
11.34919071197541
 30
0.0
  0
VERTEX
  5
658
  8
BLACK
 10
3.262502693460192
 20
9.349190711975467
 30
0.0
 42
-0.4142135623731166
  0
VERTEX
  5
659
  8
BLACK
 10
1.262502693460192
 20
7.349190711975464
 30
0.0
  0
VERTEX
  5
65A
  8
BLACK
 10
-1.262497306539899
 20
7.349190711975467
 30
0.0
 42
-0.4142134636168776
  0
VERTEX
  5
65B
  8
BLACK
 10
-3.262497306539898
 20
9.349190711975464
 30
0.0
  0
VERTEX
  5
65C
  8
BLACK
 10
-3.262497306539898
 20
11.34919071197547
 30
0.0
 42
-0.4142134636168855
  0
VERTEX
  5
65D
  8
BLACK
 10
-1.262497306539899
 20
13.34919071197548
 30
0.0
  0
VERTEX
  5
65E
  8
BLACK
 10
1.262502693460192
 20
13.34919071197541
 30
0.0
 42
-0.4142133648607069
  0
SEQEND
  5
65F
  8
BLACK
  0
POLYLINE
  5
660
  8
BLACK
 66
     1
 10
0.0
 20
0.0
 30
0.0
 70
     1
  0
VERTEX
  5
661
  8
BLACK
 10
-9.13293880024895
 20
29.59536620426948
 30
0.0
  0
VERTEX
  5
662
  8
BLACK
 10
-36.55699965835947
 20
2.17130534615896
 30
0.0
  0
VERTEX
  5
663
  8
BLACK
 10
-38.80206368862673
 20
4.416369376426161
 30
0.0
  0
VERTEX
  5
664
  8
BLACK
 10
-11.37800283051621
 20
31.84043023453674
 30
0.0
  0
SEQEND
  5
665
  8
BLACK
  0
POLYLINE
  5
666
  8
BLACK
 66
     1
 10
0.0
 20
0.0
 30
0.0
 70
     1
  0
VERTEX
  5
667
  8
BLACK
 10
11.37799883266155
 20
31.84042624238734
 30
0.0
  0
VERTEX
  5
668
  8
BLACK
 10
38.80205969077207
 20
4.416365384276816
 30
0.0
  0
VERTEX
  5
669
  8
BLACK
 10
36.55699566050481
 20
2.171301354009501
 30
0.0
  0
VERTEX
  5
66A
  8
BLACK
 10
9.132934802394288
 20
29.59536221212002
 30
0.0
  0
SEQEND
  5
66B
  8
BLACK
  0
POLYLINE
  5
66C
  8
BLACK
 66
     1
 10
0.0
 20
0.0
 30
0.0
 70
     1
  0
VERTEX
  5
66D
  8
BLACK
 10
66.98975067827871
 20
-1.975809288024351
 30
0.0
  0
VERTEX
  5
66E
  8
BLACK
 10
70.16475067827872
 20
-1.975809288024408
 30
0.0
  0
VERTEX
  5
66F
  8
BLACK
 10
70.16475067827872
 20
12.15059915435998
 30
0.0
  0
VERTEX
  5
670
  8
BLACK
 10
64.42475067827894
 20
12.15059915435998
 30
0.0
  0
VERTEX
  5
671
  8
BLACK
 10
64.42475067827894
 20
9.65059915435998
 30
0.0
  0
VERTEX
  5
672
  8
BLACK
 10
61.17475067827894
 20
9.65059915435998
 30
0.0
  0
VERTEX
  5
673
  8
BLACK
 10
61.17475067827894
 20
12.15059915435998
 30
0.0
  0
VERTEX
  5
674
  8
BLACK
 10
60.17475067827894
 20
12.15059915435998
 30
0.0
  0
VERTEX
  5
675
  8
BLACK
 10
60.17475067827894
 20
15.32559915435994
 30
0.0
  0
VERTEX
  5
676
  8
BLACK
 10
61.17475067827894
 20
15.32559915435982
 30
0.0
  0
VERTEX
  5
677
  8
BLACK
 10
61.17475067827894
 20
17.82559915435994
 30
0.0
  0
VERTEX
  5
678
  8
BLACK
 10
64.42475067827894
 20
17.82559915435994
 30
0.0
  0
VERTEX
  5
679
  8
BLACK
 10
64.42475067827894
 20
15.32559915435982
 30
0.0
  0
VERTEX
  5
67A
  8
BLACK
 10
70.16475067827872
 20
15.32559915435994
 30
0.0
  0
VERTEX
  5
67B
  8
BLACK
 10
70.16475067827872
 20
28.56847633203554
 30
0.0
  0
VERTEX
  5
67C
  8
BLACK
 10
66.98975067827871
 20
28.56847633203554
 30
0.0
  0
VERTEX
  5
67D
  8
BLACK
 10
66.98975067827871
 20
33.56847633203554
 30
0.0
  0
VERTEX
  5
67E
  8
BLACK
 10
39.84808872968011
 20
52.10845495498046
 30
0.0
  0
VERTEX
  5
67F
  8
BLACK
 10
13.6379534196393
 20
68.06437859713947
 30
0.0
  0
VERTEX
  5
680
  8
BLACK
 10
-13.63795966764758
 20
68.06437859713947
 30
0.0
  0
VERTEX
  5
681
  8
BLACK
 10
-39.84809481002253
 20
52.10845495498046
 30
0.0
  0
VERTEX
  5
682
  8
BLACK
 10
-66.98975678179454
 20
33.56847633203554
 30
0.0
  0
VERTEX
  5
683
  8
BLACK
 10
-66.98975678179454
 20
28.56847633203554
 30
0.0
  0
VERTEX
  5
684
  8
BLACK
 10
-70.1647567817945
 20
28.56847633203554
 30
0.0
  0
VERTEX
  5
685
  8
BLACK
 10
-70.1647567817945
 20
15.32559850561702
 30
0.0
  0
VERTEX
  5
686
  8
BLACK
 10
-64.51806736018756
 20
15.32559850561702
 30
0.0
  0
VERTEX
  5
687
  8
BLACK
 10
-64.51806736018756
 20
17.82559850561702
 30
0.0
  0
VERTEX
  5
688
  8
BLACK
 10
-61.26806736018756
 20
17.82559850561702
 30
0.0
  0
VERTEX
  5
689
  8
BLACK
 10
-61.26806736018756
 20
15.32559850561702
 30
0.0
  0
VERTEX
  5
68A
  8
BLACK
 10
-60.26806736018756
 20
15.32559850561702
 30
0.0
  0
VERTEX
  5
68B
  8
BLACK
 10
-60.26806736018756
 20
12.15059850561707
 30
0.0
  0
VERTEX
  5
68C
  8
BLACK
 10
-61.26806736018756
 20
12.15059850561718
 30
0.0
  0
VERTEX
  5
68D
  8
BLACK
 10
-61.26806736018756
 20
9.650598505617069
 30
0.0
  0
VERTEX
  5
68E
  8
BLACK
 10
-64.51806736018756
 20
9.650598505617069
 30
0.0
  0
VERTEX
  5
68F
  8
BLACK
 10
-64.51806736018756
 20
12.15059850561718
 30
0.0
  0
VERTEX
  5
690
  8
BLACK
 10
-70.1647567817945
 20
12.15059850561707
 30
0.0
  0
VERTEX
  5
691
  8
BLACK
 10
-70.1647567817945
 20
-1.975809288024408
 30
0.0
  0
VERTEX
  5
692
  8
BLACK
 10
-66.98975678179454
 20
-1.975809288024351
 30
0.0
  0
VERTEX
  5
693
  8
BLACK
 10
-66.98975678179454
 20
-6.975809288024351
 30
0.0
  0
VERTEX
  5
694
  8
BLACK
 10
-39.84809481002253
 20
-6.975809288024323
 30
0.0
  0
VERTEX
  5
695
  8
BLACK
 10
-39.84809481002253
 20
-10.15080928802442
 30
0.0
  0
VERTEX
  5
696
  8
BLACK
 10
3.212502693461374
 20
-10.15080928802442
 30
0.0
  0
VERTEX
  5
697
  8
BLACK
 10
3.212502693461374
 20
-2.306119866417788
 30
0.0
  0
VERTEX
  5
698
  8
BLACK
 10
0.7125026934613743
 20
-2.306119866417788
 30
0.0
  0
VERTEX
  5
699
  8
BLACK
 10
0.7125026934613743
 20
0.943880133582212
 30
0.0
  0
VERTEX
  5
69A
  8
BLACK
 10
3.212502693461374
 20
0.943880133582212
 30
0.0
  0
VERTEX
  5
69B
  8
BLACK
 10
3.212502693461374
 20
2.943880133582439
 30
0.0
  0
VERTEX
  5
69C
  8
BLACK
 10
6.387502693461386
 20
2.943880133582439
 30
0.0
  0
VERTEX
  5
69D
  8
BLACK
 10
6.387502693461272
 20
0.943880133582212
 30
0.0
  0
VERTEX
  5
69E
  8
BLACK
 10
8.887502693461329
 20
0.943880133582212
 30
0.0
  0
VERTEX
  5
69F
  8
BLACK
 10
8.887502693461329
 20
-2.306119866417788
 30
0.0
  0
VERTEX
  5
6A0
  8
BLACK
 10
6.387502693461272
 20
-2.306119866417788
 30
0.0
  0
VERTEX
  5
6A1
  8
BLACK
 10
6.387502693461443
 20
-10.15080928802442
 30
0.0
  0
VERTEX
  5
6A2
  8
BLACK
 10
39.84808872968011
 20
-10.15080928802442
 30
0.0
  0
VERTEX
  5
6A3
  8
BLACK
 10
39.84808872968011
 20
-6.975809288024323
 30
0.0
  0
VERTEX
  5
6A4
  8
BLACK
 10
66.98975067827871
 20
-6.975809288024351
 30
0.0
  0
SEQEND
  5
6A5
  8
BLACK
  0
POLYLINE
  5
6A6
  8
BLACK
 66
     1
 10
0.0
 20
0.0
 30
0.0
 70
     1
  0
VERTEX
  5
6A7
  8
BLACK
 10
-46.66476320078186
 20
10.20059770685512
 30
0.0
  0
VERTEX
  5
6A8
  8
BLACK
 10
-46.66476320078187
 20
7.675597706854973
 30
0.0
 42
-0.4142133648607435
  0
VERTEX
  5
6A9
  8
BLACK
 10
-48.66476320078186
 20
5.675597706854923
 30
0.0
  0
VERTEX
  5
6AA
  8
BLACK
 10
-50.66476320078187
 20
5.675597706854914
 30
0.0
 42
-0.4142134636169161
  0
VERTEX
  5
6AB
  8
BLACK
 10
-52.66476320078187
 20
7.675597706854981
 30
0.0
  0
VERTEX
  5
6AC
  8
BLACK
 10
-52.66476320078186
 20
10.20059770685512
 30
0.0
 42
-0.4142134636168825
  0
VERTEX
  5
6AD
  8
BLACK
 10
-50.66476320078186
 20
12.20059770685506
 30
0.0
  0
VERTEX
  5
6AE
  8
BLACK
 10
-48.66476320078186
 20
12.20059770685507
 30
0.0
 42
-0.4142131673484005
  0
SEQEND
  5
6AF
  8
BLACK
  0
POLYLINE
  5
6B0
  8
BLACK
 66
     1
 10
0.0
 20
0.0
 30
0.0
 70
     1
  0
VERTEX
  5
6B1
  8
BLACK
 10
46.66475053028262
 20
10.20059770685505
 30
0.0
 42
-0.414213167348465
  0
VERTEX
  5
6B2
  8
BLACK
 10
48.66475053028261
 20
12.200597706855
 30
0.0
  0
VERTEX
  5
6B3
  8
BLACK
 10
50.66475053028256
 20
12.20059770685507
 30
0.0
 42
-0.414213266104545
  0
VERTEX
  5
6B4
  8
BLACK
 10
52.66475053028262
 20
10.20059770685511
 30
0.0
  0
VERTEX
  5
6B5
  8
BLACK
 10
52.66475053028262
 20
7.675597706854973
 30
0.0
 42
-0.4142133648607439
  0
VERTEX
  5
6B6
  8
BLACK
 10
50.66475053028256
 20
5.675597706854965
 30
0.0
  0
VERTEX
  5
6B7
  8
BLACK
 10
48.66475053028261
 20
5.675597706854916
 30
0.0
 42
-0.4142131673484181
  0
VERTEX
  5
6B8
  8
BLACK
 10
46.66475053028261
 20
7.675597706854962
 30
0.0
  0
SEQEND
  5
6B9
  8
BLACK
  0
CIRCLE
  5
6BA
  8
BLACK
 10
-9.119246930470352
 20
85.95987269958513
 30
0.0
 40
0.6200000000000201
  0
CIRCLE
  5
6BB
  8
BLACK
 10
9.119248073229866
 20
85.95987269958515
 30
0.0
 40
0.6200000000000051
  0
CIRCLE
  5
6BC
  8
BLACK
 10
0.0000005713797293
 20
80.69487269958516
 30
0.0
 40
0.6199999999999903
  0
CIRCLE
  5
6BD
  8
BLACK
 10
-9.119246930470345
 20
96.48987269958513
 30
0.0
 40
0.6199999999999883
  0
CIRCLE
  5
6BE
  8
BLACK
 10
9.11924807322987
 20
96.48987269958508
 30
0.0
 40
0.6199999999999962
  0
CIRCLE
  5
6BF
  8
BLACK
 10
0.0000005713797577
 20
101.7548726995851
 30
0.0
 40
0.6199999999999903
  0
CIRCLE
  5
6C0
  8
BLACK
 10
0.0000010215276887
 20
91.22487168697971
 30
0.0
 40
4.479998987394631
  0
POLYLINE
  5
6C1
  8
BLACK
 66
     1
 10
0.0
 20
0.0
 30
0.0
 70
     1
  0
VERTEX
  5
6C2
  8
BLACK
 10
-66.98975315865692
 20
142.3076290807464
 30
0.0
  0
VERTEX
  5
6C3
  8
BLACK
 10
-70.16475315865699
 20
142.3076290807465
 30
0.0
  0
VERTEX
  5
6C4
  8
BLACK
 10
-70.16475315865699
 20
128.1812218590375
 30
0.0
  0
VERTEX
  5
6C5
  8
BLACK
 10
-62.2267532423935
 20
128.1812218590375
 30
0.0
  0
VERTEX
  5
6C6
  8
BLACK
 10
-62.2267532423935
 20
130.6812218590375
 30
0.0
  0
VERTEX
  5
6C7
  8
BLACK
 10
-58.9767532423935
 20
130.6812218590375
 30
0.0
  0
VERTEX
  5
6C8
  8
BLACK
 10
-58.9767532423935
 20
128.1812218590375
 30
0.0
  0
VERTEX
  5
6C9
  8
BLACK
 10
-56.97675324239327
 20
128.1812218590375
 30
0.0
  0
VERTEX
  5
6CA
  8
BLACK
 10
-56.97675324239327
 20
125.0062218590375
 30
0.0
  0
VERTEX
  5
6CB
  8
BLACK
 10
-58.9767532423935
 20
125.0062218590377
 30
0.0
  0
VERTEX
  5
6CC
  8
BLACK
 10
-58.9767532423935
 20
122.5062218590376
 30
0.0
  0
VERTEX
  5
6CD
  8
BLACK
 10
-62.2267532423935
 20
122.5062218590376
 30
0.0
  0
VERTEX
  5
6CE
  8
BLACK
 10
-62.2267532423935
 20
125.0062218590377
 30
0.0
  0
VERTEX
  5
6CF
  8
BLACK
 10
-70.16475315865699
 20
125.0062218590375
 30
0.0
  0
VERTEX
  5
6D0
  8
BLACK
 10
-70.16475315865699
 20
111.7633434606865
 30
0.0
  0
VERTEX
  5
6D1
  8
BLACK
 10
-66.98975315865692
 20
111.7633434606865
 30
0.0
  0
VERTEX
  5
6D2
  8
BLACK
 10
-66.98975315865692
 20
106.7633434606865
 30
0.0
  0
VERTEX
  5
6D3
  8
BLACK
 10
-39.84809118688491
 20
88.2233648377416
 30
0.0
  0
VERTEX
  5
6D4
  8
BLACK
 10
-13.63795604450996
 20
72.26744119558259
 30
0.0
  0
VERTEX
  5
6D5
  8
BLACK
 10
13.63795704277692
 20
72.26744119558259
 30
0.0
  0
VERTEX
  5
6D6
  8
BLACK
 10
39.84809235281773
 20
88.2233648377416
 30
0.0
  0
VERTEX
  5
6D7
  8
BLACK
 10
66.98975430141633
 20
106.7633434606865
 30
0.0
  0
VERTEX
  5
6D8
  8
BLACK
 10
66.98975430141633
 20
111.7633434606865
 30
0.0
  0
VERTEX
  5
6D9
  8
BLACK
 10
70.16475430141628
 20
111.7633434606865
 30
0.0
  0
VERTEX
  5
6DA
  8
BLACK
 10
70.16475430141628
 20
125.0062132594773
 30
0.0
  0
VERTEX
  5
6DB
  8
BLACK
 10
62.32006450007697
 20
125.0062132594773
 30
0.0
  0
VERTEX
  5
6DC
  8
BLACK
 10
62.32006450007697
 20
122.5062132594773
 30
0.0
  0
VERTEX
  5
6DD
  8
BLACK
 10
59.07006450007697
 20
122.5062132594773
 30
0.0
  0
VERTEX
  5
6DE
  8
BLACK
 10
59.07006450007697
 20
125.0062132594773
 30
0.0
  0
VERTEX
  5
6DF
  8
BLACK
 10
57.07006450007674
 20
125.0062132594773
 30
0.0
  0
VERTEX
  5
6E0
  8
BLACK
 10
57.07006450007674
 20
128.1812132594773
 30
0.0
  0
VERTEX
  5
6E1
  8
BLACK
 10
59.07006450007697
 20
128.1812132594772
 30
0.0
  0
VERTEX
  5
6E2
  8
BLACK
 10
59.07006450007697
 20
130.6812132594773
 30
0.0
  0
VERTEX
  5
6E3
  8
BLACK
 10
62.32006450007697
 20
130.6812132594773
 30
0.0
  0
VERTEX
  5
6E4
  8
BLACK
 10
62.32006450007697
 20
128.1812132594772
 30
0.0
  0
VERTEX
  5
6E5
  8
BLACK
 10
70.16475430141628
 20
128.1812132594774
 30
0.0
  0
VERTEX
  5
6E6
  8
BLACK
 10
70.16475430141628
 20
142.3076290807465
 30
0.0
  0
VERTEX
  5
6E7
  8
BLACK
 10
66.98975430141633
 20
142.3076290807464
 30
0.0
  0
VERTEX
  5
6E8
  8
BLACK
 10
66.98975430141633
 20
147.3076290807464
 30
0.0
  0
VERTEX
  5
6E9
  8
BLACK
 10
39.84809235281767
 20
147.3076290807464
 30
0.0
  0
VERTEX
  5
6EA
  8
BLACK
 10
39.84809235281773
 20
150.4826290807465
 30
0.0
  0
VERTEX
  5
6EB
  8
BLACK
 10
21.58750960655698
 20
150.4826290807465
 30
0.0
  0
VERTEX
  5
6EC
  8
BLACK
 10
21.58750960655695
 20
144.8359396591396
 30
0.0
  0
VERTEX
  5
6ED
  8
BLACK
 10
24.08750960655695
 20
144.8359396591396
 30
0.0
  0
VERTEX
  5
6EE
  8
BLACK
 10
24.08750960655695
 20
141.5859396591396
 30
0.0
  0
VERTEX
  5
6EF
  8
BLACK
 10
21.58750960655695
 20
141.5859396591396
 30
0.0
  0
VERTEX
  5
6F0
  8
BLACK
 10
21.58750960655689
 20
140.5859396591396
 30
0.0
  0
VERTEX
  5
6F1
  8
BLACK
 10
18.41250960655694
 20
140.5859396591396
 30
0.0
  0
VERTEX
  5
6F2
  8
BLACK
 10
18.41250960655705
 20
141.5859396591396
 30
0.0
  0
VERTEX
  5
6F3
  8
BLACK
 10
15.91250960655699
 20
141.5859396591396
 30
0.0
  0
VERTEX
  5
6F4
  8
BLACK
 10
15.91250960655699
 20
144.8359396591396
 30
0.0
  0
VERTEX
  5
6F5
  8
BLACK
 10
18.41250960655705
 20
144.8359396591396
 30
0.0
  0
VERTEX
  5
6F6
  8
BLACK
 10
18.41250960655697
 20
150.4826290807465
 30
0.0
  0
VERTEX
  5
6F7
  8
BLACK
 10
-18.41249039344302
 20
150.4826290807465
 30
0.0
  0
VERTEX
  5
6F8
  8
BLACK
 10
-18.41249039344305
 20
144.8359396591396
 30
0.0
  0
VERTEX
  5
6F9
  8
BLACK
 10
-15.91249039344305
 20
144.8359396591396
 30
0.0
  0
VERTEX
  5
6FA
  8
BLACK
 10
-15.91249039344305
 20
141.5859396591396
 30
0.0
  0
VERTEX
  5
6FB
  8
BLACK
 10
-18.41249039344305
 20
141.5859396591396
 30
0.0
  0
VERTEX
  5
6FC
  8
BLACK
 10
-18.41249039344311
 20
140.5859396591396
 30
0.0
  0
VERTEX
  5
6FD
  8
BLACK
 10
-21.58749039344306
 20
140.5859396591396
 30
0.0
  0
VERTEX
  5
6FE
  8
BLACK
 10
-21.58749039344295
 20
141.5859396591396
 30
0.0
  0
VERTEX
  5
6FF
  8
BLACK
 10
-24.08749039344301
 20
141.5859396591396
 30
0.0
  0
VERTEX
  5
700
  8
BLACK
 10
-24.08749039344301
 20
144.8359396591396
 30
0.0
  0
VERTEX
  5
701
  8
BLACK
 10
-21.58749039344295
 20
144.8359396591396
 30
0.0
  0
VERTEX
  5
702
  8
BLACK
 10
-21.58749039344298
 20
150.4826290807465
 30
0.0
  0
VERTEX
  5
703
  8
BLACK
 10
-39.84809118688491
 20
150.4826290807465
 30
0.0
  0
VERTEX
  5
704
  8
BLACK
 10
-39.84809118688491
 20
147.3076290807464
 30
0.0
  0
VERTEX
  5
705
  8
BLACK
 10
-66.98975315865692
 20
147.3076290807464
 30
0.0
  0
SEQEND
  5
706
  8
BLACK
  0
ENDSEC
  0
EOF
