  0
SECTION
  2
HEADER
  9
$ACADVER
  1
AC1009
  9
$DWGCODEPAGE
  3
ansi_1252
  9
$INSBASE
 10
0.0
 20
0.0
 30
0.0
  9
$EXTMIN
 10
-304.8000000000001
 20
-150.8125
 30
0.0
  9
$EXTMAX
 10
304.8
 20
153.9875
 30
0.0
  9
$LIMMIN
 10
0.0
 20
0.0
  9
$LIMMAX
 10
12.0
 20
9.0
  9
$ORTHOMODE
 70
     0
  9
$REGENMODE
 70
     1
  9
$FILLMODE
 70
     1
  9
$QTEXTMODE
 70
     0
  9
$MIRRTEXT
 70
     1
  9
$DRAGMODE
 70
     2
  9
$LTSCALE
 40
1.0
  9
$OSMODE
 70
    37
  9
$ATTMODE
 70
     1
  9
$TEXTSIZE
 40
0.2
  9
$TRACEWID
 40
0.05
  9
$TEXTSTYLE
  7
STANDARD
  9
$CLAYER
  8
WHITE
  9
$CELTYPE
  6
BYLAYER
  9
$CECOLOR
 62
   256
  9
$DIMSCALE
 40
1.0
  9
$DIMASZ
 40
0.18
  9
$DIMEXO
 40
0.0625
  9
$DIMDLI
 40
0.38
  9
$DIMRND
 40
0.0
  9
$DIMDLE
 40
0.0
  9
$DIMEXE
 40
0.18
  9
$DIMTP
 40
0.0
  9
$DIMTM
 40
0.0
  9
$DIMTXT
 40
0.18
  9
$DIMCEN
 40
0.09
  9
$DIMTSZ
 40
0.0
  9
$DIMTOL
 70
     0
  9
$DIMLIM
 70
     0
  9
$DIMTIH
 70
     1
  9
$DIMTOH
 70
     1
  9
$DIMSE1
 70
     0
  9
$DIMSE2
 70
     0
  9
$DIMTAD
 70
     0
  9
$DIMZIN
 70
     0
  9
$DIMBLK
  1

  9
$DIMASO
 70
     1
  9
$DIMSHO
 70
     1
  9
$DIMPOST
  1

  9
$DIMAPOST
  1

  9
$DIMALT
 70
     0
  9
$DIMALTD
 70
     2
  9
$DIMALTF
 40
25.4
  9
$DIMLFAC
 40
1.0
  9
$DIMTOFL
 70
     0
  9
$DIMTVP
 40
0.0
  9
$DIMTIX
 70
     0
  9
$DIMSOXD
 70
     0
  9
$DIMSAH
 70
     0
  9
$DIMBLK1
  1

  9
$DIMBLK2
  1

  9
$DIMSTYLE
  2
STANDARD
  9
$DIMCLRD
 70
     0
  9
$DIMCLRE
 70
     0
  9
$DIMCLRT
 70
     0
  9
$DIMTFAC
 40
1.0
  9
$DIMGAP
 40
0.09
  9
$LUNITS
 70
     2
  9
$LUPREC
 70
     3
  9
$SKETCHINC
 40
0.1
  9
$FILLETRAD
 40
0.5
  9
$AUNITS
 70
     0
  9
$AUPREC
 70
     0
  9
$MENU
  1
.
  9
$ELEVATION
 40
0.0
  9
$PELEVATION
 40
0.0
  9
$THICKNESS
 40
0.0
  9
$LIMCHECK
 70
     0
  9
$CHAMFERA
 40
0.0
  9
$CHAMFERB
 40
0.0
  9
$SKPOLY
 70
     0
  9
$TDCREATE
 40
2457092.580908588
  9
$TDUPDATE
 40
2457092.580954294
  9
$TDINDWG
 40
0.0000000116
  9
$TDUSRTIMER
 40
0.0000000116
  9
$USRTIMER
 70
     1
  9
$ANGBASE
 50
0.0
  9
$ANGDIR
 70
     0
  9
$PDMODE
 70
     0
  9
$PDSIZE
 40
0.0
  9
$PLINEWID
 40
0.0
  9
$COORDS
 70
     1
  9
$SPLFRAME
 70
     0
  9
$SPLINETYPE
 70
     6
  9
$SPLINESEGS
 70
     8
  9
$ATTDIA
 70
     0
  9
$ATTREQ
 70
     1
  9
$HANDLING
 70
     1
  9
$HANDSEED
  5
7F4
  9
$SURFTAB1
 70
     6
  9
$SURFTAB2
 70
     6
  9
$SURFTYPE
 70
     6
  9
$SURFU
 70
     6
  9
$SURFV
 70
     6
  9
$UCSNAME
  2

  9
$UCSORG
 10
0.0
 20
0.0
 30
0.0
  9
$UCSXDIR
 10
1.0
 20
0.0
 30
0.0
  9
$UCSYDIR
 10
0.0
 20
1.0
 30
0.0
  9
$PUCSNAME
  2

  9
$PUCSORG
 10
0.0
 20
0.0
 30
0.0
  9
$PUCSXDIR
 10
1.0
 20
0.0
 30
0.0
  9
$PUCSYDIR
 10
0.0
 20
1.0
 30
0.0
  9
$USERI1
 70
     0
  9
$USERI2
 70
     0
  9
$USERI3
 70
     0
  9
$USERI4
 70
     0
  9
$USERI5
 70
     0
  9
$USERR1
 40
0.0
  9
$USERR2
 40
0.0
  9
$USERR3
 40
0.0
  9
$USERR4
 40
0.0
  9
$USERR5
 40
0.0
  9
$WORLDVIEW
 70
     1
  9
$SHADEDGE
 70
     3
  9
$SHADEDIF
 70
    70
  9
$TILEMODE
 70
     1
  9
$MAXACTVP
 70
    64
  9
$PLIMCHECK
 70
     0
  9
$PEXTMIN
 10
1.000000000000000E+20
 20
1.000000000000000E+20
 30
1.000000000000000E+20
  9
$PEXTMAX
 10
-1.000000000000000E+20
 20
-1.000000000000000E+20
 30
-1.000000000000000E+20
  9
$PLIMMIN
 10
0.0
 20
0.0
  9
$PLIMMAX
 10
12.0
 20
9.0
  9
$UNITMODE
 70
     0
  9
$VISRETAIN
 70
     1
  9
$PLINEGEN
 70
     0
  9
$PSLTSCALE
 70
     1
  0
ENDSEC
  0
SECTION
  2
TABLES
  0
TABLE
  2
VPORT
 70
     1
  0
VPORT
  2
*ACTIVE
 70
     0
 10
0.0
 20
0.0
 11
1.0
 21
1.0
 12
-0.0000000000000568
 22
1.587500000000006
 13
0.0
 23
0.0
 14
0.5
 24
0.5
 15
0.5
 25
0.5
 16
0.0
 26
0.0
 36
1.0
 17
0.0
 27
0.0
 37
0.0
 40
310.896
 41
2.0
 42
50.0
 43
0.0
 44
0.0
 50
0.0
 51
0.0
 71
     0
 72
   100
 73
     1
 74
     3
 75
     0
 76
     0
 77
     0
 78
     0
  0
ENDTAB
  0
TABLE
  2
LTYPE
 70
     1
  0
LTYPE
  2
CONTINUOUS
 70
     0
  3
Solid line
 72
    65
 73
     0
 40
0.0
  0
ENDTAB
  0
TABLE
  2
LAYER
 70
     2
  0
LAYER
  2
0
 70
     0
 62
     7
  6
CONTINUOUS
  0
LAYER
  2
WHITE
 70
     0
 62
     1
  6
CONTINUOUS
  0
ENDTAB
  0
TABLE
  2
STYLE
 70
     1
  0
STYLE
  2
STANDARD
 70
     0
 40
0.0
 41
1.0
 50
0.0
 71
     0
 42
0.2
  3
txt
  4

  0
ENDTAB
  0
TABLE
  2
VIEW
 70
     0
  0
ENDTAB
  0
TABLE
  2
UCS
 70
     0
  0
ENDTAB
  0
TABLE
  2
APPID
 70
     1
  0
APPID
  2
ACAD
 70
     0
  0
ENDTAB
  0
TABLE
  2
DIMSTYLE
 70
     1
  0
DIMSTYLE
  2
STANDARD
 70
     0
  3

  4

  5

  6

  7

 40
1.0
 41
0.18
 42
0.0625
 43
0.38
 44
0.18
 45
0.0
 46
0.0
 47
0.0
 48
0.0
140
0.18
141
0.09
142
0.0
143
25.4
144
1.0
145
0.0
146
1.0
147
0.09
 71
     0
 72
     0
 73
     1
 74
     1
 75
     0
 76
     0
 77
     0
 78
     0
170
     0
171
     2
172
     0
173
     0
174
     0
175
     0
176
     0
177
     0
178
     0
  0
ENDTAB
  0
ENDSEC
  0
SECTION
  2
BLOCKS
  0
BLOCK
  8
0
  2
$MODEL_SPACE
 70
     0
 10
0.0
 20
0.0
 30
0.0
  3
$MODEL_SPACE
  1

  0
ENDBLK
  5
21
  8
0
  0
BLOCK
 67
     1
  8
0
  2
$PAPER_SPACE
 70
     0
 10
0.0
 20
0.0
 30
0.0
  3
$PAPER_SPACE
  1

  0
ENDBLK
  5
1D
 67
     1
  8
0
  0
ENDSEC
  0
SECTION
  2
ENTITIES
  0
POLYLINE
  5
6F
  8
WHITE
 66
     1
 10
0.0
 20
0.0
 30
0.0
 70
     1
  0
VERTEX
  5
70
  8
WHITE
 10
210.6792425553445
 20
57.73216707530035
 30
0.0
  0
VERTEX
  5
71
  8
WHITE
 10
207.6019616996778
 20
58.51381119850946
 30
0.0
  0
VERTEX
  5
72
  8
WHITE
 10
221.0968555009067
 20
111.6423093355911
 30
0.0
  0
VERTEX
  5
73
  8
WHITE
 10
224.1741363565734
 20
110.860665212382
 30
0.0
  0
SEQEND
  5
74
  8
WHITE
  0
POLYLINE
  5
75
  8
WHITE
 66
     1
 10
0.0
 20
0.0
 30
0.0
 70
     1
  0
VERTEX
  5
76
  8
WHITE
 10
171.0498474245798
 20
54.48865169788927
 30
0.0
  0
VERTEX
  5
77
  8
WHITE
 10
167.9725665689132
 20
55.27029582109837
 30
0.0
  0
VERTEX
  5
78
  8
WHITE
 10
181.4674603701419
 20
108.39879395818
 30
0.0
  0
VERTEX
  5
79
  8
WHITE
 10
184.5447412258086
 20
107.6171498349709
 30
0.0
  0
SEQEND
  5
7A
  8
WHITE
  0
POLYLINE
  5
7B
  8
WHITE
 66
     1
 10
0.0
 20
0.0
 30
0.0
 70
     1
  0
VERTEX
  5
7C
  8
WHITE
 10
212.7976966155701
 20
113.5821497845896
 30
0.0
  0
VERTEX
  5
7D
  8
WHITE
 10
212.7976966155701
 20
110.7021497845897
 30
0.0
 42
-0.4142132661045124
  0
VERTEX
  5
7E
  8
WHITE
 10
210.79769661557
 20
108.7021497845897
 30
0.0
  0
VERTEX
  5
7F
  8
WHITE
 10
196.1191328698787
 20
108.7021497845897
 30
0.0
 42
-0.4142133648607146
  0
VERTEX
  5
80
  8
WHITE
 10
194.1191328698787
 20
110.7021497845897
 30
0.0
  0
VERTEX
  5
81
  8
WHITE
 10
194.1191328698787
 20
113.5821497845896
 30
0.0
 42
-0.4142135623731171
  0
VERTEX
  5
82
  8
WHITE
 10
196.1191328698787
 20
115.5821497845896
 30
0.0
  0
VERTEX
  5
83
  8
WHITE
 10
210.7976966155701
 20
115.5821497845895
 30
0.0
 42
-0.4142131673484052
  0
SEQEND
  5
84
  8
WHITE
  0
POLYLINE
  5
85
  8
WHITE
 66
     1
 10
0.0
 20
0.0
 30
0.0
 70
     1
  0
VERTEX
  5
86
  8
WHITE
 10
198.0264690903585
 20
55.42881077986486
 30
0.0
  0
VERTEX
  5
87
  8
WHITE
 10
198.0264690903585
 20
52.54881077986504
 30
0.0
 42
-0.4142134636168781
  0
VERTEX
  5
88
  8
WHITE
 10
196.0264690903584
 20
50.54881077986502
 30
0.0
  0
VERTEX
  5
89
  8
WHITE
 10
181.3479053446671
 20
50.54881077986498
 30
0.0
 42
-0.4142135623730635
  0
VERTEX
  5
8A
  8
WHITE
 10
179.3479053446671
 20
52.54881077986504
 30
0.0
  0
VERTEX
  5
8B
  8
WHITE
 10
179.3479053446671
 20
55.42881077986489
 30
0.0
 42
-0.4142135623730956
  0
VERTEX
  5
8C
  8
WHITE
 10
181.3479053446671
 20
57.42881077986488
 30
0.0
  0
VERTEX
  5
8D
  8
WHITE
 10
196.0264690903584
 20
57.4288107798649
 30
0.0
 42
-0.4142135623730943
  0
SEQEND
  5
8E
  8
WHITE
  0
POLYLINE
  5
8F
  8
WHITE
 66
     1
 10
0.0
 20
0.0
 30
0.0
 70
     1
  0
VERTEX
  5
90
  8
WHITE
 10
212.2728009801185
 20
43.69626643033244
 30
0.0
  0
VERTEX
  5
91
  8
WHITE
 10
232.2728009801187
 20
122.4346941341223
 30
0.0
  0
VERTEX
  5
92
  8
WHITE
 10
232.2728009801187
 20
127.4346941341224
 30
0.0
  0
VERTEX
  5
93
  8
WHITE
 10
235.4478009801187
 20
127.4346941341224
 30
0.0
  0
VERTEX
  5
94
  8
WHITE
 10
235.4478009801187
 20
133.847120720664
 30
0.0
  0
VERTEX
  5
95
  8
WHITE
 10
229.8011115585117
 20
133.847120720664
 30
0.0
  0
VERTEX
  5
96
  8
WHITE
 10
229.8011115585117
 20
131.347120720664
 30
0.0
  0
VERTEX
  5
97
  8
WHITE
 10
226.5511115585117
 20
131.347120720664
 30
0.0
  0
VERTEX
  5
98
  8
WHITE
 10
226.5511115585117
 20
133.847120720664
 30
0.0
  0
VERTEX
  5
99
  8
WHITE
 10
225.5511115585117
 20
133.847120720664
 30
0.0
  0
VERTEX
  5
9A
  8
WHITE
 10
225.5511115585117
 20
137.022120720664
 30
0.0
  0
VERTEX
  5
9B
  8
WHITE
 10
226.5511115585117
 20
137.0221207206639
 30
0.0
  0
VERTEX
  5
9C
  8
WHITE
 10
226.5511115585117
 20
139.5221207206639
 30
0.0
  0
VERTEX
  5
9D
  8
WHITE
 10
229.8011115585117
 20
139.5221207206639
 30
0.0
  0
VERTEX
  5
9E
  8
WHITE
 10
229.8011115585117
 20
137.0221207206639
 30
0.0
  0
VERTEX
  5
9F
  8
WHITE
 10
235.4478009801187
 20
137.022120720664
 30
0.0
  0
VERTEX
  5
A0
  8
WHITE
 10
235.4478009801187
 20
143.4345199104524
 30
0.0
  0
VERTEX
  5
A1
  8
WHITE
 10
232.2728009801187
 20
143.4345199104525
 30
0.0
  0
VERTEX
  5
A2
  8
WHITE
 10
232.2728009801187
 20
148.4345199104525
 30
0.0
  0
VERTEX
  5
A3
  8
WHITE
 10
179.8739018262332
 20
148.4345199104524
 30
0.0
  0
VERTEX
  5
A4
  8
WHITE
 10
179.8739018262332
 20
143.4345199104524
 30
0.0
  0
VERTEX
  5
A5
  8
WHITE
 10
176.6989018262332
 20
143.4345199104524
 30
0.0
  0
VERTEX
  5
A6
  8
WHITE
 10
176.6989018262333
 20
137.0221207206639
 30
0.0
  0
VERTEX
  5
A7
  8
WHITE
 10
182.3455912478404
 20
137.0221207206639
 30
0.0
  0
VERTEX
  5
A8
  8
WHITE
 10
182.3455912478404
 20
139.5221207206639
 30
0.0
  0
VERTEX
  5
A9
  8
WHITE
 10
185.5955912478404
 20
139.5221207206639
 30
0.0
  0
VERTEX
  5
AA
  8
WHITE
 10
185.5955912478404
 20
137.0221207206639
 30
0.0
  0
VERTEX
  5
AB
  8
WHITE
 10
186.5955912478404
 20
137.022120720664
 30
0.0
  0
VERTEX
  5
AC
  8
WHITE
 10
186.5955912478404
 20
133.847120720664
 30
0.0
  0
VERTEX
  5
AD
  8
WHITE
 10
185.5955912478404
 20
133.847120720664
 30
0.0
  0
VERTEX
  5
AE
  8
WHITE
 10
185.5955912478404
 20
131.347120720664
 30
0.0
  0
VERTEX
  5
AF
  8
WHITE
 10
182.3455912478404
 20
131.347120720664
 30
0.0
  0
VERTEX
  5
B0
  8
WHITE
 10
182.3455912478404
 20
133.847120720664
 30
0.0
  0
VERTEX
  5
B1
  8
WHITE
 10
176.6989018262333
 20
133.847120720664
 30
0.0
  0
VERTEX
  5
B2
  8
WHITE
 10
176.6989018262332
 20
127.4346941341224
 30
0.0
  0
VERTEX
  5
B3
  8
WHITE
 10
179.8739018262332
 20
127.4346941341224
 30
0.0
  0
VERTEX
  5
B4
  8
WHITE
 10
179.8739018262332
 20
122.4346941341223
 30
0.0
  0
VERTEX
  5
B5
  8
WHITE
 10
159.873901826233
 20
43.69626643033244
 30
0.0
  0
VERTEX
  5
B6
  8
WHITE
 10
159.873901826233
 20
38.69626643033244
 30
0.0
  0
VERTEX
  5
B7
  8
WHITE
 10
156.698901826233
 20
38.69626643033244
 30
0.0
  0
VERTEX
  5
B8
  8
WHITE
 10
156.6989018262327
 20
32.28385263801606
 30
0.0
  0
VERTEX
  5
B9
  8
WHITE
 10
162.3455912478393
 20
32.28385263801597
 30
0.0
  0
VERTEX
  5
BA
  8
WHITE
 10
162.3455912478393
 20
34.78385263801603
 30
0.0
  0
VERTEX
  5
BB
  8
WHITE
 10
165.5955912478393
 20
34.78385263801603
 30
0.0
  0
VERTEX
  5
BC
  8
WHITE
 10
165.5955912478393
 20
32.28385263801597
 30
0.0
  0
VERTEX
  5
BD
  8
WHITE
 10
166.5955912478393
 20
32.28385263801609
 30
0.0
  0
VERTEX
  5
BE
  8
WHITE
 10
166.5955912478393
 20
29.10885263801613
 30
0.0
  0
VERTEX
  5
BF
  8
WHITE
 10
165.5955912478393
 20
29.10885263801607
 30
0.0
  0
VERTEX
  5
C0
  8
WHITE
 10
165.5955912478393
 20
26.60885263801607
 30
0.0
  0
VERTEX
  5
C1
  8
WHITE
 10
162.3455912478393
 20
26.60885263801607
 30
0.0
  0
VERTEX
  5
C2
  8
WHITE
 10
162.3455912478393
 20
29.10885263801607
 30
0.0
  0
VERTEX
  5
C3
  8
WHITE
 10
156.6989018262327
 20
29.10885263801607
 30
0.0
  0
VERTEX
  5
C4
  8
WHITE
 10
156.698901826233
 20
22.69644065400247
 30
0.0
  0
VERTEX
  5
C5
  8
WHITE
 10
159.873901826233
 20
22.69644065400242
 30
0.0
  0
VERTEX
  5
C6
  8
WHITE
 10
159.873901826233
 20
17.69644065400242
 30
0.0
  0
VERTEX
  5
C7
  8
WHITE
 10
212.2728009801185
 20
17.69644065400242
 30
0.0
  0
VERTEX
  5
C8
  8
WHITE
 10
212.2728009801185
 20
22.69644065400242
 30
0.0
  0
VERTEX
  5
C9
  8
WHITE
 10
215.4478009801186
 20
22.69644065400242
 30
0.0
  0
VERTEX
  5
CA
  8
WHITE
 10
215.4478009801184
 20
29.1088526380161
 30
0.0
  0
VERTEX
  5
CB
  8
WHITE
 10
209.8011115585114
 20
29.10885263801607
 30
0.0
  0
VERTEX
  5
CC
  8
WHITE
 10
209.8011115585114
 20
26.60885263801607
 30
0.0
  0
VERTEX
  5
CD
  8
WHITE
 10
206.5511115585114
 20
26.60885263801607
 30
0.0
  0
VERTEX
  5
CE
  8
WHITE
 10
206.5511115585114
 20
29.10885263801607
 30
0.0
  0
VERTEX
  5
CF
  8
WHITE
 10
205.5511115585114
 20
29.10885263801613
 30
0.0
  0
VERTEX
  5
D0
  8
WHITE
 10
205.5511115585114
 20
32.28385263801609
 30
0.0
  0
VERTEX
  5
D1
  8
WHITE
 10
206.5511115585114
 20
32.28385263801597
 30
0.0
  0
VERTEX
  5
D2
  8
WHITE
 10
206.5511115585114
 20
34.78385263801603
 30
0.0
  0
VERTEX
  5
D3
  8
WHITE
 10
209.8011115585114
 20
34.78385263801603
 30
0.0
  0
VERTEX
  5
D4
  8
WHITE
 10
209.8011115585114
 20
32.28385263801597
 30
0.0
  0
VERTEX
  5
D5
  8
WHITE
 10
215.4478009801184
 20
32.28385263801603
 30
0.0
  0
VERTEX
  5
D6
  8
WHITE
 10
215.4478009801186
 20
38.69626643033244
 30
0.0
  0
VERTEX
  5
D7
  8
WHITE
 10
212.2728009801185
 20
38.69626643033245
 30
0.0
  0
SEQEND
  5
D8
  8
WHITE
  0
POLYLINE
  5
D9
  8
WHITE
 66
     1
 10
0.0
 20
0.0
 30
0.0
 70
     1
  0
VERTEX
  5
DA
  8
WHITE
 10
205.4120828529643
 20
84.50548028222725
 30
0.0
  0
VERTEX
  5
DB
  8
WHITE
 10
205.4120828529643
 20
81.6254802822274
 30
0.0
 42
-0.4142133648606955
  0
VERTEX
  5
DC
  8
WHITE
 10
203.4120828529643
 20
79.62548028222739
 30
0.0
  0
VERTEX
  5
DD
  8
WHITE
 10
188.7335191072729
 20
79.6254802822274
 30
0.0
 42
-0.4142135623730865
  0
VERTEX
  5
DE
  8
WHITE
 10
186.7335191072729
 20
81.6254802822274
 30
0.0
  0
VERTEX
  5
DF
  8
WHITE
 10
186.7335191072729
 20
84.50548028222725
 30
0.0
 42
-0.4142133648606597
  0
VERTEX
  5
E0
  8
WHITE
 10
188.7335191072729
 20
86.50548028222725
 30
0.0
  0
VERTEX
  5
E1
  8
WHITE
 10
203.4120828529643
 20
86.50548028222724
 30
0.0
 42
-0.4142133648607095
  0
SEQEND
  5
E2
  8
WHITE
  0
POLYLINE
  5
E3
  8
WHITE
 66
     1
 10
0.0
 20
0.0
 30
0.0
 70
     1
  0
VERTEX
  5
E4
  8
WHITE
 10
201.7192759716613
 20
69.96714553104606
 30
0.0
  0
VERTEX
  5
E5
  8
WHITE
 10
201.7192759716614
 20
67.0871455310462
 30
0.0
 42
-0.4142135623730975
  0
VERTEX
  5
E6
  8
WHITE
 10
199.7192759716614
 20
65.08714553104619
 30
0.0
  0
VERTEX
  5
E7
  8
WHITE
 10
185.04071222597
 20
65.08714553104619
 30
0.0
 42
-0.4142134636168919
  0
VERTEX
  5
E8
  8
WHITE
 10
183.0407122259701
 20
67.08714553104618
 30
0.0
  0
VERTEX
  5
E9
  8
WHITE
 10
183.04071222597
 20
69.96714553104606
 30
0.0
 42
-0.4142135623730612
  0
VERTEX
  5
EA
  8
WHITE
 10
185.04071222597
 20
71.96714553104607
 30
0.0
  0
VERTEX
  5
EB
  8
WHITE
 10
199.7192759716614
 20
71.96714553104604
 30
0.0
 42
-0.4142134636168814
  0
SEQEND
  5
EC
  8
WHITE
  0
POLYLINE
  5
ED
  8
WHITE
 66
     1
 10
0.0
 20
0.0
 30
0.0
 70
     1
  0
VERTEX
  5
EE
  8
WHITE
 10
209.1048897342672
 20
99.04381503340845
 30
0.0
  0
VERTEX
  5
EF
  8
WHITE
 10
209.1048897342672
 20
96.16381503340858
 30
0.0
 42
-0.4142133648606687
  0
VERTEX
  5
F0
  8
WHITE
 10
207.1048897342672
 20
94.16381503340855
 30
0.0
  0
VERTEX
  5
F1
  8
WHITE
 10
192.4263259885758
 20
94.16381503340851
 30
0.0
 42
-0.4142135623730785
  0
VERTEX
  5
F2
  8
WHITE
 10
190.4263259885759
 20
96.16381503340854
 30
0.0
  0
VERTEX
  5
F3
  8
WHITE
 10
190.4263259885758
 20
99.04381503340842
 30
0.0
 42
-0.4142135623731118
  0
VERTEX
  5
F4
  8
WHITE
 10
192.4263259885758
 20
101.0438150334084
 30
0.0
  0
VERTEX
  5
F5
  8
WHITE
 10
207.1048897342672
 20
101.0438150334084
 30
0.0
 42
-0.4142135623730808
  0
SEQEND
  5
F6
  8
WHITE
  0
POLYLINE
  5
F7
  8
WHITE
 66
     1
 10
0.0
 20
0.0
 30
0.0
 70
     1
  0
VERTEX
  5
F8
  8
WHITE
 10
275.3549214858041
 20
57.73216707530035
 30
0.0
  0
VERTEX
  5
F9
  8
WHITE
 10
272.2776406301374
 20
58.51381119850946
 30
0.0
  0
VERTEX
  5
FA
  8
WHITE
 10
285.7725344313662
 20
111.6423093355911
 30
0.0
  0
VERTEX
  5
FB
  8
WHITE
 10
288.8498152870329
 20
110.860665212382
 30
0.0
  0
SEQEND
  5
FC
  8
WHITE
  0
POLYLINE
  5
FD
  8
WHITE
 66
     1
 10
0.0
 20
0.0
 30
0.0
 70
     1
  0
VERTEX
  5
FE
  8
WHITE
 10
235.7255263550394
 20
54.48865169788927
 30
0.0
  0
VERTEX
  5
FF
  8
WHITE
 10
232.6482454993727
 20
55.27029582109837
 30
0.0
  0
VERTEX
  5
100
  8
WHITE
 10
246.1431393006015
 20
108.39879395818
 30
0.0
  0
VERTEX
  5
101
  8
WHITE
 10
249.2204201562682
 20
107.6171498349709
 30
0.0
  0
SEQEND
  5
102
  8
WHITE
  0
POLYLINE
  5
103
  8
WHITE
 66
     1
 10
0.0
 20
0.0
 30
0.0
 70
     1
  0
VERTEX
  5
104
  8
WHITE
 10
277.4733755460297
 20
113.5821497845896
 30
0.0
  0
VERTEX
  5
105
  8
WHITE
 10
277.4733755460297
 20
110.7021497845897
 30
0.0
 42
-0.4142133648607403
  0
VERTEX
  5
106
  8
WHITE
 10
275.4733755460296
 20
108.7021497845897
 30
0.0
  0
VERTEX
  5
107
  8
WHITE
 10
260.7948118003383
 20
108.7021497845897
 30
0.0
 42
-0.4142134636168927
  0
VERTEX
  5
108
  8
WHITE
 10
258.7948118003382
 20
110.7021497845897
 30
0.0
  0
VERTEX
  5
109
  8
WHITE
 10
258.7948118003383
 20
113.5821497845896
 30
0.0
 42
-0.4142135623730963
  0
VERTEX
  5
10A
  8
WHITE
 10
260.7948118003383
 20
115.5821497845896
 30
0.0
  0
VERTEX
  5
10B
  8
WHITE
 10
275.4733755460296
 20
115.5821497845896
 30
0.0
 42
-0.4142134636168839
  0
SEQEND
  5
10C
  8
WHITE
  0
POLYLINE
  5
10D
  8
WHITE
 66
     1
 10
0.0
 20
0.0
 30
0.0
 70
     1
  0
VERTEX
  5
10E
  8
WHITE
 10
262.7021480208181
 20
55.42881077986486
 30
0.0
  0
VERTEX
  5
10F
  8
WHITE
 10
262.702148020818
 20
52.54881077986504
 30
0.0
 42
-0.4142134636168775
  0
VERTEX
  5
110
  8
WHITE
 10
260.7021480208181
 20
50.54881077986504
 30
0.0
  0
VERTEX
  5
111
  8
WHITE
 10
246.0235842751267
 20
50.54881077986497
 30
0.0
 42
-0.414213463616866
  0
VERTEX
  5
112
  8
WHITE
 10
244.0235842751267
 20
52.54881077986504
 30
0.0
  0
VERTEX
  5
113
  8
WHITE
 10
244.0235842751267
 20
55.42881077986489
 30
0.0
 42
-0.4142135623731063
  0
VERTEX
  5
114
  8
WHITE
 10
246.0235842751267
 20
57.42881077986485
 30
0.0
  0
VERTEX
  5
115
  8
WHITE
 10
260.702148020818
 20
57.42881077986492
 30
0.0
 42
-0.4142134636168694
  0
SEQEND
  5
116
  8
WHITE
  0
POLYLINE
  5
117
  8
WHITE
 66
     1
 10
0.0
 20
0.0
 30
0.0
 70
     1
  0
VERTEX
  5
118
  8
WHITE
 10
270.0877617834238
 20
84.50548028222725
 30
0.0
  0
VERTEX
  5
119
  8
WHITE
 10
270.0877617834238
 20
81.6254802822274
 30
0.0
 42
-0.4142133648606896
  0
VERTEX
  5
11A
  8
WHITE
 10
268.0877617834239
 20
79.62548028222736
 30
0.0
  0
VERTEX
  5
11B
  8
WHITE
 10
253.4091980377325
 20
79.62548028222743
 30
0.0
 42
-0.4142135623730931
  0
VERTEX
  5
11C
  8
WHITE
 10
251.4091980377325
 20
81.6254802822274
 30
0.0
  0
VERTEX
  5
11D
  8
WHITE
 10
251.4091980377326
 20
84.50548028222725
 30
0.0
 42
-0.41421336486074
  0
VERTEX
  5
11E
  8
WHITE
 10
253.4091980377326
 20
86.50548028222725
 30
0.0
  0
VERTEX
  5
11F
  8
WHITE
 10
268.0877617834238
 20
86.50548028222724
 30
0.0
 42
-0.4142134636168814
  0
SEQEND
  5
120
  8
WHITE
  0
POLYLINE
  5
121
  8
WHITE
 66
     1
 10
0.0
 20
0.0
 30
0.0
 70
     1
  0
VERTEX
  5
122
  8
WHITE
 10
266.394954902121
 20
69.96714553104606
 30
0.0
  0
VERTEX
  5
123
  8
WHITE
 10
266.3949549021209
 20
67.08714553104618
 30
0.0
 42
-0.414213463616865
  0
VERTEX
  5
124
  8
WHITE
 10
264.394954902121
 20
65.08714553104623
 30
0.0
  0
VERTEX
  5
125
  8
WHITE
 10
249.7163911564296
 20
65.08714553104616
 30
0.0
 42
-0.4142134636168601
  0
VERTEX
  5
126
  8
WHITE
 10
247.7163911564296
 20
67.08714553104618
 30
0.0
  0
VERTEX
  5
127
  8
WHITE
 10
247.7163911564296
 20
69.96714553104606
 30
0.0
 42
-0.4142135623731069
  0
VERTEX
  5
128
  8
WHITE
 10
249.7163911564296
 20
71.96714553104603
 30
0.0
  0
VERTEX
  5
129
  8
WHITE
 10
264.394954902121
 20
71.96714553104604
 30
0.0
 42
-0.4142133648607119
  0
SEQEND
  5
12A
  8
WHITE
  0
POLYLINE
  5
12B
  8
WHITE
 66
     1
 10
0.0
 20
0.0
 30
0.0
 70
     1
  0
VERTEX
  5
12C
  8
WHITE
 10
273.7805686647267
 20
99.04381503340845
 30
0.0
  0
VERTEX
  5
12D
  8
WHITE
 10
273.7805686647267
 20
96.16381503340857
 30
0.0
 42
-0.4142133648606872
  0
VERTEX
  5
12E
  8
WHITE
 10
271.7805686647267
 20
94.16381503340854
 30
0.0
  0
VERTEX
  5
12F
  8
WHITE
 10
257.1020049190354
 20
94.16381503340853
 30
0.0
 42
-0.4142134636169055
  0
VERTEX
  5
130
  8
WHITE
 10
255.1020049190354
 20
96.16381503340851
 30
0.0
  0
VERTEX
  5
131
  8
WHITE
 10
255.1020049190354
 20
99.04381503340842
 30
0.0
 42
-0.414213463616912
  0
VERTEX
  5
132
  8
WHITE
 10
257.1020049190354
 20
101.0438150334084
 30
0.0
  0
VERTEX
  5
133
  8
WHITE
 10
271.7805686647267
 20
101.0438150334084
 30
0.0
 42
-0.414213562373121
  0
SEQEND
  5
134
  8
WHITE
  0
POLYLINE
  5
135
  8
WHITE
 66
     1
 10
0.0
 20
0.0
 30
0.0
 70
     1
  0
VERTEX
  5
136
  8
WHITE
 10
276.9484799105782
 20
43.69626643033244
 30
0.0
  0
VERTEX
  5
137
  8
WHITE
 10
296.9484799105783
 20
122.4346941341223
 30
0.0
  0
VERTEX
  5
138
  8
WHITE
 10
296.9484799105783
 20
127.4346941341224
 30
0.0
  0
VERTEX
  5
139
  8
WHITE
 10
300.1234799105783
 20
127.4346941341224
 30
0.0
  0
VERTEX
  5
13A
  8
WHITE
 10
300.1234799105783
 20
133.847120720664
 30
0.0
  0
VERTEX
  5
13B
  8
WHITE
 10
294.4767904889713
 20
133.847120720664
 30
0.0
  0
VERTEX
  5
13C
  8
WHITE
 10
294.4767904889713
 20
131.347120720664
 30
0.0
  0
VERTEX
  5
13D
  8
WHITE
 10
291.2267904889713
 20
131.347120720664
 30
0.0
  0
VERTEX
  5
13E
  8
WHITE
 10
291.2267904889713
 20
133.847120720664
 30
0.0
  0
VERTEX
  5
13F
  8
WHITE
 10
290.2267904889713
 20
133.847120720664
 30
0.0
  0
VERTEX
  5
140
  8
WHITE
 10
290.2267904889713
 20
137.022120720664
 30
0.0
  0
VERTEX
  5
141
  8
WHITE
 10
291.2267904889713
 20
137.0221207206639
 30
0.0
  0
VERTEX
  5
142
  8
WHITE
 10
291.2267904889713
 20
139.5221207206639
 30
0.0
  0
VERTEX
  5
143
  8
WHITE
 10
294.4767904889713
 20
139.5221207206639
 30
0.0
  0
VERTEX
  5
144
  8
WHITE
 10
294.4767904889713
 20
137.0221207206639
 30
0.0
  0
VERTEX
  5
145
  8
WHITE
 10
300.1234799105783
 20
137.022120720664
 30
0.0
  0
VERTEX
  5
146
  8
WHITE
 10
300.1234799105783
 20
143.4345199104524
 30
0.0
  0
VERTEX
  5
147
  8
WHITE
 10
296.9484799105783
 20
143.4345199104525
 30
0.0
  0
VERTEX
  5
148
  8
WHITE
 10
296.9484799105783
 20
148.4345199104525
 30
0.0
  0
VERTEX
  5
149
  8
WHITE
 10
244.5495807566928
 20
148.4345199104524
 30
0.0
  0
VERTEX
  5
14A
  8
WHITE
 10
244.5495807566928
 20
143.4345199104524
 30
0.0
  0
VERTEX
  5
14B
  8
WHITE
 10
241.3745807566928
 20
143.4345199104524
 30
0.0
  0
VERTEX
  5
14C
  8
WHITE
 10
241.3745807566928
 20
137.0221207206639
 30
0.0
  0
VERTEX
  5
14D
  8
WHITE
 10
247.0212701782999
 20
137.0221207206639
 30
0.0
  0
VERTEX
  5
14E
  8
WHITE
 10
247.0212701782999
 20
139.5221207206639
 30
0.0
  0
VERTEX
  5
14F
  8
WHITE
 10
250.2712701782999
 20
139.5221207206639
 30
0.0
  0
VERTEX
  5
150
  8
WHITE
 10
250.2712701782999
 20
137.0221207206639
 30
0.0
  0
VERTEX
  5
151
  8
WHITE
 10
251.2712701782999
 20
137.022120720664
 30
0.0
  0
VERTEX
  5
152
  8
WHITE
 10
251.2712701782999
 20
133.847120720664
 30
0.0
  0
VERTEX
  5
153
  8
WHITE
 10
250.2712701782999
 20
133.847120720664
 30
0.0
  0
VERTEX
  5
154
  8
WHITE
 10
250.2712701782999
 20
131.347120720664
 30
0.0
  0
VERTEX
  5
155
  8
WHITE
 10
247.0212701782999
 20
131.347120720664
 30
0.0
  0
VERTEX
  5
156
  8
WHITE
 10
247.0212701782999
 20
133.847120720664
 30
0.0
  0
VERTEX
  5
157
  8
WHITE
 10
241.3745807566928
 20
133.847120720664
 30
0.0
  0
VERTEX
  5
158
  8
WHITE
 10
241.3745807566928
 20
127.4346941341224
 30
0.0
  0
VERTEX
  5
159
  8
WHITE
 10
244.5495807566928
 20
127.4346941341224
 30
0.0
  0
VERTEX
  5
15A
  8
WHITE
 10
244.5495807566927
 20
122.4346941341223
 30
0.0
  0
VERTEX
  5
15B
  8
WHITE
 10
224.5495807566926
 20
43.69626643033244
 30
0.0
  0
VERTEX
  5
15C
  8
WHITE
 10
224.5495807566926
 20
38.69626643033244
 30
0.0
  0
VERTEX
  5
15D
  8
WHITE
 10
221.3745807566926
 20
38.69626643033244
 30
0.0
  0
VERTEX
  5
15E
  8
WHITE
 10
221.3745807566923
 20
32.28385263801606
 30
0.0
  0
VERTEX
  5
15F
  8
WHITE
 10
227.0212701782989
 20
32.28385263801597
 30
0.0
  0
VERTEX
  5
160
  8
WHITE
 10
227.0212701782989
 20
34.78385263801603
 30
0.0
  0
VERTEX
  5
161
  8
WHITE
 10
230.2712701782989
 20
34.78385263801603
 30
0.0
  0
VERTEX
  5
162
  8
WHITE
 10
230.2712701782989
 20
32.28385263801597
 30
0.0
  0
VERTEX
  5
163
  8
WHITE
 10
231.2712701782989
 20
32.28385263801609
 30
0.0
  0
VERTEX
  5
164
  8
WHITE
 10
231.2712701782989
 20
29.10885263801613
 30
0.0
  0
VERTEX
  5
165
  8
WHITE
 10
230.2712701782989
 20
29.10885263801607
 30
0.0
  0
VERTEX
  5
166
  8
WHITE
 10
230.2712701782989
 20
26.60885263801607
 30
0.0
  0
VERTEX
  5
167
  8
WHITE
 10
227.0212701782989
 20
26.60885263801607
 30
0.0
  0
VERTEX
  5
168
  8
WHITE
 10
227.0212701782989
 20
29.10885263801607
 30
0.0
  0
VERTEX
  5
169
  8
WHITE
 10
221.3745807566923
 20
29.10885263801607
 30
0.0
  0
VERTEX
  5
16A
  8
WHITE
 10
221.3745807566926
 20
22.69644065400247
 30
0.0
  0
VERTEX
  5
16B
  8
WHITE
 10
224.5495807566926
 20
22.69644065400242
 30
0.0
  0
VERTEX
  5
16C
  8
WHITE
 10
224.5495807566926
 20
17.69644065400242
 30
0.0
  0
VERTEX
  5
16D
  8
WHITE
 10
276.9484799105782
 20
17.69644065400242
 30
0.0
  0
VERTEX
  5
16E
  8
WHITE
 10
276.9484799105782
 20
22.69644065400242
 30
0.0
  0
VERTEX
  5
16F
  8
WHITE
 10
280.1234799105781
 20
22.69644065400242
 30
0.0
  0
VERTEX
  5
170
  8
WHITE
 10
280.123479910578
 20
29.1088526380161
 30
0.0
  0
VERTEX
  5
171
  8
WHITE
 10
274.476790488971
 20
29.10885263801607
 30
0.0
  0
VERTEX
  5
172
  8
WHITE
 10
274.476790488971
 20
26.60885263801607
 30
0.0
  0
VERTEX
  5
173
  8
WHITE
 10
271.226790488971
 20
26.60885263801607
 30
0.0
  0
VERTEX
  5
174
  8
WHITE
 10
271.226790488971
 20
29.10885263801607
 30
0.0
  0
VERTEX
  5
175
  8
WHITE
 10
270.226790488971
 20
29.10885263801613
 30
0.0
  0
VERTEX
  5
176
  8
WHITE
 10
270.226790488971
 20
32.28385263801609
 30
0.0
  0
VERTEX
  5
177
  8
WHITE
 10
271.226790488971
 20
32.28385263801597
 30
0.0
  0
VERTEX
  5
178
  8
WHITE
 10
271.226790488971
 20
34.78385263801603
 30
0.0
  0
VERTEX
  5
179
  8
WHITE
 10
274.476790488971
 20
34.78385263801603
 30
0.0
  0
VERTEX
  5
17A
  8
WHITE
 10
274.476790488971
 20
32.28385263801597
 30
0.0
  0
VERTEX
  5
17B
  8
WHITE
 10
280.123479910578
 20
32.28385263801603
 30
0.0
  0
VERTEX
  5
17C
  8
WHITE
 10
280.1234799105781
 20
38.69626643033244
 30
0.0
  0
VERTEX
  5
17D
  8
WHITE
 10
276.9484799105782
 20
38.69626643033245
 30
0.0
  0
SEQEND
  5
17E
  8
WHITE
  0
CIRCLE
  5
17F
  8
WHITE
 10
278.6762300647385
 20
-131.2349982019123
 30
0.0
 40
2.039999999999992
  0
CIRCLE
  5
180
  8
WHITE
 10
268.6762300647389
 20
-0.293928788341475
 30
0.0
 40
2.039999999999978
  0
POLYLINE
  5
181
  8
WHITE
 66
     1
 10
0.0
 20
0.0
 30
0.0
 70
     1
  0
VERTEX
  5
182
  8
WHITE
 10
276.3058822356575
 20
-93.26446310090391
 30
0.0
  0
VERTEX
  5
183
  8
WHITE
 10
273.1308822356575
 20
-93.26446310090391
 30
0.0
  0
VERTEX
  5
184
  8
WHITE
 10
273.1308822356575
 20
-38.26446310090391
 30
0.0
  0
VERTEX
  5
185
  8
WHITE
 10
276.3058822356575
 20
-38.26446310090391
 30
0.0
  0
SEQEND
  5
186
  8
WHITE
  0
POLYLINE
  5
187
  8
WHITE
 66
     1
 10
0.0
 20
0.0
 30
0.0
 70
     1
  0
VERTEX
  5
188
  8
WHITE
 10
245.4465774082113
 20
-93.2644631009039
 30
0.0
  0
VERTEX
  5
189
  8
WHITE
 10
245.4465774082113
 20
-98.26446310090391
 30
0.0
  0
VERTEX
  5
18A
  8
WHITE
 10
237.5356208051938
 20
-116.2644631009039
 30
0.0
  0
VERTEX
  5
18B
  8
WHITE
 10
237.5356208051938
 20
-141.2055320242407
 30
0.0
 42
0.4142135623731086
  0
VERTEX
  5
18C
  8
WHITE
 10
242.5356208051938
 20
-146.2055320242407
 30
0.0
  0
VERTEX
  5
18D
  8
WHITE
 10
294.2168388386751
 20
-146.2055320242407
 30
0.0
 42
0.4142135623730827
  0
VERTEX
  5
18E
  8
WHITE
 10
299.2168388386751
 20
-141.2055320242407
 30
0.0
  0
VERTEX
  5
18F
  8
WHITE
 10
299.216838838675
 20
-116.2644631009039
 30
0.0
  0
VERTEX
  5
190
  8
WHITE
 10
281.3058822356575
 20
-98.26446310090391
 30
0.0
  0
VERTEX
  5
191
  8
WHITE
 10
281.3058822356575
 20
-33.26446310090391
 30
0.0
  0
VERTEX
  5
192
  8
WHITE
 10
289.216838838675
 20
-15.26446310090391
 30
0.0
  0
VERTEX
  5
193
  8
WHITE
 10
289.2168388386751
 20
9.676605822432904
 30
0.0
 42
0.414213562373094
  0
VERTEX
  5
194
  8
WHITE
 10
284.2168388386751
 20
14.67660582243293
 30
0.0
  0
VERTEX
  5
195
  8
WHITE
 10
232.5356208051938
 20
14.67660582243292
 30
0.0
 42
0.414213562373094
  0
VERTEX
  5
196
  8
WHITE
 10
227.5356208051938
 20
9.676605822432961
 30
0.0
  0
VERTEX
  5
197
  8
WHITE
 10
227.5356208051938
 20
-15.26446310090391
 30
0.0
  0
VERTEX
  5
198
  8
WHITE
 10
245.4465774082113
 20
-33.26446310090391
 30
0.0
  0
VERTEX
  5
199
  8
WHITE
 10
245.4465774082113
 20
-38.26446310090391
 30
0.0
  0
VERTEX
  5
19A
  8
WHITE
 10
242.2715774082112
 20
-38.26446310090391
 30
0.0
  0
VERTEX
  5
19B
  8
WHITE
 10
242.2715774082114
 20
-64.17696454254069
 30
0.0
  0
VERTEX
  5
19C
  8
WHITE
 10
247.9182668298183
 20
-64.17696454254074
 30
0.0
  0
VERTEX
  5
19D
  8
WHITE
 10
247.9182668298183
 20
-61.67696454254069
 30
0.0
  0
VERTEX
  5
19E
  8
WHITE
 10
251.1682668298183
 20
-61.67696454254069
 30
0.0
  0
VERTEX
  5
19F
  8
WHITE
 10
251.1682668298183
 20
-64.17696454254074
 30
0.0
  0
VERTEX
  5
1A0
  8
WHITE
 10
252.1682668298183
 20
-64.17696454254063
 30
0.0
  0
VERTEX
  5
1A1
  8
WHITE
 10
252.1682668298183
 20
-67.35196454254059
 30
0.0
  0
VERTEX
  5
1A2
  8
WHITE
 10
251.1682668298183
 20
-67.35196454254064
 30
0.0
  0
VERTEX
  5
1A3
  8
WHITE
 10
251.1682668298183
 20
-69.85196454254064
 30
0.0
  0
VERTEX
  5
1A4
  8
WHITE
 10
247.9182668298183
 20
-69.85196454254064
 30
0.0
  0
VERTEX
  5
1A5
  8
WHITE
 10
247.9182668298183
 20
-67.35196454254064
 30
0.0
  0
VERTEX
  5
1A6
  8
WHITE
 10
242.2715774082114
 20
-67.35196454254064
 30
0.0
  0
VERTEX
  5
1A7
  8
WHITE
 10
242.2715774082112
 20
-93.26446310090391
 30
0.0
  0
SEQEND
  5
1A8
  8
WHITE
  0
POLYLINE
  5
1A9
  8
WHITE
 66
     1
 10
0.0
 20
0.0
 30
0.0
 70
     1
  0
VERTEX
  5
1AA
  8
WHITE
 10
294.2167667900114
 20
-141.2055320242407
 30
0.0
  0
VERTEX
  5
1AB
  8
WHITE
 10
291.0417667900113
 20
-141.2055320242407
 30
0.0
  0
VERTEX
  5
1AC
  8
WHITE
 10
291.0417667900113
 20
-121.264463100904
 30
0.0
  0
VERTEX
  5
1AD
  8
WHITE
 10
294.2167667900114
 20
-121.264463100904
 30
0.0
  0
SEQEND
  5
1AE
  8
WHITE
  0
POLYLINE
  5
1AF
  8
WHITE
 66
     1
 10
0.0
 20
0.0
 30
0.0
 70
     1
  0
VERTEX
  5
1B0
  8
WHITE
 10
245.7106929711623
 20
-141.2055320242407
 30
0.0
  0
VERTEX
  5
1B1
  8
WHITE
 10
242.5356929711624
 20
-141.2055320242407
 30
0.0
  0
VERTEX
  5
1B2
  8
WHITE
 10
242.5356929711624
 20
-121.264463100904
 30
0.0
  0
VERTEX
  5
1B3
  8
WHITE
 10
245.7106929711623
 20
-121.264463100904
 30
0.0
  0
SEQEND
  5
1B4
  8
WHITE
  0
POLYLINE
  5
1B5
  8
WHITE
 66
     1
 10
0.0
 20
0.0
 30
0.0
 70
     1
  0
VERTEX
  5
1B6
  8
WHITE
 10
284.2167667900114
 20
-10.26446310090391
 30
0.0
  0
VERTEX
  5
1B7
  8
WHITE
 10
281.0417667900113
 20
-10.26446310090391
 30
0.0
  0
VERTEX
  5
1B8
  8
WHITE
 10
281.0417667900113
 20
9.676605822432848
 30
0.0
  0
VERTEX
  5
1B9
  8
WHITE
 10
284.2167667900114
 20
9.676605822432848
 30
0.0
  0
SEQEND
  5
1BA
  8
WHITE
  0
POLYLINE
  5
1BB
  8
WHITE
 66
     1
 10
0.0
 20
0.0
 30
0.0
 70
     1
  0
VERTEX
  5
1BC
  8
WHITE
 10
235.7106929711623
 20
-10.26446310090391
 30
0.0
  0
VERTEX
  5
1BD
  8
WHITE
 10
232.5356929711624
 20
-10.26446310090391
 30
0.0
  0
VERTEX
  5
1BE
  8
WHITE
 10
232.5356929711624
 20
9.676605822432848
 30
0.0
  0
VERTEX
  5
1BF
  8
WHITE
 10
235.7106929711623
 20
9.676605822432848
 30
0.0
  0
SEQEND
  5
1C0
  8
WHITE
  0
POLYLINE
  5
1C1
  8
WHITE
 66
     1
 10
0.0
 20
0.0
 30
0.0
 70
     1
  0
VERTEX
  5
1C2
  8
WHITE
 10
210.6259513501579
 20
-93.26446310090391
 30
0.0
  0
VERTEX
  5
1C3
  8
WHITE
 10
207.4509513501578
 20
-93.26446310090391
 30
0.0
  0
VERTEX
  5
1C4
  8
WHITE
 10
207.4509513501578
 20
-38.26446310090391
 30
0.0
  0
VERTEX
  5
1C5
  8
WHITE
 10
210.6259513501579
 20
-38.26446310090391
 30
0.0
  0
SEQEND
  5
1C6
  8
WHITE
  0
POLYLINE
  5
1C7
  8
WHITE
 66
     1
 10
0.0
 20
0.0
 30
0.0
 70
     1
  0
VERTEX
  5
1C8
  8
WHITE
 10
179.7666465227117
 20
-93.2644631009039
 30
0.0
  0
VERTEX
  5
1C9
  8
WHITE
 10
179.7666465227116
 20
-98.26446310090391
 30
0.0
  0
VERTEX
  5
1CA
  8
WHITE
 10
171.8556899196942
 20
-116.2644631009039
 30
0.0
  0
VERTEX
  5
1CB
  8
WHITE
 10
171.8556899196942
 20
-141.2055320242407
 30
0.0
 42
0.4142135623731117
  0
VERTEX
  5
1CC
  8
WHITE
 10
176.8556899196942
 20
-146.2055320242407
 30
0.0
  0
VERTEX
  5
1CD
  8
WHITE
 10
228.5369079531754
 20
-146.2055320242407
 30
0.0
 42
0.4142135623730791
  0
VERTEX
  5
1CE
  8
WHITE
 10
233.5369079531754
 20
-141.2055320242407
 30
0.0
  0
VERTEX
  5
1CF
  8
WHITE
 10
233.5369079531753
 20
-116.2644631009039
 30
0.0
  0
VERTEX
  5
1D0
  8
WHITE
 10
215.6259513501579
 20
-98.26446310090391
 30
0.0
  0
VERTEX
  5
1D1
  8
WHITE
 10
215.6259513501579
 20
-33.26446310090391
 30
0.0
  0
VERTEX
  5
1D2
  8
WHITE
 10
223.5369079531753
 20
-15.26446310090391
 30
0.0
  0
VERTEX
  5
1D3
  8
WHITE
 10
223.5369079531754
 20
9.676605822432904
 30
0.0
 42
0.4142135623730944
  0
VERTEX
  5
1D4
  8
WHITE
 10
218.5369079531754
 20
14.67660582243289
 30
0.0
  0
VERTEX
  5
1D5
  8
WHITE
 10
166.8556899196942
 20
14.67660582243292
 30
0.0
 42
0.4142135623730987
  0
VERTEX
  5
1D6
  8
WHITE
 10
161.8556899196942
 20
9.676605822432904
 30
0.0
  0
VERTEX
  5
1D7
  8
WHITE
 10
161.8556899196942
 20
-15.26446310090391
 30
0.0
  0
VERTEX
  5
1D8
  8
WHITE
 10
179.7666465227116
 20
-33.26446310090391
 30
0.0
  0
VERTEX
  5
1D9
  8
WHITE
 10
179.7666465227117
 20
-38.26446310090391
 30
0.0
  0
VERTEX
  5
1DA
  8
WHITE
 10
176.5916465227116
 20
-38.26446310090391
 30
0.0
  0
VERTEX
  5
1DB
  8
WHITE
 10
176.5916465227117
 20
-64.17696454254069
 30
0.0
  0
VERTEX
  5
1DC
  8
WHITE
 10
182.2383359443187
 20
-64.17696454254074
 30
0.0
  0
VERTEX
  5
1DD
  8
WHITE
 10
182.2383359443187
 20
-61.67696454254069
 30
0.0
  0
VERTEX
  5
1DE
  8
WHITE
 10
185.4883359443187
 20
-61.67696454254069
 30
0.0
  0
VERTEX
  5
1DF
  8
WHITE
 10
185.4883359443187
 20
-64.17696454254074
 30
0.0
  0
VERTEX
  5
1E0
  8
WHITE
 10
186.4883359443187
 20
-64.17696454254063
 30
0.0
  0
VERTEX
  5
1E1
  8
WHITE
 10
186.4883359443187
 20
-67.35196454254059
 30
0.0
  0
VERTEX
  5
1E2
  8
WHITE
 10
185.4883359443187
 20
-67.35196454254064
 30
0.0
  0
VERTEX
  5
1E3
  8
WHITE
 10
185.4883359443187
 20
-69.85196454254064
 30
0.0
  0
VERTEX
  5
1E4
  8
WHITE
 10
182.2383359443187
 20
-69.85196454254064
 30
0.0
  0
VERTEX
  5
1E5
  8
WHITE
 10
182.2383359443187
 20
-67.35196454254064
 30
0.0
  0
VERTEX
  5
1E6
  8
WHITE
 10
176.5916465227117
 20
-67.35196454254064
 30
0.0
  0
VERTEX
  5
1E7
  8
WHITE
 10
176.5916465227116
 20
-93.26446310090391
 30
0.0
  0
SEQEND
  5
1E8
  8
WHITE
  0
POLYLINE
  5
1E9
  8
WHITE
 66
     1
 10
0.0
 20
0.0
 30
0.0
 70
     1
  0
VERTEX
  5
1EA
  8
WHITE
 10
218.5368359045117
 20
-10.26446310090391
 30
0.0
  0
VERTEX
  5
1EB
  8
WHITE
 10
215.3618359045117
 20
-10.26446310090391
 30
0.0
  0
VERTEX
  5
1EC
  8
WHITE
 10
215.3618359045117
 20
9.676605822432848
 30
0.0
  0
VERTEX
  5
1ED
  8
WHITE
 10
218.5368359045117
 20
9.676605822432848
 30
0.0
  0
SEQEND
  5
1EE
  8
WHITE
  0
POLYLINE
  5
1EF
  8
WHITE
 66
     1
 10
0.0
 20
0.0
 30
0.0
 70
     1
  0
VERTEX
  5
1F0
  8
WHITE
 10
170.0307620856627
 20
-10.26446310090391
 30
0.0
  0
VERTEX
  5
1F1
  8
WHITE
 10
166.8557620856627
 20
-10.26446310090391
 30
0.0
  0
VERTEX
  5
1F2
  8
WHITE
 10
166.8557620856627
 20
9.676605822432848
 30
0.0
  0
VERTEX
  5
1F3
  8
WHITE
 10
170.0307620856627
 20
9.676605822432848
 30
0.0
  0
SEQEND
  5
1F4
  8
WHITE
  0
POLYLINE
  5
1F5
  8
WHITE
 66
     1
 10
0.0
 20
0.0
 30
0.0
 70
     1
  0
VERTEX
  5
1F6
  8
WHITE
 10
213.6068939422504
 20
-10.48759924458913
 30
0.0
  0
VERTEX
  5
1F7
  8
WHITE
 10
171.7856974725642
 20
-10.48759924458913
 30
0.0
  0
VERTEX
  5
1F8
  8
WHITE
 10
171.7856974725642
 20
9.899740679808971
 30
0.0
  0
VERTEX
  5
1F9
  8
WHITE
 10
213.6068939422504
 20
9.899740679808971
 30
0.0
  0
SEQEND
  5
1FA
  8
WHITE
  0
POLYLINE
  5
1FB
  8
WHITE
 66
     1
 10
0.0
 20
0.0
 30
0.0
 70
     1
  0
VERTEX
  5
1FC
  8
WHITE
 10
228.5368359045117
 20
-141.2055320242407
 30
0.0
  0
VERTEX
  5
1FD
  8
WHITE
 10
225.3618359045117
 20
-141.2055320242407
 30
0.0
  0
VERTEX
  5
1FE
  8
WHITE
 10
225.3618359045117
 20
-121.264463100904
 30
0.0
  0
VERTEX
  5
1FF
  8
WHITE
 10
228.5368359045117
 20
-121.264463100904
 30
0.0
  0
SEQEND
  5
200
  8
WHITE
  0
POLYLINE
  5
201
  8
WHITE
 66
     1
 10
0.0
 20
0.0
 30
0.0
 70
     1
  0
VERTEX
  5
202
  8
WHITE
 10
180.0307620856627
 20
-141.2055320242407
 30
0.0
  0
VERTEX
  5
203
  8
WHITE
 10
176.8557620856627
 20
-141.2055320242407
 30
0.0
  0
VERTEX
  5
204
  8
WHITE
 10
176.8557620856627
 20
-121.264463100904
 30
0.0
  0
VERTEX
  5
205
  8
WHITE
 10
180.0307620856627
 20
-121.264463100904
 30
0.0
  0
SEQEND
  5
206
  8
WHITE
  0
POLYLINE
  5
207
  8
WHITE
 66
     1
 10
0.0
 20
0.0
 30
0.0
 70
     1
  0
VERTEX
  5
208
  8
WHITE
 10
223.6068939422504
 20
-141.4286681679261
 30
0.0
  0
VERTEX
  5
209
  8
WHITE
 10
181.7856974725642
 20
-141.4286681679261
 30
0.0
  0
VERTEX
  5
20A
  8
WHITE
 10
181.7856974725642
 20
-121.041328243528
 30
0.0
  0
VERTEX
  5
20B
  8
WHITE
 10
223.6068939422504
 20
-121.041328243528
 30
0.0
  0
SEQEND
  5
20C
  8
WHITE
  0
CIRCLE
  5
20D
  8
WHITE
 10
80.31258013593464
 20
71.0248053257212
 30
0.0
 40
1.0
  0
CIRCLE
  5
20E
  8
WHITE
 10
72.81258013593462
 20
71.02480532572119
 30
0.0
 40
1.000000000000014
  0
CIRCLE
  5
20F
  8
WHITE
 10
65.31258013593475
 20
71.0248053257212
 30
0.0
 40
1.0
  0
POLYLINE
  5
210
  8
WHITE
 66
     1
 10
0.0
 20
0.0
 30
0.0
 70
     1
  0
VERTEX
  5
211
  8
WHITE
 10
60.18566128602998
 20
45.39707920959516
 30
0.0
  0
VERTEX
  5
212
  8
WHITE
 10
63.35002581515374
 20
45.13742149870724
 30
0.0
  0
VERTEX
  5
213
  8
WHITE
 10
60.27605740162022
 20
7.675962803067293
 30
0.0
  0
VERTEX
  5
214
  8
WHITE
 10
57.11169287249646
 20
7.935620513955215
 30
0.0
  0
SEQEND
  5
215
  8
WHITE
  0
POLYLINE
  5
216
  8
WHITE
 66
     1
 10
0.0
 20
0.0
 30
0.0
 70
     1
  0
VERTEX
  5
217
  8
WHITE
 10
85.87155289760307
 20
43.96279626771631
 30
0.0
  0
VERTEX
  5
218
  8
WHITE
 10
88.97845597685017
 20
44.61684386244094
 30
0.0
  0
VERTEX
  5
219
  8
WHITE
 10
96.72142513519333
 20
7.835644887618443
 30
0.0
  0
VERTEX
  5
21A
  8
WHITE
 10
93.61452205594622
 20
7.181597292893784
 30
0.0
  0
SEQEND
  5
21B
  8
WHITE
  0
POLYLINE
  5
21C
  8
WHITE
 66
     1
 10
0.0
 20
0.0
 30
0.0
 70
     1
  0
VERTEX
  5
21D
  8
WHITE
 10
80.85255835492006
 20
51.36794423900066
 30
0.0
  0
VERTEX
  5
21E
  8
WHITE
 10
80.85255835492005
 20
50.36794423900066
 30
0.0
 42
-0.414213266104551
  0
VERTEX
  5
21F
  8
WHITE
 10
78.85255835492008
 20
48.36794423900066
 30
0.0
  0
VERTEX
  5
220
  8
WHITE
 10
70.7726077899776
 20
48.36794423900068
 30
0.0
 42
-0.4142135623730877
  0
VERTEX
  5
221
  8
WHITE
 10
68.77260778997773
 20
50.36794423900066
 30
0.0
  0
VERTEX
  5
222
  8
WHITE
 10
68.77260778997771
 20
51.36794423900066
 30
0.0
 42
-0.4142134636169049
  0
VERTEX
  5
223
  8
WHITE
 10
70.77260778997758
 20
53.36794423900067
 30
0.0
  0
VERTEX
  5
224
  8
WHITE
 10
78.85255835492008
 20
53.36794423900066
 30
0.0
 42
-0.4142133648607325
  0
SEQEND
  5
225
  8
WHITE
  0
POLYLINE
  5
226
  8
WHITE
 66
     1
 10
0.0
 20
0.0
 30
0.0
 70
     1
  0
VERTEX
  5
227
  8
WHITE
 10
80.85255835492006
 20
61.36794423900066
 30
0.0
  0
VERTEX
  5
228
  8
WHITE
 10
80.85255835492006
 20
60.36794423900066
 30
0.0
 42
-0.4142132661045481
  0
VERTEX
  5
229
  8
WHITE
 10
78.85255835492009
 20
58.36794423900066
 30
0.0
  0
VERTEX
  5
22A
  8
WHITE
 10
70.7726077899776
 20
58.36794423900065
 30
0.0
 42
-0.4142135623730788
  0
VERTEX
  5
22B
  8
WHITE
 10
68.7726077899777
 20
60.36794423900066
 30
0.0
  0
VERTEX
  5
22C
  8
WHITE
 10
68.77260778997771
 20
61.36794423900066
 30
0.0
 42
-0.4142134636168968
  0
VERTEX
  5
22D
  8
WHITE
 10
70.77260778997758
 20
63.36794423900067
 30
0.0
  0
VERTEX
  5
22E
  8
WHITE
 10
78.85255835492008
 20
63.36794423900066
 30
0.0
 42
-0.4142133648607401
  0
SEQEND
  5
22F
  8
WHITE
  0
POLYLINE
  5
230
  8
WHITE
 66
     1
 10
0.0
 20
0.0
 30
0.0
 70
     1
  0
VERTEX
  5
231
  8
WHITE
 10
89.62145502756692
 20
-13.73840240835405
 30
0.0
  0
VERTEX
  5
232
  8
WHITE
 10
89.62145502756691
 20
-14.73840240835405
 30
0.0
 42
-0.4142134636169316
  0
VERTEX
  5
233
  8
WHITE
 10
87.62145502756692
 20
-16.73840240835404
 30
0.0
  0
VERTEX
  5
234
  8
WHITE
 10
67.46155389768234
 20
-16.73840240835408
 30
0.0
 42
-0.4142134636168757
  0
VERTEX
  5
235
  8
WHITE
 10
65.46155389768234
 20
-14.73840240835408
 30
0.0
  0
VERTEX
  5
236
  8
WHITE
 10
65.46155389768234
 20
-13.73840240835408
 30
0.0
 42
-0.4142134636168988
  0
VERTEX
  5
237
  8
WHITE
 10
67.46155389768234
 20
-11.73840240835406
 30
0.0
  0
VERTEX
  5
238
  8
WHITE
 10
87.62145502756692
 20
-11.73840240835405
 30
0.0
 42
-0.4142134636168946
  0
SEQEND
  5
239
  8
WHITE
  0
POLYLINE
  5
23A
  8
WHITE
 66
     1
 10
0.0
 20
0.0
 30
0.0
 70
     1
  0
VERTEX
  5
23B
  8
WHITE
 10
89.62145502756692
 20
1.261597591645952
 30
0.0
  0
VERTEX
  5
23C
  8
WHITE
 10
89.62145502756692
 20
0.261597591645952
 30
0.0
 42
-0.4142135027600571
  0
VERTEX
  5
23D
  8
WHITE
 10
87.62145502756692
 20
-1.738402408354037
 30
0.0
  0
VERTEX
  5
23E
  8
WHITE
 10
67.46155389768234
 20
-1.738402408354085
 30
0.0
 42
-0.4142135148809711
  0
VERTEX
  5
23F
  8
WHITE
 10
65.46155389768232
 20
0.2615975916459239
 30
0.0
  0
VERTEX
  5
240
  8
WHITE
 10
65.46155389768234
 20
1.261597591645924
 30
0.0
 42
-0.4142133648607171
  0
VERTEX
  5
241
  8
WHITE
 10
67.46155389768232
 20
3.261597591645945
 30
0.0
  0
VERTEX
  5
242
  8
WHITE
 10
87.62145502756692
 20
3.261597591645957
 30
0.0
 42
-0.4142134636169401
  0
SEQEND
  5
243
  8
WHITE
  0
POLYLINE
  5
244
  8
WHITE
 66
     1
 10
0.0
 20
0.0
 30
0.0
 70
     1
  0
VERTEX
  5
245
  8
WHITE
 10
103.7409534200821
 20
-1.238489345762119
 30
0.0
  0
VERTEX
  5
246
  8
WHITE
 10
87.624464352742
 20
75.32201353903024
 30
0.0
  0
VERTEX
  5
247
  8
WHITE
 10
57.62443656210036
 20
75.32201353903024
 30
0.0
  0
VERTEX
  5
248
  8
WHITE
 10
51.34205426619661
 20
-1.238489345762147
 30
0.0
  0
VERTEX
  5
249
  8
WHITE
 10
51.34205426619661
 20
-6.238489345762147
 30
0.0
  0
VERTEX
  5
24A
  8
WHITE
 10
48.16705426619666
 20
-6.238489345762148
 30
0.0
  0
VERTEX
  5
24B
  8
WHITE
 10
48.16705426619666
 20
-12.65090645397565
 30
0.0
  0
VERTEX
  5
24C
  8
WHITE
 10
53.81374368780399
 20
-12.65090645397565
 30
0.0
  0
VERTEX
  5
24D
  8
WHITE
 10
53.81374368780399
 20
-10.15090645397565
 30
0.0
  0
VERTEX
  5
24E
  8
WHITE
 10
57.06374368780399
 20
-10.15090645397565
 30
0.0
  0
VERTEX
  5
24F
  8
WHITE
 10
57.06374368780399
 20
-12.65090645397565
 30
0.0
  0
VERTEX
  5
250
  8
WHITE
 10
58.06374368780399
 20
-12.65090645397571
 30
0.0
  0
VERTEX
  5
251
  8
WHITE
 10
58.06374368780399
 20
-15.82590645397566
 30
0.0
  0
VERTEX
  5
252
  8
WHITE
 10
57.06374368780399
 20
-15.82590645397555
 30
0.0
  0
VERTEX
  5
253
  8
WHITE
 10
57.06374368780399
 20
-18.32590645397561
 30
0.0
  0
VERTEX
  5
254
  8
WHITE
 10
53.81374368780399
 20
-18.32590645397561
 30
0.0
  0
VERTEX
  5
255
  8
WHITE
 10
53.81374368780399
 20
-15.82590645397555
 30
0.0
  0
VERTEX
  5
256
  8
WHITE
 10
48.16705426619666
 20
-15.82590645397561
 30
0.0
  0
VERTEX
  5
257
  8
WHITE
 10
48.16705426619666
 20
-22.23831512209217
 30
0.0
  0
VERTEX
  5
258
  8
WHITE
 10
51.34205426619661
 20
-22.2383151220922
 30
0.0
  0
VERTEX
  5
259
  8
WHITE
 10
51.34205426619661
 20
-27.2383151220922
 30
0.0
  0
VERTEX
  5
25A
  8
WHITE
 10
103.7409534200821
 20
-27.23831512209217
 30
0.0
  0
VERTEX
  5
25B
  8
WHITE
 10
103.7409534200821
 20
-22.23831512209217
 30
0.0
  0
VERTEX
  5
25C
  8
WHITE
 10
106.9159534200821
 20
-22.23831512209215
 30
0.0
  0
VERTEX
  5
25D
  8
WHITE
 10
106.9159534200821
 20
-15.82590172501729
 30
0.0
  0
VERTEX
  5
25E
  8
WHITE
 10
101.269263998475
 20
-15.82590172501729
 30
0.0
  0
VERTEX
  5
25F
  8
WHITE
 10
101.269263998475
 20
-18.32590172501729
 30
0.0
  0
VERTEX
  5
260
  8
WHITE
 10
98.01926399847497
 20
-18.32590172501729
 30
0.0
  0
VERTEX
  5
261
  8
WHITE
 10
98.01926399847497
 20
-15.82590172501729
 30
0.0
  0
VERTEX
  5
262
  8
WHITE
 10
97.01926399847497
 20
-15.82590172501723
 30
0.0
  0
VERTEX
  5
263
  8
WHITE
 10
97.01926399847497
 20
-12.65090172501728
 30
0.0
  0
VERTEX
  5
264
  8
WHITE
 10
98.01926399847497
 20
-12.65090172501739
 30
0.0
  0
VERTEX
  5
265
  8
WHITE
 10
98.01926399847497
 20
-10.15090172501733
 30
0.0
  0
VERTEX
  5
266
  8
WHITE
 10
101.269263998475
 20
-10.15090172501733
 30
0.0
  0
VERTEX
  5
267
  8
WHITE
 10
101.269263998475
 20
-12.65090172501739
 30
0.0
  0
VERTEX
  5
268
  8
WHITE
 10
106.9159534200821
 20
-12.65090172501733
 30
0.0
  0
VERTEX
  5
269
  8
WHITE
 10
106.9159534200821
 20
-6.238489345762119
 30
0.0
  0
VERTEX
  5
26A
  8
WHITE
 10
103.7409534200821
 20
-6.238489345762119
 30
0.0
  0
SEQEND
  5
26B
  8
WHITE
  0
CIRCLE
  5
26C
  8
WHITE
 10
123.7752030461859
 20
-22.94110813815033
 30
0.0
 40
0.9999999999999858
  0
CIRCLE
  5
26D
  8
WHITE
 10
131.2752030461859
 20
-22.94110813815033
 30
0.0
 40
0.9999999999999858
  0
CIRCLE
  5
26E
  8
WHITE
 10
138.775203046186
 20
-22.94110813815033
 30
0.0
 40
0.9999999999999858
  0
POLYLINE
  5
26F
  8
WHITE
 66
     1
 10
0.0
 20
0.0
 30
0.0
 70
     1
  0
VERTEX
  5
270
  8
WHITE
 10
143.9021218960904
 20
2.686617977975729
 30
0.0
  0
VERTEX
  5
271
  8
WHITE
 10
140.7377573669668
 20
2.946275688863651
 30
0.0
  0
VERTEX
  5
272
  8
WHITE
 10
143.8117257805002
 20
40.4077343845036
 30
0.0
  0
VERTEX
  5
273
  8
WHITE
 10
146.9760903096239
 20
40.14807667361568
 30
0.0
  0
SEQEND
  5
274
  8
WHITE
  0
POLYLINE
  5
275
  8
WHITE
 66
     1
 10
0.0
 20
0.0
 30
0.0
 70
     1
  0
VERTEX
  5
276
  8
WHITE
 10
118.2162302845173
 20
4.120900919854577
 30
0.0
  0
VERTEX
  5
277
  8
WHITE
 10
115.1093272052702
 20
3.466853325129946
 30
0.0
  0
VERTEX
  5
278
  8
WHITE
 10
107.3663580469272
 20
40.24805229995245
 30
0.0
  0
VERTEX
  5
279
  8
WHITE
 10
110.4732611261742
 20
40.90209989467711
 30
0.0
  0
SEQEND
  5
27A
  8
WHITE
  0
POLYLINE
  5
27B
  8
WHITE
 66
     1
 10
0.0
 20
0.0
 30
0.0
 70
     1
  0
VERTEX
  5
27C
  8
WHITE
 10
123.2352248272005
 20
-3.284247051429773
 30
0.0
  0
VERTEX
  5
27D
  8
WHITE
 10
123.2352248272005
 20
-2.284247051429773
 30
0.0
 42
-0.4142133648607013
  0
VERTEX
  5
27E
  8
WHITE
 10
125.2352248272004
 20
-0.2842470514297801
 30
0.0
  0
VERTEX
  5
27F
  8
WHITE
 10
133.3151753921428
 20
-0.2842470514297588
 30
0.0
 42
-0.4142135623731118
  0
VERTEX
  5
280
  8
WHITE
 10
135.3151753921428
 20
-2.284247051429773
 30
0.0
  0
VERTEX
  5
281
  8
WHITE
 10
135.3151753921428
 20
-3.284247051429773
 30
0.0
 42
-0.4142135623731144
  0
VERTEX
  5
282
  8
WHITE
 10
133.3151753921428
 20
-5.284247051429787
 30
0.0
  0
VERTEX
  5
283
  8
WHITE
 10
125.2352248272005
 20
-5.284247051429777
 30
0.0
 42
-0.4142133648606823
  0
SEQEND
  5
284
  8
WHITE
  0
POLYLINE
  5
285
  8
WHITE
 66
     1
 10
0.0
 20
0.0
 30
0.0
 70
     1
  0
VERTEX
  5
286
  8
WHITE
 10
123.2352248272005
 20
-13.28424705142977
 30
0.0
  0
VERTEX
  5
287
  8
WHITE
 10
123.2352248272005
 20
-12.28424705142977
 30
0.0
 42
-0.4142133648606925
  0
VERTEX
  5
288
  8
WHITE
 10
125.2352248272004
 20
-10.28424705142977
 30
0.0
  0
VERTEX
  5
289
  8
WHITE
 10
133.3151753921428
 20
-10.28424705142978
 30
0.0
 42
-0.4142135623731162
  0
VERTEX
  5
28A
  8
WHITE
 10
135.3151753921428
 20
-12.28424705142977
 30
0.0
  0
VERTEX
  5
28B
  8
WHITE
 10
135.3151753921428
 20
-13.28424705142977
 30
0.0
 42
-0.4142134636169147
  0
VERTEX
  5
28C
  8
WHITE
 10
133.3151753921428
 20
-15.28424705142979
 30
0.0
  0
VERTEX
  5
28D
  8
WHITE
 10
125.2352248272005
 20
-15.28424705142978
 30
0.0
 42
-0.4142133648606793
  0
SEQEND
  5
28E
  8
WHITE
  0
POLYLINE
  5
28F
  8
WHITE
 66
     1
 10
0.0
 20
0.0
 30
0.0
 70
     1
  0
VERTEX
  5
290
  8
WHITE
 10
114.4663281545535
 20
46.82209959592494
 30
0.0
  0
VERTEX
  5
291
  8
WHITE
 10
114.4663281545535
 20
47.82209959592497
 30
0.0
 42
-0.4142135027599866
  0
VERTEX
  5
292
  8
WHITE
 10
116.4663281545535
 20
49.82209959592495
 30
0.0
  0
VERTEX
  5
293
  8
WHITE
 10
136.6262292844384
 20
49.82209959592498
 30
0.0
 42
-0.4142134161435825
  0
VERTEX
  5
294
  8
WHITE
 10
138.6262292844384
 20
47.82209959592497
 30
0.0
  0
VERTEX
  5
295
  8
WHITE
 10
138.6262292844384
 20
46.82209959592497
 30
0.0
 42
-0.4142134636168506
  0
VERTEX
  5
296
  8
WHITE
 10
136.6262292844382
 20
44.82209959592493
 30
0.0
  0
VERTEX
  5
297
  8
WHITE
 10
116.4663281545535
 20
44.82209959592493
 30
0.0
 42
-0.414213463616839
  0
SEQEND
  5
298
  8
WHITE
  0
POLYLINE
  5
299
  8
WHITE
 66
     1
 10
0.0
 20
0.0
 30
0.0
 70
     1
  0
VERTEX
  5
29A
  8
WHITE
 10
100.3468297620384
 20
49.32218653333301
 30
0.0
  0
VERTEX
  5
29B
  8
WHITE
 10
116.4633188293785
 20
-27.23831635145937
 30
0.0
  0
VERTEX
  5
29C
  8
WHITE
 10
146.46334662002
 20
-27.23831635145937
 30
0.0
  0
VERTEX
  5
29D
  8
WHITE
 10
152.7457289159238
 20
49.32218653333304
 30
0.0
  0
VERTEX
  5
29E
  8
WHITE
 10
152.7457289159238
 20
54.32218653333304
 30
0.0
  0
VERTEX
  5
29F
  8
WHITE
 10
155.920728915924
 20
54.32218653333305
 30
0.0
  0
VERTEX
  5
2A0
  8
WHITE
 10
155.9207289159237
 20
60.73460364154654
 30
0.0
  0
VERTEX
  5
2A1
  8
WHITE
 10
150.2740394943166
 20
60.73460364154654
 30
0.0
  0
VERTEX
  5
2A2
  8
WHITE
 10
150.2740394943166
 20
58.23460364154654
 30
0.0
  0
VERTEX
  5
2A3
  8
WHITE
 10
147.0240394943166
 20
58.23460364154654
 30
0.0
  0
VERTEX
  5
2A4
  8
WHITE
 10
147.0240394943166
 20
60.73460364154654
 30
0.0
  0
VERTEX
  5
2A5
  8
WHITE
 10
146.0240394943166
 20
60.7346036415466
 30
0.0
  0
VERTEX
  5
2A6
  8
WHITE
 10
146.0240394943166
 20
63.90960364154655
 30
0.0
  0
VERTEX
  5
2A7
  8
WHITE
 10
147.0240394943166
 20
63.90960364154644
 30
0.0
  0
VERTEX
  5
2A8
  8
WHITE
 10
147.0240394943166
 20
66.4096036415465
 30
0.0
  0
VERTEX
  5
2A9
  8
WHITE
 10
150.2740394943166
 20
66.4096036415465
 30
0.0
  0
VERTEX
  5
2AA
  8
WHITE
 10
150.2740394943166
 20
63.90960364154644
 30
0.0
  0
VERTEX
  5
2AB
  8
WHITE
 10
155.9207289159237
 20
63.9096036415465
 30
0.0
  0
VERTEX
  5
2AC
  8
WHITE
 10
155.920728915924
 20
70.32201230966307
 30
0.0
  0
VERTEX
  5
2AD
  8
WHITE
 10
152.7457289159238
 20
70.3220123096631
 30
0.0
  0
VERTEX
  5
2AE
  8
WHITE
 10
152.7457289159238
 20
75.3220123096631
 30
0.0
  0
VERTEX
  5
2AF
  8
WHITE
 10
100.3468297620384
 20
75.32201230966307
 30
0.0
  0
VERTEX
  5
2B0
  8
WHITE
 10
100.3468297620384
 20
70.32201230966305
 30
0.0
  0
VERTEX
  5
2B1
  8
WHITE
 10
97.17182976203844
 20
70.32201230966304
 30
0.0
  0
VERTEX
  5
2B2
  8
WHITE
 10
97.17182976203844
 20
63.90959891258818
 30
0.0
  0
VERTEX
  5
2B3
  8
WHITE
 10
102.8185191836454
 20
63.90959891258815
 30
0.0
  0
VERTEX
  5
2B4
  8
WHITE
 10
102.8185191836454
 20
66.40959891258815
 30
0.0
  0
VERTEX
  5
2B5
  8
WHITE
 10
106.0685191836454
 20
66.40959891258815
 30
0.0
  0
VERTEX
  5
2B6
  8
WHITE
 10
106.0685191836454
 20
63.90959891258815
 30
0.0
  0
VERTEX
  5
2B7
  8
WHITE
 10
107.0685191836454
 20
63.90959891258809
 30
0.0
  0
VERTEX
  5
2B8
  8
WHITE
 10
107.0685191836454
 20
60.73459891258814
 30
0.0
  0
VERTEX
  5
2B9
  8
WHITE
 10
106.0685191836454
 20
60.73459891258825
 30
0.0
  0
VERTEX
  5
2BA
  8
WHITE
 10
106.0685191836454
 20
58.2345989125882
 30
0.0
  0
VERTEX
  5
2BB
  8
WHITE
 10
102.8185191836454
 20
58.2345989125882
 30
0.0
  0
VERTEX
  5
2BC
  8
WHITE
 10
102.8185191836454
 20
60.73459891258825
 30
0.0
  0
VERTEX
  5
2BD
  8
WHITE
 10
97.17182976203844
 20
60.7345989125882
 30
0.0
  0
VERTEX
  5
2BE
  8
WHITE
 10
97.17182976203844
 20
54.32218653333301
 30
0.0
  0
VERTEX
  5
2BF
  8
WHITE
 10
100.3468297620384
 20
54.322186533333
 30
0.0
  0
SEQEND
  5
2C0
  8
WHITE
  0
POLYLINE
  5
2C1
  8
WHITE
 66
     1
 10
0.0
 20
0.0
 30
0.0
 70
     1
  0
VERTEX
  5
2C2
  8
WHITE
 10
114.4663281545535
 20
61.82209959592494
 30
0.0
  0
VERTEX
  5
2C3
  8
WHITE
 10
114.4663281545535
 20
62.82209959592497
 30
0.0
 42
-0.4142135623730813
  0
VERTEX
  5
2C4
  8
WHITE
 10
116.4663281545535
 20
64.82209959592494
 30
0.0
  0
VERTEX
  5
2C5
  8
WHITE
 10
136.6262292844384
 20
64.82209959592495
 30
0.0
 42
-0.4142134636168413
  0
VERTEX
  5
2C6
  8
WHITE
 10
138.6262292844384
 20
62.82209959592497
 30
0.0
  0
VERTEX
  5
2C7
  8
WHITE
 10
138.6262292844384
 20
61.82209959592497
 30
0.0
 42
-0.4142134636168308
  0
VERTEX
  5
2C8
  8
WHITE
 10
136.6262292844382
 20
59.82209959592496
 30
0.0
  0
VERTEX
  5
2C9
  8
WHITE
 10
116.4663281545535
 20
59.82209959592493
 30
0.0
 42
-0.4142132661045488
  0
SEQEND
  5
2CA
  8
WHITE
  0
CIRCLE
  5
2CB
  8
WHITE
 10
151.5276338795052
 20
-125.3831466442542
 30
0.0
 40
2.040000000000006
  0
POLYLINE
  5
2CC
  8
WHITE
 66
     1
 10
0.0
 20
0.0
 30
0.0
 70
     1
  0
VERTEX
  5
2CD
  8
WHITE
 10
166.4981683411736
 20
-143.9237556609947
 30
0.0
  0
VERTEX
  5
2CE
  8
WHITE
 10
166.4981683411736
 20
-86.24253762751366
 30
0.0
 42
0.4142135623731301
  0
VERTEX
  5
2CF
  8
WHITE
 10
164.4981683411736
 20
-84.24253762751367
 30
0.0
  0
VERTEX
  5
2D0
  8
WHITE
 10
138.5570994178367
 20
-84.24253762751366
 30
0.0
 42
0.4142135623731244
  0
VERTEX
  5
2D1
  8
WHITE
 10
136.5570994178368
 20
-86.24253762751366
 30
0.0
  0
VERTEX
  5
2D2
  8
WHITE
 10
136.5570994178367
 20
-143.9237556609947
 30
0.0
 42
0.414213562373095
  0
VERTEX
  5
2D3
  8
WHITE
 10
138.5570994178367
 20
-145.9237556609947
 30
0.0
  0
VERTEX
  5
2D4
  8
WHITE
 10
164.4981683411736
 20
-145.9237556609947
 30
0.0
 42
0.4142135623731241
  0
SEQEND
  5
2D5
  8
WHITE
  0
POLYLINE
  5
2D6
  8
WHITE
 66
     1
 10
0.0
 20
0.0
 30
0.0
 70
     1
  0
VERTEX
  5
2D7
  8
WHITE
 10
141.5570994178367
 20
-140.923683612331
 30
0.0
  0
VERTEX
  5
2D8
  8
WHITE
 10
141.5570994178367
 20
-137.7486836123311
 30
0.0
  0
VERTEX
  5
2D9
  8
WHITE
 10
161.4981683411736
 20
-137.7486836123311
 30
0.0
  0
VERTEX
  5
2DA
  8
WHITE
 10
161.4981683411736
 20
-140.923683612331
 30
0.0
  0
SEQEND
  5
2DB
  8
WHITE
  0
POLYLINE
  5
2DC
  8
WHITE
 66
     1
 10
0.0
 20
0.0
 30
0.0
 70
     1
  0
VERTEX
  5
2DD
  8
WHITE
 10
141.5570994178367
 20
-92.41760979348211
 30
0.0
  0
VERTEX
  5
2DE
  8
WHITE
 10
141.5570994178367
 20
-89.24260979348216
 30
0.0
  0
VERTEX
  5
2DF
  8
WHITE
 10
161.4981683411736
 20
-89.24260979348216
 30
0.0
  0
VERTEX
  5
2E0
  8
WHITE
 10
161.4981683411736
 20
-92.41760979348211
 30
0.0
  0
SEQEND
  5
2E1
  8
WHITE
  0
CIRCLE
  5
2E2
  8
WHITE
 10
118.8864436911702
 20
-125.3831318231675
 30
0.0
 40
2.039999999999935
  0
POLYLINE
  5
2E3
  8
WHITE
 66
     1
 10
0.0
 20
0.0
 30
0.0
 70
     1
  0
VERTEX
  5
2E4
  8
WHITE
 10
103.9159092295017
 20
-86.24252231619298
 30
0.0
  0
VERTEX
  5
2E5
  8
WHITE
 10
103.9159092295017
 20
-143.9237403496741
 30
0.0
 42
0.4142135623731094
  0
VERTEX
  5
2E6
  8
WHITE
 10
105.9159092295017
 20
-145.9237403496741
 30
0.0
  0
VERTEX
  5
2E7
  8
WHITE
 10
131.8569781528385
 20
-145.9237403496741
 30
0.0
 42
0.4142135623730975
  0
VERTEX
  5
2E8
  8
WHITE
 10
133.8569781528386
 20
-143.9237403496741
 30
0.0
  0
VERTEX
  5
2E9
  8
WHITE
 10
133.8569781528386
 20
-86.24252231619298
 30
0.0
 42
0.4142135623730963
  0
VERTEX
  5
2EA
  8
WHITE
 10
131.8569781528386
 20
-84.24252231619296
 30
0.0
  0
VERTEX
  5
2EB
  8
WHITE
 10
105.9159092295017
 20
-84.24252231619298
 30
0.0
 42
0.4142135623731414
  0
SEQEND
  5
2EC
  8
WHITE
  0
POLYLINE
  5
2ED
  8
WHITE
 66
     1
 10
0.0
 20
0.0
 30
0.0
 70
     1
  0
VERTEX
  5
2EE
  8
WHITE
 10
108.9159092295018
 20
-137.7486683010105
 30
0.0
  0
VERTEX
  5
2EF
  8
WHITE
 10
128.8569781528385
 20
-137.7486683010105
 30
0.0
  0
VERTEX
  5
2F0
  8
WHITE
 10
128.8569781528385
 20
-140.9236683010105
 30
0.0
  0
VERTEX
  5
2F1
  8
WHITE
 10
108.9159092295018
 20
-140.9236683010105
 30
0.0
  0
SEQEND
  5
2F2
  8
WHITE
  0
POLYLINE
  5
2F3
  8
WHITE
 66
     1
 10
0.0
 20
0.0
 30
0.0
 70
     1
  0
VERTEX
  5
2F4
  8
WHITE
 10
108.9159092295018
 20
-89.24259448216159
 30
0.0
  0
VERTEX
  5
2F5
  8
WHITE
 10
128.8569781528385
 20
-89.24259448216159
 30
0.0
  0
VERTEX
  5
2F6
  8
WHITE
 10
128.8569781528385
 20
-92.41759448216155
 30
0.0
  0
VERTEX
  5
2F7
  8
WHITE
 10
108.9159092295018
 20
-92.41759448216155
 30
0.0
  0
SEQEND
  5
2F8
  8
WHITE
  0
POLYLINE
  5
2F9
  8
WHITE
 66
     1
 10
0.0
 20
0.0
 30
0.0
 70
     1
  0
VERTEX
  5
2FA
  8
WHITE
 10
71.91165574889408
 20
-86.24250624787916
 30
0.0
  0
VERTEX
  5
2FB
  8
WHITE
 10
71.91165574889408
 20
-143.9237242813604
 30
0.0
 42
0.4142135623730796
  0
VERTEX
  5
2FC
  8
WHITE
 10
73.91165574889408
 20
-145.9237242813604
 30
0.0
  0
VERTEX
  5
2FD
  8
WHITE
 10
99.85272467223093
 20
-145.9237242813605
 30
0.0
 42
0.4142135623730755
  0
VERTEX
  5
2FE
  8
WHITE
 10
101.8527246722309
 20
-143.9237242813605
 30
0.0
  0
VERTEX
  5
2FF
  8
WHITE
 10
101.8527246722309
 20
-86.24250624787916
 30
0.0
 42
0.4142135623731215
  0
VERTEX
  5
300
  8
WHITE
 10
99.85272467223093
 20
-84.24250624787918
 30
0.0
  0
VERTEX
  5
301
  8
WHITE
 10
73.91165574889408
 20
-84.24250624787916
 30
0.0
 42
0.4142135623730638
  0
SEQEND
  5
302
  8
WHITE
  0
POLYLINE
  5
303
  8
WHITE
 66
     1
 10
0.0
 20
0.0
 30
0.0
 70
     1
  0
VERTEX
  5
304
  8
WHITE
 10
96.85272467223105
 20
-89.24257829654286
 30
0.0
  0
VERTEX
  5
305
  8
WHITE
 10
96.85272467223105
 20
-92.41757829654293
 30
0.0
  0
VERTEX
  5
306
  8
WHITE
 10
76.9116557488942
 20
-92.41757829654293
 30
0.0
  0
VERTEX
  5
307
  8
WHITE
 10
76.9116557488942
 20
-89.24257829654286
 30
0.0
  0
SEQEND
  5
308
  8
WHITE
  0
POLYLINE
  5
309
  8
WHITE
 66
     1
 10
0.0
 20
0.0
 30
0.0
 70
     1
  0
VERTEX
  5
30A
  8
WHITE
 10
96.85272467223105
 20
-137.7486521153918
 30
0.0
  0
VERTEX
  5
30B
  8
WHITE
 10
96.85272467223105
 20
-140.9236521153919
 30
0.0
  0
VERTEX
  5
30C
  8
WHITE
 10
76.9116557488942
 20
-140.9236521153919
 30
0.0
  0
VERTEX
  5
30D
  8
WHITE
 10
76.9116557488942
 20
-137.7486521153918
 30
0.0
  0
SEQEND
  5
30E
  8
WHITE
  0
POLYLINE
  5
30F
  8
WHITE
 66
     1
 10
0.0
 20
0.0
 30
0.0
 70
     1
  0
VERTEX
  5
310
  8
WHITE
 10
97.07586017657628
 20
-94.17252050160866
 30
0.0
  0
VERTEX
  5
311
  8
WHITE
 10
97.07586017657628
 20
-135.9937169712949
 30
0.0
  0
VERTEX
  5
312
  8
WHITE
 10
76.68852025217815
 20
-135.9937169712949
 30
0.0
  0
VERTEX
  5
313
  8
WHITE
 10
76.68852025217815
 20
-94.17252050160866
 30
0.0
  0
SEQEND
  5
314
  8
WHITE
  0
POLYLINE
  5
315
  8
WHITE
 66
     1
 10
0.0
 20
0.0
 30
0.0
 70
     1
  0
VERTEX
  5
316
  8
WHITE
 10
69.60841161133479
 20
-143.9237242813602
 30
0.0
  0
VERTEX
  5
317
  8
WHITE
 10
69.60841161133477
 20
-86.24250624787916
 30
0.0
 42
0.4142135623731186
  0
VERTEX
  5
318
  8
WHITE
 10
67.60841161133479
 20
-84.24250624787918
 30
0.0
  0
VERTEX
  5
319
  8
WHITE
 10
41.66734268799794
 20
-84.24250624787916
 30
0.0
 42
0.4142135623731034
  0
VERTEX
  5
31A
  8
WHITE
 10
39.66734268799795
 20
-86.24250624787916
 30
0.0
  0
VERTEX
  5
31B
  8
WHITE
 10
39.66734268799794
 20
-143.9237242813602
 30
0.0
 42
0.4142135623730796
  0
VERTEX
  5
31C
  8
WHITE
 10
41.66734268799794
 20
-145.9237242813602
 30
0.0
  0
VERTEX
  5
31D
  8
WHITE
 10
67.60841161133479
 20
-145.9237242813602
 30
0.0
 42
0.4142135623731255
  0
SEQEND
  5
31E
  8
WHITE
  0
POLYLINE
  5
31F
  8
WHITE
 66
     1
 10
0.0
 20
0.0
 30
0.0
 70
     1
  0
VERTEX
  5
320
  8
WHITE
 10
64.60841161133479
 20
-92.41757829654281
 30
0.0
  0
VERTEX
  5
321
  8
WHITE
 10
44.66734268799794
 20
-92.41757829654281
 30
0.0
  0
VERTEX
  5
322
  8
WHITE
 10
44.66734268799794
 20
-89.24257829654286
 30
0.0
  0
VERTEX
  5
323
  8
WHITE
 10
64.60841161133479
 20
-89.24257829654286
 30
0.0
  0
SEQEND
  5
324
  8
WHITE
  0
POLYLINE
  5
325
  8
WHITE
 66
     1
 10
0.0
 20
0.0
 30
0.0
 70
     1
  0
VERTEX
  5
326
  8
WHITE
 10
64.60841161133479
 20
-140.9236521153917
 30
0.0
  0
VERTEX
  5
327
  8
WHITE
 10
44.66734268799794
 20
-140.9236521153917
 30
0.0
  0
VERTEX
  5
328
  8
WHITE
 10
44.66734268799794
 20
-137.7486521153918
 30
0.0
  0
VERTEX
  5
329
  8
WHITE
 10
64.60841161133479
 20
-137.7486521153918
 30
0.0
  0
SEQEND
  5
32A
  8
WHITE
  0
POLYLINE
  5
32B
  8
WHITE
 66
     1
 10
0.0
 20
0.0
 30
0.0
 70
     1
  0
VERTEX
  5
32C
  8
WHITE
 10
64.83154710805073
 20
-135.9937169712947
 30
0.0
  0
VERTEX
  5
32D
  8
WHITE
 10
44.44420718365271
 20
-135.9937169712947
 30
0.0
  0
VERTEX
  5
32E
  8
WHITE
 10
44.44420718365271
 20
-94.17252050160843
 30
0.0
  0
VERTEX
  5
32F
  8
WHITE
 10
64.83154710805073
 20
-94.17252050160843
 30
0.0
  0
SEQEND
  5
330
  8
WHITE
  0
POLYLINE
  5
331
  8
WHITE
 66
     1
 10
0.0
 20
0.0
 30
0.0
 70
     1
  0
VERTEX
  5
332
  8
WHITE
 10
7.005933432485875
 20
-86.24250314517698
 30
0.0
  0
VERTEX
  5
333
  8
WHITE
 10
7.005933432485872
 20
-143.9237211786582
 30
0.0
 42
0.4142135623730865
  0
VERTEX
  5
334
  8
WHITE
 10
9.005933432485875
 20
-145.9237211786582
 30
0.0
  0
VERTEX
  5
335
  8
WHITE
 10
34.94700235582272
 20
-145.9237211786582
 30
0.0
 42
0.4142135623730813
  0
VERTEX
  5
336
  8
WHITE
 10
36.94700235582272
 20
-143.9237211786582
 30
0.0
  0
VERTEX
  5
337
  8
WHITE
 10
36.94700235582272
 20
-86.24250314517698
 30
0.0
 42
0.4142135623730901
  0
VERTEX
  5
338
  8
WHITE
 10
34.94700235582272
 20
-84.24250314517698
 30
0.0
  0
VERTEX
  5
339
  8
WHITE
 10
9.005933432485875
 20
-84.24250314517698
 30
0.0
 42
0.41421356237318
  0
SEQEND
  5
33A
  8
WHITE
  0
POLYLINE
  5
33B
  8
WHITE
 66
     1
 10
0.0
 20
0.0
 30
0.0
 70
     1
  0
VERTEX
  5
33C
  8
WHITE
 10
12.00593343248599
 20
-137.7486491299945
 30
0.0
  0
VERTEX
  5
33D
  8
WHITE
 10
31.94700235582272
 20
-137.7486491299945
 30
0.0
  0
VERTEX
  5
33E
  8
WHITE
 10
31.94700235582272
 20
-140.9236491299945
 30
0.0
  0
VERTEX
  5
33F
  8
WHITE
 10
12.00593343248599
 20
-140.9236491299945
 30
0.0
  0
SEQEND
  5
340
  8
WHITE
  0
POLYLINE
  5
341
  8
WHITE
 66
     1
 10
0.0
 20
0.0
 30
0.0
 70
     1
  0
VERTEX
  5
342
  8
WHITE
 10
12.00593343248599
 20
-89.24257531114549
 30
0.0
  0
VERTEX
  5
343
  8
WHITE
 10
31.94700235582272
 20
-89.24257531114549
 30
0.0
  0
VERTEX
  5
344
  8
WHITE
 10
31.94700235582272
 20
-92.41757531114555
 30
0.0
  0
VERTEX
  5
345
  8
WHITE
 10
12.00593343248593
 20
-92.41757531114555
 30
0.0
  0
SEQEND
  5
346
  8
WHITE
  0
POLYLINE
  5
347
  8
WHITE
 66
     1
 10
0.0
 20
0.0
 30
0.0
 70
     1
  0
VERTEX
  5
348
  8
WHITE
 10
11.78279793576993
 20
-94.17251045524253
 30
0.0
  0
VERTEX
  5
349
  8
WHITE
 10
32.17013786016807
 20
-94.17251045524253
 30
0.0
  0
VERTEX
  5
34A
  8
WHITE
 10
32.17013786016807
 20
-135.9937069249289
 30
0.0
  0
VERTEX
  5
34B
  8
WHITE
 10
11.78279793576993
 20
-135.9937069249289
 30
0.0
  0
SEQEND
  5
34C
  8
WHITE
  0
POLYLINE
  5
34D
  8
WHITE
 66
     1
 10
0.0
 20
0.0
 30
0.0
 70
     1
  0
VERTEX
  5
34E
  8
WHITE
 10
171.7446295424516
 20
-75.11724183586257
 30
0.0
  0
VERTEX
  5
34F
  8
WHITE
 10
171.7446295424516
 20
-34.22295621580257
 30
0.0
 42
0.4142135623730954
  0
VERTEX
  5
350
  8
WHITE
 10
168.7446295424516
 20
-31.22295621580255
 30
0.0
  0
VERTEX
  5
351
  8
WHITE
 10
105.7836295424518
 20
-31.22295621580256
 30
0.0
 42
0.4142135623730545
  0
VERTEX
  5
352
  8
WHITE
 10
102.7836295424515
 20
-34.22295621580257
 30
0.0
  0
VERTEX
  5
353
  8
WHITE
 10
102.7836295424515
 20
-75.11724183586257
 30
0.0
 42
0.4142135623730699
  0
VERTEX
  5
354
  8
WHITE
 10
105.7836295424515
 20
-78.11724183586254
 30
0.0
  0
VERTEX
  5
355
  8
WHITE
 10
168.7446295424516
 20
-78.11724183586253
 30
0.0
 42
0.4142135623731263
  0
SEQEND
  5
356
  8
WHITE
  0
POLYLINE
  5
357
  8
WHITE
 66
     1
 10
0.0
 20
0.0
 30
0.0
 70
     1
  0
VERTEX
  5
358
  8
WHITE
 10
110.9586293347404
 20
-39.39795621580258
 30
0.0
  0
VERTEX
  5
359
  8
WHITE
 10
110.9586293347404
 20
-69.94224183586256
 30
0.0
  0
VERTEX
  5
35A
  8
WHITE
 10
107.7836293347405
 20
-69.94224183586256
 30
0.0
  0
VERTEX
  5
35B
  8
WHITE
 10
107.7836293347405
 20
-39.39795621580258
 30
0.0
  0
SEQEND
  5
35C
  8
WHITE
  0
POLYLINE
  5
35D
  8
WHITE
 66
     1
 10
0.0
 20
0.0
 30
0.0
 70
     1
  0
VERTEX
  5
35E
  8
WHITE
 10
166.7441673536942
 20
-39.39795621580258
 30
0.0
  0
VERTEX
  5
35F
  8
WHITE
 10
166.7441673536942
 20
-69.94224183586256
 30
0.0
  0
VERTEX
  5
360
  8
WHITE
 10
163.5691673536942
 20
-69.94224183586256
 30
0.0
  0
VERTEX
  5
361
  8
WHITE
 10
163.5691673536942
 20
-39.39795621580258
 30
0.0
  0
SEQEND
  5
362
  8
WHITE
  0
POLYLINE
  5
363
  8
WHITE
 66
     1
 10
0.0
 20
0.0
 30
0.0
 70
     1
  0
VERTEX
  5
364
  8
WHITE
 10
119.9930313076085
 20
-48.83466487878424
 30
0.0
  0
VERTEX
  5
365
  8
WHITE
 10
161.8142277772948
 20
-48.83466487878424
 30
0.0
  0
VERTEX
  5
366
  8
WHITE
 10
161.8142277772948
 20
-69.22200480318234
 30
0.0
  0
VERTEX
  5
367
  8
WHITE
 10
119.9930313076085
 20
-69.22200480318234
 30
0.0
  0
SEQEND
  5
368
  8
WHITE
  0
POLYLINE
  5
369
  8
WHITE
 66
     1
 10
0.0
 20
0.0
 30
0.0
 70
     1
  0
VERTEX
  5
36A
  8
WHITE
 10
118.238094796427
 20
-65.41583621814924
 30
0.0
  0
VERTEX
  5
36B
  8
WHITE
 10
115.0630947964271
 20
-65.41583621814924
 30
0.0
  0
VERTEX
  5
36C
  8
WHITE
 10
115.0630947964271
 20
-62.24083621814931
 30
0.0
  0
VERTEX
  5
36D
  8
WHITE
 10
118.238094796427
 20
-62.24083621814931
 30
0.0
  0
SEQEND
  5
36E
  8
WHITE
  0
CIRCLE
  5
36F
  8
WHITE
 10
80.83528347685514
 20
-58.19441744155669
 30
0.0
 40
0.6200000000000045
  0
CIRCLE
  5
370
  8
WHITE
 10
75.57028347685525
 20
-49.0751699397067
 30
0.0
 40
0.6199999999999433
  0
CIRCLE
  5
371
  8
WHITE
 10
59.77528347685514
 20
-58.19441744155665
 30
0.0
 40
0.6199999999999477
  0
CIRCLE
  5
372
  8
WHITE
 10
75.57028347685505
 20
-67.31366494340683
 30
0.0
 40
0.6199999999999424
  0
CIRCLE
  5
373
  8
WHITE
 10
65.04028347685511
 20
-49.07516993970653
 30
0.0
 40
0.6200000000000007
  0
CIRCLE
  5
374
  8
WHITE
 10
65.040283476855
 20
-67.31366494340676
 30
0.0
 40
0.6199999999999679
  0
CIRCLE
  5
375
  8
WHITE
 10
70.30528347685511
 20
-58.19441744155664
 30
0.0
 40
4.659200000000027
  0
POLYLINE
  5
376
  8
WHITE
 66
     1
 10
0.0
 20
0.0
 30
0.0
 70
     1
  0
VERTEX
  5
377
  8
WHITE
 10
44.10583389991275
 20
-78.9569174415566
 30
0.0
  0
VERTEX
  5
378
  8
WHITE
 10
96.50473305379775
 20
-78.9569174415566
 30
0.0
  0
VERTEX
  5
379
  8
WHITE
 10
96.50473305379775
 20
-73.9569174415566
 30
0.0
  0
VERTEX
  5
37A
  8
WHITE
 10
99.67973305379769
 20
-73.9569174415566
 30
0.0
  0
VERTEX
  5
37B
  8
WHITE
 10
99.67973305379769
 20
-59.7819247819934
 30
0.0
  0
VERTEX
  5
37C
  8
WHITE
 10
94.0330436321906
 20
-59.78192478199337
 30
0.0
  0
VERTEX
  5
37D
  8
WHITE
 10
94.0330436321906
 20
-62.28192478199342
 30
0.0
  0
VERTEX
  5
37E
  8
WHITE
 10
90.7830436321906
 20
-62.28192478199342
 30
0.0
  0
VERTEX
  5
37F
  8
WHITE
 10
90.7830436321906
 20
-59.78192478199337
 30
0.0
  0
VERTEX
  5
380
  8
WHITE
 10
89.7830436321906
 20
-59.78192478199348
 30
0.0
  0
VERTEX
  5
381
  8
WHITE
 10
89.7830436321906
 20
-56.60692478199353
 30
0.0
  0
VERTEX
  5
382
  8
WHITE
 10
90.7830436321906
 20
-56.60692478199347
 30
0.0
  0
VERTEX
  5
383
  8
WHITE
 10
90.7830436321906
 20
-54.10692478199347
 30
0.0
  0
VERTEX
  5
384
  8
WHITE
 10
94.0330436321906
 20
-54.10692478199347
 30
0.0
  0
VERTEX
  5
385
  8
WHITE
 10
94.0330436321906
 20
-56.60692478199347
 30
0.0
  0
VERTEX
  5
386
  8
WHITE
 10
99.67973305379769
 20
-56.60692478199347
 30
0.0
  0
VERTEX
  5
387
  8
WHITE
 10
99.67973305379769
 20
-42.43191744155665
 30
0.0
  0
VERTEX
  5
388
  8
WHITE
 10
96.50473305379775
 20
-42.43191744155665
 30
0.0
  0
VERTEX
  5
389
  8
WHITE
 10
96.50473305379775
 20
-37.43191744155665
 30
0.0
  0
VERTEX
  5
38A
  8
WHITE
 10
44.10583389991275
 20
-37.43191744155665
 30
0.0
  0
VERTEX
  5
38B
  8
WHITE
 10
44.10583389991275
 20
-42.43191744155665
 30
0.0
  0
VERTEX
  5
38C
  8
WHITE
 10
40.93083389991257
 20
-42.43191744155665
 30
0.0
  0
VERTEX
  5
38D
  8
WHITE
 10
40.93083389991234
 20
-56.60692478199347
 30
0.0
  0
VERTEX
  5
38E
  8
WHITE
 10
46.577523321519
 20
-56.60692478199347
 30
0.0
  0
VERTEX
  5
38F
  8
WHITE
 10
46.577523321519
 20
-54.10692478199347
 30
0.0
  0
VERTEX
  5
390
  8
WHITE
 10
49.827523321519
 20
-54.10692478199347
 30
0.0
  0
VERTEX
  5
391
  8
WHITE
 10
49.827523321519
 20
-56.60692478199347
 30
0.0
  0
VERTEX
  5
392
  8
WHITE
 10
50.82752332151894
 20
-56.60692478199353
 30
0.0
  0
VERTEX
  5
393
  8
WHITE
 10
50.82752332151894
 20
-59.78192478199348
 30
0.0
  0
VERTEX
  5
394
  8
WHITE
 10
49.827523321519
 20
-59.78192478199337
 30
0.0
  0
VERTEX
  5
395
  8
WHITE
 10
49.827523321519
 20
-62.28192478199342
 30
0.0
  0
VERTEX
  5
396
  8
WHITE
 10
46.577523321519
 20
-62.28192478199342
 30
0.0
  0
VERTEX
  5
397
  8
WHITE
 10
46.577523321519
 20
-59.78192478199337
 30
0.0
  0
VERTEX
  5
398
  8
WHITE
 10
40.93083389991234
 20
-59.7819247819934
 30
0.0
  0
VERTEX
  5
399
  8
WHITE
 10
40.93083389991257
 20
-73.9569174415566
 30
0.0
  0
VERTEX
  5
39A
  8
WHITE
 10
44.10583389991275
 20
-73.9569174415566
 30
0.0
  0
SEQEND
  5
39B
  8
WHITE
  0
CIRCLE
  5
39C
  8
WHITE
 10
117.772603510384
 20
127.0795150600594
 30
0.0
 40
2.039999999999992
  0
POLYLINE
  5
39D
  8
WHITE
 66
     1
 10
0.0
 20
0.0
 30
0.0
 70
     1
  0
VERTEX
  5
39E
  8
WHITE
 10
102.8020690487155
 20
145.6201235865661
 30
0.0
  0
VERTEX
  5
39F
  8
WHITE
 10
102.8020690487155
 20
87.9389055530848
 30
0.0
 42
0.4142135623730778
  0
VERTEX
  5
3A0
  8
WHITE
 10
104.8020690487155
 20
85.93890555308478
 30
0.0
  0
VERTEX
  5
3A1
  8
WHITE
 10
130.7431379720524
 20
85.9389055530848
 30
0.0
 42
0.4142135623730811
  0
VERTEX
  5
3A2
  8
WHITE
 10
132.7431379720524
 20
87.9389055530848
 30
0.0
  0
VERTEX
  5
3A3
  8
WHITE
 10
132.7431379720524
 20
145.6201235865661
 30
0.0
 42
0.4142135623731118
  0
VERTEX
  5
3A4
  8
WHITE
 10
130.7431379720524
 20
147.6201235865661
 30
0.0
  0
VERTEX
  5
3A5
  8
WHITE
 10
104.8020690487155
 20
147.6201235865661
 30
0.0
 42
0.4142135623730706
  0
SEQEND
  5
3A6
  8
WHITE
  0
POLYLINE
  5
3A7
  8
WHITE
 66
     1
 10
0.0
 20
0.0
 30
0.0
 70
     1
  0
VERTEX
  5
3A8
  8
WHITE
 10
127.7431379720524
 20
142.6200515379024
 30
0.0
  0
VERTEX
  5
3A9
  8
WHITE
 10
127.7431379720524
 20
139.4450515379024
 30
0.0
  0
VERTEX
  5
3AA
  8
WHITE
 10
107.8020690487156
 20
139.4450515379024
 30
0.0
  0
VERTEX
  5
3AB
  8
WHITE
 10
107.8020690487156
 20
142.6200515379024
 30
0.0
  0
SEQEND
  5
3AC
  8
WHITE
  0
POLYLINE
  5
3AD
  8
WHITE
 66
     1
 10
0.0
 20
0.0
 30
0.0
 70
     1
  0
VERTEX
  5
3AE
  8
WHITE
 10
127.7431379720524
 20
94.11397771905337
 30
0.0
  0
VERTEX
  5
3AF
  8
WHITE
 10
127.7431379720524
 20
90.93897771905336
 30
0.0
  0
VERTEX
  5
3B0
  8
WHITE
 10
107.8020690487156
 20
90.93897771905336
 30
0.0
  0
VERTEX
  5
3B1
  8
WHITE
 10
107.8020690487156
 20
94.11397771905337
 30
0.0
  0
SEQEND
  5
3B2
  8
WHITE
  0
POLYLINE
  5
3B3
  8
WHITE
 66
     1
 10
0.0
 20
0.0
 30
0.0
 70
     1
  0
VERTEX
  5
3B4
  8
WHITE
 10
135.9140569325676
 20
145.6201235865661
 30
0.0
  0
VERTEX
  5
3B5
  8
WHITE
 10
135.9140569325676
 20
87.9389055530848
 30
0.0
 42
0.4142135623730803
  0
VERTEX
  5
3B6
  8
WHITE
 10
137.9140569325676
 20
85.93890555308477
 30
0.0
  0
VERTEX
  5
3B7
  8
WHITE
 10
163.8551258559044
 20
85.9389055530848
 30
0.0
 42
0.4142135623731034
  0
VERTEX
  5
3B8
  8
WHITE
 10
165.8551258559044
 20
87.9389055530848
 30
0.0
  0
VERTEX
  5
3B9
  8
WHITE
 10
165.8551258559044
 20
145.6201235865661
 30
0.0
 42
0.4142135623731118
  0
VERTEX
  5
3BA
  8
WHITE
 10
163.8551258559044
 20
147.6201235865661
 30
0.0
  0
VERTEX
  5
3BB
  8
WHITE
 10
137.9140569325676
 20
147.6201235865661
 30
0.0
 42
0.414213562373095
  0
SEQEND
  5
3BC
  8
WHITE
  0
POLYLINE
  5
3BD
  8
WHITE
 66
     1
 10
0.0
 20
0.0
 30
0.0
 70
     1
  0
VERTEX
  5
3BE
  8
WHITE
 10
160.8551258559045
 20
142.6200515379024
 30
0.0
  0
VERTEX
  5
3BF
  8
WHITE
 10
160.8551258559045
 20
139.4450515379024
 30
0.0
  0
VERTEX
  5
3C0
  8
WHITE
 10
140.9140569325677
 20
139.4450515379024
 30
0.0
  0
VERTEX
  5
3C1
  8
WHITE
 10
140.9140569325677
 20
142.6200515379024
 30
0.0
  0
SEQEND
  5
3C2
  8
WHITE
  0
POLYLINE
  5
3C3
  8
WHITE
 66
     1
 10
0.0
 20
0.0
 30
0.0
 70
     1
  0
VERTEX
  5
3C4
  8
WHITE
 10
160.8551258559045
 20
94.11397771905337
 30
0.0
  0
VERTEX
  5
3C5
  8
WHITE
 10
160.8551258559045
 20
90.93897771905336
 30
0.0
  0
VERTEX
  5
3C6
  8
WHITE
 10
140.9140569325677
 20
90.93897771905336
 30
0.0
  0
VERTEX
  5
3C7
  8
WHITE
 10
140.9140569325677
 20
94.11397771905337
 30
0.0
  0
SEQEND
  5
3C8
  8
WHITE
  0
POLYLINE
  5
3C9
  8
WHITE
 66
     1
 10
0.0
 20
0.0
 30
0.0
 70
     1
  0
VERTEX
  5
3CA
  8
WHITE
 10
161.0782613602498
 20
137.6901093328367
 30
0.0
  0
VERTEX
  5
3CB
  8
WHITE
 10
161.0782613602498
 20
95.8689128631504
 30
0.0
  0
VERTEX
  5
3CC
  8
WHITE
 10
140.6909214358516
 20
95.8689128631504
 30
0.0
  0
VERTEX
  5
3CD
  8
WHITE
 10
140.6909214358516
 20
137.6901093328367
 30
0.0
  0
SEQEND
  5
3CE
  8
WHITE
  0
POLYLINE
  5
3CF
  8
WHITE
 66
     1
 10
0.0
 20
0.0
 30
0.0
 70
     1
  0
VERTEX
  5
3D0
  8
WHITE
 10
39.07955759434235
 20
81.29901456982547
 30
0.0
  0
VERTEX
  5
3D1
  8
WHITE
 10
63.02062651767913
 20
81.29901456982549
 30
0.0
 42
0.4142135623731059
  0
VERTEX
  5
3D2
  8
WHITE
 10
66.02062651767915
 20
84.29901456982547
 30
0.0
  0
VERTEX
  5
3D3
  8
WHITE
 10
66.02062651767913
 20
147.2600145698254
 30
0.0
 42
0.4142135623730792
  0
VERTEX
  5
3D4
  8
WHITE
 10
63.02062651767913
 20
150.2600145698254
 30
0.0
  0
VERTEX
  5
3D5
  8
WHITE
 10
39.07955759434235
 20
150.2600145698254
 30
0.0
 42
0.4142135623730951
  0
VERTEX
  5
3D6
  8
WHITE
 10
36.07955759434235
 20
147.2600145698254
 30
0.0
  0
VERTEX
  5
3D7
  8
WHITE
 10
36.07955759434235
 20
84.29901456982547
 30
0.0
 42
0.4142135623730868
  0
SEQEND
  5
3D8
  8
WHITE
  0
POLYLINE
  5
3D9
  8
WHITE
 66
     1
 10
0.0
 20
0.0
 30
0.0
 70
     1
  0
VERTEX
  5
3DA
  8
WHITE
 10
61.02062651767913
 20
142.0850147775367
 30
0.0
  0
VERTEX
  5
3DB
  8
WHITE
 10
41.07955759434235
 20
142.0850147775367
 30
0.0
  0
VERTEX
  5
3DC
  8
WHITE
 10
41.07955759434235
 20
145.2600147775367
 30
0.0
  0
VERTEX
  5
3DD
  8
WHITE
 10
61.02062651767913
 20
145.2600147775367
 30
0.0
  0
SEQEND
  5
3DE
  8
WHITE
  0
POLYLINE
  5
3DF
  8
WHITE
 66
     1
 10
0.0
 20
0.0
 30
0.0
 70
     1
  0
VERTEX
  5
3E0
  8
WHITE
 10
61.02062651767913
 20
86.29947675858288
 30
0.0
  0
VERTEX
  5
3E1
  8
WHITE
 10
41.07955759434235
 20
86.29947675858288
 30
0.0
  0
VERTEX
  5
3E2
  8
WHITE
 10
41.07955759434235
 20
89.47447675858295
 30
0.0
  0
VERTEX
  5
3E3
  8
WHITE
 10
61.02062651767913
 20
89.47447675858295
 30
0.0
  0
SEQEND
  5
3E4
  8
WHITE
  0
POLYLINE
  5
3E5
  8
WHITE
 66
     1
 10
0.0
 20
0.0
 30
0.0
 70
     1
  0
VERTEX
  5
3E6
  8
WHITE
 10
61.24376202202448
 20
133.0506128046685
 30
0.0
  0
VERTEX
  5
3E7
  8
WHITE
 10
61.24376202202448
 20
91.22941633498219
 30
0.0
  0
VERTEX
  5
3E8
  8
WHITE
 10
40.85642209762641
 20
91.22941633498219
 30
0.0
  0
VERTEX
  5
3E9
  8
WHITE
 10
40.85642209762641
 20
133.0506128046685
 30
0.0
  0
SEQEND
  5
3EA
  8
WHITE
  0
POLYLINE
  5
3EB
  8
WHITE
 66
     1
 10
0.0
 20
0.0
 30
0.0
 70
     1
  0
VERTEX
  5
3EC
  8
WHITE
 10
72.19154547819441
 20
81.29901456982547
 30
0.0
  0
VERTEX
  5
3ED
  8
WHITE
 10
96.1326144015312
 20
81.29901456982549
 30
0.0
 42
0.4142135623730971
  0
VERTEX
  5
3EE
  8
WHITE
 10
99.13261440153121
 20
84.29901456982547
 30
0.0
  0
VERTEX
  5
3EF
  8
WHITE
 10
99.13261440153119
 20
147.2600145698254
 30
0.0
 42
0.4142135623730753
  0
VERTEX
  5
3F0
  8
WHITE
 10
96.1326144015312
 20
150.2600145698254
 30
0.0
  0
VERTEX
  5
3F1
  8
WHITE
 10
72.19154547819441
 20
150.2600145698254
 30
0.0
 42
0.4142135623730773
  0
VERTEX
  5
3F2
  8
WHITE
 10
69.1915454781944
 20
147.2600145698254
 30
0.0
  0
VERTEX
  5
3F3
  8
WHITE
 10
69.1915454781944
 20
84.29901456982547
 30
0.0
 42
0.4142135623730837
  0
SEQEND
  5
3F4
  8
WHITE
  0
POLYLINE
  5
3F5
  8
WHITE
 66
     1
 10
0.0
 20
0.0
 30
0.0
 70
     1
  0
VERTEX
  5
3F6
  8
WHITE
 10
94.1326144015312
 20
142.0850147775367
 30
0.0
  0
VERTEX
  5
3F7
  8
WHITE
 10
74.19154547819441
 20
142.0850147775367
 30
0.0
  0
VERTEX
  5
3F8
  8
WHITE
 10
74.19154547819441
 20
145.2600147775367
 30
0.0
  0
VERTEX
  5
3F9
  8
WHITE
 10
94.1326144015312
 20
145.2600147775367
 30
0.0
  0
SEQEND
  5
3FA
  8
WHITE
  0
POLYLINE
  5
3FB
  8
WHITE
 66
     1
 10
0.0
 20
0.0
 30
0.0
 70
     1
  0
VERTEX
  5
3FC
  8
WHITE
 10
94.1326144015312
 20
86.29947675858288
 30
0.0
  0
VERTEX
  5
3FD
  8
WHITE
 10
74.19154547819441
 20
86.29947675858288
 30
0.0
  0
VERTEX
  5
3FE
  8
WHITE
 10
74.19154547819441
 20
89.47447675858295
 30
0.0
  0
VERTEX
  5
3FF
  8
WHITE
 10
94.1326144015312
 20
89.47447675858295
 30
0.0
  0
SEQEND
  5
400
  8
WHITE
  0
POLYLINE
  5
401
  8
WHITE
 66
     1
 10
0.0
 20
0.0
 30
0.0
 70
     1
  0
VERTEX
  5
402
  8
WHITE
 10
94.35574990587655
 20
133.0506128046685
 30
0.0
  0
VERTEX
  5
403
  8
WHITE
 10
94.35574990587655
 20
91.22941633498219
 30
0.0
  0
VERTEX
  5
404
  8
WHITE
 10
73.96840998147847
 20
91.22941633498219
 30
0.0
  0
VERTEX
  5
405
  8
WHITE
 10
73.96840998147847
 20
133.0506128046685
 30
0.0
  0
SEQEND
  5
406
  8
WHITE
  0
POLYLINE
  5
407
  8
WHITE
 66
     1
 10
0.0
 20
0.0
 30
0.0
 70
     1
  0
VERTEX
  5
408
  8
WHITE
 10
77.77457856651152
 20
134.8055469043086
 30
0.0
  0
VERTEX
  5
409
  8
WHITE
 10
77.77457856651152
 20
137.9805469043087
 30
0.0
  0
VERTEX
  5
40A
  8
WHITE
 10
80.94957856651148
 20
137.9805469043087
 30
0.0
  0
VERTEX
  5
40B
  8
WHITE
 10
80.94957856651148
 20
134.8055469043086
 30
0.0
  0
SEQEND
  5
40C
  8
WHITE
  0
POLYLINE
  5
40D
  8
WHITE
 66
     1
 10
0.0
 20
0.0
 30
0.0
 70
     1
  0
VERTEX
  5
40E
  8
WHITE
 10
-96.1326144015312
 20
81.29901456982547
 30
0.0
  0
VERTEX
  5
40F
  8
WHITE
 10
-72.19154547819441
 20
81.29901456982549
 30
0.0
 42
0.4142135623730898
  0
VERTEX
  5
410
  8
WHITE
 10
-69.1915454781944
 20
84.29901456982547
 30
0.0
  0
VERTEX
  5
411
  8
WHITE
 10
-69.19154547819441
 20
147.2600145698254
 30
0.0
 42
0.4142135623730785
  0
VERTEX
  5
412
  8
WHITE
 10
-72.19154547819441
 20
150.2600145698254
 30
0.0
  0
VERTEX
  5
413
  8
WHITE
 10
-96.1326144015312
 20
150.2600145698254
 30
0.0
 42
0.4142135623730935
  0
VERTEX
  5
414
  8
WHITE
 10
-99.13261440153121
 20
147.2600145698254
 30
0.0
  0
VERTEX
  5
415
  8
WHITE
 10
-99.13261440153121
 20
84.29901456982547
 30
0.0
 42
0.4142135623730993
  0
SEQEND
  5
416
  8
WHITE
  0
POLYLINE
  5
417
  8
WHITE
 66
     1
 10
0.0
 20
0.0
 30
0.0
 70
     1
  0
VERTEX
  5
418
  8
WHITE
 10
-74.19154547819441
 20
142.0850147775367
 30
0.0
  0
VERTEX
  5
419
  8
WHITE
 10
-94.1326144015312
 20
142.0850147775367
 30
0.0
  0
VERTEX
  5
41A
  8
WHITE
 10
-94.1326144015312
 20
145.2600147775367
 30
0.0
  0
VERTEX
  5
41B
  8
WHITE
 10
-74.19154547819441
 20
145.2600147775367
 30
0.0
  0
SEQEND
  5
41C
  8
WHITE
  0
POLYLINE
  5
41D
  8
WHITE
 66
     1
 10
0.0
 20
0.0
 30
0.0
 70
     1
  0
VERTEX
  5
41E
  8
WHITE
 10
-74.19154547819441
 20
86.29947675858288
 30
0.0
  0
VERTEX
  5
41F
  8
WHITE
 10
-94.1326144015312
 20
86.29947675858288
 30
0.0
  0
VERTEX
  5
420
  8
WHITE
 10
-94.1326144015312
 20
89.47447675858295
 30
0.0
  0
VERTEX
  5
421
  8
WHITE
 10
-74.19154547819441
 20
89.47447675858295
 30
0.0
  0
SEQEND
  5
422
  8
WHITE
  0
POLYLINE
  5
423
  8
WHITE
 66
     1
 10
0.0
 20
0.0
 30
0.0
 70
     1
  0
VERTEX
  5
424
  8
WHITE
 10
-94.35574990587655
 20
91.22941633498219
 30
0.0
  0
VERTEX
  5
425
  8
WHITE
 10
-94.35574990587655
 20
133.0506128046685
 30
0.0
  0
VERTEX
  5
426
  8
WHITE
 10
-73.96840998147847
 20
133.0506128046685
 30
0.0
  0
VERTEX
  5
427
  8
WHITE
 10
-73.96840998147847
 20
91.22941633498219
 30
0.0
  0
SEQEND
  5
428
  8
WHITE
  0
POLYLINE
  5
429
  8
WHITE
 66
     1
 10
0.0
 20
0.0
 30
0.0
 70
     1
  0
VERTEX
  5
42A
  8
WHITE
 10
-77.77457856651152
 20
137.9805469043087
 30
0.0
  0
VERTEX
  5
42B
  8
WHITE
 10
-77.77457856651152
 20
134.8055469043086
 30
0.0
  0
VERTEX
  5
42C
  8
WHITE
 10
-80.94957856651148
 20
134.8055469043086
 30
0.0
  0
VERTEX
  5
42D
  8
WHITE
 10
-80.94957856651148
 20
137.9805469043087
 30
0.0
  0
SEQEND
  5
42E
  8
WHITE
  0
POLYLINE
  5
42F
  8
WHITE
 66
     1
 10
0.0
 20
0.0
 30
0.0
 70
     1
  0
VERTEX
  5
430
  8
WHITE
 10
-63.02062651767913
 20
81.29901456982547
 30
0.0
  0
VERTEX
  5
431
  8
WHITE
 10
-39.07955759434235
 20
81.29901456982546
 30
0.0
 42
0.4142135623730862
  0
VERTEX
  5
432
  8
WHITE
 10
-36.07955759434234
 20
84.29901456982549
 30
0.0
  0
VERTEX
  5
433
  8
WHITE
 10
-36.07955759434235
 20
147.2600145698254
 30
0.0
 42
0.4142135623730922
  0
VERTEX
  5
434
  8
WHITE
 10
-39.07955759434235
 20
150.2600145698254
 30
0.0
  0
VERTEX
  5
435
  8
WHITE
 10
-63.02062651767913
 20
150.2600145698254
 30
0.0
 42
0.4142135623730935
  0
VERTEX
  5
436
  8
WHITE
 10
-66.02062651767916
 20
147.2600145698254
 30
0.0
  0
VERTEX
  5
437
  8
WHITE
 10
-66.02062651767915
 20
84.29901456982547
 30
0.0
 42
0.4142135623730993
  0
SEQEND
  5
438
  8
WHITE
  0
POLYLINE
  5
439
  8
WHITE
 66
     1
 10
0.0
 20
0.0
 30
0.0
 70
     1
  0
VERTEX
  5
43A
  8
WHITE
 10
-41.07955759434235
 20
142.0850147775367
 30
0.0
  0
VERTEX
  5
43B
  8
WHITE
 10
-61.02062651767913
 20
142.0850147775367
 30
0.0
  0
VERTEX
  5
43C
  8
WHITE
 10
-61.02062651767913
 20
145.2600147775367
 30
0.0
  0
VERTEX
  5
43D
  8
WHITE
 10
-41.07955759434235
 20
145.2600147775367
 30
0.0
  0
SEQEND
  5
43E
  8
WHITE
  0
POLYLINE
  5
43F
  8
WHITE
 66
     1
 10
0.0
 20
0.0
 30
0.0
 70
     1
  0
VERTEX
  5
440
  8
WHITE
 10
-41.07955759434235
 20
86.29947675858288
 30
0.0
  0
VERTEX
  5
441
  8
WHITE
 10
-61.02062651767913
 20
86.29947675858288
 30
0.0
  0
VERTEX
  5
442
  8
WHITE
 10
-61.02062651767913
 20
89.47447675858295
 30
0.0
  0
VERTEX
  5
443
  8
WHITE
 10
-41.07955759434235
 20
89.47447675858295
 30
0.0
  0
SEQEND
  5
444
  8
WHITE
  0
POLYLINE
  5
445
  8
WHITE
 66
     1
 10
0.0
 20
0.0
 30
0.0
 70
     1
  0
VERTEX
  5
446
  8
WHITE
 10
-61.24376202202448
 20
91.22941633498219
 30
0.0
  0
VERTEX
  5
447
  8
WHITE
 10
-61.24376202202448
 20
133.0506128046685
 30
0.0
  0
VERTEX
  5
448
  8
WHITE
 10
-40.85642209762641
 20
133.0506128046685
 30
0.0
  0
VERTEX
  5
449
  8
WHITE
 10
-40.85642209762641
 20
91.22941633498219
 30
0.0
  0
SEQEND
  5
44A
  8
WHITE
  0
POLYLINE
  5
44B
  8
WHITE
 66
     1
 10
0.0
 20
0.0
 30
0.0
 70
     1
  0
VERTEX
  5
44C
  8
WHITE
 10
-135.9140569325676
 20
87.9389055530848
 30
0.0
  0
VERTEX
  5
44D
  8
WHITE
 10
-135.9140569325676
 20
145.6201235865661
 30
0.0
 42
0.414213562373095
  0
VERTEX
  5
44E
  8
WHITE
 10
-137.9140569325676
 20
147.6201235865661
 30
0.0
  0
VERTEX
  5
44F
  8
WHITE
 10
-163.8551258559044
 20
147.6201235865661
 30
0.0
 42
0.4142135623731253
  0
VERTEX
  5
450
  8
WHITE
 10
-165.8551258559044
 20
145.6201235865661
 30
0.0
  0
VERTEX
  5
451
  8
WHITE
 10
-165.8551258559044
 20
87.9389055530848
 30
0.0
 42
0.4142135623731118
  0
VERTEX
  5
452
  8
WHITE
 10
-163.8551258559044
 20
85.93890555308478
 30
0.0
  0
VERTEX
  5
453
  8
WHITE
 10
-137.9140569325676
 20
85.9389055530848
 30
0.0
 42
0.4142135623731034
  0
SEQEND
  5
454
  8
WHITE
  0
POLYLINE
  5
455
  8
WHITE
 66
     1
 10
0.0
 20
0.0
 30
0.0
 70
     1
  0
VERTEX
  5
456
  8
WHITE
 10
-160.8551258559045
 20
139.4450515379024
 30
0.0
  0
VERTEX
  5
457
  8
WHITE
 10
-160.8551258559045
 20
142.6200515379024
 30
0.0
  0
VERTEX
  5
458
  8
WHITE
 10
-140.9140569325677
 20
142.6200515379024
 30
0.0
  0
VERTEX
  5
459
  8
WHITE
 10
-140.9140569325677
 20
139.4450515379024
 30
0.0
  0
SEQEND
  5
45A
  8
WHITE
  0
POLYLINE
  5
45B
  8
WHITE
 66
     1
 10
0.0
 20
0.0
 30
0.0
 70
     1
  0
VERTEX
  5
45C
  8
WHITE
 10
-160.8551258559045
 20
90.93897771905336
 30
0.0
  0
VERTEX
  5
45D
  8
WHITE
 10
-160.8551258559045
 20
94.11397771905337
 30
0.0
  0
VERTEX
  5
45E
  8
WHITE
 10
-140.9140569325677
 20
94.11397771905337
 30
0.0
  0
VERTEX
  5
45F
  8
WHITE
 10
-140.9140569325677
 20
90.93897771905336
 30
0.0
  0
SEQEND
  5
460
  8
WHITE
  0
POLYLINE
  5
461
  8
WHITE
 66
     1
 10
0.0
 20
0.0
 30
0.0
 70
     1
  0
VERTEX
  5
462
  8
WHITE
 10
-161.0782613602498
 20
95.8689128631504
 30
0.0
  0
VERTEX
  5
463
  8
WHITE
 10
-161.0782613602498
 20
137.6901093328367
 30
0.0
  0
VERTEX
  5
464
  8
WHITE
 10
-140.6909214358516
 20
137.6901093328367
 30
0.0
  0
VERTEX
  5
465
  8
WHITE
 10
-140.6909214358516
 20
95.8689128631504
 30
0.0
  0
SEQEND
  5
466
  8
WHITE
  0
CIRCLE
  5
467
  8
WHITE
 10
-117.772603510384
 20
127.0795150600594
 30
0.0
 40
2.039999999999992
  0
POLYLINE
  5
468
  8
WHITE
 66
     1
 10
0.0
 20
0.0
 30
0.0
 70
     1
  0
VERTEX
  5
469
  8
WHITE
 10
-102.8020690487155
 20
87.9389055530848
 30
0.0
  0
VERTEX
  5
46A
  8
WHITE
 10
-102.8020690487155
 20
145.6201235865661
 30
0.0
 42
0.4142135623730935
  0
VERTEX
  5
46B
  8
WHITE
 10
-104.8020690487155
 20
147.6201235865661
 30
0.0
  0
VERTEX
  5
46C
  8
WHITE
 10
-130.7431379720524
 20
147.6201235865661
 30
0.0
 42
0.4142135623731129
  0
VERTEX
  5
46D
  8
WHITE
 10
-132.7431379720524
 20
145.6201235865661
 30
0.0
  0
VERTEX
  5
46E
  8
WHITE
 10
-132.7431379720524
 20
87.9389055530848
 30
0.0
 42
0.4142135623730755
  0
VERTEX
  5
46F
  8
WHITE
 10
-130.7431379720524
 20
85.93890555308478
 30
0.0
  0
VERTEX
  5
470
  8
WHITE
 10
-104.8020690487155
 20
85.9389055530848
 30
0.0
 42
0.4142135623731034
  0
SEQEND
  5
471
  8
WHITE
  0
POLYLINE
  5
472
  8
WHITE
 66
     1
 10
0.0
 20
0.0
 30
0.0
 70
     1
  0
VERTEX
  5
473
  8
WHITE
 10
-127.7431379720524
 20
139.4450515379024
 30
0.0
  0
VERTEX
  5
474
  8
WHITE
 10
-127.7431379720524
 20
142.6200515379024
 30
0.0
  0
VERTEX
  5
475
  8
WHITE
 10
-107.8020690487156
 20
142.6200515379024
 30
0.0
  0
VERTEX
  5
476
  8
WHITE
 10
-107.8020690487156
 20
139.4450515379024
 30
0.0
  0
SEQEND
  5
477
  8
WHITE
  0
POLYLINE
  5
478
  8
WHITE
 66
     1
 10
0.0
 20
0.0
 30
0.0
 70
     1
  0
VERTEX
  5
479
  8
WHITE
 10
-127.7431379720524
 20
90.93897771905336
 30
0.0
  0
VERTEX
  5
47A
  8
WHITE
 10
-127.7431379720524
 20
94.11397771905337
 30
0.0
  0
VERTEX
  5
47B
  8
WHITE
 10
-107.8020690487156
 20
94.11397771905337
 30
0.0
  0
VERTEX
  5
47C
  8
WHITE
 10
-107.8020690487156
 20
90.93897771905336
 30
0.0
  0
SEQEND
  5
47D
  8
WHITE
  0
CIRCLE
  5
47E
  8
WHITE
 10
-80.83528347685497
 20
-58.19441744155654
 30
0.0
 40
0.6199999999998056
  0
CIRCLE
  5
47F
  8
WHITE
 10
-75.57028347685512
 20
-49.07516993970653
 30
0.0
 40
0.6199999999999869
  0
CIRCLE
  5
480
  8
WHITE
 10
-59.77528347685509
 20
-58.19441744155669
 30
0.0
 40
0.6200000000000117
  0
CIRCLE
  5
481
  8
WHITE
 10
-75.57028347685525
 20
-67.31366494340669
 30
0.0
 40
0.6199999999999247
  0
CIRCLE
  5
482
  8
WHITE
 10
-65.040283476855
 20
-49.07516993970658
 30
0.0
 40
0.6199999999999869
  0
CIRCLE
  5
483
  8
WHITE
 10
-65.04028347685508
 20
-67.31366494340686
 30
0.0
 40
0.620000000000011
  0
CIRCLE
  5
484
  8
WHITE
 10
-70.3052834768551
 20
-58.19441744155664
 30
0.0
 40
4.659199999999984
  0
POLYLINE
  5
485
  8
WHITE
 66
     1
 10
0.0
 20
0.0
 30
0.0
 70
     1
  0
VERTEX
  5
486
  8
WHITE
 10
-96.50473305379775
 20
-78.9569174415566
 30
0.0
  0
VERTEX
  5
487
  8
WHITE
 10
-44.10583389991275
 20
-78.9569174415566
 30
0.0
  0
VERTEX
  5
488
  8
WHITE
 10
-44.10583389991275
 20
-73.9569174415566
 30
0.0
  0
VERTEX
  5
489
  8
WHITE
 10
-40.93083389991257
 20
-73.9569174415566
 30
0.0
  0
VERTEX
  5
48A
  8
WHITE
 10
-40.93083389991234
 20
-59.7819247819934
 30
0.0
  0
VERTEX
  5
48B
  8
WHITE
 10
-46.577523321519
 20
-59.78192478199337
 30
0.0
  0
VERTEX
  5
48C
  8
WHITE
 10
-46.577523321519
 20
-62.28192478199342
 30
0.0
  0
VERTEX
  5
48D
  8
WHITE
 10
-49.827523321519
 20
-62.28192478199342
 30
0.0
  0
VERTEX
  5
48E
  8
WHITE
 10
-49.827523321519
 20
-59.78192478199337
 30
0.0
  0
VERTEX
  5
48F
  8
WHITE
 10
-50.82752332151894
 20
-59.78192478199348
 30
0.0
  0
VERTEX
  5
490
  8
WHITE
 10
-50.82752332151894
 20
-56.60692478199353
 30
0.0
  0
VERTEX
  5
491
  8
WHITE
 10
-49.827523321519
 20
-56.60692478199347
 30
0.0
  0
VERTEX
  5
492
  8
WHITE
 10
-49.827523321519
 20
-54.10692478199347
 30
0.0
  0
VERTEX
  5
493
  8
WHITE
 10
-46.577523321519
 20
-54.10692478199347
 30
0.0
  0
VERTEX
  5
494
  8
WHITE
 10
-46.577523321519
 20
-56.60692478199347
 30
0.0
  0
VERTEX
  5
495
  8
WHITE
 10
-40.93083389991234
 20
-56.60692478199347
 30
0.0
  0
VERTEX
  5
496
  8
WHITE
 10
-40.93083389991257
 20
-42.43191744155665
 30
0.0
  0
VERTEX
  5
497
  8
WHITE
 10
-44.10583389991275
 20
-42.43191744155665
 30
0.0
  0
VERTEX
  5
498
  8
WHITE
 10
-44.10583389991275
 20
-37.43191744155665
 30
0.0
  0
VERTEX
  5
499
  8
WHITE
 10
-96.50473305379775
 20
-37.43191744155665
 30
0.0
  0
VERTEX
  5
49A
  8
WHITE
 10
-96.50473305379775
 20
-42.43191744155665
 30
0.0
  0
VERTEX
  5
49B
  8
WHITE
 10
-99.67973305379769
 20
-42.43191744155665
 30
0.0
  0
VERTEX
  5
49C
  8
WHITE
 10
-99.67973305379769
 20
-56.60692478199347
 30
0.0
  0
VERTEX
  5
49D
  8
WHITE
 10
-94.0330436321906
 20
-56.60692478199347
 30
0.0
  0
VERTEX
  5
49E
  8
WHITE
 10
-94.0330436321906
 20
-54.10692478199347
 30
0.0
  0
VERTEX
  5
49F
  8
WHITE
 10
-90.7830436321906
 20
-54.10692478199347
 30
0.0
  0
VERTEX
  5
4A0
  8
WHITE
 10
-90.7830436321906
 20
-56.60692478199347
 30
0.0
  0
VERTEX
  5
4A1
  8
WHITE
 10
-89.7830436321906
 20
-56.60692478199353
 30
0.0
  0
VERTEX
  5
4A2
  8
WHITE
 10
-89.7830436321906
 20
-59.78192478199348
 30
0.0
  0
VERTEX
  5
4A3
  8
WHITE
 10
-90.7830436321906
 20
-59.78192478199337
 30
0.0
  0
VERTEX
  5
4A4
  8
WHITE
 10
-90.7830436321906
 20
-62.28192478199342
 30
0.0
  0
VERTEX
  5
4A5
  8
WHITE
 10
-94.0330436321906
 20
-62.28192478199342
 30
0.0
  0
VERTEX
  5
4A6
  8
WHITE
 10
-94.0330436321906
 20
-59.78192478199337
 30
0.0
  0
VERTEX
  5
4A7
  8
WHITE
 10
-99.67973305379769
 20
-59.7819247819934
 30
0.0
  0
VERTEX
  5
4A8
  8
WHITE
 10
-99.67973305379769
 20
-73.9569174415566
 30
0.0
  0
VERTEX
  5
4A9
  8
WHITE
 10
-96.50473305379775
 20
-73.9569174415566
 30
0.0
  0
SEQEND
  5
4AA
  8
WHITE
  0
POLYLINE
  5
4AB
  8
WHITE
 66
     1
 10
0.0
 20
0.0
 30
0.0
 70
     1
  0
VERTEX
  5
4AC
  8
WHITE
 10
-171.7446295424516
 20
-34.22295621580257
 30
0.0
  0
VERTEX
  5
4AD
  8
WHITE
 10
-171.7446295424516
 20
-75.11724183586257
 30
0.0
 42
0.4142135623731263
  0
VERTEX
  5
4AE
  8
WHITE
 10
-168.7446295424516
 20
-78.11724183586254
 30
0.0
  0
VERTEX
  5
4AF
  8
WHITE
 10
-105.7836295424515
 20
-78.11724183586254
 30
0.0
 42
0.4142135623730628
  0
VERTEX
  5
4B0
  8
WHITE
 10
-102.7836295424515
 20
-75.11724183586257
 30
0.0
  0
VERTEX
  5
4B1
  8
WHITE
 10
-102.7836295424516
 20
-34.22295621580257
 30
0.0
 42
0.4142135623730469
  0
VERTEX
  5
4B2
  8
WHITE
 10
-105.7836295424518
 20
-31.22295621580258
 30
0.0
  0
VERTEX
  5
4B3
  8
WHITE
 10
-168.7446295424516
 20
-31.22295621580254
 30
0.0
 42
0.414213562373099
  0
SEQEND
  5
4B4
  8
WHITE
  0
POLYLINE
  5
4B5
  8
WHITE
 66
     1
 10
0.0
 20
0.0
 30
0.0
 70
     1
  0
VERTEX
  5
4B6
  8
WHITE
 10
-110.9586293347404
 20
-69.94224183586256
 30
0.0
  0
VERTEX
  5
4B7
  8
WHITE
 10
-110.9586293347404
 20
-39.39795621580258
 30
0.0
  0
VERTEX
  5
4B8
  8
WHITE
 10
-107.7836293347405
 20
-39.39795621580258
 30
0.0
  0
VERTEX
  5
4B9
  8
WHITE
 10
-107.7836293347405
 20
-69.94224183586256
 30
0.0
  0
SEQEND
  5
4BA
  8
WHITE
  0
POLYLINE
  5
4BB
  8
WHITE
 66
     1
 10
0.0
 20
0.0
 30
0.0
 70
     1
  0
VERTEX
  5
4BC
  8
WHITE
 10
-166.7441673536942
 20
-69.94224183586256
 30
0.0
  0
VERTEX
  5
4BD
  8
WHITE
 10
-166.7441673536942
 20
-39.39795621580258
 30
0.0
  0
VERTEX
  5
4BE
  8
WHITE
 10
-163.5691673536942
 20
-39.39795621580258
 30
0.0
  0
VERTEX
  5
4BF
  8
WHITE
 10
-163.5691673536942
 20
-69.94224183586256
 30
0.0
  0
SEQEND
  5
4C0
  8
WHITE
  0
POLYLINE
  5
4C1
  8
WHITE
 66
     1
 10
0.0
 20
0.0
 30
0.0
 70
     1
  0
VERTEX
  5
4C2
  8
WHITE
 10
-161.8142277772948
 20
-48.83466487878424
 30
0.0
  0
VERTEX
  5
4C3
  8
WHITE
 10
-119.9930313076085
 20
-48.83466487878424
 30
0.0
  0
VERTEX
  5
4C4
  8
WHITE
 10
-119.9930313076085
 20
-69.22200480318234
 30
0.0
  0
VERTEX
  5
4C5
  8
WHITE
 10
-161.8142277772948
 20
-69.22200480318234
 30
0.0
  0
SEQEND
  5
4C6
  8
WHITE
  0
POLYLINE
  5
4C7
  8
WHITE
 66
     1
 10
0.0
 20
0.0
 30
0.0
 70
     1
  0
VERTEX
  5
4C8
  8
WHITE
 10
-115.0630947964271
 20
-65.41583621814924
 30
0.0
  0
VERTEX
  5
4C9
  8
WHITE
 10
-118.238094796427
 20
-65.41583621814924
 30
0.0
  0
VERTEX
  5
4CA
  8
WHITE
 10
-118.238094796427
 20
-62.24083621814931
 30
0.0
  0
VERTEX
  5
4CB
  8
WHITE
 10
-115.0630947964271
 20
-62.24083621814931
 30
0.0
  0
SEQEND
  5
4CC
  8
WHITE
  0
POLYLINE
  5
4CD
  8
WHITE
 66
     1
 10
0.0
 20
0.0
 30
0.0
 70
     1
  0
VERTEX
  5
4CE
  8
WHITE
 10
-7.005933432485875
 20
-143.9237211786582
 30
0.0
  0
VERTEX
  5
4CF
  8
WHITE
 10
-7.005933432485875
 20
-86.24250314517698
 30
0.0
 42
0.4142135623731789
  0
VERTEX
  5
4D0
  8
WHITE
 10
-9.005933432485875
 20
-84.24250314517698
 30
0.0
  0
VERTEX
  5
4D1
  8
WHITE
 10
-34.94700235582272
 20
-84.24250314517698
 30
0.0
 42
0.4142135623730935
  0
VERTEX
  5
4D2
  8
WHITE
 10
-36.94700235582271
 20
-86.24250314517698
 30
0.0
  0
VERTEX
  5
4D3
  8
WHITE
 10
-36.94700235582273
 20
-143.9237211786582
 30
0.0
 42
0.414213562373066
  0
VERTEX
  5
4D4
  8
WHITE
 10
-34.94700235582272
 20
-145.9237211786581
 30
0.0
  0
VERTEX
  5
4D5
  8
WHITE
 10
-9.005933432485875
 20
-145.9237211786582
 30
0.0
 42
0.4142135623730822
  0
SEQEND
  5
4D6
  8
WHITE
  0
POLYLINE
  5
4D7
  8
WHITE
 66
     1
 10
0.0
 20
0.0
 30
0.0
 70
     1
  0
VERTEX
  5
4D8
  8
WHITE
 10
-31.94700235582272
 20
-137.7486491299945
 30
0.0
  0
VERTEX
  5
4D9
  8
WHITE
 10
-12.00593343248599
 20
-137.7486491299945
 30
0.0
  0
VERTEX
  5
4DA
  8
WHITE
 10
-12.00593343248599
 20
-140.9236491299945
 30
0.0
  0
VERTEX
  5
4DB
  8
WHITE
 10
-31.94700235582272
 20
-140.9236491299945
 30
0.0
  0
SEQEND
  5
4DC
  8
WHITE
  0
POLYLINE
  5
4DD
  8
WHITE
 66
     1
 10
0.0
 20
0.0
 30
0.0
 70
     1
  0
VERTEX
  5
4DE
  8
WHITE
 10
-31.94700235582272
 20
-89.24257531114549
 30
0.0
  0
VERTEX
  5
4DF
  8
WHITE
 10
-12.00593343248599
 20
-89.24257531114549
 30
0.0
  0
VERTEX
  5
4E0
  8
WHITE
 10
-12.00593343248593
 20
-92.41757531114555
 30
0.0
  0
VERTEX
  5
4E1
  8
WHITE
 10
-31.94700235582272
 20
-92.41757531114555
 30
0.0
  0
SEQEND
  5
4E2
  8
WHITE
  0
POLYLINE
  5
4E3
  8
WHITE
 66
     1
 10
0.0
 20
0.0
 30
0.0
 70
     1
  0
VERTEX
  5
4E4
  8
WHITE
 10
-32.17013786016807
 20
-94.17251045524253
 30
0.0
  0
VERTEX
  5
4E5
  8
WHITE
 10
-11.78279793576993
 20
-94.17251045524253
 30
0.0
  0
VERTEX
  5
4E6
  8
WHITE
 10
-11.78279793576993
 20
-135.9937069249289
 30
0.0
  0
VERTEX
  5
4E7
  8
WHITE
 10
-32.17013786016807
 20
-135.9937069249289
 30
0.0
  0
SEQEND
  5
4E8
  8
WHITE
  0
POLYLINE
  5
4E9
  8
WHITE
 66
     1
 10
0.0
 20
0.0
 30
0.0
 70
     1
  0
VERTEX
  5
4EA
  8
WHITE
 10
-69.60841161133479
 20
-86.24250624787916
 30
0.0
  0
VERTEX
  5
4EB
  8
WHITE
 10
-69.60841161133482
 20
-143.9237242813602
 30
0.0
 42
0.4142135623731458
  0
VERTEX
  5
4EC
  8
WHITE
 10
-67.60841161133479
 20
-145.9237242813602
 30
0.0
  0
VERTEX
  5
4ED
  8
WHITE
 10
-41.66734268799794
 20
-145.9237242813602
 30
0.0
 42
0.4142135623730647
  0
VERTEX
  5
4EE
  8
WHITE
 10
-39.66734268799794
 20
-143.9237242813602
 30
0.0
  0
VERTEX
  5
4EF
  8
WHITE
 10
-39.66734268799794
 20
-86.24250624787916
 30
0.0
 42
0.414213562373092
  0
VERTEX
  5
4F0
  8
WHITE
 10
-41.66734268799794
 20
-84.24250624787919
 30
0.0
  0
VERTEX
  5
4F1
  8
WHITE
 10
-67.60841161133479
 20
-84.24250624787915
 30
0.0
 42
0.4142135623731186
  0
SEQEND
  5
4F2
  8
WHITE
  0
POLYLINE
  5
4F3
  8
WHITE
 66
     1
 10
0.0
 20
0.0
 30
0.0
 70
     1
  0
VERTEX
  5
4F4
  8
WHITE
 10
-44.66734268799794
 20
-92.41757829654281
 30
0.0
  0
VERTEX
  5
4F5
  8
WHITE
 10
-64.60841161133479
 20
-92.41757829654281
 30
0.0
  0
VERTEX
  5
4F6
  8
WHITE
 10
-64.60841161133479
 20
-89.24257829654286
 30
0.0
  0
VERTEX
  5
4F7
  8
WHITE
 10
-44.66734268799794
 20
-89.24257829654286
 30
0.0
  0
SEQEND
  5
4F8
  8
WHITE
  0
POLYLINE
  5
4F9
  8
WHITE
 66
     1
 10
0.0
 20
0.0
 30
0.0
 70
     1
  0
VERTEX
  5
4FA
  8
WHITE
 10
-44.66734268799794
 20
-140.9236521153917
 30
0.0
  0
VERTEX
  5
4FB
  8
WHITE
 10
-64.60841161133479
 20
-140.9236521153917
 30
0.0
  0
VERTEX
  5
4FC
  8
WHITE
 10
-64.60841161133479
 20
-137.7486521153918
 30
0.0
  0
VERTEX
  5
4FD
  8
WHITE
 10
-44.66734268799794
 20
-137.7486521153918
 30
0.0
  0
SEQEND
  5
4FE
  8
WHITE
  0
POLYLINE
  5
4FF
  8
WHITE
 66
     1
 10
0.0
 20
0.0
 30
0.0
 70
     1
  0
VERTEX
  5
500
  8
WHITE
 10
-44.44420718365271
 20
-135.9937169712947
 30
0.0
  0
VERTEX
  5
501
  8
WHITE
 10
-64.83154710805073
 20
-135.9937169712947
 30
0.0
  0
VERTEX
  5
502
  8
WHITE
 10
-64.83154710805073
 20
-94.17252050160843
 30
0.0
  0
VERTEX
  5
503
  8
WHITE
 10
-44.44420718365271
 20
-94.17252050160843
 30
0.0
  0
SEQEND
  5
504
  8
WHITE
  0
POLYLINE
  5
505
  8
WHITE
 66
     1
 10
0.0
 20
0.0
 30
0.0
 70
     1
  0
VERTEX
  5
506
  8
WHITE
 10
-71.91165574889408
 20
-143.9237242813604
 30
0.0
  0
VERTEX
  5
507
  8
WHITE
 10
-71.91165574889408
 20
-86.24250624787916
 30
0.0
 42
0.4142135623730638
  0
VERTEX
  5
508
  8
WHITE
 10
-73.91165574889408
 20
-84.24250624787916
 30
0.0
  0
VERTEX
  5
509
  8
WHITE
 10
-99.85272467223093
 20
-84.24250624787916
 30
0.0
 42
0.4142135623731208
  0
VERTEX
  5
50A
  8
WHITE
 10
-101.8527246722309
 20
-86.24250624787916
 30
0.0
  0
VERTEX
  5
50B
  8
WHITE
 10
-101.8527246722309
 20
-143.9237242813604
 30
0.0
 42
0.4142135623731034
  0
VERTEX
  5
50C
  8
WHITE
 10
-99.85272467223093
 20
-145.9237242813604
 30
0.0
  0
VERTEX
  5
50D
  8
WHITE
 10
-73.91165574889408
 20
-145.9237242813604
 30
0.0
 42
0.41421356237307
  0
SEQEND
  5
50E
  8
WHITE
  0
POLYLINE
  5
50F
  8
WHITE
 66
     1
 10
0.0
 20
0.0
 30
0.0
 70
     1
  0
VERTEX
  5
510
  8
WHITE
 10
-96.85272467223105
 20
-92.41757829654293
 30
0.0
  0
VERTEX
  5
511
  8
WHITE
 10
-96.85272467223105
 20
-89.24257829654286
 30
0.0
  0
VERTEX
  5
512
  8
WHITE
 10
-76.9116557488942
 20
-89.24257829654286
 30
0.0
  0
VERTEX
  5
513
  8
WHITE
 10
-76.9116557488942
 20
-92.41757829654293
 30
0.0
  0
SEQEND
  5
514
  8
WHITE
  0
POLYLINE
  5
515
  8
WHITE
 66
     1
 10
0.0
 20
0.0
 30
0.0
 70
     1
  0
VERTEX
  5
516
  8
WHITE
 10
-96.85272467223105
 20
-140.9236521153919
 30
0.0
  0
VERTEX
  5
517
  8
WHITE
 10
-96.85272467223105
 20
-137.7486521153918
 30
0.0
  0
VERTEX
  5
518
  8
WHITE
 10
-76.9116557488942
 20
-137.7486521153918
 30
0.0
  0
VERTEX
  5
519
  8
WHITE
 10
-76.9116557488942
 20
-140.9236521153919
 30
0.0
  0
SEQEND
  5
51A
  8
WHITE
  0
POLYLINE
  5
51B
  8
WHITE
 66
     1
 10
0.0
 20
0.0
 30
0.0
 70
     1
  0
VERTEX
  5
51C
  8
WHITE
 10
-97.07586017657628
 20
-135.9937169712949
 30
0.0
  0
VERTEX
  5
51D
  8
WHITE
 10
-97.07586017657628
 20
-94.17252050160866
 30
0.0
  0
VERTEX
  5
51E
  8
WHITE
 10
-76.68852025217815
 20
-94.17252050160866
 30
0.0
  0
VERTEX
  5
51F
  8
WHITE
 10
-76.68852025217815
 20
-135.9937169712949
 30
0.0
  0
SEQEND
  5
520
  8
WHITE
  0
CIRCLE
  5
521
  8
WHITE
 10
-118.8864436911701
 20
-125.3831318231675
 30
0.0
 40
2.039999999999935
  0
POLYLINE
  5
522
  8
WHITE
 66
     1
 10
0.0
 20
0.0
 30
0.0
 70
     1
  0
VERTEX
  5
523
  8
WHITE
 10
-103.9159092295017
 20
-143.9237403496741
 30
0.0
  0
VERTEX
  5
524
  8
WHITE
 10
-103.9159092295017
 20
-86.24252231619298
 30
0.0
 42
0.4142135623731284
  0
VERTEX
  5
525
  8
WHITE
 10
-105.9159092295017
 20
-84.24252231619298
 30
0.0
  0
VERTEX
  5
526
  8
WHITE
 10
-131.8569781528385
 20
-84.24252231619298
 30
0.0
 42
0.4142135623730938
  0
VERTEX
  5
527
  8
WHITE
 10
-133.8569781528385
 20
-86.24252231619298
 30
0.0
  0
VERTEX
  5
528
  8
WHITE
 10
-133.8569781528385
 20
-143.9237403496741
 30
0.0
 42
0.4142135623730967
  0
VERTEX
  5
529
  8
WHITE
 10
-131.8569781528385
 20
-145.9237403496741
 30
0.0
  0
VERTEX
  5
52A
  8
WHITE
 10
-105.9159092295017
 20
-145.9237403496742
 30
0.0
 42
0.4142135623731171
  0
SEQEND
  5
52B
  8
WHITE
  0
POLYLINE
  5
52C
  8
WHITE
 66
     1
 10
0.0
 20
0.0
 30
0.0
 70
     1
  0
VERTEX
  5
52D
  8
WHITE
 10
-128.8569781528385
 20
-137.7486683010105
 30
0.0
  0
VERTEX
  5
52E
  8
WHITE
 10
-108.9159092295018
 20
-137.7486683010105
 30
0.0
  0
VERTEX
  5
52F
  8
WHITE
 10
-108.9159092295018
 20
-140.9236683010105
 30
0.0
  0
VERTEX
  5
530
  8
WHITE
 10
-128.8569781528385
 20
-140.9236683010105
 30
0.0
  0
SEQEND
  5
531
  8
WHITE
  0
POLYLINE
  5
532
  8
WHITE
 66
     1
 10
0.0
 20
0.0
 30
0.0
 70
     1
  0
VERTEX
  5
533
  8
WHITE
 10
-128.8569781528385
 20
-89.24259448216159
 30
0.0
  0
VERTEX
  5
534
  8
WHITE
 10
-108.9159092295018
 20
-89.24259448216159
 30
0.0
  0
VERTEX
  5
535
  8
WHITE
 10
-108.9159092295018
 20
-92.41759448216155
 30
0.0
  0
VERTEX
  5
536
  8
WHITE
 10
-128.8569781528385
 20
-92.41759448216155
 30
0.0
  0
SEQEND
  5
537
  8
WHITE
  0
CIRCLE
  5
538
  8
WHITE
 10
-151.5276338795054
 20
-125.3831466442542
 30
0.0
 40
2.039999999999978
  0
POLYLINE
  5
539
  8
WHITE
 66
     1
 10
0.0
 20
0.0
 30
0.0
 70
     1
  0
VERTEX
  5
53A
  8
WHITE
 10
-166.4981683411736
 20
-86.24253762751366
 30
0.0
  0
VERTEX
  5
53B
  8
WHITE
 10
-166.4981683411736
 20
-143.9237556609947
 30
0.0
 42
0.4142135623731241
  0
VERTEX
  5
53C
  8
WHITE
 10
-164.4981683411736
 20
-145.9237556609947
 30
0.0
  0
VERTEX
  5
53D
  8
WHITE
 10
-138.5570994178367
 20
-145.9237556609947
 30
0.0
 42
0.4142135623731384
  0
VERTEX
  5
53E
  8
WHITE
 10
-136.5570994178368
 20
-143.9237556609947
 30
0.0
  0
VERTEX
  5
53F
  8
WHITE
 10
-136.5570994178367
 20
-86.24253762751366
 30
0.0
 42
0.4142135623731164
  0
VERTEX
  5
540
  8
WHITE
 10
-138.5570994178367
 20
-84.24253762751364
 30
0.0
  0
VERTEX
  5
541
  8
WHITE
 10
-164.4981683411736
 20
-84.24253762751366
 30
0.0
 42
0.4142135623731354
  0
SEQEND
  5
542
  8
WHITE
  0
POLYLINE
  5
543
  8
WHITE
 66
     1
 10
0.0
 20
0.0
 30
0.0
 70
     1
  0
VERTEX
  5
544
  8
WHITE
 10
-141.5570994178367
 20
-137.7486836123311
 30
0.0
  0
VERTEX
  5
545
  8
WHITE
 10
-141.5570994178367
 20
-140.923683612331
 30
0.0
  0
VERTEX
  5
546
  8
WHITE
 10
-161.4981683411736
 20
-140.923683612331
 30
0.0
  0
VERTEX
  5
547
  8
WHITE
 10
-161.4981683411736
 20
-137.7486836123311
 30
0.0
  0
SEQEND
  5
548
  8
WHITE
  0
POLYLINE
  5
549
  8
WHITE
 66
     1
 10
0.0
 20
0.0
 30
0.0
 70
     1
  0
VERTEX
  5
54A
  8
WHITE
 10
-141.5570994178367
 20
-89.24260979348216
 30
0.0
  0
VERTEX
  5
54B
  8
WHITE
 10
-141.5570994178367
 20
-92.41760979348211
 30
0.0
  0
VERTEX
  5
54C
  8
WHITE
 10
-161.4981683411736
 20
-92.41760979348211
 30
0.0
  0
VERTEX
  5
54D
  8
WHITE
 10
-161.4981683411736
 20
-89.24260979348216
 30
0.0
  0
SEQEND
  5
54E
  8
WHITE
  0
CIRCLE
  5
54F
  8
WHITE
 10
-123.7752030461859
 20
-22.94110813815031
 30
0.0
 40
1.0
  0
CIRCLE
  5
550
  8
WHITE
 10
-131.2752030461859
 20
-22.94110813815033
 30
0.0
 40
0.9999999999999858
  0
CIRCLE
  5
551
  8
WHITE
 10
-138.775203046186
 20
-22.94110813815031
 30
0.0
 40
1.0
  0
POLYLINE
  5
552
  8
WHITE
 66
     1
 10
0.0
 20
0.0
 30
0.0
 70
     1
  0
VERTEX
  5
553
  8
WHITE
 10
-116.4633188293785
 20
-27.23831635145937
 30
0.0
  0
VERTEX
  5
554
  8
WHITE
 10
-100.3468297620384
 20
49.32218653333301
 30
0.0
  0
VERTEX
  5
555
  8
WHITE
 10
-100.3468297620384
 20
54.322186533333
 30
0.0
  0
VERTEX
  5
556
  8
WHITE
 10
-97.17182976203844
 20
54.32218653333301
 30
0.0
  0
VERTEX
  5
557
  8
WHITE
 10
-97.17182976203844
 20
60.7345989125882
 30
0.0
  0
VERTEX
  5
558
  8
WHITE
 10
-102.8185191836454
 20
60.73459891258825
 30
0.0
  0
VERTEX
  5
559
  8
WHITE
 10
-102.8185191836454
 20
58.2345989125882
 30
0.0
  0
VERTEX
  5
55A
  8
WHITE
 10
-106.0685191836454
 20
58.2345989125882
 30
0.0
  0
VERTEX
  5
55B
  8
WHITE
 10
-106.0685191836454
 20
60.73459891258825
 30
0.0
  0
VERTEX
  5
55C
  8
WHITE
 10
-107.0685191836454
 20
60.73459891258814
 30
0.0
  0
VERTEX
  5
55D
  8
WHITE
 10
-107.0685191836454
 20
63.90959891258809
 30
0.0
  0
VERTEX
  5
55E
  8
WHITE
 10
-106.0685191836454
 20
63.90959891258815
 30
0.0
  0
VERTEX
  5
55F
  8
WHITE
 10
-106.0685191836454
 20
66.40959891258815
 30
0.0
  0
VERTEX
  5
560
  8
WHITE
 10
-102.8185191836454
 20
66.40959891258815
 30
0.0
  0
VERTEX
  5
561
  8
WHITE
 10
-102.8185191836454
 20
63.90959891258815
 30
0.0
  0
VERTEX
  5
562
  8
WHITE
 10
-97.17182976203844
 20
63.90959891258818
 30
0.0
  0
VERTEX
  5
563
  8
WHITE
 10
-97.17182976203844
 20
70.32201230966304
 30
0.0
  0
VERTEX
  5
564
  8
WHITE
 10
-100.3468297620384
 20
70.32201230966305
 30
0.0
  0
VERTEX
  5
565
  8
WHITE
 10
-100.3468297620384
 20
75.32201230966307
 30
0.0
  0
VERTEX
  5
566
  8
WHITE
 10
-152.7457289159238
 20
75.3220123096631
 30
0.0
  0
VERTEX
  5
567
  8
WHITE
 10
-152.7457289159238
 20
70.3220123096631
 30
0.0
  0
VERTEX
  5
568
  8
WHITE
 10
-155.920728915924
 20
70.32201230966307
 30
0.0
  0
VERTEX
  5
569
  8
WHITE
 10
-155.9207289159237
 20
63.9096036415465
 30
0.0
  0
VERTEX
  5
56A
  8
WHITE
 10
-150.2740394943166
 20
63.90960364154644
 30
0.0
  0
VERTEX
  5
56B
  8
WHITE
 10
-150.2740394943166
 20
66.4096036415465
 30
0.0
  0
VERTEX
  5
56C
  8
WHITE
 10
-147.0240394943166
 20
66.4096036415465
 30
0.0
  0
VERTEX
  5
56D
  8
WHITE
 10
-147.0240394943166
 20
63.90960364154644
 30
0.0
  0
VERTEX
  5
56E
  8
WHITE
 10
-146.0240394943166
 20
63.90960364154655
 30
0.0
  0
VERTEX
  5
56F
  8
WHITE
 10
-146.0240394943166
 20
60.7346036415466
 30
0.0
  0
VERTEX
  5
570
  8
WHITE
 10
-147.0240394943166
 20
60.73460364154654
 30
0.0
  0
VERTEX
  5
571
  8
WHITE
 10
-147.0240394943166
 20
58.23460364154654
 30
0.0
  0
VERTEX
  5
572
  8
WHITE
 10
-150.2740394943166
 20
58.23460364154654
 30
0.0
  0
VERTEX
  5
573
  8
WHITE
 10
-150.2740394943166
 20
60.73460364154654
 30
0.0
  0
VERTEX
  5
574
  8
WHITE
 10
-155.9207289159237
 20
60.73460364154654
 30
0.0
  0
VERTEX
  5
575
  8
WHITE
 10
-155.920728915924
 20
54.32218653333304
 30
0.0
  0
VERTEX
  5
576
  8
WHITE
 10
-152.7457289159238
 20
54.32218653333305
 30
0.0
  0
VERTEX
  5
577
  8
WHITE
 10
-152.7457289159238
 20
49.32218653333304
 30
0.0
  0
VERTEX
  5
578
  8
WHITE
 10
-146.46334662002
 20
-27.23831635145937
 30
0.0
  0
SEQEND
  5
579
  8
WHITE
  0
POLYLINE
  5
57A
  8
WHITE
 66
     1
 10
0.0
 20
0.0
 30
0.0
 70
     1
  0
VERTEX
  5
57B
  8
WHITE
 10
-140.7377573669668
 20
2.946275688863651
 30
0.0
  0
VERTEX
  5
57C
  8
WHITE
 10
-143.9021218960904
 20
2.686617977975729
 30
0.0
  0
VERTEX
  5
57D
  8
WHITE
 10
-146.9760903096239
 20
40.14807667361568
 30
0.0
  0
VERTEX
  5
57E
  8
WHITE
 10
-143.8117257805002
 20
40.4077343845036
 30
0.0
  0
SEQEND
  5
57F
  8
WHITE
  0
POLYLINE
  5
580
  8
WHITE
 66
     1
 10
0.0
 20
0.0
 30
0.0
 70
     1
  0
VERTEX
  5
581
  8
WHITE
 10
-115.1093272052702
 20
3.466853325129946
 30
0.0
  0
VERTEX
  5
582
  8
WHITE
 10
-118.2162302845173
 20
4.120900919854577
 30
0.0
  0
VERTEX
  5
583
  8
WHITE
 10
-110.4732611261742
 20
40.90209989467711
 30
0.0
  0
VERTEX
  5
584
  8
WHITE
 10
-107.3663580469272
 20
40.24805229995245
 30
0.0
  0
SEQEND
  5
585
  8
WHITE
  0
POLYLINE
  5
586
  8
WHITE
 66
     1
 10
0.0
 20
0.0
 30
0.0
 70
     1
  0
VERTEX
  5
587
  8
WHITE
 10
-123.2352248272005
 20
-2.284247051429773
 30
0.0
  0
VERTEX
  5
588
  8
WHITE
 10
-123.2352248272004
 20
-3.284247051429773
 30
0.0
 42
-0.4142133648606858
  0
VERTEX
  5
589
  8
WHITE
 10
-125.2352248272005
 20
-5.284247051429778
 30
0.0
  0
VERTEX
  5
58A
  8
WHITE
 10
-133.3151753921428
 20
-5.284247051429773
 30
0.0
 42
-0.4142135623731042
  0
VERTEX
  5
58B
  8
WHITE
 10
-135.3151753921428
 20
-3.284247051429773
 30
0.0
  0
VERTEX
  5
58C
  8
WHITE
 10
-135.3151753921428
 20
-2.284247051429773
 30
0.0
 42
-0.4142135623731144
  0
VERTEX
  5
58D
  8
WHITE
 10
-133.3151753921428
 20
-0.2842470514297588
 30
0.0
  0
VERTEX
  5
58E
  8
WHITE
 10
-125.2352248272004
 20
-0.2842470514297801
 30
0.0
 42
-0.414213364860699
  0
SEQEND
  5
58F
  8
WHITE
  0
POLYLINE
  5
590
  8
WHITE
 66
     1
 10
0.0
 20
0.0
 30
0.0
 70
     1
  0
VERTEX
  5
591
  8
WHITE
 10
-123.2352248272005
 20
-12.28424705142977
 30
0.0
  0
VERTEX
  5
592
  8
WHITE
 10
-123.2352248272005
 20
-13.28424705142977
 30
0.0
 42
-0.4142133648606785
  0
VERTEX
  5
593
  8
WHITE
 10
-125.2352248272005
 20
-15.28424705142978
 30
0.0
  0
VERTEX
  5
594
  8
WHITE
 10
-133.3151753921428
 20
-15.28424705142976
 30
0.0
 42
-0.4142134636169007
  0
VERTEX
  5
595
  8
WHITE
 10
-135.3151753921428
 20
-13.28424705142977
 30
0.0
  0
VERTEX
  5
596
  8
WHITE
 10
-135.3151753921428
 20
-12.28424705142977
 30
0.0
 42
-0.4142135623731182
  0
VERTEX
  5
597
  8
WHITE
 10
-133.3151753921428
 20
-10.28424705142975
 30
0.0
  0
VERTEX
  5
598
  8
WHITE
 10
-125.2352248272005
 20
-10.28424705142977
 30
0.0
 42
-0.4142133648606896
  0
SEQEND
  5
599
  8
WHITE
  0
POLYLINE
  5
59A
  8
WHITE
 66
     1
 10
0.0
 20
0.0
 30
0.0
 70
     1
  0
VERTEX
  5
59B
  8
WHITE
 10
-114.4663281545535
 20
47.82209959592497
 30
0.0
  0
VERTEX
  5
59C
  8
WHITE
 10
-114.4663281545535
 20
46.82209959592494
 30
0.0
 42
-0.4142134636168425
  0
VERTEX
  5
59D
  8
WHITE
 10
-116.4663281545535
 20
44.82209959592495
 30
0.0
  0
VERTEX
  5
59E
  8
WHITE
 10
-136.6262292844382
 20
44.82209959592495
 30
0.0
 42
-0.4142134636168514
  0
VERTEX
  5
59F
  8
WHITE
 10
-138.6262292844384
 20
46.82209959592497
 30
0.0
  0
VERTEX
  5
5A0
  8
WHITE
 10
-138.6262292844384
 20
47.82209959592497
 30
0.0
 42
-0.4142135070693795
  0
VERTEX
  5
5A1
  8
WHITE
 10
-136.6262292844384
 20
49.82209959592497
 30
0.0
  0
VERTEX
  5
5A2
  8
WHITE
 10
-116.4663281545535
 20
49.82209959592495
 30
0.0
 42
-0.4142135111278635
  0
SEQEND
  5
5A3
  8
WHITE
  0
POLYLINE
  5
5A4
  8
WHITE
 66
     1
 10
0.0
 20
0.0
 30
0.0
 70
     1
  0
VERTEX
  5
5A5
  8
WHITE
 10
-114.4663281545535
 20
62.82209959592497
 30
0.0
  0
VERTEX
  5
5A6
  8
WHITE
 10
-114.4663281545535
 20
61.82209959592494
 30
0.0
 42
-0.4142133648606734
  0
VERTEX
  5
5A7
  8
WHITE
 10
-116.4663281545535
 20
59.82209959592493
 30
0.0
  0
VERTEX
  5
5A8
  8
WHITE
 10
-136.6262292844382
 20
59.82209959592493
 30
0.0
 42
-0.4142134636168124
  0
VERTEX
  5
5A9
  8
WHITE
 10
-138.6262292844384
 20
61.82209959592497
 30
0.0
  0
VERTEX
  5
5AA
  8
WHITE
 10
-138.6262292844384
 20
62.82209959592497
 30
0.0
 42
-0.4142134636168526
  0
VERTEX
  5
5AB
  8
WHITE
 10
-136.6262292844384
 20
64.82209959592498
 30
0.0
  0
VERTEX
  5
5AC
  8
WHITE
 10
-116.4663281545535
 20
64.82209959592494
 30
0.0
 42
-0.4142135623730885
  0
SEQEND
  5
5AD
  8
WHITE
  0
CIRCLE
  5
5AE
  8
WHITE
 10
-80.31258013593465
 20
71.0248053257212
 30
0.0
 40
1.0
  0
CIRCLE
  5
5AF
  8
WHITE
 10
-72.81258013593462
 20
71.0248053257212
 30
0.0
 40
1.0
  0
CIRCLE
  5
5B0
  8
WHITE
 10
-65.31258013593477
 20
71.0248053257212
 30
0.0
 40
1.0
  0
POLYLINE
  5
5B1
  8
WHITE
 66
     1
 10
0.0
 20
0.0
 30
0.0
 70
     1
  0
VERTEX
  5
5B2
  8
WHITE
 10
-63.35002581515374
 20
45.13742149870724
 30
0.0
  0
VERTEX
  5
5B3
  8
WHITE
 10
-60.18566128602998
 20
45.39707920959516
 30
0.0
  0
VERTEX
  5
5B4
  8
WHITE
 10
-57.11169287249646
 20
7.935620513955215
 30
0.0
  0
VERTEX
  5
5B5
  8
WHITE
 10
-60.27605740162022
 20
7.675962803067293
 30
0.0
  0
SEQEND
  5
5B6
  8
WHITE
  0
POLYLINE
  5
5B7
  8
WHITE
 66
     1
 10
0.0
 20
0.0
 30
0.0
 70
     1
  0
VERTEX
  5
5B8
  8
WHITE
 10
-88.97845597685017
 20
44.61684386244094
 30
0.0
  0
VERTEX
  5
5B9
  8
WHITE
 10
-85.87155289760307
 20
43.96279626771631
 30
0.0
  0
VERTEX
  5
5BA
  8
WHITE
 10
-93.61452205594622
 20
7.181597292893784
 30
0.0
  0
VERTEX
  5
5BB
  8
WHITE
 10
-96.72142513519333
 20
7.835644887618443
 30
0.0
  0
SEQEND
  5
5BC
  8
WHITE
  0
POLYLINE
  5
5BD
  8
WHITE
 66
     1
 10
0.0
 20
0.0
 30
0.0
 70
     1
  0
VERTEX
  5
5BE
  8
WHITE
 10
-80.85255835492006
 20
50.36794423900066
 30
0.0
  0
VERTEX
  5
5BF
  8
WHITE
 10
-80.85255835492006
 20
51.36794423900066
 30
0.0
 42
-0.4142133648607374
  0
VERTEX
  5
5C0
  8
WHITE
 10
-78.85255835492008
 20
53.36794423900067
 30
0.0
  0
VERTEX
  5
5C1
  8
WHITE
 10
-70.7726077899776
 20
53.36794423900066
 30
0.0
 42
-0.4142134636169081
  0
VERTEX
  5
5C2
  8
WHITE
 10
-68.77260778997771
 20
51.36794423900066
 30
0.0
  0
VERTEX
  5
5C3
  8
WHITE
 10
-68.77260778997771
 20
50.36794423900066
 30
0.0
 42
-0.4142135623730815
  0
VERTEX
  5
5C4
  8
WHITE
 10
-70.7726077899776
 20
48.36794423900065
 30
0.0
  0
VERTEX
  5
5C5
  8
WHITE
 10
-78.85255835492006
 20
48.36794423900066
 30
0.0
 42
-0.4142132661045507
  0
SEQEND
  5
5C6
  8
WHITE
  0
POLYLINE
  5
5C7
  8
WHITE
 66
     1
 10
0.0
 20
0.0
 30
0.0
 70
     1
  0
VERTEX
  5
5C8
  8
WHITE
 10
-80.85255835492006
 20
60.36794423900066
 30
0.0
  0
VERTEX
  5
5C9
  8
WHITE
 10
-80.85255835492003
 20
61.36794423900066
 30
0.0
 42
-0.4142133648607398
  0
VERTEX
  5
5CA
  8
WHITE
 10
-78.85255835492008
 20
63.36794423900069
 30
0.0
  0
VERTEX
  5
5CB
  8
WHITE
 10
-70.7726077899776
 20
63.36794423900066
 30
0.0
 42
-0.4142134636169081
  0
VERTEX
  5
5CC
  8
WHITE
 10
-68.77260778997771
 20
61.36794423900066
 30
0.0
  0
VERTEX
  5
5CD
  8
WHITE
 10
-68.77260778997771
 20
60.36794423900066
 30
0.0
 42
-0.4142135623730792
  0
VERTEX
  5
5CE
  8
WHITE
 10
-70.7726077899776
 20
58.36794423900066
 30
0.0
  0
VERTEX
  5
5CF
  8
WHITE
 10
-78.85255835492006
 20
58.36794423900067
 30
0.0
 42
-0.4142132661045534
  0
SEQEND
  5
5D0
  8
WHITE
  0
POLYLINE
  5
5D1
  8
WHITE
 66
     1
 10
0.0
 20
0.0
 30
0.0
 70
     1
  0
VERTEX
  5
5D2
  8
WHITE
 10
-89.62145502756692
 20
0.2615975916459519
 30
0.0
  0
VERTEX
  5
5D3
  8
WHITE
 10
-89.62145502756692
 20
1.261597591645952
 30
0.0
 42
-0.4142134636169437
  0
VERTEX
  5
5D4
  8
WHITE
 10
-87.62145502756692
 20
3.261597591645943
 30
0.0
  0
VERTEX
  5
5D5
  8
WHITE
 10
-67.46155389768232
 20
3.261597591645945
 30
0.0
 42
-0.4142133648607124
  0
VERTEX
  5
5D6
  8
WHITE
 10
-65.46155389768234
 20
1.261597591645924
 30
0.0
  0
VERTEX
  5
5D7
  8
WHITE
 10
-65.46155389768232
 20
0.2615975916459234
 30
0.0
 42
-0.4142134474564778
  0
VERTEX
  5
5D8
  8
WHITE
 10
-67.46155389768235
 20
-1.738402408354065
 30
0.0
  0
VERTEX
  5
5D9
  8
WHITE
 10
-87.62145502756692
 20
-1.738402408354048
 30
0.0
 42
-0.4142135623731452
  0
SEQEND
  5
5DA
  8
WHITE
  0
POLYLINE
  5
5DB
  8
WHITE
 66
     1
 10
0.0
 20
0.0
 30
0.0
 70
     1
  0
VERTEX
  5
5DC
  8
WHITE
 10
-89.62145502756692
 20
-14.73840240835405
 30
0.0
  0
VERTEX
  5
5DD
  8
WHITE
 10
-89.62145502756691
 20
-13.73840240835405
 30
0.0
 42
-0.4142134636168948
  0
VERTEX
  5
5DE
  8
WHITE
 10
-87.62145502756692
 20
-11.73840240835404
 30
0.0
  0
VERTEX
  5
5DF
  8
WHITE
 10
-67.46155389768234
 20
-11.73840240835406
 30
0.0
 42
-0.4142134636168951
  0
VERTEX
  5
5E0
  8
WHITE
 10
-65.46155389768234
 20
-13.73840240835408
 30
0.0
  0
VERTEX
  5
5E1
  8
WHITE
 10
-65.46155389768235
 20
-14.73840240835408
 30
0.0
 42
-0.4142134636168743
  0
VERTEX
  5
5E2
  8
WHITE
 10
-67.46155389768234
 20
-16.73840240835408
 30
0.0
  0
VERTEX
  5
5E3
  8
WHITE
 10
-87.62145502756692
 20
-16.73840240835406
 30
0.0
 42
-0.4142134636169331
  0
SEQEND
  5
5E4
  8
WHITE
  0
POLYLINE
  5
5E5
  8
WHITE
 66
     1
 10
0.0
 20
0.0
 30
0.0
 70
     1
  0
VERTEX
  5
5E6
  8
WHITE
 10
-87.624464352742
 20
75.32201353903024
 30
0.0
  0
VERTEX
  5
5E7
  8
WHITE
 10
-103.7409534200821
 20
-1.238489345762119
 30
0.0
  0
VERTEX
  5
5E8
  8
WHITE
 10
-103.7409534200821
 20
-6.238489345762119
 30
0.0
  0
VERTEX
  5
5E9
  8
WHITE
 10
-106.9159534200821
 20
-6.238489345762119
 30
0.0
  0
VERTEX
  5
5EA
  8
WHITE
 10
-106.9159534200821
 20
-12.65090172501733
 30
0.0
  0
VERTEX
  5
5EB
  8
WHITE
 10
-101.269263998475
 20
-12.65090172501739
 30
0.0
  0
VERTEX
  5
5EC
  8
WHITE
 10
-101.269263998475
 20
-10.15090172501733
 30
0.0
  0
VERTEX
  5
5ED
  8
WHITE
 10
-98.01926399847497
 20
-10.15090172501733
 30
0.0
  0
VERTEX
  5
5EE
  8
WHITE
 10
-98.01926399847497
 20
-12.65090172501739
 30
0.0
  0
VERTEX
  5
5EF
  8
WHITE
 10
-97.01926399847497
 20
-12.65090172501728
 30
0.0
  0
VERTEX
  5
5F0
  8
WHITE
 10
-97.01926399847497
 20
-15.82590172501723
 30
0.0
  0
VERTEX
  5
5F1
  8
WHITE
 10
-98.01926399847497
 20
-15.82590172501729
 30
0.0
  0
VERTEX
  5
5F2
  8
WHITE
 10
-98.01926399847497
 20
-18.32590172501729
 30
0.0
  0
VERTEX
  5
5F3
  8
WHITE
 10
-101.269263998475
 20
-18.32590172501729
 30
0.0
  0
VERTEX
  5
5F4
  8
WHITE
 10
-101.269263998475
 20
-15.82590172501729
 30
0.0
  0
VERTEX
  5
5F5
  8
WHITE
 10
-106.9159534200821
 20
-15.82590172501729
 30
0.0
  0
VERTEX
  5
5F6
  8
WHITE
 10
-106.9159534200821
 20
-22.23831512209215
 30
0.0
  0
VERTEX
  5
5F7
  8
WHITE
 10
-103.7409534200821
 20
-22.23831512209217
 30
0.0
  0
VERTEX
  5
5F8
  8
WHITE
 10
-103.7409534200821
 20
-27.23831512209217
 30
0.0
  0
VERTEX
  5
5F9
  8
WHITE
 10
-51.34205426619661
 20
-27.2383151220922
 30
0.0
  0
VERTEX
  5
5FA
  8
WHITE
 10
-51.34205426619661
 20
-22.2383151220922
 30
0.0
  0
VERTEX
  5
5FB
  8
WHITE
 10
-48.16705426619666
 20
-22.23831512209218
 30
0.0
  0
VERTEX
  5
5FC
  8
WHITE
 10
-48.16705426619666
 20
-15.82590645397561
 30
0.0
  0
VERTEX
  5
5FD
  8
WHITE
 10
-53.81374368780399
 20
-15.82590645397555
 30
0.0
  0
VERTEX
  5
5FE
  8
WHITE
 10
-53.81374368780399
 20
-18.32590645397561
 30
0.0
  0
VERTEX
  5
5FF
  8
WHITE
 10
-57.06374368780399
 20
-18.32590645397561
 30
0.0
  0
VERTEX
  5
600
  8
WHITE
 10
-57.06374368780399
 20
-15.82590645397555
 30
0.0
  0
VERTEX
  5
601
  8
WHITE
 10
-58.06374368780399
 20
-15.82590645397566
 30
0.0
  0
VERTEX
  5
602
  8
WHITE
 10
-58.06374368780399
 20
-12.65090645397571
 30
0.0
  0
VERTEX
  5
603
  8
WHITE
 10
-57.06374368780399
 20
-12.65090645397565
 30
0.0
  0
VERTEX
  5
604
  8
WHITE
 10
-57.06374368780399
 20
-10.15090645397565
 30
0.0
  0
VERTEX
  5
605
  8
WHITE
 10
-53.81374368780399
 20
-10.15090645397565
 30
0.0
  0
VERTEX
  5
606
  8
WHITE
 10
-53.81374368780399
 20
-12.65090645397565
 30
0.0
  0
VERTEX
  5
607
  8
WHITE
 10
-48.16705426619666
 20
-12.65090645397565
 30
0.0
  0
VERTEX
  5
608
  8
WHITE
 10
-48.16705426619666
 20
-6.238489345762147
 30
0.0
  0
VERTEX
  5
609
  8
WHITE
 10
-51.34205426619661
 20
-6.238489345762148
 30
0.0
  0
VERTEX
  5
60A
  8
WHITE
 10
-51.34205426619661
 20
-1.238489345762147
 30
0.0
  0
VERTEX
  5
60B
  8
WHITE
 10
-57.62443656210036
 20
75.32201353903024
 30
0.0
  0
SEQEND
  5
60C
  8
WHITE
  0
POLYLINE
  5
60D
  8
WHITE
 66
     1
 10
0.0
 20
0.0
 30
0.0
 70
     1
  0
VERTEX
  5
60E
  8
WHITE
 10
-207.4509513501578
 20
-93.26446310090391
 30
0.0
  0
VERTEX
  5
60F
  8
WHITE
 10
-210.6259513501579
 20
-93.26446310090391
 30
0.0
  0
VERTEX
  5
610
  8
WHITE
 10
-210.6259513501579
 20
-38.26446310090391
 30
0.0
  0
VERTEX
  5
611
  8
WHITE
 10
-207.4509513501578
 20
-38.26446310090391
 30
0.0
  0
SEQEND
  5
612
  8
WHITE
  0
POLYLINE
  5
613
  8
WHITE
 66
     1
 10
0.0
 20
0.0
 30
0.0
 70
     1
  0
VERTEX
  5
614
  8
WHITE
 10
-179.7666465227116
 20
-98.26446310090391
 30
0.0
  0
VERTEX
  5
615
  8
WHITE
 10
-179.7666465227117
 20
-93.2644631009039
 30
0.0
  0
VERTEX
  5
616
  8
WHITE
 10
-176.5916465227116
 20
-93.26446310090391
 30
0.0
  0
VERTEX
  5
617
  8
WHITE
 10
-176.5916465227117
 20
-67.35196454254064
 30
0.0
  0
VERTEX
  5
618
  8
WHITE
 10
-182.2383359443187
 20
-67.35196454254064
 30
0.0
  0
VERTEX
  5
619
  8
WHITE
 10
-182.2383359443187
 20
-69.85196454254064
 30
0.0
  0
VERTEX
  5
61A
  8
WHITE
 10
-185.4883359443187
 20
-69.85196454254064
 30
0.0
  0
VERTEX
  5
61B
  8
WHITE
 10
-185.4883359443187
 20
-67.35196454254064
 30
0.0
  0
VERTEX
  5
61C
  8
WHITE
 10
-186.4883359443187
 20
-67.35196454254059
 30
0.0
  0
VERTEX
  5
61D
  8
WHITE
 10
-186.4883359443187
 20
-64.17696454254063
 30
0.0
  0
VERTEX
  5
61E
  8
WHITE
 10
-185.4883359443187
 20
-64.17696454254074
 30
0.0
  0
VERTEX
  5
61F
  8
WHITE
 10
-185.4883359443187
 20
-61.67696454254069
 30
0.0
  0
VERTEX
  5
620
  8
WHITE
 10
-182.2383359443187
 20
-61.67696454254069
 30
0.0
  0
VERTEX
  5
621
  8
WHITE
 10
-182.2383359443187
 20
-64.17696454254074
 30
0.0
  0
VERTEX
  5
622
  8
WHITE
 10
-176.5916465227117
 20
-64.17696454254069
 30
0.0
  0
VERTEX
  5
623
  8
WHITE
 10
-176.5916465227116
 20
-38.26446310090391
 30
0.0
  0
VERTEX
  5
624
  8
WHITE
 10
-179.7666465227117
 20
-38.26446310090391
 30
0.0
  0
VERTEX
  5
625
  8
WHITE
 10
-179.7666465227116
 20
-33.26446310090391
 30
0.0
  0
VERTEX
  5
626
  8
WHITE
 10
-161.8556899196942
 20
-15.26446310090391
 30
0.0
  0
VERTEX
  5
627
  8
WHITE
 10
-161.8556899196942
 20
9.676605822432904
 30
0.0
 42
0.4142135623731104
  0
VERTEX
  5
628
  8
WHITE
 10
-166.8556899196942
 20
14.67660582243288
 30
0.0
  0
VERTEX
  5
629
  8
WHITE
 10
-218.5369079531754
 20
14.67660582243292
 30
0.0
 42
0.4142135623730907
  0
VERTEX
  5
62A
  8
WHITE
 10
-223.5369079531754
 20
9.676605822432904
 30
0.0
  0
VERTEX
  5
62B
  8
WHITE
 10
-223.5369079531753
 20
-15.26446310090391
 30
0.0
  0
VERTEX
  5
62C
  8
WHITE
 10
-215.6259513501579
 20
-33.26446310090391
 30
0.0
  0
VERTEX
  5
62D
  8
WHITE
 10
-215.6259513501579
 20
-98.26446310090391
 30
0.0
  0
VERTEX
  5
62E
  8
WHITE
 10
-233.5369079531753
 20
-116.2644631009039
 30
0.0
  0
VERTEX
  5
62F
  8
WHITE
 10
-233.5369079531754
 20
-141.2055320242407
 30
0.0
 42
0.4142135623730747
  0
VERTEX
  5
630
  8
WHITE
 10
-228.5369079531754
 20
-146.2055320242407
 30
0.0
  0
VERTEX
  5
631
  8
WHITE
 10
-176.8556899196942
 20
-146.2055320242407
 30
0.0
 42
0.4142135623730931
  0
VERTEX
  5
632
  8
WHITE
 10
-171.8556899196942
 20
-141.2055320242407
 30
0.0
  0
VERTEX
  5
633
  8
WHITE
 10
-171.8556899196942
 20
-116.2644631009039
 30
0.0
  0
SEQEND
  5
634
  8
WHITE
  0
POLYLINE
  5
635
  8
WHITE
 66
     1
 10
0.0
 20
0.0
 30
0.0
 70
     1
  0
VERTEX
  5
636
  8
WHITE
 10
-215.3618359045117
 20
-10.26446310090391
 30
0.0
  0
VERTEX
  5
637
  8
WHITE
 10
-218.5368359045117
 20
-10.26446310090391
 30
0.0
  0
VERTEX
  5
638
  8
WHITE
 10
-218.5368359045117
 20
9.676605822432848
 30
0.0
  0
VERTEX
  5
639
  8
WHITE
 10
-215.3618359045117
 20
9.676605822432848
 30
0.0
  0
SEQEND
  5
63A
  8
WHITE
  0
POLYLINE
  5
63B
  8
WHITE
 66
     1
 10
0.0
 20
0.0
 30
0.0
 70
     1
  0
VERTEX
  5
63C
  8
WHITE
 10
-166.8557620856627
 20
-10.26446310090391
 30
0.0
  0
VERTEX
  5
63D
  8
WHITE
 10
-170.0307620856627
 20
-10.26446310090391
 30
0.0
  0
VERTEX
  5
63E
  8
WHITE
 10
-170.0307620856627
 20
9.676605822432848
 30
0.0
  0
VERTEX
  5
63F
  8
WHITE
 10
-166.8557620856627
 20
9.676605822432848
 30
0.0
  0
SEQEND
  5
640
  8
WHITE
  0
POLYLINE
  5
641
  8
WHITE
 66
     1
 10
0.0
 20
0.0
 30
0.0
 70
     1
  0
VERTEX
  5
642
  8
WHITE
 10
-171.7856974725642
 20
-10.48759924458913
 30
0.0
  0
VERTEX
  5
643
  8
WHITE
 10
-213.6068939422504
 20
-10.48759924458913
 30
0.0
  0
VERTEX
  5
644
  8
WHITE
 10
-213.6068939422504
 20
9.899740679808971
 30
0.0
  0
VERTEX
  5
645
  8
WHITE
 10
-171.7856974725642
 20
9.899740679808971
 30
0.0
  0
SEQEND
  5
646
  8
WHITE
  0
POLYLINE
  5
647
  8
WHITE
 66
     1
 10
0.0
 20
0.0
 30
0.0
 70
     1
  0
VERTEX
  5
648
  8
WHITE
 10
-225.3618359045117
 20
-141.2055320242407
 30
0.0
  0
VERTEX
  5
649
  8
WHITE
 10
-228.5368359045117
 20
-141.2055320242407
 30
0.0
  0
VERTEX
  5
64A
  8
WHITE
 10
-228.5368359045117
 20
-121.264463100904
 30
0.0
  0
VERTEX
  5
64B
  8
WHITE
 10
-225.3618359045117
 20
-121.264463100904
 30
0.0
  0
SEQEND
  5
64C
  8
WHITE
  0
POLYLINE
  5
64D
  8
WHITE
 66
     1
 10
0.0
 20
0.0
 30
0.0
 70
     1
  0
VERTEX
  5
64E
  8
WHITE
 10
-176.8557620856627
 20
-141.2055320242407
 30
0.0
  0
VERTEX
  5
64F
  8
WHITE
 10
-180.0307620856627
 20
-141.2055320242407
 30
0.0
  0
VERTEX
  5
650
  8
WHITE
 10
-180.0307620856627
 20
-121.264463100904
 30
0.0
  0
VERTEX
  5
651
  8
WHITE
 10
-176.8557620856627
 20
-121.264463100904
 30
0.0
  0
SEQEND
  5
652
  8
WHITE
  0
POLYLINE
  5
653
  8
WHITE
 66
     1
 10
0.0
 20
0.0
 30
0.0
 70
     1
  0
VERTEX
  5
654
  8
WHITE
 10
-181.7856974725642
 20
-141.4286681679261
 30
0.0
  0
VERTEX
  5
655
  8
WHITE
 10
-223.6068939422504
 20
-141.4286681679261
 30
0.0
  0
VERTEX
  5
656
  8
WHITE
 10
-223.6068939422504
 20
-121.041328243528
 30
0.0
  0
VERTEX
  5
657
  8
WHITE
 10
-181.7856974725642
 20
-121.041328243528
 30
0.0
  0
SEQEND
  5
658
  8
WHITE
  0
CIRCLE
  5
659
  8
WHITE
 10
-278.6762300647385
 20
-131.2349982019122
 30
0.0
 40
2.04000000000002
  0
CIRCLE
  5
65A
  8
WHITE
 10
-268.6762300647389
 20
-0.2939287883414713
 30
0.0
 40
2.039999999999981
  0
POLYLINE
  5
65B
  8
WHITE
 66
     1
 10
0.0
 20
0.0
 30
0.0
 70
     1
  0
VERTEX
  5
65C
  8
WHITE
 10
-273.1308822356575
 20
-93.26446310090391
 30
0.0
  0
VERTEX
  5
65D
  8
WHITE
 10
-276.3058822356575
 20
-93.26446310090391
 30
0.0
  0
VERTEX
  5
65E
  8
WHITE
 10
-276.3058822356575
 20
-38.26446310090391
 30
0.0
  0
VERTEX
  5
65F
  8
WHITE
 10
-273.1308822356575
 20
-38.26446310090391
 30
0.0
  0
SEQEND
  5
660
  8
WHITE
  0
POLYLINE
  5
661
  8
WHITE
 66
     1
 10
0.0
 20
0.0
 30
0.0
 70
     1
  0
VERTEX
  5
662
  8
WHITE
 10
-245.4465774082113
 20
-98.26446310090391
 30
0.0
  0
VERTEX
  5
663
  8
WHITE
 10
-245.4465774082113
 20
-93.2644631009039
 30
0.0
  0
VERTEX
  5
664
  8
WHITE
 10
-242.2715774082112
 20
-93.26446310090391
 30
0.0
  0
VERTEX
  5
665
  8
WHITE
 10
-242.2715774082114
 20
-67.35196454254064
 30
0.0
  0
VERTEX
  5
666
  8
WHITE
 10
-247.9182668298183
 20
-67.35196454254064
 30
0.0
  0
VERTEX
  5
667
  8
WHITE
 10
-247.9182668298183
 20
-69.85196454254064
 30
0.0
  0
VERTEX
  5
668
  8
WHITE
 10
-251.1682668298183
 20
-69.85196454254064
 30
0.0
  0
VERTEX
  5
669
  8
WHITE
 10
-251.1682668298183
 20
-67.35196454254064
 30
0.0
  0
VERTEX
  5
66A
  8
WHITE
 10
-252.1682668298183
 20
-67.35196454254059
 30
0.0
  0
VERTEX
  5
66B
  8
WHITE
 10
-252.1682668298183
 20
-64.17696454254063
 30
0.0
  0
VERTEX
  5
66C
  8
WHITE
 10
-251.1682668298183
 20
-64.17696454254074
 30
0.0
  0
VERTEX
  5
66D
  8
WHITE
 10
-251.1682668298183
 20
-61.67696454254069
 30
0.0
  0
VERTEX
  5
66E
  8
WHITE
 10
-247.9182668298183
 20
-61.67696454254069
 30
0.0
  0
VERTEX
  5
66F
  8
WHITE
 10
-247.9182668298183
 20
-64.17696454254074
 30
0.0
  0
VERTEX
  5
670
  8
WHITE
 10
-242.2715774082114
 20
-64.17696454254069
 30
0.0
  0
VERTEX
  5
671
  8
WHITE
 10
-242.2715774082112
 20
-38.26446310090391
 30
0.0
  0
VERTEX
  5
672
  8
WHITE
 10
-245.4465774082113
 20
-38.26446310090391
 30
0.0
  0
VERTEX
  5
673
  8
WHITE
 10
-245.4465774082113
 20
-33.26446310090391
 30
0.0
  0
VERTEX
  5
674
  8
WHITE
 10
-227.5356208051938
 20
-15.26446310090391
 30
0.0
  0
VERTEX
  5
675
  8
WHITE
 10
-227.5356208051938
 20
9.676605822432961
 30
0.0
 42
0.4142135623730937
  0
VERTEX
  5
676
  8
WHITE
 10
-232.5356208051938
 20
14.67660582243293
 30
0.0
  0
VERTEX
  5
677
  8
WHITE
 10
-284.2168388386751
 20
14.6766058224329
 30
0.0
 42
0.4142135623730864
  0
VERTEX
  5
678
  8
WHITE
 10
-289.2168388386751
 20
9.676605822432904
 30
0.0
  0
VERTEX
  5
679
  8
WHITE
 10
-289.216838838675
 20
-15.26446310090391
 30
0.0
  0
VERTEX
  5
67A
  8
WHITE
 10
-281.3058822356575
 20
-33.26446310090391
 30
0.0
  0
VERTEX
  5
67B
  8
WHITE
 10
-281.3058822356575
 20
-98.26446310090391
 30
0.0
  0
VERTEX
  5
67C
  8
WHITE
 10
-299.216838838675
 20
-116.2644631009039
 30
0.0
  0
VERTEX
  5
67D
  8
WHITE
 10
-299.2168388386751
 20
-141.2055320242407
 30
0.0
 42
0.4142135623730617
  0
VERTEX
  5
67E
  8
WHITE
 10
-294.2168388386751
 20
-146.2055320242407
 30
0.0
  0
VERTEX
  5
67F
  8
WHITE
 10
-242.5356208051938
 20
-146.2055320242407
 30
0.0
 42
0.4142135623731117
  0
VERTEX
  5
680
  8
WHITE
 10
-237.5356208051938
 20
-141.2055320242407
 30
0.0
  0
VERTEX
  5
681
  8
WHITE
 10
-237.5356208051938
 20
-116.2644631009039
 30
0.0
  0
SEQEND
  5
682
  8
WHITE
  0
POLYLINE
  5
683
  8
WHITE
 66
     1
 10
0.0
 20
0.0
 30
0.0
 70
     1
  0
VERTEX
  5
684
  8
WHITE
 10
-291.0417667900113
 20
-141.2055320242407
 30
0.0
  0
VERTEX
  5
685
  8
WHITE
 10
-294.2167667900114
 20
-141.2055320242407
 30
0.0
  0
VERTEX
  5
686
  8
WHITE
 10
-294.2167667900114
 20
-121.264463100904
 30
0.0
  0
VERTEX
  5
687
  8
WHITE
 10
-291.0417667900113
 20
-121.264463100904
 30
0.0
  0
SEQEND
  5
688
  8
WHITE
  0
POLYLINE
  5
689
  8
WHITE
 66
     1
 10
0.0
 20
0.0
 30
0.0
 70
     1
  0
VERTEX
  5
68A
  8
WHITE
 10
-242.5356929711624
 20
-141.2055320242407
 30
0.0
  0
VERTEX
  5
68B
  8
WHITE
 10
-245.7106929711623
 20
-141.2055320242407
 30
0.0
  0
VERTEX
  5
68C
  8
WHITE
 10
-245.7106929711623
 20
-121.264463100904
 30
0.0
  0
VERTEX
  5
68D
  8
WHITE
 10
-242.5356929711624
 20
-121.264463100904
 30
0.0
  0
SEQEND
  5
68E
  8
WHITE
  0
POLYLINE
  5
68F
  8
WHITE
 66
     1
 10
0.0
 20
0.0
 30
0.0
 70
     1
  0
VERTEX
  5
690
  8
WHITE
 10
-281.0417667900113
 20
-10.26446310090391
 30
0.0
  0
VERTEX
  5
691
  8
WHITE
 10
-284.2167667900114
 20
-10.26446310090391
 30
0.0
  0
VERTEX
  5
692
  8
WHITE
 10
-284.2167667900114
 20
9.676605822432848
 30
0.0
  0
VERTEX
  5
693
  8
WHITE
 10
-281.0417667900113
 20
9.676605822432848
 30
0.0
  0
SEQEND
  5
694
  8
WHITE
  0
POLYLINE
  5
695
  8
WHITE
 66
     1
 10
0.0
 20
0.0
 30
0.0
 70
     1
  0
VERTEX
  5
696
  8
WHITE
 10
-232.5356929711624
 20
-10.26446310090391
 30
0.0
  0
VERTEX
  5
697
  8
WHITE
 10
-235.7106929711623
 20
-10.26446310090391
 30
0.0
  0
VERTEX
  5
698
  8
WHITE
 10
-235.7106929711623
 20
9.676605822432848
 30
0.0
  0
VERTEX
  5
699
  8
WHITE
 10
-232.5356929711624
 20
9.676605822432848
 30
0.0
  0
SEQEND
  5
69A
  8
WHITE
  0
POLYLINE
  5
69B
  8
WHITE
 66
     1
 10
0.0
 20
0.0
 30
0.0
 70
     1
  0
VERTEX
  5
69C
  8
WHITE
 10
-296.9484799105783
 20
122.4346941341223
 30
0.0
  0
VERTEX
  5
69D
  8
WHITE
 10
-276.9484799105782
 20
43.69626643033244
 30
0.0
  0
VERTEX
  5
69E
  8
WHITE
 10
-276.9484799105782
 20
38.69626643033244
 30
0.0
  0
VERTEX
  5
69F
  8
WHITE
 10
-280.1234799105781
 20
38.69626643033245
 30
0.0
  0
VERTEX
  5
6A0
  8
WHITE
 10
-280.123479910578
 20
32.28385263801603
 30
0.0
  0
VERTEX
  5
6A1
  8
WHITE
 10
-274.476790488971
 20
32.28385263801597
 30
0.0
  0
VERTEX
  5
6A2
  8
WHITE
 10
-274.476790488971
 20
34.78385263801603
 30
0.0
  0
VERTEX
  5
6A3
  8
WHITE
 10
-271.226790488971
 20
34.78385263801603
 30
0.0
  0
VERTEX
  5
6A4
  8
WHITE
 10
-271.226790488971
 20
32.28385263801597
 30
0.0
  0
VERTEX
  5
6A5
  8
WHITE
 10
-270.226790488971
 20
32.28385263801609
 30
0.0
  0
VERTEX
  5
6A6
  8
WHITE
 10
-270.226790488971
 20
29.10885263801613
 30
0.0
  0
VERTEX
  5
6A7
  8
WHITE
 10
-271.226790488971
 20
29.10885263801607
 30
0.0
  0
VERTEX
  5
6A8
  8
WHITE
 10
-271.226790488971
 20
26.60885263801607
 30
0.0
  0
VERTEX
  5
6A9
  8
WHITE
 10
-274.476790488971
 20
26.60885263801607
 30
0.0
  0
VERTEX
  5
6AA
  8
WHITE
 10
-274.476790488971
 20
29.10885263801607
 30
0.0
  0
VERTEX
  5
6AB
  8
WHITE
 10
-280.123479910578
 20
29.1088526380161
 30
0.0
  0
VERTEX
  5
6AC
  8
WHITE
 10
-280.1234799105781
 20
22.69644065400242
 30
0.0
  0
VERTEX
  5
6AD
  8
WHITE
 10
-276.9484799105782
 20
22.69644065400242
 30
0.0
  0
VERTEX
  5
6AE
  8
WHITE
 10
-276.9484799105782
 20
17.69644065400242
 30
0.0
  0
VERTEX
  5
6AF
  8
WHITE
 10
-224.5495807566926
 20
17.69644065400242
 30
0.0
  0
VERTEX
  5
6B0
  8
WHITE
 10
-224.5495807566926
 20
22.69644065400242
 30
0.0
  0
VERTEX
  5
6B1
  8
WHITE
 10
-221.3745807566926
 20
22.69644065400247
 30
0.0
  0
VERTEX
  5
6B2
  8
WHITE
 10
-221.3745807566923
 20
29.10885263801607
 30
0.0
  0
VERTEX
  5
6B3
  8
WHITE
 10
-227.0212701782989
 20
29.10885263801607
 30
0.0
  0
VERTEX
  5
6B4
  8
WHITE
 10
-227.0212701782989
 20
26.60885263801607
 30
0.0
  0
VERTEX
  5
6B5
  8
WHITE
 10
-230.2712701782989
 20
26.60885263801607
 30
0.0
  0
VERTEX
  5
6B6
  8
WHITE
 10
-230.2712701782989
 20
29.10885263801607
 30
0.0
  0
VERTEX
  5
6B7
  8
WHITE
 10
-231.2712701782989
 20
29.10885263801613
 30
0.0
  0
VERTEX
  5
6B8
  8
WHITE
 10
-231.2712701782989
 20
32.28385263801609
 30
0.0
  0
VERTEX
  5
6B9
  8
WHITE
 10
-230.2712701782989
 20
32.28385263801597
 30
0.0
  0
VERTEX
  5
6BA
  8
WHITE
 10
-230.2712701782989
 20
34.78385263801603
 30
0.0
  0
VERTEX
  5
6BB
  8
WHITE
 10
-227.0212701782989
 20
34.78385263801603
 30
0.0
  0
VERTEX
  5
6BC
  8
WHITE
 10
-227.0212701782989
 20
32.28385263801597
 30
0.0
  0
VERTEX
  5
6BD
  8
WHITE
 10
-221.3745807566923
 20
32.28385263801606
 30
0.0
  0
VERTEX
  5
6BE
  8
WHITE
 10
-221.3745807566926
 20
38.69626643033244
 30
0.0
  0
VERTEX
  5
6BF
  8
WHITE
 10
-224.5495807566926
 20
38.69626643033244
 30
0.0
  0
VERTEX
  5
6C0
  8
WHITE
 10
-224.5495807566926
 20
43.69626643033244
 30
0.0
  0
VERTEX
  5
6C1
  8
WHITE
 10
-244.5495807566927
 20
122.4346941341223
 30
0.0
  0
VERTEX
  5
6C2
  8
WHITE
 10
-244.5495807566928
 20
127.4346941341224
 30
0.0
  0
VERTEX
  5
6C3
  8
WHITE
 10
-241.3745807566928
 20
127.4346941341224
 30
0.0
  0
VERTEX
  5
6C4
  8
WHITE
 10
-241.3745807566928
 20
133.847120720664
 30
0.0
  0
VERTEX
  5
6C5
  8
WHITE
 10
-247.0212701782999
 20
133.847120720664
 30
0.0
  0
VERTEX
  5
6C6
  8
WHITE
 10
-247.0212701782999
 20
131.347120720664
 30
0.0
  0
VERTEX
  5
6C7
  8
WHITE
 10
-250.2712701782999
 20
131.347120720664
 30
0.0
  0
VERTEX
  5
6C8
  8
WHITE
 10
-250.2712701782999
 20
133.847120720664
 30
0.0
  0
VERTEX
  5
6C9
  8
WHITE
 10
-251.2712701782999
 20
133.847120720664
 30
0.0
  0
VERTEX
  5
6CA
  8
WHITE
 10
-251.2712701782999
 20
137.022120720664
 30
0.0
  0
VERTEX
  5
6CB
  8
WHITE
 10
-250.2712701782999
 20
137.0221207206639
 30
0.0
  0
VERTEX
  5
6CC
  8
WHITE
 10
-250.2712701782999
 20
139.5221207206639
 30
0.0
  0
VERTEX
  5
6CD
  8
WHITE
 10
-247.0212701782999
 20
139.5221207206639
 30
0.0
  0
VERTEX
  5
6CE
  8
WHITE
 10
-247.0212701782999
 20
137.0221207206639
 30
0.0
  0
VERTEX
  5
6CF
  8
WHITE
 10
-241.3745807566928
 20
137.0221207206639
 30
0.0
  0
VERTEX
  5
6D0
  8
WHITE
 10
-241.3745807566928
 20
143.4345199104524
 30
0.0
  0
VERTEX
  5
6D1
  8
WHITE
 10
-244.5495807566928
 20
143.4345199104524
 30
0.0
  0
VERTEX
  5
6D2
  8
WHITE
 10
-244.5495807566928
 20
148.4345199104524
 30
0.0
  0
VERTEX
  5
6D3
  8
WHITE
 10
-296.9484799105783
 20
148.4345199104525
 30
0.0
  0
VERTEX
  5
6D4
  8
WHITE
 10
-296.9484799105783
 20
143.4345199104525
 30
0.0
  0
VERTEX
  5
6D5
  8
WHITE
 10
-300.1234799105783
 20
143.4345199104524
 30
0.0
  0
VERTEX
  5
6D6
  8
WHITE
 10
-300.1234799105783
 20
137.022120720664
 30
0.0
  0
VERTEX
  5
6D7
  8
WHITE
 10
-294.4767904889713
 20
137.0221207206639
 30
0.0
  0
VERTEX
  5
6D8
  8
WHITE
 10
-294.4767904889713
 20
139.5221207206639
 30
0.0
  0
VERTEX
  5
6D9
  8
WHITE
 10
-291.2267904889713
 20
139.5221207206639
 30
0.0
  0
VERTEX
  5
6DA
  8
WHITE
 10
-291.2267904889713
 20
137.0221207206639
 30
0.0
  0
VERTEX
  5
6DB
  8
WHITE
 10
-290.2267904889713
 20
137.022120720664
 30
0.0
  0
VERTEX
  5
6DC
  8
WHITE
 10
-290.2267904889713
 20
133.847120720664
 30
0.0
  0
VERTEX
  5
6DD
  8
WHITE
 10
-291.2267904889713
 20
133.847120720664
 30
0.0
  0
VERTEX
  5
6DE
  8
WHITE
 10
-291.2267904889713
 20
131.347120720664
 30
0.0
  0
VERTEX
  5
6DF
  8
WHITE
 10
-294.4767904889713
 20
131.347120720664
 30
0.0
  0
VERTEX
  5
6E0
  8
WHITE
 10
-294.4767904889713
 20
133.847120720664
 30
0.0
  0
VERTEX
  5
6E1
  8
WHITE
 10
-300.1234799105783
 20
133.847120720664
 30
0.0
  0
VERTEX
  5
6E2
  8
WHITE
 10
-300.1234799105783
 20
127.4346941341224
 30
0.0
  0
VERTEX
  5
6E3
  8
WHITE
 10
-296.9484799105783
 20
127.4346941341224
 30
0.0
  0
SEQEND
  5
6E4
  8
WHITE
  0
POLYLINE
  5
6E5
  8
WHITE
 66
     1
 10
0.0
 20
0.0
 30
0.0
 70
     1
  0
VERTEX
  5
6E6
  8
WHITE
 10
-272.2776406301374
 20
58.51381119850946
 30
0.0
  0
VERTEX
  5
6E7
  8
WHITE
 10
-275.3549214858041
 20
57.73216707530035
 30
0.0
  0
VERTEX
  5
6E8
  8
WHITE
 10
-288.8498152870329
 20
110.860665212382
 30
0.0
  0
VERTEX
  5
6E9
  8
WHITE
 10
-285.7725344313662
 20
111.6423093355911
 30
0.0
  0
SEQEND
  5
6EA
  8
WHITE
  0
POLYLINE
  5
6EB
  8
WHITE
 66
     1
 10
0.0
 20
0.0
 30
0.0
 70
     1
  0
VERTEX
  5
6EC
  8
WHITE
 10
-232.6482454993727
 20
55.27029582109837
 30
0.0
  0
VERTEX
  5
6ED
  8
WHITE
 10
-235.7255263550394
 20
54.48865169788927
 30
0.0
  0
VERTEX
  5
6EE
  8
WHITE
 10
-249.2204201562682
 20
107.6171498349709
 30
0.0
  0
VERTEX
  5
6EF
  8
WHITE
 10
-246.1431393006015
 20
108.39879395818
 30
0.0
  0
SEQEND
  5
6F0
  8
WHITE
  0
POLYLINE
  5
6F1
  8
WHITE
 66
     1
 10
0.0
 20
0.0
 30
0.0
 70
     1
  0
VERTEX
  5
6F2
  8
WHITE
 10
-277.4733755460297
 20
110.7021497845897
 30
0.0
  0
VERTEX
  5
6F3
  8
WHITE
 10
-277.4733755460298
 20
113.5821497845896
 30
0.0
 42
-0.4142134636168995
  0
VERTEX
  5
6F4
  8
WHITE
 10
-275.4733755460297
 20
115.5821497845896
 30
0.0
  0
VERTEX
  5
6F5
  8
WHITE
 10
-260.7948118003383
 20
115.5821497845895
 30
0.0
 42
-0.4142135623731224
  0
VERTEX
  5
6F6
  8
WHITE
 10
-258.7948118003383
 20
113.5821497845896
 30
0.0
  0
VERTEX
  5
6F7
  8
WHITE
 10
-258.7948118003383
 20
110.7021497845897
 30
0.0
 42
-0.4142134636169579
  0
VERTEX
  5
6F8
  8
WHITE
 10
-260.7948118003382
 20
108.7021497845897
 30
0.0
  0
VERTEX
  5
6F9
  8
WHITE
 10
-275.4733755460296
 20
108.7021497845897
 30
0.0
 42
-0.4142133648607182
  0
SEQEND
  5
6FA
  8
WHITE
  0
POLYLINE
  5
6FB
  8
WHITE
 66
     1
 10
0.0
 20
0.0
 30
0.0
 70
     1
  0
VERTEX
  5
6FC
  8
WHITE
 10
-262.7021480208181
 20
52.54881077986504
 30
0.0
  0
VERTEX
  5
6FD
  8
WHITE
 10
-262.702148020818
 20
55.42881077986486
 30
0.0
 42
-0.4142134636168632
  0
VERTEX
  5
6FE
  8
WHITE
 10
-260.702148020818
 20
57.42881077986492
 30
0.0
  0
VERTEX
  5
6FF
  8
WHITE
 10
-246.0235842751267
 20
57.42881077986485
 30
0.0
 42
-0.4142135623731054
  0
VERTEX
  5
700
  8
WHITE
 10
-244.0235842751267
 20
55.42881077986489
 30
0.0
  0
VERTEX
  5
701
  8
WHITE
 10
-244.0235842751267
 20
52.54881077986504
 30
0.0
 42
-0.4142134636168895
  0
VERTEX
  5
702
  8
WHITE
 10
-246.0235842751267
 20
50.54881077986499
 30
0.0
  0
VERTEX
  5
703
  8
WHITE
 10
-260.7021480208181
 20
50.54881077986498
 30
0.0
 42
-0.4142134636168721
  0
SEQEND
  5
704
  8
WHITE
  0
POLYLINE
  5
705
  8
WHITE
 66
     1
 10
0.0
 20
0.0
 30
0.0
 70
     1
  0
VERTEX
  5
706
  8
WHITE
 10
-270.0877617834238
 20
81.6254802822274
 30
0.0
  0
VERTEX
  5
707
  8
WHITE
 10
-270.0877617834238
 20
84.50548028222725
 30
0.0
 42
-0.4142134636168818
  0
VERTEX
  5
708
  8
WHITE
 10
-268.0877617834239
 20
86.50548028222724
 30
0.0
  0
VERTEX
  5
709
  8
WHITE
 10
-253.4091980377325
 20
86.50548028222724
 30
0.0
 42
-0.4142133648607276
  0
VERTEX
  5
70A
  8
WHITE
 10
-251.4091980377326
 20
84.50548028222725
 30
0.0
  0
VERTEX
  5
70B
  8
WHITE
 10
-251.4091980377325
 20
81.6254802822274
 30
0.0
 42
-0.4142135623730813
  0
VERTEX
  5
70C
  8
WHITE
 10
-253.4091980377325
 20
79.6254802822274
 30
0.0
  0
VERTEX
  5
70D
  8
WHITE
 10
-268.0877617834238
 20
79.62548028222741
 30
0.0
 42
-0.4142133648607119
  0
SEQEND
  5
70E
  8
WHITE
  0
POLYLINE
  5
70F
  8
WHITE
 66
     1
 10
0.0
 20
0.0
 30
0.0
 70
     1
  0
VERTEX
  5
710
  8
WHITE
 10
-266.394954902121
 20
67.08714553104618
 30
0.0
  0
VERTEX
  5
711
  8
WHITE
 10
-266.394954902121
 20
69.96714553104606
 30
0.0
 42
-0.4142133648607346
  0
VERTEX
  5
712
  8
WHITE
 10
-264.394954902121
 20
71.96714553104606
 30
0.0
  0
VERTEX
  5
713
  8
WHITE
 10
-249.7163911564296
 20
71.96714553104606
 30
0.0
 42
-0.4142135623730938
  0
VERTEX
  5
714
  8
WHITE
 10
-247.7163911564296
 20
69.96714553104606
 30
0.0
  0
VERTEX
  5
715
  8
WHITE
 10
-247.7163911564296
 20
67.08714553104618
 30
0.0
 42
-0.4142134636169036
  0
VERTEX
  5
716
  8
WHITE
 10
-249.7163911564296
 20
65.08714553104615
 30
0.0
  0
VERTEX
  5
717
  8
WHITE
 10
-264.394954902121
 20
65.08714553104613
 30
0.0
 42
-0.4142134636168445
  0
SEQEND
  5
718
  8
WHITE
  0
POLYLINE
  5
719
  8
WHITE
 66
     1
 10
0.0
 20
0.0
 30
0.0
 70
     1
  0
VERTEX
  5
71A
  8
WHITE
 10
-273.7805686647267
 20
96.16381503340857
 30
0.0
  0
VERTEX
  5
71B
  8
WHITE
 10
-273.7805686647267
 20
99.04381503340845
 30
0.0
 42
-0.4142135623730735
  0
VERTEX
  5
71C
  8
WHITE
 10
-271.7805686647267
 20
101.0438150334083
 30
0.0
  0
VERTEX
  5
71D
  8
WHITE
 10
-257.1020049190354
 20
101.0438150334084
 30
0.0
 42
-0.414213463616913
  0
VERTEX
  5
71E
  8
WHITE
 10
-255.1020049190354
 20
99.04381503340842
 30
0.0
  0
VERTEX
  5
71F
  8
WHITE
 10
-255.1020049190354
 20
96.16381503340851
 30
0.0
 42
-0.4142134636169174
  0
VERTEX
  5
720
  8
WHITE
 10
-257.1020049190354
 20
94.1638150334085
 30
0.0
  0
VERTEX
  5
721
  8
WHITE
 10
-271.7805686647267
 20
94.16381503340855
 30
0.0
 42
-0.4142132661045139
  0
SEQEND
  5
722
  8
WHITE
  0
POLYLINE
  5
723
  8
WHITE
 66
     1
 10
0.0
 20
0.0
 30
0.0
 70
     1
  0
VERTEX
  5
724
  8
WHITE
 10
-232.2728009801187
 20
122.4346941341223
 30
0.0
  0
VERTEX
  5
725
  8
WHITE
 10
-212.2728009801185
 20
43.69626643033244
 30
0.0
  0
VERTEX
  5
726
  8
WHITE
 10
-212.2728009801185
 20
38.69626643033244
 30
0.0
  0
VERTEX
  5
727
  8
WHITE
 10
-215.4478009801186
 20
38.69626643033245
 30
0.0
  0
VERTEX
  5
728
  8
WHITE
 10
-215.4478009801184
 20
32.28385263801603
 30
0.0
  0
VERTEX
  5
729
  8
WHITE
 10
-209.8011115585114
 20
32.28385263801597
 30
0.0
  0
VERTEX
  5
72A
  8
WHITE
 10
-209.8011115585114
 20
34.78385263801603
 30
0.0
  0
VERTEX
  5
72B
  8
WHITE
 10
-206.5511115585114
 20
34.78385263801603
 30
0.0
  0
VERTEX
  5
72C
  8
WHITE
 10
-206.5511115585114
 20
32.28385263801597
 30
0.0
  0
VERTEX
  5
72D
  8
WHITE
 10
-205.5511115585114
 20
32.28385263801609
 30
0.0
  0
VERTEX
  5
72E
  8
WHITE
 10
-205.5511115585114
 20
29.10885263801613
 30
0.0
  0
VERTEX
  5
72F
  8
WHITE
 10
-206.5511115585114
 20
29.10885263801607
 30
0.0
  0
VERTEX
  5
730
  8
WHITE
 10
-206.5511115585114
 20
26.60885263801607
 30
0.0
  0
VERTEX
  5
731
  8
WHITE
 10
-209.8011115585114
 20
26.60885263801607
 30
0.0
  0
VERTEX
  5
732
  8
WHITE
 10
-209.8011115585114
 20
29.10885263801607
 30
0.0
  0
VERTEX
  5
733
  8
WHITE
 10
-215.4478009801184
 20
29.1088526380161
 30
0.0
  0
VERTEX
  5
734
  8
WHITE
 10
-215.4478009801186
 20
22.69644065400242
 30
0.0
  0
VERTEX
  5
735
  8
WHITE
 10
-212.2728009801185
 20
22.69644065400242
 30
0.0
  0
VERTEX
  5
736
  8
WHITE
 10
-212.2728009801185
 20
17.69644065400242
 30
0.0
  0
VERTEX
  5
737
  8
WHITE
 10
-159.873901826233
 20
17.69644065400242
 30
0.0
  0
VERTEX
  5
738
  8
WHITE
 10
-159.873901826233
 20
22.69644065400242
 30
0.0
  0
VERTEX
  5
739
  8
WHITE
 10
-156.698901826233
 20
22.69644065400247
 30
0.0
  0
VERTEX
  5
73A
  8
WHITE
 10
-156.6989018262327
 20
29.10885263801607
 30
0.0
  0
VERTEX
  5
73B
  8
WHITE
 10
-162.3455912478393
 20
29.10885263801607
 30
0.0
  0
VERTEX
  5
73C
  8
WHITE
 10
-162.3455912478393
 20
26.60885263801607
 30
0.0
  0
VERTEX
  5
73D
  8
WHITE
 10
-165.5955912478393
 20
26.60885263801607
 30
0.0
  0
VERTEX
  5
73E
  8
WHITE
 10
-165.5955912478393
 20
29.10885263801607
 30
0.0
  0
VERTEX
  5
73F
  8
WHITE
 10
-166.5955912478393
 20
29.10885263801613
 30
0.0
  0
VERTEX
  5
740
  8
WHITE
 10
-166.5955912478393
 20
32.28385263801609
 30
0.0
  0
VERTEX
  5
741
  8
WHITE
 10
-165.5955912478393
 20
32.28385263801597
 30
0.0
  0
VERTEX
  5
742
  8
WHITE
 10
-165.5955912478393
 20
34.78385263801603
 30
0.0
  0
VERTEX
  5
743
  8
WHITE
 10
-162.3455912478393
 20
34.78385263801603
 30
0.0
  0
VERTEX
  5
744
  8
WHITE
 10
-162.3455912478393
 20
32.28385263801597
 30
0.0
  0
VERTEX
  5
745
  8
WHITE
 10
-156.6989018262327
 20
32.28385263801606
 30
0.0
  0
VERTEX
  5
746
  8
WHITE
 10
-156.698901826233
 20
38.69626643033244
 30
0.0
  0
VERTEX
  5
747
  8
WHITE
 10
-159.873901826233
 20
38.69626643033244
 30
0.0
  0
VERTEX
  5
748
  8
WHITE
 10
-159.873901826233
 20
43.69626643033244
 30
0.0
  0
VERTEX
  5
749
  8
WHITE
 10
-179.8739018262332
 20
122.4346941341223
 30
0.0
  0
VERTEX
  5
74A
  8
WHITE
 10
-179.8739018262332
 20
127.4346941341224
 30
0.0
  0
VERTEX
  5
74B
  8
WHITE
 10
-176.6989018262332
 20
127.4346941341224
 30
0.0
  0
VERTEX
  5
74C
  8
WHITE
 10
-176.6989018262333
 20
133.847120720664
 30
0.0
  0
VERTEX
  5
74D
  8
WHITE
 10
-182.3455912478404
 20
133.847120720664
 30
0.0
  0
VERTEX
  5
74E
  8
WHITE
 10
-182.3455912478404
 20
131.347120720664
 30
0.0
  0
VERTEX
  5
74F
  8
WHITE
 10
-185.5955912478404
 20
131.347120720664
 30
0.0
  0
VERTEX
  5
750
  8
WHITE
 10
-185.5955912478404
 20
133.847120720664
 30
0.0
  0
VERTEX
  5
751
  8
WHITE
 10
-186.5955912478404
 20
133.847120720664
 30
0.0
  0
VERTEX
  5
752
  8
WHITE
 10
-186.5955912478404
 20
137.022120720664
 30
0.0
  0
VERTEX
  5
753
  8
WHITE
 10
-185.5955912478404
 20
137.0221207206639
 30
0.0
  0
VERTEX
  5
754
  8
WHITE
 10
-185.5955912478404
 20
139.5221207206639
 30
0.0
  0
VERTEX
  5
755
  8
WHITE
 10
-182.3455912478404
 20
139.5221207206639
 30
0.0
  0
VERTEX
  5
756
  8
WHITE
 10
-182.3455912478404
 20
137.0221207206639
 30
0.0
  0
VERTEX
  5
757
  8
WHITE
 10
-176.6989018262333
 20
137.0221207206639
 30
0.0
  0
VERTEX
  5
758
  8
WHITE
 10
-176.6989018262332
 20
143.4345199104524
 30
0.0
  0
VERTEX
  5
759
  8
WHITE
 10
-179.8739018262332
 20
143.4345199104524
 30
0.0
  0
VERTEX
  5
75A
  8
WHITE
 10
-179.8739018262332
 20
148.4345199104524
 30
0.0
  0
VERTEX
  5
75B
  8
WHITE
 10
-232.2728009801187
 20
148.4345199104525
 30
0.0
  0
VERTEX
  5
75C
  8
WHITE
 10
-232.2728009801187
 20
143.4345199104525
 30
0.0
  0
VERTEX
  5
75D
  8
WHITE
 10
-235.4478009801187
 20
143.4345199104524
 30
0.0
  0
VERTEX
  5
75E
  8
WHITE
 10
-235.4478009801187
 20
137.022120720664
 30
0.0
  0
VERTEX
  5
75F
  8
WHITE
 10
-229.8011115585117
 20
137.0221207206639
 30
0.0
  0
VERTEX
  5
760
  8
WHITE
 10
-229.8011115585117
 20
139.5221207206639
 30
0.0
  0
VERTEX
  5
761
  8
WHITE
 10
-226.5511115585117
 20
139.5221207206639
 30
0.0
  0
VERTEX
  5
762
  8
WHITE
 10
-226.5511115585117
 20
137.0221207206639
 30
0.0
  0
VERTEX
  5
763
  8
WHITE
 10
-225.5511115585117
 20
137.022120720664
 30
0.0
  0
VERTEX
  5
764
  8
WHITE
 10
-225.5511115585117
 20
133.847120720664
 30
0.0
  0
VERTEX
  5
765
  8
WHITE
 10
-226.5511115585117
 20
133.847120720664
 30
0.0
  0
VERTEX
  5
766
  8
WHITE
 10
-226.5511115585117
 20
131.347120720664
 30
0.0
  0
VERTEX
  5
767
  8
WHITE
 10
-229.8011115585117
 20
131.347120720664
 30
0.0
  0
VERTEX
  5
768
  8
WHITE
 10
-229.8011115585117
 20
133.847120720664
 30
0.0
  0
VERTEX
  5
769
  8
WHITE
 10
-235.4478009801187
 20
133.847120720664
 30
0.0
  0
VERTEX
  5
76A
  8
WHITE
 10
-235.4478009801187
 20
127.4346941341224
 30
0.0
  0
VERTEX
  5
76B
  8
WHITE
 10
-232.2728009801187
 20
127.4346941341224
 30
0.0
  0
SEQEND
  5
76C
  8
WHITE
  0
POLYLINE
  5
76D
  8
WHITE
 66
     1
 10
0.0
 20
0.0
 30
0.0
 70
     1
  0
VERTEX
  5
76E
  8
WHITE
 10
-207.6019616996778
 20
58.51381119850946
 30
0.0
  0
VERTEX
  5
76F
  8
WHITE
 10
-210.6792425553445
 20
57.73216707530035
 30
0.0
  0
VERTEX
  5
770
  8
WHITE
 10
-224.1741363565734
 20
110.860665212382
 30
0.0
  0
VERTEX
  5
771
  8
WHITE
 10
-221.0968555009067
 20
111.6423093355911
 30
0.0
  0
SEQEND
  5
772
  8
WHITE
  0
POLYLINE
  5
773
  8
WHITE
 66
     1
 10
0.0
 20
0.0
 30
0.0
 70
     1
  0
VERTEX
  5
774
  8
WHITE
 10
-167.9725665689132
 20
55.27029582109837
 30
0.0
  0
VERTEX
  5
775
  8
WHITE
 10
-171.0498474245798
 20
54.48865169788927
 30
0.0
  0
VERTEX
  5
776
  8
WHITE
 10
-184.5447412258086
 20
107.6171498349709
 30
0.0
  0
VERTEX
  5
777
  8
WHITE
 10
-181.4674603701419
 20
108.39879395818
 30
0.0
  0
SEQEND
  5
778
  8
WHITE
  0
POLYLINE
  5
779
  8
WHITE
 66
     1
 10
0.0
 20
0.0
 30
0.0
 70
     1
  0
VERTEX
  5
77A
  8
WHITE
 10
-212.7976966155701
 20
110.7021497845897
 30
0.0
  0
VERTEX
  5
77B
  8
WHITE
 10
-212.7976966155701
 20
113.5821497845896
 30
0.0
 42
-0.4142132661045451
  0
VERTEX
  5
77C
  8
WHITE
 10
-210.7976966155701
 20
115.5821497845896
 30
0.0
  0
VERTEX
  5
77D
  8
WHITE
 10
-196.1191328698787
 20
115.5821497845896
 30
0.0
 42
-0.4142135623731094
  0
VERTEX
  5
77E
  8
WHITE
 10
-194.1191328698787
 20
113.5821497845896
 30
0.0
  0
VERTEX
  5
77F
  8
WHITE
 10
-194.1191328698787
 20
110.7021497845897
 30
0.0
 42
-0.4142133648607179
  0
VERTEX
  5
780
  8
WHITE
 10
-196.1191328698787
 20
108.7021497845897
 30
0.0
  0
VERTEX
  5
781
  8
WHITE
 10
-210.7976966155701
 20
108.7021497845897
 30
0.0
 42
-0.4142132661045149
  0
SEQEND
  5
782
  8
WHITE
  0
POLYLINE
  5
783
  8
WHITE
 66
     1
 10
0.0
 20
0.0
 30
0.0
 70
     1
  0
VERTEX
  5
784
  8
WHITE
 10
-198.0264690903585
 20
52.54881077986504
 30
0.0
  0
VERTEX
  5
785
  8
WHITE
 10
-198.0264690903585
 20
55.42881077986486
 30
0.0
 42
-0.4142135623730979
  0
VERTEX
  5
786
  8
WHITE
 10
-196.0264690903584
 20
57.42881077986491
 30
0.0
  0
VERTEX
  5
787
  8
WHITE
 10
-181.3479053446671
 20
57.42881077986488
 30
0.0
 42
-0.4142135623730919
  0
VERTEX
  5
788
  8
WHITE
 10
-179.3479053446671
 20
55.42881077986489
 30
0.0
  0
VERTEX
  5
789
  8
WHITE
 10
-179.3479053446671
 20
52.54881077986504
 30
0.0
 42
-0.4142135623731058
  0
VERTEX
  5
78A
  8
WHITE
 10
-181.3479053446671
 20
50.54881077986498
 30
0.0
  0
VERTEX
  5
78B
  8
WHITE
 10
-196.0264690903584
 20
50.54881077986505
 30
0.0
 42
-0.4142134636168662
  0
SEQEND
  5
78C
  8
WHITE
  0
POLYLINE
  5
78D
  8
WHITE
 66
     1
 10
0.0
 20
0.0
 30
0.0
 70
     1
  0
VERTEX
  5
78E
  8
WHITE
 10
-205.4120828529643
 20
81.6254802822274
 30
0.0
  0
VERTEX
  5
78F
  8
WHITE
 10
-205.4120828529643
 20
84.50548028222725
 30
0.0
 42
-0.4142133648607482
  0
VERTEX
  5
790
  8
WHITE
 10
-203.4120828529643
 20
86.5054802822272
 30
0.0
  0
VERTEX
  5
791
  8
WHITE
 10
-188.7335191072729
 20
86.50548028222724
 30
0.0
 42
-0.414213364860657
  0
VERTEX
  5
792
  8
WHITE
 10
-186.7335191072729
 20
84.50548028222725
 30
0.0
  0
VERTEX
  5
793
  8
WHITE
 10
-186.7335191072729
 20
81.6254802822274
 30
0.0
 42
-0.4142135623731118
  0
VERTEX
  5
794
  8
WHITE
 10
-188.7335191072729
 20
79.62548028222741
 30
0.0
  0
VERTEX
  5
795
  8
WHITE
 10
-203.4120828529643
 20
79.62548028222739
 30
0.0
 42
-0.4142133648606666
  0
SEQEND
  5
796
  8
WHITE
  0
POLYLINE
  5
797
  8
WHITE
 66
     1
 10
0.0
 20
0.0
 30
0.0
 70
     1
  0
VERTEX
  5
798
  8
WHITE
 10
-201.7192759716613
 20
67.0871455310462
 30
0.0
  0
VERTEX
  5
799
  8
WHITE
 10
-201.7192759716613
 20
69.96714553104606
 30
0.0
 42
-0.4142134636168793
  0
VERTEX
  5
79A
  8
WHITE
 10
-199.7192759716613
 20
71.96714553104606
 30
0.0
  0
VERTEX
  5
79B
  8
WHITE
 10
-185.04071222597
 20
71.96714553104609
 30
0.0
 42
-0.4142135623730637
  0
VERTEX
  5
79C
  8
WHITE
 10
-183.04071222597
 20
69.96714553104606
 30
0.0
  0
VERTEX
  5
79D
  8
WHITE
 10
-183.04071222597
 20
67.08714553104618
 30
0.0
 42
-0.4142134636168835
  0
VERTEX
  5
79E
  8
WHITE
 10
-185.04071222597
 20
65.08714553104615
 30
0.0
  0
VERTEX
  5
79F
  8
WHITE
 10
-199.7192759716613
 20
65.08714553104618
 30
0.0
 42
-0.4142135623731078
  0
SEQEND
  5
7A0
  8
WHITE
  0
POLYLINE
  5
7A1
  8
WHITE
 66
     1
 10
0.0
 20
0.0
 30
0.0
 70
     1
  0
VERTEX
  5
7A2
  8
WHITE
 10
-209.1048897342672
 20
96.16381503340858
 30
0.0
  0
VERTEX
  5
7A3
  8
WHITE
 10
-209.1048897342672
 20
99.04381503340845
 30
0.0
 42
-0.4142135623731211
  0
VERTEX
  5
7A4
  8
WHITE
 10
-207.1048897342672
 20
101.0438150334084
 30
0.0
  0
VERTEX
  5
7A5
  8
WHITE
 10
-192.4263259885758
 20
101.0438150334084
 30
0.0
 42
-0.4142135623730938
  0
VERTEX
  5
7A6
  8
WHITE
 10
-190.4263259885759
 20
99.04381503340842
 30
0.0
  0
VERTEX
  5
7A7
  8
WHITE
 10
-190.4263259885758
 20
96.16381503340854
 30
0.0
 42
-0.4142135623730975
  0
VERTEX
  5
7A8
  8
WHITE
 10
-192.4263259885758
 20
94.16381503340851
 30
0.0
  0
VERTEX
  5
7A9
  8
WHITE
 10
-207.1048897342672
 20
94.16381503340853
 30
0.0
 42
-0.4142133648606737
  0
SEQEND
  5
7AA
  8
WHITE
  0
POLYLINE
  5
7AB
  8
WHITE
 66
     1
 10
0.0
 20
0.0
 30
0.0
 70
     1
  0
VERTEX
  5
7AC
  8
WHITE
 10
-41.84809176985135
 20
2.727675673749417
 30
0.0
  0
VERTEX
  5
7AD
  8
WHITE
 10
41.84809176985124
 20
2.727675673749412
 30
0.0
 42
0.4142135623730486
  0
VERTEX
  5
7AE
  8
WHITE
 10
44.84809176985124
 20
5.727675673749417
 30
0.0
  0
VERTEX
  5
7AF
  8
WHITE
 10
44.84809176985124
 20
68.68867567374937
 30
0.0
 42
0.4142135623730789
  0
VERTEX
  5
7B0
  8
WHITE
 10
41.84809176985124
 20
71.68867567374937
 30
0.0
  0
VERTEX
  5
7B1
  8
WHITE
 10
-41.84809176985135
 20
71.68867567374937
 30
0.0
 42
0.4142135623730805
  0
VERTEX
  5
7B2
  8
WHITE
 10
-44.84809176985134
 20
68.68867567374932
 30
0.0
  0
VERTEX
  5
7B3
  8
WHITE
 10
-44.84809176985135
 20
5.727675673749417
 30
0.0
 42
0.4142135623730995
  0
SEQEND
  5
7B4
  8
WHITE
  0
POLYLINE
  5
7B5
  8
WHITE
 66
     1
 10
0.0
 20
0.0
 30
0.0
 70
     1
  0
VERTEX
  5
7B6
  8
WHITE
 10
39.84809176985124
 20
63.51367588146067
 30
0.0
  0
VERTEX
  5
7B7
  8
WHITE
 10
-39.84809176985146
 20
63.51367588146067
 30
0.0
  0
VERTEX
  5
7B8
  8
WHITE
 10
-39.84809176985146
 20
66.68867588146063
 30
0.0
  0
VERTEX
  5
7B9
  8
WHITE
 10
39.84809176985124
 20
66.68867588146063
 30
0.0
  0
SEQEND
  5
7BA
  8
WHITE
  0
POLYLINE
  5
7BB
  8
WHITE
 66
     1
 10
0.0
 20
0.0
 30
0.0
 70
     1
  0
VERTEX
  5
7BC
  8
WHITE
 10
39.84809176985124
 20
7.728137862506827
 30
0.0
  0
VERTEX
  5
7BD
  8
WHITE
 10
-39.84809176985146
 20
7.728137862506827
 30
0.0
  0
VERTEX
  5
7BE
  8
WHITE
 10
-39.84809176985146
 20
10.9031378625069
 30
0.0
  0
VERTEX
  5
7BF
  8
WHITE
 10
39.84809176985124
 20
10.9031378625069
 30
0.0
  0
SEQEND
  5
7C0
  8
WHITE
  0
POLYLINE
  5
7C1
  8
WHITE
 66
     1
 10
0.0
 20
0.0
 30
0.0
 70
     1
  0
VERTEX
  5
7C2
  8
WHITE
 10
-10.19367727923787
 20
12.65807743890613
 30
0.0
  0
VERTEX
  5
7C3
  8
WHITE
 10
-10.19367727923787
 20
54.47927390859243
 30
0.0
  0
VERTEX
  5
7C4
  8
WHITE
 10
10.19366264516026
 20
54.47927390859243
 30
0.0
  0
VERTEX
  5
7C5
  8
WHITE
 10
10.19366264516026
 20
12.65807743890613
 30
0.0
  0
SEQEND
  5
7C6
  8
WHITE
  0
POLYLINE
  5
7C7
  8
WHITE
 66
     1
 10
0.0
 20
0.0
 30
0.0
 70
     1
  0
VERTEX
  5
7C8
  8
WHITE
 10
6.387492893015803
 20
56.23421502433106
 30
0.0
  0
VERTEX
  5
7C9
  8
WHITE
 10
3.212492893015849
 20
56.23421502433106
 30
0.0
  0
VERTEX
  5
7CA
  8
WHITE
 10
3.212492893015849
 20
59.40921502433102
 30
0.0
  0
VERTEX
  5
7CB
  8
WHITE
 10
6.387492893015803
 20
59.40921502433102
 30
0.0
  0
SEQEND
  5
7CC
  8
WHITE
  0
POLYLINE
  5
7CD
  8
WHITE
 66
     1
 10
0.0
 20
0.0
 30
0.0
 70
     1
  0
VERTEX
  5
7CE
  8
WHITE
 10
-3.212507106984333
 20
56.23421502433106
 30
0.0
  0
VERTEX
  5
7CF
  8
WHITE
 10
-6.387507106984287
 20
56.23421502433106
 30
0.0
  0
VERTEX
  5
7D0
  8
WHITE
 10
-6.387507106984287
 20
59.40921502433102
 30
0.0
  0
VERTEX
  5
7D1
  8
WHITE
 10
-3.212507106984333
 20
59.40921502433102
 30
0.0
  0
SEQEND
  5
7D2
  8
WHITE
  0
POLYLINE
  5
7D3
  8
WHITE
 66
     1
 10
0.0
 20
0.0
 30
0.0
 70
     1
  0
VERTEX
  5
7D4
  8
WHITE
 10
31.43999999999988
 20
21.4522373801282
 30
0.0
  0
VERTEX
  5
7D5
  8
WHITE
 10
28.56
 20
21.4522373801282
 30
0.0
 42
-0.4142134636168608
  0
VERTEX
  5
7D6
  8
WHITE
 10
26.55999999999989
 20
23.45223738012816
 30
0.0
  0
VERTEX
  5
7D7
  8
WHITE
 10
26.56
 20
50.96411396737037
 30
0.0
 42
-0.4142134636169347
  0
VERTEX
  5
7D8
  8
WHITE
 10
28.55999999999999
 20
52.96411396737039
 30
0.0
  0
VERTEX
  5
7D9
  8
WHITE
 10
31.43999999999988
 20
52.96411396737048
 30
0.0
 42
-0.4142135623730399
  0
VERTEX
  5
7DA
  8
WHITE
 10
33.43999999999988
 20
50.96411396737048
 30
0.0
  0
VERTEX
  5
7DB
  8
WHITE
 10
33.43999999999988
 20
23.45223738012825
 30
0.0
 42
-0.4142135623730882
  0
SEQEND
  5
7DC
  8
WHITE
  0
POLYLINE
  5
7DD
  8
WHITE
 66
     1
 10
0.0
 20
0.0
 30
0.0
 70
     1
  0
VERTEX
  5
7DE
  8
WHITE
 10
-28.56000000000012
 20
21.4522373801282
 30
0.0
  0
VERTEX
  5
7DF
  8
WHITE
 10
-31.44
 20
21.4522373801282
 30
0.0
 42
-0.4142133648607436
  0
VERTEX
  5
7E0
  8
WHITE
 10
-33.44000000000003
 20
23.45223738012815
 30
0.0
  0
VERTEX
  5
7E1
  8
WHITE
 10
-33.44
 20
50.96411396737037
 30
0.0
 42
-0.4142135623731128
  0
VERTEX
  5
7E2
  8
WHITE
 10
-31.44
 20
52.96411396737037
 30
0.0
  0
VERTEX
  5
7E3
  8
WHITE
 10
-28.56000000000012
 20
52.96411396737047
 30
0.0
 42
-0.4142134636168736
  0
VERTEX
  5
7E4
  8
WHITE
 10
-26.56000000000011
 20
50.96411396737049
 30
0.0
  0
VERTEX
  5
7E5
  8
WHITE
 10
-26.56000000000012
 20
23.45223738012825
 30
0.0
 42
-0.4142135623730701
  0
SEQEND
  5
7E6
  8
WHITE
  0
POLYLINE
  5
7E7
  8
WHITE
 66
     1
 10
0.0
 20
0.0
 30
0.0
 70
     1
  0
VERTEX
  5
7E8
  8
WHITE
 10
304.8
 20
-150.8125
 30
0.0
  0
VERTEX
  5
7E9
  8
WHITE
 10
-304.8000000000001
 20
-150.8125
 30
0.0
  0
VERTEX
  5
7EA
  8
WHITE
 10
-304.8000000000001
 20
153.9875
 30
0.0
  0
VERTEX
  5
7EB
  8
WHITE
 10
304.8
 20
153.9875
 30
0.0
  0
SEQEND
  5
7EC
  8
WHITE
  0
ENDSEC
  0
EOF
