  0
SECTION
  2
HEADER
  9
$ACADVER
  1
AC1009
  9
$DWGCODEPAGE
  3
ansi_1252
  9
$INSBASE
 10
0.0
 20
0.0
 30
0.0
  9
$EXTMIN
 10
413.2201948388346
 20
-150.8125
 30
0.0
  9
$EXTMAX
 10
718.0201948388346
 20
153.9875
 30
0.0
  9
$LIMMIN
 10
0.0
 20
0.0
  9
$LIMMAX
 10
12.0
 20
9.0
  9
$ORTHOMODE
 70
     0
  9
$REGENMODE
 70
     1
  9
$FILLMODE
 70
     1
  9
$QTEXTMODE
 70
     0
  9
$MIRRTEXT
 70
     1
  9
$DRAGMODE
 70
     2
  9
$LTSCALE
 40
1.0
  9
$OSMODE
 70
    37
  9
$ATTMODE
 70
     1
  9
$TEXTSIZE
 40
0.2
  9
$TRACEWID
 40
0.05
  9
$TEXTSTYLE
  7
STANDARD
  9
$CLAYER
  8
WHITE
  9
$CELTYPE
  6
BYLAYER
  9
$CECOLOR
 62
   256
  9
$DIMSCALE
 40
1.0
  9
$DIMASZ
 40
0.18
  9
$DIMEXO
 40
0.0625
  9
$DIMDLI
 40
0.38
  9
$DIMRND
 40
0.0
  9
$DIMDLE
 40
0.0
  9
$DIMEXE
 40
0.18
  9
$DIMTP
 40
0.0
  9
$DIMTM
 40
0.0
  9
$DIMTXT
 40
0.18
  9
$DIMCEN
 40
0.09
  9
$DIMTSZ
 40
0.0
  9
$DIMTOL
 70
     0
  9
$DIMLIM
 70
     0
  9
$DIMTIH
 70
     1
  9
$DIMTOH
 70
     1
  9
$DIMSE1
 70
     0
  9
$DIMSE2
 70
     0
  9
$DIMTAD
 70
     0
  9
$DIMZIN
 70
     0
  9
$DIMBLK
  1

  9
$DIMASO
 70
     1
  9
$DIMSHO
 70
     1
  9
$DIMPOST
  1

  9
$DIMAPOST
  1

  9
$DIMALT
 70
     0
  9
$DIMALTD
 70
     2
  9
$DIMALTF
 40
25.4
  9
$DIMLFAC
 40
1.0
  9
$DIMTOFL
 70
     0
  9
$DIMTVP
 40
0.0
  9
$DIMTIX
 70
     0
  9
$DIMSOXD
 70
     0
  9
$DIMSAH
 70
     0
  9
$DIMBLK1
  1

  9
$DIMBLK2
  1

  9
$DIMSTYLE
  2
STANDARD
  9
$DIMCLRD
 70
     0
  9
$DIMCLRE
 70
     0
  9
$DIMCLRT
 70
     0
  9
$DIMTFAC
 40
1.0
  9
$DIMGAP
 40
0.09
  9
$LUNITS
 70
     2
  9
$LUPREC
 70
     3
  9
$SKETCHINC
 40
0.1
  9
$FILLETRAD
 40
0.5
  9
$AUNITS
 70
     0
  9
$AUPREC
 70
     0
  9
$MENU
  1
.
  9
$ELEVATION
 40
0.0
  9
$PELEVATION
 40
0.0
  9
$THICKNESS
 40
0.0
  9
$LIMCHECK
 70
     0
  9
$CHAMFERA
 40
0.0
  9
$CHAMFERB
 40
0.0
  9
$SKPOLY
 70
     0
  9
$TDCREATE
 40
2457092.581070185
  9
$TDUPDATE
 40
2457092.581092037
  9
$TDINDWG
 40
0.0000000116
  9
$TDUSRTIMER
 40
0.0000000116
  9
$USRTIMER
 70
     1
  9
$ANGBASE
 50
0.0
  9
$ANGDIR
 70
     0
  9
$PDMODE
 70
     0
  9
$PDSIZE
 40
0.0
  9
$PLINEWID
 40
0.0
  9
$COORDS
 70
     1
  9
$SPLFRAME
 70
     0
  9
$SPLINETYPE
 70
     6
  9
$SPLINESEGS
 70
     8
  9
$ATTDIA
 70
     0
  9
$ATTREQ
 70
     1
  9
$HANDLING
 70
     1
  9
$HANDSEED
  5
1EC
  9
$SURFTAB1
 70
     6
  9
$SURFTAB2
 70
     6
  9
$SURFTYPE
 70
     6
  9
$SURFU
 70
     6
  9
$SURFV
 70
     6
  9
$UCSNAME
  2

  9
$UCSORG
 10
0.0
 20
0.0
 30
0.0
  9
$UCSXDIR
 10
1.0
 20
0.0
 30
0.0
  9
$UCSYDIR
 10
0.0
 20
1.0
 30
0.0
  9
$PUCSNAME
  2

  9
$PUCSORG
 10
0.0
 20
0.0
 30
0.0
  9
$PUCSXDIR
 10
1.0
 20
0.0
 30
0.0
  9
$PUCSYDIR
 10
0.0
 20
1.0
 30
0.0
  9
$USERI1
 70
     0
  9
$USERI2
 70
     0
  9
$USERI3
 70
     0
  9
$USERI4
 70
     0
  9
$USERI5
 70
     0
  9
$USERR1
 40
0.0
  9
$USERR2
 40
0.0
  9
$USERR3
 40
0.0
  9
$USERR4
 40
0.0
  9
$USERR5
 40
0.0
  9
$WORLDVIEW
 70
     1
  9
$SHADEDGE
 70
     3
  9
$SHADEDIF
 70
    70
  9
$TILEMODE
 70
     1
  9
$MAXACTVP
 70
    64
  9
$PLIMCHECK
 70
     0
  9
$PEXTMIN
 10
1.000000000000000E+20
 20
1.000000000000000E+20
 30
1.000000000000000E+20
  9
$PEXTMAX
 10
-1.000000000000000E+20
 20
-1.000000000000000E+20
 30
-1.000000000000000E+20
  9
$PLIMMIN
 10
0.0
 20
0.0
  9
$PLIMMAX
 10
12.0
 20
9.0
  9
$UNITMODE
 70
     0
  9
$VISRETAIN
 70
     1
  9
$PLINEGEN
 70
     0
  9
$PSLTSCALE
 70
     1
  0
ENDSEC
  0
SECTION
  2
TABLES
  0
TABLE
  2
VPORT
 70
     1
  0
VPORT
  2
*ACTIVE
 70
     0
 10
0.0
 20
0.0
 11
1.0
 21
1.0
 12
565.6201948388347
 22
1.587500000000006
 13
0.0
 23
0.0
 14
0.5
 24
0.5
 15
0.5
 25
0.5
 16
0.0
 26
0.0
 36
1.0
 17
0.0
 27
0.0
 37
0.0
 40
310.896
 41
0.9999999999999998
 42
50.0
 43
0.0
 44
0.0
 50
0.0
 51
0.0
 71
     0
 72
   100
 73
     1
 74
     3
 75
     0
 76
     0
 77
     0
 78
     0
  0
ENDTAB
  0
TABLE
  2
LTYPE
 70
     1
  0
LTYPE
  2
CONTINUOUS
 70
     0
  3
Solid line
 72
    65
 73
     0
 40
0.0
  0
ENDTAB
  0
TABLE
  2
LAYER
 70
     2
  0
LAYER
  2
0
 70
     0
 62
     7
  6
CONTINUOUS
  0
LAYER
  2
WHITE
 70
     0
 62
     1
  6
CONTINUOUS
  0
ENDTAB
  0
TABLE
  2
STYLE
 70
     1
  0
STYLE
  2
STANDARD
 70
     0
 40
0.0
 41
1.0
 50
0.0
 71
     0
 42
0.2
  3
txt
  4

  0
ENDTAB
  0
TABLE
  2
VIEW
 70
     0
  0
ENDTAB
  0
TABLE
  2
UCS
 70
     0
  0
ENDTAB
  0
TABLE
  2
APPID
 70
     1
  0
APPID
  2
ACAD
 70
     0
  0
ENDTAB
  0
TABLE
  2
DIMSTYLE
 70
     1
  0
DIMSTYLE
  2
STANDARD
 70
     0
  3

  4

  5

  6

  7

 40
1.0
 41
0.18
 42
0.0625
 43
0.38
 44
0.18
 45
0.0
 46
0.0
 47
0.0
 48
0.0
140
0.18
141
0.09
142
0.0
143
25.4
144
1.0
145
0.0
146
1.0
147
0.09
 71
     0
 72
     0
 73
     1
 74
     1
 75
     0
 76
     0
 77
     0
 78
     0
170
     0
171
     2
172
     0
173
     0
174
     0
175
     0
176
     0
177
     0
178
     0
  0
ENDTAB
  0
ENDSEC
  0
SECTION
  2
BLOCKS
  0
BLOCK
  8
0
  2
$MODEL_SPACE
 70
     0
 10
0.0
 20
0.0
 30
0.0
  3
$MODEL_SPACE
  1

  0
ENDBLK
  5
21
  8
0
  0
BLOCK
 67
     1
  8
0
  2
$PAPER_SPACE
 70
     0
 10
0.0
 20
0.0
 30
0.0
  3
$PAPER_SPACE
  1

  0
ENDBLK
  5
1D
 67
     1
  8
0
  0
ENDSEC
  0
SECTION
  2
ENTITIES
  0
POLYLINE
  5
6F
  8
WHITE
 66
     1
 10
0.0
 20
0.0
 30
0.0
 70
     1
  0
VERTEX
  5
70
  8
WHITE
 10
566.5361176593666
 20
143.8907050826202
 30
0.0
  0
VERTEX
  5
71
  8
WHITE
 10
563.3611176593666
 20
143.8907050826201
 30
0.0
  0
VERTEX
  5
72
  8
WHITE
 10
563.3611176593666
 20
68.10245631998686
 30
0.0
  0
VERTEX
  5
73
  8
WHITE
 10
576.4661176593667
 20
68.10245631998686
 30
0.0
  0
VERTEX
  5
74
  8
WHITE
 10
576.4661176593667
 20
70.60245631998686
 30
0.0
  0
VERTEX
  5
75
  8
WHITE
 10
579.7161176593667
 20
70.60245631998686
 30
0.0
  0
VERTEX
  5
76
  8
WHITE
 10
579.7161176593667
 20
68.10245631998686
 30
0.0
  0
VERTEX
  5
77
  8
WHITE
 10
581.7161176593669
 20
68.10245631998686
 30
0.0
  0
VERTEX
  5
78
  8
WHITE
 10
581.7161176593669
 20
64.92745631998685
 30
0.0
  0
VERTEX
  5
79
  8
WHITE
 10
579.7161176593667
 20
64.92745631998696
 30
0.0
  0
VERTEX
  5
7A
  8
WHITE
 10
579.7161176593667
 20
62.4274563199869
 30
0.0
  0
VERTEX
  5
7B
  8
WHITE
 10
576.4661176593667
 20
62.4274563199869
 30
0.0
  0
VERTEX
  5
7C
  8
WHITE
 10
576.4661176593667
 20
64.92745631998696
 30
0.0
  0
VERTEX
  5
7D
  8
WHITE
 10
563.3611176593666
 20
64.9274563199869
 30
0.0
  0
VERTEX
  5
7E
  8
WHITE
 10
563.3611176593666
 20
54.50853544737629
 30
0.0
  0
VERTEX
  5
7F
  8
WHITE
 10
566.5361176593666
 20
54.50853544737635
 30
0.0
  0
VERTEX
  5
80
  8
WHITE
 10
566.5361176593666
 20
49.50853544737629
 30
0.0
  0
VERTEX
  5
81
  8
WHITE
 10
674.6386878170572
 20
49.50853544737629
 30
0.0
  0
VERTEX
  5
82
  8
WHITE
 10
674.6386878170572
 20
54.50853544737635
 30
0.0
  0
VERTEX
  5
83
  8
WHITE
 10
677.8136878170571
 20
54.50853544737629
 30
0.0
  0
VERTEX
  5
84
  8
WHITE
 10
677.8136878170573
 20
97.61212026499817
 30
0.0
  0
VERTEX
  5
85
  8
WHITE
 10
672.1669983954505
 20
97.61212026499823
 30
0.0
  0
VERTEX
  5
86
  8
WHITE
 10
672.1669983954505
 20
95.11212026499817
 30
0.0
  0
VERTEX
  5
87
  8
WHITE
 10
668.9169983954505
 20
95.11212026499817
 30
0.0
  0
VERTEX
  5
88
  8
WHITE
 10
668.9169983954505
 20
97.61212026499823
 30
0.0
  0
VERTEX
  5
89
  8
WHITE
 10
667.9169983954504
 20
97.61212026499811
 30
0.0
  0
VERTEX
  5
8A
  8
WHITE
 10
667.9169983954504
 20
100.7871202649981
 30
0.0
  0
VERTEX
  5
8B
  8
WHITE
 10
668.9169983954505
 20
100.7871202649981
 30
0.0
  0
VERTEX
  5
8C
  8
WHITE
 10
668.9169983954505
 20
103.2871202649981
 30
0.0
  0
VERTEX
  5
8D
  8
WHITE
 10
672.1669983954505
 20
103.2871202649981
 30
0.0
  0
VERTEX
  5
8E
  8
WHITE
 10
672.1669983954505
 20
100.7871202649981
 30
0.0
  0
VERTEX
  5
8F
  8
WHITE
 10
677.8136878170573
 20
100.7871202649981
 30
0.0
  0
VERTEX
  5
90
  8
WHITE
 10
677.8136878170571
 20
143.8907050826201
 30
0.0
  0
VERTEX
  5
91
  8
WHITE
 10
674.6386878170572
 20
143.8907050826202
 30
0.0
  0
VERTEX
  5
92
  8
WHITE
 10
674.6386878170572
 20
148.8907050826201
 30
0.0
  0
VERTEX
  5
93
  8
WHITE
 10
566.5361176593666
 20
148.8907050826201
 30
0.0
  0
SEQEND
  5
94
  8
WHITE
  0
POLYLINE
  5
95
  8
WHITE
 66
     1
 10
0.0
 20
0.0
 30
0.0
 70
     1
  0
VERTEX
  5
96
  8
WHITE
 10
563.3611176593666
 20
64.9274563199869
 30
0.0
  0
VERTEX
  5
97
  8
WHITE
 10
563.3611176593666
 20
68.10245631998686
 30
0.0
  0
VERTEX
  5
98
  8
WHITE
 10
576.4661176593667
 20
68.10245631998686
 30
0.0
  0
VERTEX
  5
99
  8
WHITE
 10
576.4661176593667
 20
70.60245631998686
 30
0.0
  0
VERTEX
  5
9A
  8
WHITE
 10
579.7161176593667
 20
70.60245631998686
 30
0.0
  0
VERTEX
  5
9B
  8
WHITE
 10
579.7161176593667
 20
68.10245631998686
 30
0.0
  0
VERTEX
  5
9C
  8
WHITE
 10
581.7161176593669
 20
68.10245631998686
 30
0.0
  0
VERTEX
  5
9D
  8
WHITE
 10
581.7161176593669
 20
64.92745631998685
 30
0.0
  0
VERTEX
  5
9E
  8
WHITE
 10
579.7161176593667
 20
64.92745631998696
 30
0.0
  0
VERTEX
  5
9F
  8
WHITE
 10
579.7161176593667
 20
62.4274563199869
 30
0.0
  0
VERTEX
  5
A0
  8
WHITE
 10
576.4661176593667
 20
62.4274563199869
 30
0.0
  0
VERTEX
  5
A1
  8
WHITE
 10
576.4661176593667
 20
64.92745631998696
 30
0.0
  0
SEQEND
  5
A2
  8
WHITE
  0
POLYLINE
  5
A3
  8
WHITE
 66
     1
 10
0.0
 20
0.0
 30
0.0
 70
     1
  0
VERTEX
  5
A4
  8
WHITE
 10
664.467955001444
 20
61.25016191425192
 30
0.0
  0
VERTEX
  5
A5
  8
WHITE
 10
631.169859590095
 20
61.25016191425192
 30
0.0
  0
VERTEX
  5
A6
  8
WHITE
 10
631.169859590095
 20
64.42516191425193
 30
0.0
  0
VERTEX
  5
A7
  8
WHITE
 10
664.467955001444
 20
64.42516191425193
 30
0.0
  0
SEQEND
  5
A8
  8
WHITE
  0
POLYLINE
  5
A9
  8
WHITE
 66
     1
 10
0.0
 20
0.0
 30
0.0
 70
     1
  0
VERTEX
  5
AA
  8
WHITE
 10
664.4679550014441
 20
119.9990610681373
 30
0.0
  0
VERTEX
  5
AB
  8
WHITE
 10
664.4679550014441
 20
116.8240610681373
 30
0.0
  0
VERTEX
  5
AC
  8
WHITE
 10
631.169859590095
 20
116.8240610681373
 30
0.0
  0
VERTEX
  5
AD
  8
WHITE
 10
631.169859590095
 20
119.9990610681373
 30
0.0
  0
SEQEND
  5
AE
  8
WHITE
  0
POLYLINE
  5
AF
  8
WHITE
 66
     1
 10
0.0
 20
0.0
 30
0.0
 70
     1
  0
VERTEX
  5
B0
  8
WHITE
 10
572.3393732288035
 20
139.1751799135898
 30
0.0
 42
-0.4142132661046654
  0
VERTEX
  5
B1
  8
WHITE
 10
574.3393732288034
 20
137.1751799135897
 30
0.0
  0
VERTEX
  5
B2
  8
WHITE
 10
574.3393732288034
 20
128.0540549630419
 30
0.0
 42
-0.4142134636167938
  0
VERTEX
  5
B3
  8
WHITE
 10
572.3393732288035
 20
126.0540549630419
 30
0.0
  0
VERTEX
  5
B4
  8
WHITE
 10
571.2593732288035
 20
126.054054963042
 30
0.0
 42
-0.4142134636168697
  0
VERTEX
  5
B5
  8
WHITE
 10
569.2593732288035
 20
128.0540549630419
 30
0.0
  0
VERTEX
  5
B6
  8
WHITE
 10
569.2593732288036
 20
137.1751799135897
 30
0.0
 42
-0.414213266104496
  0
VERTEX
  5
B7
  8
WHITE
 10
571.2593732288035
 20
139.1751799135898
 30
0.0
  0
SEQEND
  5
B8
  8
WHITE
  0
CIRCLE
  5
B9
  8
WHITE
 10
541.6067928106314
 20
43.25675965597031
 30
0.0
 40
3.037157322577731
  0
CIRCLE
  5
BA
  8
WHITE
 10
526.7139980989814
 20
-28.90113491518801
 30
0.0
 40
1.500000000000089
  0
CIRCLE
  5
BB
  8
WHITE
 10
516.7139980989814
 20
-28.90113491518864
 30
0.0
 40
1.500000000000036
  0
CIRCLE
  5
BC
  8
WHITE
 10
516.7139980989814
 20
-33.90113491518862
 30
0.0
 40
1.500000000000014
  0
CIRCLE
  5
BD
  8
WHITE
 10
526.7139980989814
 20
-33.90113491518797
 30
0.0
 40
1.50000000000005
  0
CIRCLE
  5
BE
  8
WHITE
 10
449.7795936854779
 20
-33.90113491518832
 30
0.0
 40
1.500000000000057
  0
CIRCLE
  5
BF
  8
WHITE
 10
459.779593685478
 20
-33.90113491518821
 30
0.0
 40
1.499999999999943
  0
CIRCLE
  5
C0
  8
WHITE
 10
459.779593685478
 20
-28.90113491518827
 30
0.0
 40
1.5
  0
CIRCLE
  5
C1
  8
WHITE
 10
449.779593685478
 20
-28.90113491518827
 30
0.0
 40
1.5
  0
POLYLINE
  5
C2
  8
WHITE
 66
     1
 10
0.0
 20
0.0
 30
0.0
 70
     1
  0
VERTEX
  5
C3
  8
WHITE
 10
443.5557108197002
 20
-11.46824034402954
 30
0.0
  0
VERTEX
  5
C4
  8
WHITE
 10
443.5557108197002
 20
-8.29324034402947
 30
0.0
  0
VERTEX
  5
C5
  8
WHITE
 10
532.9378804549441
 20
-8.29324034402947
 30
0.0
  0
VERTEX
  5
C6
  8
WHITE
 10
532.9378804549441
 20
-11.46824034402954
 30
0.0
  0
SEQEND
  5
C7
  8
WHITE
  0
POLYLINE
  5
C8
  8
WHITE
 66
     1
 10
0.0
 20
0.0
 30
0.0
 70
     1
  0
VERTEX
  5
C9
  8
WHITE
 10
419.7802830477926
 20
-8.293240344029584
 30
0.0
  0
VERTEX
  5
CA
  8
WHITE
 10
419.7802830477925
 20
-28.06324034402945
 30
0.0
 42
0.4142135623730961
  0
VERTEX
  5
CB
  8
WHITE
 10
449.7802830477925
 20
-58.06324034402948
 30
0.0
  0
VERTEX
  5
CC
  8
WHITE
 10
526.7133082268516
 20
-58.06324034402946
 30
0.0
 42
0.4142135623730925
  0
VERTEX
  5
CD
  8
WHITE
 10
556.7133082268516
 20
-28.06324034402945
 30
0.0
  0
VERTEX
  5
CE
  8
WHITE
 10
556.7133082268516
 20
39.15447713610996
 30
0.0
 42
0.414213562373089
  0
VERTEX
  5
CF
  8
WHITE
 10
531.7133082268514
 20
64.1544771361097
 30
0.0
  0
VERTEX
  5
D0
  8
WHITE
 10
444.7802830477925
 20
64.15447713611054
 30
0.0
 42
0.4142135623730965
  0
VERTEX
  5
D1
  8
WHITE
 10
419.7802830477925
 20
39.15447713610996
 30
0.0
  0
SEQEND
  5
D2
  8
WHITE
  0
POLYLINE
  5
D3
  8
WHITE
 66
     1
 10
0.0
 20
0.0
 30
0.0
 70
     1
  0
VERTEX
  5
D4
  8
WHITE
 10
531.8517688406315
 20
50.53179265597049
 30
0.0
  0
VERTEX
  5
D5
  8
WHITE
 10
531.8517688406315
 20
-3.068273344029478
 30
0.0
  0
VERTEX
  5
D6
  8
WHITE
 10
444.6418167806314
 20
-3.068273344029478
 30
0.0
  0
VERTEX
  5
D7
  8
WHITE
 10
444.6418167806314
 20
50.53179265597049
 30
0.0
  0
SEQEND
  5
D8
  8
WHITE
  0
POLYLINE
  5
D9
  8
WHITE
 66
     1
 10
0.0
 20
0.0
 30
0.0
 70
     1
  0
VERTEX
  5
DA
  8
WHITE
 10
549.4367928106315
 20
8.421746020850662
 30
0.0
  0
VERTEX
  5
DB
  8
WHITE
 10
549.4367928106315
 20
42.22525264675261
 30
0.0
  0
VERTEX
  5
DC
  8
WHITE
 10
552.6117928106315
 20
42.22525264675261
 30
0.0
  0
VERTEX
  5
DD
  8
WHITE
 10
552.6117928106315
 20
8.421746020850662
 30
0.0
  0
SEQEND
  5
DE
  8
WHITE
  0
POLYLINE
  5
DF
  8
WHITE
 66
     1
 10
0.0
 20
0.0
 30
0.0
 70
     1
  0
VERTEX
  5
E0
  8
WHITE
 10
532.9378804549441
 20
55.97947713611012
 30
0.0
  0
VERTEX
  5
E1
  8
WHITE
 10
443.5557108197002
 20
55.97947713611012
 30
0.0
  0
VERTEX
  5
E2
  8
WHITE
 10
443.5557108197002
 20
59.15447713611007
 30
0.0
  0
VERTEX
  5
E3
  8
WHITE
 10
532.9378804549441
 20
59.15447713611007
 30
0.0
  0
SEQEND
  5
E4
  8
WHITE
  0
POLYLINE
  5
E5
  8
WHITE
 66
     1
 10
0.0
 20
0.0
 30
0.0
 70
     1
  0
VERTEX
  5
E6
  8
WHITE
 10
423.8817928106315
 20
8.421746020850662
 30
0.0
  0
VERTEX
  5
E7
  8
WHITE
 10
423.8817928106315
 20
42.22525264675261
 30
0.0
  0
VERTEX
  5
E8
  8
WHITE
 10
427.0567928106314
 20
42.22525264675261
 30
0.0
  0
VERTEX
  5
E9
  8
WHITE
 10
427.0567928106314
 20
8.421746020850662
 30
0.0
  0
SEQEND
  5
EA
  8
WHITE
  0
POLYLINE
  5
EB
  8
WHITE
 66
     1
 10
0.0
 20
0.0
 30
0.0
 70
     1
  0
VERTEX
  5
EC
  8
WHITE
 10
541.7747350010976
 20
32.11626294015645
 30
0.0
  0
VERTEX
  5
ED
  8
WHITE
 10
539.9588506201654
 20
32.11626294015642
 30
0.0
 42
-0.4142135623731107
  0
VERTEX
  5
EE
  8
WHITE
 10
538.9588506201654
 20
33.11626294015645
 30
0.0
  0
VERTEX
  5
EF
  8
WHITE
 10
538.9588506201654
 20
38.10725637178456
 30
0.0
 42
-0.4142135623731911
  0
VERTEX
  5
F0
  8
WHITE
 10
539.9588506201654
 20
39.10725637178453
 30
0.0
  0
VERTEX
  5
F1
  8
WHITE
 10
541.7747350010975
 20
39.10725637178456
 30
0.0
 42
-0.4142135623730868
  0
VERTEX
  5
F2
  8
WHITE
 10
542.7747350010975
 20
38.10725637178456
 30
0.0
  0
VERTEX
  5
F3
  8
WHITE
 10
542.7747350010975
 20
33.11626294015633
 30
0.0
 42
-0.4142135623731371
  0
SEQEND
  5
F4
  8
WHITE
  0
POLYLINE
  5
F5
  8
WHITE
 66
     1
 10
0.0
 20
0.0
 30
0.0
 70
     1
  0
VERTEX
  5
F6
  8
WHITE
 10
437.9576118276259
 20
13.76494280883611
 30
0.0
  0
VERTEX
  5
F7
  8
WHITE
 10
435.8059203250099
 20
13.76494280883611
 30
0.0
 42
-0.4142135623730989
  0
VERTEX
  5
F8
  8
WHITE
 10
432.80592032501
 20
16.76494280883611
 30
0.0
  0
VERTEX
  5
F9
  8
WHITE
 10
432.8059203250099
 20
30.6985765031049
 30
0.0
 42
-0.4142135623730665
  0
VERTEX
  5
FA
  8
WHITE
 10
435.8059203250099
 20
33.69857650310493
 30
0.0
  0
VERTEX
  5
FB
  8
WHITE
 10
437.9576118276259
 20
33.69857650310493
 30
0.0
 42
-0.4142135623731329
  0
VERTEX
  5
FC
  8
WHITE
 10
440.9576118276258
 20
30.6985765031049
 30
0.0
  0
VERTEX
  5
FD
  8
WHITE
 10
440.9576118276258
 20
16.76494280883622
 30
0.0
 42
-0.4142135623730787
  0
SEQEND
  5
FE
  8
WHITE
  0
POLYLINE
  5
FF
  8
WHITE
 66
     1
 10
0.0
 20
0.0
 30
0.0
 70
     1
  0
VERTEX
  5
100
  8
WHITE
 10
427.0062830477926
 20
-40.24109735035427
 30
0.0
  0
VERTEX
  5
101
  8
WHITE
 10
427.0062830477926
 20
-18.24575925826269
 30
0.0
  0
VERTEX
  5
102
  8
WHITE
 10
430.1812830477926
 20
-18.24575925826269
 30
0.0
  0
VERTEX
  5
103
  8
WHITE
 10
430.1812830477926
 20
-40.24109735035427
 30
0.0
  0
SEQEND
  5
104
  8
WHITE
  0
POLYLINE
  5
105
  8
WHITE
 66
     1
 10
0.0
 20
0.0
 30
0.0
 70
     1
  0
VERTEX
  5
106
  8
WHITE
 10
532.9378804549441
 20
-54.06324034402951
 30
0.0
  0
VERTEX
  5
107
  8
WHITE
 10
443.5557108197002
 20
-54.06324034402951
 30
0.0
  0
VERTEX
  5
108
  8
WHITE
 10
443.5557108197002
 20
-50.8882403440295
 30
0.0
  0
VERTEX
  5
109
  8
WHITE
 10
532.9378804549441
 20
-50.8882403440295
 30
0.0
  0
SEQEND
  5
10A
  8
WHITE
  0
POLYLINE
  5
10B
  8
WHITE
 66
     1
 10
0.0
 20
0.0
 30
0.0
 70
     1
  0
VERTEX
  5
10C
  8
WHITE
 10
546.3124664095807
 20
-40.24109735035427
 30
0.0
  0
VERTEX
  5
10D
  8
WHITE
 10
546.3124664095807
 20
-18.24575925826269
 30
0.0
  0
VERTEX
  5
10E
  8
WHITE
 10
549.4874664095807
 20
-18.24575925826269
 30
0.0
  0
VERTEX
  5
10F
  8
WHITE
 10
549.4874664095807
 20
-40.24109735035427
 30
0.0
  0
SEQEND
  5
110
  8
WHITE
  0
POLYLINE
  5
111
  8
WHITE
 66
     1
 10
0.0
 20
0.0
 30
0.0
 70
     1
  0
VERTEX
  5
112
  8
WHITE
 10
479.3946153455601
 20
-26.76773647496958
 30
0.0
  0
VERTEX
  5
113
  8
WHITE
 10
497.0989759290842
 20
-26.76773647496958
 30
0.0
  0
VERTEX
  5
114
  8
WHITE
 10
495.0809903820463
 20
-35.01386324631716
 30
0.0
 42
-0.3455427529504865
  0
VERTEX
  5
115
  8
WHITE
 10
490.2243033082137
 20
-38.82533867069044
 30
0.0
  0
VERTEX
  5
116
  8
WHITE
 10
486.2692879664305
 20
-38.82533867069035
 30
0.0
 42
-0.3455427529505373
  0
VERTEX
  5
117
  8
WHITE
 10
481.412600892598
 20
-35.01386324631727
 30
0.0
  0
SEQEND
  5
118
  8
WHITE
  0
POLYLINE
  5
119
  8
WHITE
 66
     1
 10
0.0
 20
0.0
 30
0.0
 70
     1
  0
VERTEX
  5
11A
  8
WHITE
 10
656.6211086066073
 20
-62.07142720760331
 30
0.0
  0
VERTEX
  5
11B
  8
WHITE
 10
656.6211086066073
 20
-58.89642720760337
 30
0.0
  0
VERTEX
  5
11C
  8
WHITE
 10
567.2389389713635
 20
-58.89642720760337
 30
0.0
  0
VERTEX
  5
11D
  8
WHITE
 10
567.2389389713635
 20
-62.07142720760331
 30
0.0
  0
VERTEX
  5
11E
  8
WHITE
 10
562.2389389713635
 20
-62.07142720760332
 30
0.0
  0
VERTEX
  5
11F
  8
WHITE
 10
562.2389389713635
 20
-112.3914144076031
 30
0.0
  0
VERTEX
  5
120
  8
WHITE
 10
567.2389389713635
 20
-112.3914144076031
 30
0.0
  0
VERTEX
  5
121
  8
WHITE
 10
567.2389389713635
 20
-115.5664144076031
 30
0.0
  0
VERTEX
  5
122
  8
WHITE
 10
656.6211086066073
 20
-115.5664144076031
 30
0.0
  0
VERTEX
  5
123
  8
WHITE
 10
656.6211086066073
 20
-112.3914144076031
 30
0.0
  0
VERTEX
  5
124
  8
WHITE
 10
661.6211086066073
 20
-112.3914144076031
 30
0.0
  0
VERTEX
  5
125
  8
WHITE
 10
661.6211086066073
 20
-62.07142720760332
 30
0.0
  0
SEQEND
  5
126
  8
WHITE
  0
POLYLINE
  5
127
  8
WHITE
 66
     1
 10
0.0
 20
0.0
 30
0.0
 70
     1
  0
VERTEX
  5
128
  8
WHITE
 10
566.5361154175164
 20
39.39027645103521
 30
0.0
  0
VERTEX
  5
129
  8
WHITE
 10
563.3611154175165
 20
39.39027645103521
 30
0.0
  0
VERTEX
  5
12A
  8
WHITE
 10
563.3611154175165
 20
-26.39797231159845
 30
0.0
  0
VERTEX
  5
12B
  8
WHITE
 10
576.8411154175166
 20
-26.39797231159845
 30
0.0
  0
VERTEX
  5
12C
  8
WHITE
 10
576.8411154175166
 20
-23.89797231159845
 30
0.0
  0
VERTEX
  5
12D
  8
WHITE
 10
580.0911154175166
 20
-23.89797231159845
 30
0.0
  0
VERTEX
  5
12E
  8
WHITE
 10
580.0911154175166
 20
-26.39797231159845
 30
0.0
  0
VERTEX
  5
12F
  8
WHITE
 10
581.0911154175166
 20
-26.39797231159834
 30
0.0
  0
VERTEX
  5
130
  8
WHITE
 10
581.0911154175166
 20
-29.57297231159841
 30
0.0
  0
VERTEX
  5
131
  8
WHITE
 10
580.0911154175166
 20
-29.57297231159841
 30
0.0
  0
VERTEX
  5
132
  8
WHITE
 10
580.0911154175166
 20
-32.07297231159841
 30
0.0
  0
VERTEX
  5
133
  8
WHITE
 10
576.8411154175166
 20
-32.07297231159841
 30
0.0
  0
VERTEX
  5
134
  8
WHITE
 10
576.8411154175166
 20
-29.57297231159841
 30
0.0
  0
VERTEX
  5
135
  8
WHITE
 10
563.3611154175165
 20
-29.57297231159841
 30
0.0
  0
VERTEX
  5
136
  8
WHITE
 10
563.3611154175165
 20
-49.99189318420862
 30
0.0
  0
VERTEX
  5
137
  8
WHITE
 10
566.5361154175164
 20
-49.99189318420862
 30
0.0
  0
VERTEX
  5
138
  8
WHITE
 10
566.5361154175165
 20
-54.99189318420862
 30
0.0
  0
VERTEX
  5
139
  8
WHITE
 10
674.6386855752072
 20
-54.99189318420862
 30
0.0
  0
VERTEX
  5
13A
  8
WHITE
 10
674.6386855752072
 20
-49.99189318420862
 30
0.0
  0
VERTEX
  5
13B
  8
WHITE
 10
677.8136855752072
 20
-49.99189318420862
 30
0.0
  0
VERTEX
  5
13C
  8
WHITE
 10
677.8136855752072
 20
-6.888308587568773
 30
0.0
  0
VERTEX
  5
13D
  8
WHITE
 10
672.1669961536003
 20
-6.888308587568773
 30
0.0
  0
VERTEX
  5
13E
  8
WHITE
 10
672.1669961536003
 20
-9.388308587568773
 30
0.0
  0
VERTEX
  5
13F
  8
WHITE
 10
668.9169961536003
 20
-9.388308587568773
 30
0.0
  0
VERTEX
  5
140
  8
WHITE
 10
668.9169961536003
 20
-6.888308587568773
 30
0.0
  0
VERTEX
  5
141
  8
WHITE
 10
667.9169961536003
 20
-6.888308587568773
 30
0.0
  0
VERTEX
  5
142
  8
WHITE
 10
667.9169961536003
 20
-3.713308587568704
 30
0.0
  0
VERTEX
  5
143
  8
WHITE
 10
668.9169961536003
 20
-3.713308587568818
 30
0.0
  0
VERTEX
  5
144
  8
WHITE
 10
668.9169961536003
 20
-1.213308587568818
 30
0.0
  0
VERTEX
  5
145
  8
WHITE
 10
672.1669961536003
 20
-1.213308587568818
 30
0.0
  0
VERTEX
  5
146
  8
WHITE
 10
672.1669961536003
 20
-3.713308587568818
 30
0.0
  0
VERTEX
  5
147
  8
WHITE
 10
677.8136855752072
 20
-3.713308587568818
 30
0.0
  0
VERTEX
  5
148
  8
WHITE
 10
677.8136855752072
 20
39.39027645103521
 30
0.0
  0
VERTEX
  5
149
  8
WHITE
 10
674.6386855752072
 20
39.39027645103521
 30
0.0
  0
VERTEX
  5
14A
  8
WHITE
 10
674.6386855752072
 20
44.39027645103521
 30
0.0
  0
VERTEX
  5
14B
  8
WHITE
 10
566.5361154175165
 20
44.39027645103521
 30
0.0
  0
SEQEND
  5
14C
  8
WHITE
  0
POLYLINE
  5
14D
  8
WHITE
 66
     1
 10
0.0
 20
0.0
 30
0.0
 70
     1
  0
VERTEX
  5
14E
  8
WHITE
 10
572.3393709869455
 20
7.925366477387215
 30
0.0
  0
VERTEX
  5
14F
  8
WHITE
 10
571.2593709869453
 20
7.925366477387314
 30
0.0
 42
-0.4142135623731747
  0
VERTEX
  5
150
  8
WHITE
 10
569.2593709869456
 20
9.925366477387328
 30
0.0
  0
VERTEX
  5
151
  8
WHITE
 10
569.2593709869453
 20
29.39301113605801
 30
0.0
 42
-0.4142135623730883
  0
VERTEX
  5
152
  8
WHITE
 10
571.2593709869453
 20
31.39301113605796
 30
0.0
  0
VERTEX
  5
153
  8
WHITE
 10
572.3393709869455
 20
31.39301113605796
 30
0.0
 42
-0.4142135623731025
  0
VERTEX
  5
154
  8
WHITE
 10
574.3393709869455
 20
29.39301113605789
 30
0.0
  0
VERTEX
  5
155
  8
WHITE
 10
574.3393709869455
 20
9.925366477387328
 30
0.0
 42
-0.4142135623728933
  0
SEQEND
  5
156
  8
WHITE
  0
POLYLINE
  5
157
  8
WHITE
 66
     1
 10
0.0
 20
0.0
 30
0.0
 70
     1
  0
VERTEX
  5
158
  8
WHITE
 10
578.2661026175164
 20
31.39301113605767
 30
0.0
  0
VERTEX
  5
159
  8
WHITE
 10
581.4411026175165
 20
31.39301113605767
 30
0.0
  0
VERTEX
  5
15A
  8
WHITE
 10
581.4411026175165
 20
-3.713308697185212
 30
0.0
  0
VERTEX
  5
15B
  8
WHITE
 10
589.8211026175164
 20
-3.713308697185212
 30
0.0
  0
VERTEX
  5
15C
  8
WHITE
 10
589.8211026175164
 20
-0.3008086971851895
 30
0.0
  0
VERTEX
  5
15D
  8
WHITE
 10
592.9961026175164
 20
-0.3008086971851895
 30
0.0
  0
VERTEX
  5
15E
  8
WHITE
 10
592.9961026175164
 20
3.69919130281481
 30
0.0
  0
VERTEX
  5
15F
  8
WHITE
 10
602.9958365824333
 20
3.69919130281481
 30
0.0
  0
VERTEX
  5
160
  8
WHITE
 10
602.9958365824333
 20
-14.30080869718519
 30
0.0
  0
VERTEX
  5
161
  8
WHITE
 10
592.9961026175164
 20
-14.3008086971853
 30
0.0
  0
VERTEX
  5
162
  8
WHITE
 10
592.9961026175164
 20
-10.3008086971853
 30
0.0
  0
VERTEX
  5
163
  8
WHITE
 10
589.8211026175164
 20
-10.30080869718519
 30
0.0
  0
VERTEX
  5
164
  8
WHITE
 10
589.8211026175164
 20
-6.888308697185167
 30
0.0
  0
VERTEX
  5
165
  8
WHITE
 10
581.4411026175165
 20
-6.88830869718528
 30
0.0
  0
VERTEX
  5
166
  8
WHITE
 10
581.4411026175165
 20
-11.99462786923108
 30
0.0
  0
VERTEX
  5
167
  8
WHITE
 10
578.2661026175164
 20
-11.99462786923108
 30
0.0
  0
VERTEX
  5
168
  8
WHITE
 10
578.2661026175164
 20
-6.88830869718528
 30
0.0
  0
VERTEX
  5
169
  8
WHITE
 10
577.2661026174795
 20
-6.888308697185167
 30
0.0
  0
VERTEX
  5
16A
  8
WHITE
 10
577.2661026174795
 20
-3.713308697185212
 30
0.0
  0
VERTEX
  5
16B
  8
WHITE
 10
578.2661026175164
 20
-3.713308697185326
 30
0.0
  0
SEQEND
  5
16C
  8
WHITE
  0
POLYLINE
  5
16D
  8
WHITE
 66
     1
 10
0.0
 20
0.0
 30
0.0
 70
     1
  0
VERTEX
  5
16E
  8
WHITE
 10
434.7802827928848
 20
68.25476168118763
 30
0.0
  0
VERTEX
  5
16F
  8
WHITE
 10
541.7133079719439
 20
68.25476168118753
 30
0.0
 42
0.4142135623731013
  0
VERTEX
  5
170
  8
WHITE
 10
556.7133079719439
 20
83.25476168118763
 30
0.0
  0
VERTEX
  5
171
  8
WHITE
 10
556.7133079719439
 20
123.877479161327
 30
0.0
 42
0.4142135623730902
  0
VERTEX
  5
172
  8
WHITE
 10
531.7133079719437
 20
148.8774791613267
 30
0.0
  0
VERTEX
  5
173
  8
WHITE
 10
444.7802827928847
 20
148.8774791613276
 30
0.0
 42
0.4142135623730955
  0
VERTEX
  5
174
  8
WHITE
 10
419.7802827928848
 20
123.877479161327
 30
0.0
  0
VERTEX
  5
175
  8
WHITE
 10
419.7802827928848
 20
83.25476168118763
 30
0.0
 42
0.4142135623730958
  0
SEQEND
  5
176
  8
WHITE
  0
POLYLINE
  5
177
  8
WHITE
 66
     1
 10
0.0
 20
0.0
 30
0.0
 70
     1
  0
VERTEX
  5
178
  8
WHITE
 10
549.4367925557236
 20
93.14474804606772
 30
0.0
  0
VERTEX
  5
179
  8
WHITE
 10
549.4367925557236
 20
126.9482546719697
 30
0.0
  0
VERTEX
  5
17A
  8
WHITE
 10
552.6117925557237
 20
126.9482546719697
 30
0.0
  0
VERTEX
  5
17B
  8
WHITE
 10
552.6117925557237
 20
93.14474804606772
 30
0.0
  0
SEQEND
  5
17C
  8
WHITE
  0
POLYLINE
  5
17D
  8
WHITE
 66
     1
 10
0.0
 20
0.0
 30
0.0
 70
     1
  0
VERTEX
  5
17E
  8
WHITE
 10
532.9378802000363
 20
140.7024791613272
 30
0.0
  0
VERTEX
  5
17F
  8
WHITE
 10
443.5557105647924
 20
140.7024791613272
 30
0.0
  0
VERTEX
  5
180
  8
WHITE
 10
443.5557105647924
 20
143.8774791613271
 30
0.0
  0
VERTEX
  5
181
  8
WHITE
 10
532.9378802000363
 20
143.8774791613271
 30
0.0
  0
SEQEND
  5
182
  8
WHITE
  0
POLYLINE
  5
183
  8
WHITE
 66
     1
 10
0.0
 20
0.0
 30
0.0
 70
     1
  0
VERTEX
  5
184
  8
WHITE
 10
423.8817925557237
 20
93.14474804606772
 30
0.0
  0
VERTEX
  5
185
  8
WHITE
 10
423.8817925557237
 20
126.9482546719697
 30
0.0
  0
VERTEX
  5
186
  8
WHITE
 10
427.0567925557236
 20
126.9482546719697
 30
0.0
  0
VERTEX
  5
187
  8
WHITE
 10
427.0567925557236
 20
93.14474804606772
 30
0.0
  0
SEQEND
  5
188
  8
WHITE
  0
POLYLINE
  5
189
  8
WHITE
 66
     1
 10
0.0
 20
0.0
 30
0.0
 70
     1
  0
VERTEX
  5
18A
  8
WHITE
 10
532.9378802000363
 20
73.25476168118763
 30
0.0
  0
VERTEX
  5
18B
  8
WHITE
 10
443.5557105647924
 20
73.25476168118763
 30
0.0
  0
VERTEX
  5
18C
  8
WHITE
 10
443.5557105647924
 20
76.4297616811877
 30
0.0
  0
VERTEX
  5
18D
  8
WHITE
 10
532.9378802000363
 20
76.4297616811877
 30
0.0
  0
SEQEND
  5
18E
  8
WHITE
  0
CIRCLE
  5
18F
  8
WHITE
 10
536.5063520043648
 20
-93.70508536449995
 30
0.0
 40
4.500000000000114
  0
POLYLINE
  5
190
  8
WHITE
 66
     1
 10
0.0
 20
0.0
 30
0.0
 70
     1
  0
VERTEX
  5
191
  8
WHITE
 10
551.4128674205849
 20
-63.3826042787332
 30
0.0
  0
VERTEX
  5
192
  8
WHITE
 10
424.4798422415258
 20
-63.3826042787332
 30
0.0
 42
0.4142135623730936
  0
VERTEX
  5
193
  8
WHITE
 10
419.4798422415258
 20
-68.3826042787332
 30
0.0
  0
VERTEX
  5
194
  8
WHITE
 10
419.4798422415258
 20
-78.20008536449996
 30
0.0
 42
0.4142135623730961
  0
VERTEX
  5
195
  8
WHITE
 10
449.4798422415257
 20
-108.2000853645
 30
0.0
  0
VERTEX
  5
196
  8
WHITE
 10
526.4128674205849
 20
-108.2000853645
 30
0.0
 42
0.4142135623730943
  0
VERTEX
  5
197
  8
WHITE
 10
556.4128674205849
 20
-78.20008536449996
 30
0.0
  0
VERTEX
  5
198
  8
WHITE
 10
556.4128674205849
 20
-68.3826042787332
 30
0.0
 42
0.4142135623730866
  0
SEQEND
  5
199
  8
WHITE
  0
POLYLINE
  5
19A
  8
WHITE
 66
     1
 10
0.0
 20
0.0
 30
0.0
 70
     1
  0
VERTEX
  5
19B
  8
WHITE
 10
426.7058422415258
 20
-90.37794237082477
 30
0.0
  0
VERTEX
  5
19C
  8
WHITE
 10
426.7058422415258
 20
-68.3826042787332
 30
0.0
  0
VERTEX
  5
19D
  8
WHITE
 10
429.8808422415258
 20
-68.3826042787332
 30
0.0
  0
VERTEX
  5
19E
  8
WHITE
 10
429.8808422415258
 20
-90.37794237082477
 30
0.0
  0
SEQEND
  5
19F
  8
WHITE
  0
POLYLINE
  5
1A0
  8
WHITE
 66
     1
 10
0.0
 20
0.0
 30
0.0
 70
     1
  0
VERTEX
  5
1A1
  8
WHITE
 10
532.6374396486773
 20
-104.2000853645
 30
0.0
  0
VERTEX
  5
1A2
  8
WHITE
 10
443.2552700134335
 20
-104.2000853645
 30
0.0
  0
VERTEX
  5
1A3
  8
WHITE
 10
443.2552700134335
 20
-101.0250853645
 30
0.0
  0
VERTEX
  5
1A4
  8
WHITE
 10
532.6374396486773
 20
-101.0250853645
 30
0.0
  0
SEQEND
  5
1A5
  8
WHITE
  0
POLYLINE
  5
1A6
  8
WHITE
 66
     1
 10
0.0
 20
0.0
 30
0.0
 70
     1
  0
VERTEX
  5
1A7
  8
WHITE
 10
546.012025603314
 20
-90.37794237082477
 30
0.0
  0
VERTEX
  5
1A8
  8
WHITE
 10
546.012025603314
 20
-68.3826042787332
 30
0.0
  0
VERTEX
  5
1A9
  8
WHITE
 10
549.1870256033139
 20
-68.3826042787332
 30
0.0
  0
VERTEX
  5
1AA
  8
WHITE
 10
549.1870256033139
 20
-90.37794237082477
 30
0.0
  0
SEQEND
  5
1AB
  8
WHITE
  0
CIRCLE
  5
1AC
  8
WHITE
 10
442.4818901656575
 20
-129.2313652928178
 30
0.0
 40
2.04000000000002
  0
POLYLINE
  5
1AD
  8
WHITE
 66
     1
 10
0.0
 20
0.0
 30
0.0
 70
     1
  0
VERTEX
  5
1AE
  8
WHITE
 10
481.6224991823981
 20
-114.2608308311495
 30
0.0
  0
VERTEX
  5
1AF
  8
WHITE
 10
423.9412811489169
 20
-114.2608308311495
 30
0.0
 42
0.4142135623731118
  0
VERTEX
  5
1B0
  8
WHITE
 10
421.9412811489169
 20
-116.2608308311495
 30
0.0
  0
VERTEX
  5
1B1
  8
WHITE
 10
421.9412811489169
 20
-142.2018997544864
 30
0.0
 42
0.4142135623731021
  0
VERTEX
  5
1B2
  8
WHITE
 10
423.9412811489168
 20
-144.2018997544864
 30
0.0
  0
VERTEX
  5
1B3
  8
WHITE
 10
481.6224991823981
 20
-144.2018997544864
 30
0.0
 42
0.4142135623731253
  0
VERTEX
  5
1B4
  8
WHITE
 10
483.6224991823981
 20
-142.2018997544864
 30
0.0
  0
VERTEX
  5
1B5
  8
WHITE
 10
483.6224991823981
 20
-116.2608308311495
 30
0.0
 42
0.4142135623731557
  0
SEQEND
  5
1B6
  8
WHITE
  0
POLYLINE
  5
1B7
  8
WHITE
 66
     1
 10
0.0
 20
0.0
 30
0.0
 70
     1
  0
VERTEX
  5
1B8
  8
WHITE
 10
430.1163531975806
 20
-139.2018997544864
 30
0.0
  0
VERTEX
  5
1B9
  8
WHITE
 10
426.9413531975806
 20
-139.2018997544864
 30
0.0
  0
VERTEX
  5
1BA
  8
WHITE
 10
426.9413531975806
 20
-119.2608308311496
 30
0.0
  0
VERTEX
  5
1BB
  8
WHITE
 10
430.1163531975806
 20
-119.2608308311496
 30
0.0
  0
SEQEND
  5
1BC
  8
WHITE
  0
POLYLINE
  5
1BD
  8
WHITE
 66
     1
 10
0.0
 20
0.0
 30
0.0
 70
     1
  0
VERTEX
  5
1BE
  8
WHITE
 10
478.6224270164296
 20
-139.2018997544864
 30
0.0
  0
VERTEX
  5
1BF
  8
WHITE
 10
475.4474270164296
 20
-139.2018997544864
 30
0.0
  0
VERTEX
  5
1C0
  8
WHITE
 10
475.4474270164296
 20
-119.2608308311496
 30
0.0
  0
VERTEX
  5
1C1
  8
WHITE
 10
478.6224270164296
 20
-119.2608308311496
 30
0.0
  0
SEQEND
  5
1C2
  8
WHITE
  0
POLYLINE
  5
1C3
  8
WHITE
 66
     1
 10
0.0
 20
0.0
 30
0.0
 70
     1
  0
VERTEX
  5
1C4
  8
WHITE
 10
491.4056382659614
 20
-144.2019023401882
 30
0.0
  0
VERTEX
  5
1C5
  8
WHITE
 10
549.0868562994426
 20
-144.2019023401882
 30
0.0
 42
0.414213562373098
  0
VERTEX
  5
1C6
  8
WHITE
 10
551.0868562994426
 20
-142.2019023401882
 30
0.0
  0
VERTEX
  5
1C7
  8
WHITE
 10
551.0868562994426
 20
-116.2608334168513
 30
0.0
 42
0.4142135623731675
  0
VERTEX
  5
1C8
  8
WHITE
 10
549.0868562994426
 20
-114.2608334168514
 30
0.0
  0
VERTEX
  5
1C9
  8
WHITE
 10
491.4056382659614
 20
-114.2608334168513
 30
0.0
 42
0.4142135623730842
  0
VERTEX
  5
1CA
  8
WHITE
 10
489.4056382659614
 20
-116.2608334168513
 30
0.0
  0
VERTEX
  5
1CB
  8
WHITE
 10
489.4056382659614
 20
-142.2019023401882
 30
0.0
 42
0.4142135623731354
  0
SEQEND
  5
1CC
  8
WHITE
  0
POLYLINE
  5
1CD
  8
WHITE
 66
     1
 10
0.0
 20
0.0
 30
0.0
 70
     1
  0
VERTEX
  5
1CE
  8
WHITE
 10
542.911784250779
 20
-119.2608334168513
 30
0.0
  0
VERTEX
  5
1CF
  8
WHITE
 10
546.0867842507789
 20
-119.2608334168513
 30
0.0
  0
VERTEX
  5
1D0
  8
WHITE
 10
546.0867842507791
 20
-139.201902340188
 30
0.0
  0
VERTEX
  5
1D1
  8
WHITE
 10
542.911784250779
 20
-139.201902340188
 30
0.0
  0
SEQEND
  5
1D2
  8
WHITE
  0
POLYLINE
  5
1D3
  8
WHITE
 66
     1
 10
0.0
 20
0.0
 30
0.0
 70
     1
  0
VERTEX
  5
1D4
  8
WHITE
 10
494.40571043193
 20
-119.2608334168513
 30
0.0
  0
VERTEX
  5
1D5
  8
WHITE
 10
497.58071043193
 20
-119.2608334168513
 30
0.0
  0
VERTEX
  5
1D6
  8
WHITE
 10
497.5807104319301
 20
-139.201902340188
 30
0.0
  0
VERTEX
  5
1D7
  8
WHITE
 10
494.40571043193
 20
-139.201902340188
 30
0.0
  0
SEQEND
  5
1D8
  8
WHITE
  0
POLYLINE
  5
1D9
  8
WHITE
 66
     1
 10
0.0
 20
0.0
 30
0.0
 70
     1
  0
VERTEX
  5
1DA
  8
WHITE
 10
499.335645576027
 20
-119.037697912506
 30
0.0
  0
VERTEX
  5
1DB
  8
WHITE
 10
541.1568420457133
 20
-119.037697912506
 30
0.0
  0
VERTEX
  5
1DC
  8
WHITE
 10
541.1568420457133
 20
-139.4250378369041
 30
0.0
  0
VERTEX
  5
1DD
  8
WHITE
 10
499.335645576027
 20
-139.4250378369041
 30
0.0
  0
SEQEND
  5
1DE
  8
WHITE
  0
POLYLINE
  5
1DF
  8
WHITE
 66
     1
 10
0.0
 20
0.0
 30
0.0
 70
     1
  0
VERTEX
  5
1E0
  8
WHITE
 10
413.2201948388346
 20
-150.8125
 30
0.0
  0
VERTEX
  5
1E1
  8
WHITE
 10
718.0201948388346
 20
-150.8125
 30
0.0
  0
VERTEX
  5
1E2
  8
WHITE
 10
718.0201948388346
 20
153.9875
 30
0.0
  0
VERTEX
  5
1E3
  8
WHITE
 10
413.2201948388346
 20
153.9875
 30
0.0
  0
SEQEND
  5
1E4
  8
WHITE
  0
ENDSEC
  0
EOF
